<?xml version="1.0" encoding="UTF-8" standalone="no"?>
<svg
   xmlns:dc="http://purl.org/dc/elements/1.1/"
   xmlns:cc="http://creativecommons.org/ns#"
   xmlns:rdf="http://www.w3.org/1999/02/22-rdf-syntax-ns#"
   xmlns:svg="http://www.w3.org/2000/svg"
   xmlns="http://www.w3.org/2000/svg"
   xmlns:xlink="http://www.w3.org/1999/xlink"
   xmlns:sodipodi="http://sodipodi.sourceforge.net/DTD/sodipodi-0.dtd"
   xmlns:inkscape="http://www.inkscape.org/namespaces/inkscape"
   version="1.1"
   width="30"
   height="380"
   viewBox="0 0 30 380"
   id="svg173"
   sodipodi:docname="ATV.svg"
   inkscape:version="1.0.2 (e86c8708, 2021-01-15)">
  <metadata
     id="metadata177">
    <rdf:RDF>
      <cc:Work
         rdf:about="">
        <dc:format>image/svg+xml</dc:format>
        <dc:type
           rdf:resource="http://purl.org/dc/dcmitype/StillImage" />
      </cc:Work>
    </rdf:RDF>
  </metadata>
  <sodipodi:namedview
     pagecolor="#ffffff"
     bordercolor="#666666"
     borderopacity="1"
     objecttolerance="10"
     gridtolerance="10"
     guidetolerance="10"
     inkscape:pageopacity="0"
     inkscape:pageshadow="2"
     inkscape:window-width="689"
     inkscape:window-height="480"
     id="namedview175"
     showgrid="false"
     inkscape:zoom="2.1763158"
     inkscape:cx="15"
     inkscape:cy="190"
     inkscape:window-x="0"
     inkscape:window-y="25"
     inkscape:window-maximized="0"
     inkscape:current-layer="svg173" />
  <!-- ============== styles ============== -->
  <style
     id="style2">

    text.title {
      fill: #a91913;
      font-family: 'DIN Alternate';
      font-size: 11.5pt;
    }
    text.logo {
      fill: #a91913;
      font-family: 'DIN Alternate';
      font-size: 10pt;
    }
    text.big-label {
      fill: #343434;
      font-family: 'DIN Alternate';
      font-size: 7.5pt;
    }
    text.label {
      fill: #343434;
      font-family: 'DIN Alternate';
      font-size: 6pt;
    }
    text.white-label {
      fill: #dfdfdf;
      font-family: 'DIN Alternate';
      font-size: 6pt;
    }

    .background {
      fill: #dfdfdf;
    }
    .polyphonic {
      fill: #558955;
    }
    .monophonic {
      fill: #5b719e;
    }

    polyline.icon {
      stroke: #343434;
      stroke-width: 1.2;
      fill: none;
    }
    polyline.connect {
      stroke: #343434;
      stroke-width: 1;
      fill: none;
    }

    rect.lcd-bg {
      fill: #121212;
    }
    rect.lcd-bg-frame {
      fill: #888888;
    }
    rect.lcd-bg-accent {
      fill: #2a2a2a;
    }
    text.lcd-label {
      fill: #777777;
      font-family: 'Monaco';
      font-size: 5pt;
    }
    polyline.lcd-tick {
      stroke: #707070;
      stroke-width: 1;
      fill: none;
    }

    .blueprint {
      stroke: #838598;
      fill: none;
    }

  </style>
  <!-- ============== defs ============== -->
  <defs
     id="defs105">
    <linearGradient
       id="smallKnobLight"
       x1="0%"
       y1="0%"
       x2="0%"
       y2="100%">
      <stop
         offset="0%"
         stop-color="#6f6f6f"
         id="stop4" />
      <stop
         offset="100%"
         stop-color="#383838"
         id="stop6" />
    </linearGradient>
    <linearGradient
       id="smallKnobDark"
       x1="0%"
       y1="0%"
       x2="0%"
       y2="100%">
      <stop
         offset="0%"
         stop-color="#494949"
         id="stop9" />
      <stop
         offset="100%"
         stop-color="#282828"
         id="stop11" />
    </linearGradient>
    <linearGradient
       id="bigKnobLight"
       x1="0%"
       y1="0%"
       x2="0%"
       y2="100%">
      <stop
         offset="0%"
         stop-color="#888"
         id="stop14" />
      <stop
         offset="100%"
         stop-color="#333"
         id="stop16" />
    </linearGradient>
    <linearGradient
       id="bigKnobDark"
       x1="0%"
       y1="0%"
       x2="0%"
       y2="100%">
      <stop
         offset="0%"
         stop-color="#5c5c5c"
         id="stop19" />
      <stop
         offset="100%"
         stop-color="#282828"
         id="stop21" />
    </linearGradient>
    <symbol
       id="knob18">
      <g
         transform="translate(9 9)"
         id="g30">
        <circle
           r="8.5"
           stroke="#222"
           fill="none"
           id="circle24" />
        <circle
           r="8"
           fill="url('#smallKnobLight')"
           id="circle26" />
        <circle
           r="7"
           fill="url('#smallKnobDark')"
           id="circle28" />
      </g>
    </symbol>
    <symbol
       id="knob24">
      <g
         transform="translate(12 12)"
         id="g39">
        <circle
           r="11.5"
           stroke="#121212"
           fill="none"
           id="circle33" />
        <circle
           r="11"
           fill="url('#smallKnobLight')"
           id="circle35" />
        <circle
           r="10"
           fill="url('#smallKnobDark')"
           id="circle37" />
      </g>
    </symbol>
    <symbol
       id="knob45">
      <g
         transform="translate(22.5 22.5)"
         id="g46">
        <circle
           r="22"
           fill="url('#bigKnobDark')"
           id="circle42" />
        <circle
           r="20"
           fill="url('#bigKnobLight')"
           id="circle44" />
      </g>
    </symbol>
    <symbol
       id="toggleButton">
      <g
         transform="translate(9 9)"
         id="g49" />
    </symbol>
    <symbol
       id="port">
      <g
         transform="translate(12 12)"
         id="g52" />
    </symbol>
    <symbol
       id="hswitch14">
      <g
         transform="translate(12 7)"
         id="g55" />
    </symbol>
    <symbol
       id="meter-strip">
      <g
         transform="translate(20 4)"
         id="g102">
        <rect
           x="-6"
           y="-1"
           width="5"
           height="106"
           class="lcd-bg-accent"
           id="rect58" />
        <rect
           x="1"
           y="-1"
           width="5"
           height="106"
           class="lcd-bg-accent"
           id="rect60" />
        <g
           transform="translate(-11 2.5)"
           id="g80">
          <text
             x="0"
             y="0"
             class="lcd-label"
             text-anchor="end"
             id="text62">0</text>
          <text
             x="0"
             y="13"
             class="lcd-label"
             text-anchor="end"
             id="text64">3</text>
          <text
             x="0"
             y="26"
             class="lcd-label"
             text-anchor="end"
             id="text66">6</text>
          <text
             x="0"
             y="39"
             class="lcd-label"
             text-anchor="end"
             id="text68">9</text>
          <text
             x="0"
             y="52"
             class="lcd-label"
             text-anchor="end"
             id="text70">12</text>
          <text
             x="0"
             y="65"
             class="lcd-label"
             text-anchor="end"
             id="text72">18</text>
          <text
             x="0"
             y="78"
             class="lcd-label"
             text-anchor="end"
             id="text74">24</text>
          <text
             x="0"
             y="91"
             class="lcd-label"
             text-anchor="end"
             id="text76">36</text>
          <text
             x="0"
             y="104"
             class="lcd-label"
             text-anchor="end"
             id="text78">48</text>
        </g>
        <g
           transform="translate(-10 0)"
           id="g100">
          <polyline
             points="0   0 2   0"
             class="lcd-tick"
             id="polyline82" />
          <polyline
             points="0  13 2  13"
             class="lcd-tick"
             id="polyline84" />
          <polyline
             points="0  26 2  26"
             class="lcd-tick"
             id="polyline86" />
          <polyline
             points="0  39 2  39"
             class="lcd-tick"
             id="polyline88" />
          <polyline
             points="0  52 2  52"
             class="lcd-tick"
             id="polyline90" />
          <polyline
             points="0  65 2  65"
             class="lcd-tick"
             id="polyline92" />
          <polyline
             points="0  78 2  78"
             class="lcd-tick"
             id="polyline94" />
          <polyline
             points="0  91 2  91"
             class="lcd-tick"
             id="polyline96" />
          <polyline
             points="0 104 2 104"
             class="lcd-tick"
             id="polyline98" />
        </g>
      </g>
    </symbol>
    <linearGradient
       inkscape:collect="always"
       xlink:href="#smallKnobLight"
       id="linearGradient213"
       x1="-8"
       y1="-8"
       x2="-8"
       y2="8"
       gradientUnits="userSpaceOnUse" />
    <linearGradient
       inkscape:collect="always"
       xlink:href="#smallKnobDark"
       id="linearGradient215"
       x1="-7"
       y1="-7"
       x2="-7"
       y2="7"
       gradientUnits="userSpaceOnUse" />
    <linearGradient
       inkscape:collect="always"
       xlink:href="#smallKnobLight"
       id="linearGradient235"
       x1="-8"
       y1="-8"
       x2="-8"
       y2="8"
       gradientUnits="userSpaceOnUse" />
    <linearGradient
       inkscape:collect="always"
       xlink:href="#smallKnobDark"
       id="linearGradient237"
       x1="-7"
       y1="-7"
       x2="-7"
       y2="7"
       gradientUnits="userSpaceOnUse" />
  </defs>
  <!-- ============== body ============== -->
  <path
     id="rect107"
     style="fill:#dfdfdf"
     d="M 0,0 H 30 V 380 H 0 Z"
     class="background" />
  <g
     aria-label="ATV"
     id="text109"
     style="font-size:15.3333px;font-family:'DIN Alternate';text-anchor:middle;fill:#a91913"
     class="title">
    <path
       d="m 5.8808596,26.091797 1.5797525,-4.769206 h 0.029948 l 1.5797525,4.769206 z M 10.388021,30 h 1.744466 L 8.1643882,19.083985 H 6.779297 L 2.8111982,30 h 1.7519531 l 0.8385416,-2.440755 h 4.1402994 z"
       style="font-size:15.3333px;font-family:'DIN Alternate';text-anchor:middle;fill:#a91913"
       id="path268" />
    <path
       d="m 14.004231,30 h 1.66211 v -9.441081 h 2.987304 v -1.474934 h -7.636718 v 1.474934 h 2.987304 z"
       style="font-size:15.3333px;font-family:'DIN Alternate';text-anchor:middle;fill:#a91913"
       id="path270" />
    <path
       d="m 22.28483,30 h 1.28776 l 3.608724,-10.916015 h -1.751953 l -2.485677,8.310546 h -0.02995 l -2.47819,-8.310546 h -1.751953 z"
       style="font-size:15.3333px;font-family:'DIN Alternate';text-anchor:middle;fill:#a91913"
       id="path272" />
  </g>
  <g
     aria-label="RM"
     id="text111"
     style="font-size:13.3333px;font-family:'DIN Alternate';text-anchor:middle;fill:#a91913"
     class="logo">
    <path
       d="m 3.3268231,367.79036 h 2.2526041 q 0.6901041,0 1.0546875,0.29297 0.4622395,0.33203 0.4752604,1.07422 0,0.61849 -0.3971354,1.04167 -0.4036459,0.45573 -1.2109375,0.46875 H 3.3268231 Z M 1.888021,376 h 1.4388021 v -4.05599 H 5.1627605 L 7.1223959,376 h 1.7122395 l -2.2005207,-4.21224 q 1.8098958,-0.69661 1.8359374,-2.63021 -0.039063,-1.3151 -0.9440104,-2.02474 -0.7486979,-0.625 -1.9335937,-0.625 H 1.888021 Z"
       style="font-size:13.3333px;font-family:'DIN Alternate';text-anchor:middle;fill:#a91913"
       id="path263" />
    <path
       d="m 10.013021,376 h 1.438802 v -5.91797 h 0.02604 l 1.985677,4.55729 h 1.197916 l 1.985677,-4.55729 h 0.03255 V 376 h 1.438802 v -9.49219 h -1.360677 l -2.669271,6.1849 v 0 l -2.721354,-6.1849 h -1.354167 z"
       style="font-size:13.3333px;font-family:'DIN Alternate';text-anchor:middle;fill:#a91913"
       id="path265" />
  </g>
  <!-- ======== A ======== -->
  <path
     id="rect113"
     style="fill:#558955"
     d="m 5,143 h 20 c 1.662,0 3,1.338 3,3 v 24 c 0,1.662 -1.338,3 -3,3 H 5 c -1.662,0 -3,-1.338 -3,-3 v -24 c 0,-1.662 1.338,-3 3,-3 z"
     class="polyphonic" />
  <path
     id="polyline117"
     transform="translate(15,74)"
     style="fill:none;stroke:#343434;stroke-width:1"
     d="M 0,0 V 84"
     class="connect" />
  <g
     aria-label="A"
     id="text121"
     style="font-size:10px;font-family:'DIN Alternate';text-anchor:middle;fill:#343434"
     class="big-label">
    <path
       d="m 13.964844,53.451172 1.030273,-3.110352 h 0.01953 l 1.030274,3.110352 z M 16.904297,56 h 1.137695 l -2.58789,-7.119141 H 14.550781 L 11.962891,56 h 1.142578 l 0.546875,-1.591797 h 2.700195 z"
       style="font-size:10px;font-family:'DIN Alternate';text-anchor:middle;fill:#343434"
       id="path259" />
  </g>
  <g
     id="use123"
     transform="translate(3,62)">
    <g
       transform="translate(12,12)"
       id="g199" />
  </g>
  <g
     id="use127"
     transform="translate(6,107)">
    <g
       transform="translate(9,9)"
       id="g209">
      <path
         id="circle203"
         style="fill:none;stroke:#222222"
         d="M 8.5,0 A 8.5,8.5 0 0 1 0,8.5 8.5,8.5 0 0 1 -8.5,0 8.5,8.5 0 0 1 0,-8.5 8.5,8.5 0 0 1 8.5,0 Z" />
      <path
         id="circle205"
         style="fill:url(#linearGradient213)"
         d="M 8,0 A 8,8 0 0 1 0,8 8,8 0 0 1 -8,0 8,8 0 0 1 0,-8 8,8 0 0 1 8,0 Z" />
      <path
         id="circle207"
         style="fill:url(#linearGradient215)"
         d="M 7,0 A 7,7 0 0 1 0,7 7,7 0 0 1 -7,0 7,7 0 0 1 0,-7 7,7 0 0 1 7,0 Z" />
    </g>
  </g>
  <g
     transform="translate(15,131)"
     id="g135">
    <path
       id="polyline129"
       style="fill:none;stroke:#343434;stroke-width:1.2"
       d="m -7,0 h 4"
       class="icon" />
    <path
       id="polyline131"
       style="fill:none;stroke:#343434;stroke-width:1.2"
       d="M 7,0 H 3"
       class="icon" />
    <path
       id="polyline133"
       style="fill:none;stroke:#343434;stroke-width:1.2"
       d="M 5,-2 V 2"
       class="icon" />
  </g>
  <g
     id="use139"
     transform="translate(3,146)">
    <g
       transform="translate(12,12)"
       id="g217" />
  </g>
  <!-- ======== B ======== -->
  <path
     id="rect143"
     style="fill:#558955"
     d="m 5,293 h 20 c 1.662,0 3,1.338 3,3 v 24 c 0,1.662 -1.338,3 -3,3 H 5 c -1.662,0 -3,-1.338 -3,-3 v -24 c 0,-1.662 1.338,-3 3,-3 z"
     class="polyphonic" />
  <path
     id="polyline147"
     transform="translate(15,224)"
     style="fill:none;stroke:#343434;stroke-width:1"
     d="M 0,0 V 84"
     class="connect" />
  <g
     aria-label="B"
     id="text151"
     style="font-size:10px;font-family:'DIN Alternate';text-anchor:middle;fill:#343434"
     class="big-label">
    <path
       d="m 12.705078,206 h 2.998047 q 0.839844,0 1.401367,-0.56152 0.566406,-0.53711 0.576172,-1.45996 0,-0.55665 -0.27832,-1.03028 -0.297852,-0.45898 -0.878907,-0.61035 v -0.0195 q 0.307618,-0.14649 0.517579,-0.32715 0.209961,-0.1709 0.322265,-0.36133 0.219727,-0.40039 0.209961,-0.83984 0,-0.85938 -0.532226,-1.38184 -0.527344,-0.51758 -1.577149,-0.52734 h -2.758789 z m 2.739258,-3.15918 q 0.600586,0.01 0.878906,0.31738 0.27832,0.3125 0.27832,0.75196 0,0.42968 -0.27832,0.74218 -0.27832,0.31739 -0.878906,0.32715 H 13.78418 v -2.13867 z m -0.102539,-2.99805 q 0.59082,0.01 0.86914,0.28809 0.283204,0.29785 0.283204,0.72754 0,0.42969 -0.283204,0.71289 -0.27832,0.30762 -0.86914,0.30762 H 13.78418 v -2.03614 z"
       style="font-size:10px;font-family:'DIN Alternate';text-anchor:middle;fill:#343434"
       id="path249" />
  </g>
  <g
     id="use153"
     transform="translate(3,212)">
    <g
       transform="translate(12,12)"
       id="g221" />
  </g>
  <g
     id="use157"
     transform="translate(6,257)">
    <g
       transform="translate(9,9)"
       id="g231">
      <path
         id="circle225"
         style="fill:none;stroke:#222222"
         d="M 8.5,0 A 8.5,8.5 0 0 1 0,8.5 8.5,8.5 0 0 1 -8.5,0 8.5,8.5 0 0 1 0,-8.5 8.5,8.5 0 0 1 8.5,0 Z" />
      <path
         id="circle227"
         style="fill:url(#linearGradient235)"
         d="M 8,0 A 8,8 0 0 1 0,8 8,8 0 0 1 -8,0 8,8 0 0 1 0,-8 8,8 0 0 1 8,0 Z" />
      <path
         id="circle229"
         style="fill:url(#linearGradient237)"
         d="M 7,0 A 7,7 0 0 1 0,7 7,7 0 0 1 -7,0 7,7 0 0 1 0,-7 7,7 0 0 1 7,0 Z" />
    </g>
  </g>
  <g
     transform="translate(15,281)"
     id="g165">
    <path
       id="polyline159"
       style="fill:none;stroke:#343434;stroke-width:1.2"
       d="m -7,0 h 4"
       class="icon" />
    <path
       id="polyline161"
       style="fill:none;stroke:#343434;stroke-width:1.2"
       d="M 7,0 H 3"
       class="icon" />
    <path
       id="polyline163"
       style="fill:none;stroke:#343434;stroke-width:1.2"
       d="M 5,-2 V 2"
       class="icon" />
  </g>
  <g
     id="use169"
     transform="translate(3,296)">
    <g
       transform="translate(12,12)"
       id="g239" />
  </g>
</svg>
