<?xml version="1.0" encoding="UTF-8" standalone="no"?>
<svg
   xmlns:dc="http://purl.org/dc/elements/1.1/"
   xmlns:cc="http://creativecommons.org/ns#"
   xmlns:rdf="http://www.w3.org/1999/02/22-rdf-syntax-ns#"
   xmlns:svg="http://www.w3.org/2000/svg"
   xmlns="http://www.w3.org/2000/svg"
   xmlns:xlink="http://www.w3.org/1999/xlink"
   xmlns:sodipodi="http://sodipodi.sourceforge.net/DTD/sodipodi-0.dtd"
   xmlns:inkscape="http://www.inkscape.org/namespaces/inkscape"
   version="1.1"
   width="30"
   height="380"
   viewBox="0 0 30 380"
   id="svg94"
   sodipodi:docname="ATV.svg"
   inkscape:version="1.0.2 (e86c8708, 2021-01-15)">
  <metadata
     id="metadata98">
    <rdf:RDF>
      <cc:Work
         rdf:about="">
        <dc:format>image/svg+xml</dc:format>
        <dc:type
           rdf:resource="http://purl.org/dc/dcmitype/StillImage" />
      </cc:Work>
    </rdf:RDF>
  </metadata>
  <sodipodi:namedview
     pagecolor="#ffffff"
     bordercolor="#666666"
     borderopacity="1"
     objecttolerance="10"
     gridtolerance="10"
     guidetolerance="10"
     inkscape:pageopacity="0"
     inkscape:pageshadow="2"
     inkscape:window-width="689"
     inkscape:window-height="480"
     id="namedview96"
     showgrid="false"
     inkscape:zoom="2.1763158"
     inkscape:cx="15"
     inkscape:cy="190"
     inkscape:window-x="0"
     inkscape:window-y="25"
     inkscape:window-maximized="0"
     inkscape:current-layer="svg94" />
  <style
     id="style2">
    text.title {
      fill: #a91913;
      font-family: 'DIN Alternate';
      font-size: 12pt;
    }
    text.logo {
      fill: #a91913;
      font-family: 'DIN Alternate';
      font-size: 10pt;
    }
    text.big-label {
      fill: #343434;
      font-family: 'DIN Alternate';
      font-size: 7.5pt;
    }
    text.label {
      fill: #343434;
      font-family: 'DIN Alternate';
      font-size: 6pt;
    }
    .background {
      fill: #e0e0e0;
    }
    .output {
      fill: #bbbbbb;
    }
    polyline.icon {
      stroke: #343434;
      stroke-width: 1.2;
      fill: none;
    }
    polyline.connect {
      stroke: #343434;
      stroke-width: 1;
      fill: none;
    }

    .blueprint {
      stroke: #08f;
      fill: none;
    }
  </style>
  <!-- ======== defs ======== -->
  <defs
     id="defs26">
    <linearGradient
       id="smallKnobMediumGradient">
      <stop
         offset="5%"
         stop-color="#888"
         id="stop4" />
      <stop
         offset="95%"
         stop-color="#333"
         id="stop6" />
    </linearGradient>
    <linearGradient
       id="smallKnobDarkGradient">
      <stop
         offset="5%"
         stop-color="#444"
         id="stop9" />
      <stop
         offset="95%"
         stop-color="#222"
         id="stop11" />
    </linearGradient>
    <symbol
       id="knob18">
      <g
         transform="translate(9 9)"
         id="g20">
        <circle
           r="8.5"
           stroke="#222"
           fill="none"
           id="circle14" />
        <circle
           r="8"
           fill="url('#smallKnobMediumGradient')"
           transform="rotate(90)"
           id="circle16" />
        <circle
           r="7"
           fill="url('#smallKnobDarkGradient')"
           transform="rotate(90)"
           id="circle18" />
      </g>
    </symbol>
    <symbol
       id="port">
      <g
         transform="translate(12 12)"
         id="g23" />
    </symbol>
    <linearGradient
       inkscape:collect="always"
       xlink:href="#smallKnobMediumGradient"
       id="linearGradient134"
       x1="-8"
       y1="-8"
       x2="8"
       y2="-8"
       gradientUnits="userSpaceOnUse" />
    <linearGradient
       inkscape:collect="always"
       xlink:href="#smallKnobDarkGradient"
       id="linearGradient136"
       x1="-7"
       y1="-7"
       x2="7"
       y2="-7"
       gradientUnits="userSpaceOnUse" />
    <linearGradient
       inkscape:collect="always"
       xlink:href="#smallKnobMediumGradient"
       id="linearGradient156"
       x1="-8"
       y1="-8"
       x2="8"
       y2="-8"
       gradientUnits="userSpaceOnUse" />
    <linearGradient
       inkscape:collect="always"
       xlink:href="#smallKnobDarkGradient"
       id="linearGradient158"
       x1="-7"
       y1="-7"
       x2="7"
       y2="-7"
       gradientUnits="userSpaceOnUse" />
  </defs>
  <!-- ======== header/footer ======== -->
  <path
     id="rect28"
     style="fill:#e0e0e0"
     d="M 0,0 H 30 V 380 H 0 Z"
     class="background" />
  <g
     aria-label="ATV"
     id="text30"
     style="font-size:16px;font-family:'DIN Alternate';text-anchor:middle;fill:#a91913"
     class="title">
    <path
       d="m 5.484375,25.921875 1.6484375,-4.976563 h 0.03125 L 8.8125,25.921875 Z M 10.1875,30 h 1.820313 L 7.8671875,18.609375 H 6.421875 L 2.28125,30 h 1.828125 l 0.875,-2.546875 h 4.3203125 z"
       style="font-size:16px;font-family:'DIN Alternate';text-anchor:middle;fill:#a91913"
       id="path189" />
    <path
       d="m 13.960938,30 h 1.734375 V 20.148437 H 18.8125 v -1.539062 h -7.96875 v 1.539062 h 3.117188 z"
       style="font-size:16px;font-family:'DIN Alternate';text-anchor:middle;fill:#a91913"
       id="path191" />
    <path
       d="m 22.601562,30 h 1.34375 l 3.765625,-11.390625 h -1.828125 l -2.59375,8.671875 h -0.03125 L 20.671875,18.609375 H 18.84375 Z"
       style="font-size:16px;font-family:'DIN Alternate';text-anchor:middle;fill:#a91913"
       id="path193" />
  </g>
  <g
     aria-label="RM"
     id="text32"
     style="font-size:13.3333px;font-family:'DIN Alternate';text-anchor:middle;fill:#a91913"
     class="logo">
    <path
       d="m 3.3268231,367.79036 h 2.2526041 q 0.6901041,0 1.0546875,0.29297 0.4622395,0.33203 0.4752604,1.07422 0,0.61849 -0.3971354,1.04167 -0.4036459,0.45573 -1.2109375,0.46875 H 3.3268231 Z M 1.888021,376 h 1.4388021 v -4.05599 H 5.1627605 L 7.1223959,376 h 1.7122395 l -2.2005207,-4.21224 q 1.8098958,-0.69661 1.8359374,-2.63021 -0.039063,-1.3151 -0.9440104,-2.02474 -0.7486979,-0.625 -1.9335937,-0.625 H 1.888021 Z"
       style="font-size:13.3333px;font-family:'DIN Alternate';text-anchor:middle;fill:#a91913"
       id="path184" />
    <path
       d="m 10.013021,376 h 1.438802 v -5.91797 h 0.02604 l 1.985677,4.55729 h 1.197916 l 1.985677,-4.55729 h 0.03255 V 376 h 1.438802 v -9.49219 h -1.360677 l -2.669271,6.1849 v 0 l -2.721354,-6.1849 h -1.354167 z"
       style="font-size:13.3333px;font-family:'DIN Alternate';text-anchor:middle;fill:#a91913"
       id="path186" />
  </g>
  <!-- ======== A ======== -->
  <path
     id="rect34"
     style="fill:#bbbbbb"
     d="m 5,144 h 20 c 1.662,0 3,1.338 3,3 v 22 c 0,1.662 -1.338,3 -3,3 H 5 c -1.662,0 -3,-1.338 -3,-3 v -22 c 0,-1.662 1.338,-3 3,-3 z"
     class="output" />
  <path
     id="polyline38"
     transform="translate(15,74)"
     style="fill:none;stroke:#343434;stroke-width:1"
     d="M 0,0 V 84"
     class="connect" />
  <g
     aria-label="A"
     id="text42"
     style="font-size:10px;font-family:'DIN Alternate';text-anchor:middle;fill:#343434"
     class="big-label">
    <path
       d="m 13.964844,53.451172 1.030273,-3.110352 h 0.01953 l 1.030274,3.110352 z M 16.904297,56 h 1.137695 l -2.58789,-7.119141 H 14.550781 L 11.962891,56 h 1.142578 l 0.546875,-1.591797 h 2.700195 z"
       style="font-size:10px;font-family:'DIN Alternate';text-anchor:middle;fill:#343434"
       id="path180" />
  </g>
  <g
     id="use44"
     transform="translate(3,62)">
    <g
       transform="translate(12,12)"
       id="g120" />
  </g>
  <g
     id="use48"
     transform="translate(6,107)">
    <g
       transform="translate(9,9)"
       id="g130">
      <path
         id="circle124"
         style="fill:none;stroke:#222222"
         d="M 8.5,0 A 8.5,8.5 0 0 1 0,8.5 8.5,8.5 0 0 1 -8.5,0 8.5,8.5 0 0 1 0,-8.5 8.5,8.5 0 0 1 8.5,0 Z" />
      <path
         id="circle126"
         style="fill:url(#linearGradient134)"
         transform="rotate(90)"
         d="M 8,0 A 8,8 0 0 1 0,8 8,8 0 0 1 -8,0 8,8 0 0 1 0,-8 8,8 0 0 1 8,0 Z" />
      <path
         id="circle128"
         style="fill:url(#linearGradient136)"
         transform="rotate(90)"
         d="M 7,0 A 7,7 0 0 1 0,7 7,7 0 0 1 -7,0 7,7 0 0 1 0,-7 7,7 0 0 1 7,0 Z" />
    </g>
  </g>
  <g
     transform="translate(15,131)"
     id="g56">
    <path
       id="polyline50"
       style="fill:none;stroke:#343434;stroke-width:1.2"
       d="m -7,0 h 4"
       class="icon" />
    <path
       id="polyline52"
       style="fill:none;stroke:#343434;stroke-width:1.2"
       d="M 7,0 H 3"
       class="icon" />
    <path
       id="polyline54"
       style="fill:none;stroke:#343434;stroke-width:1.2"
       d="M 5,-2 V 2"
       class="icon" />
  </g>
  <g
     id="use60"
     transform="translate(3,146)">
    <g
       transform="translate(12,12)"
       id="g138" />
  </g>
  <!-- ======== B ======== -->
  <path
     id="rect64"
     style="fill:#bbbbbb"
     d="m 5,300 h 20 c 1.662,0 3,1.338 3,3 v 22 c 0,1.662 -1.338,3 -3,3 H 5 c -1.662,0 -3,-1.338 -3,-3 v -22 c 0,-1.662 1.338,-3 3,-3 z"
     class="output" />
  <path
     id="polyline68"
     transform="translate(15,230)"
     style="fill:none;stroke:#343434;stroke-width:1"
     d="M 0,0 V 84"
     class="connect" />
  <g
     aria-label="B"
     id="text72"
     style="font-size:10px;font-family:'DIN Alternate';text-anchor:middle;fill:#343434"
     class="big-label">
    <path
       d="m 12.705078,212 h 2.998047 q 0.839844,0 1.401367,-0.56152 0.566406,-0.53711 0.576172,-1.45996 0,-0.55665 -0.27832,-1.03028 -0.297852,-0.45898 -0.878907,-0.61035 v -0.0195 q 0.307618,-0.14649 0.517579,-0.32715 0.209961,-0.1709 0.322265,-0.36133 0.219727,-0.40039 0.209961,-0.83984 0,-0.85938 -0.532226,-1.38184 -0.527344,-0.51758 -1.577149,-0.52734 h -2.758789 z m 2.739258,-3.15918 q 0.600586,0.01 0.878906,0.31738 0.27832,0.3125 0.27832,0.75196 0,0.42968 -0.27832,0.74218 -0.27832,0.31739 -0.878906,0.32715 H 13.78418 v -2.13867 z m -0.102539,-2.99805 q 0.59082,0.01 0.86914,0.28809 0.283204,0.29785 0.283204,0.72754 0,0.42969 -0.283204,0.71289 -0.27832,0.30762 -0.86914,0.30762 H 13.78418 v -2.03614 z"
       style="font-size:10px;font-family:'DIN Alternate';text-anchor:middle;fill:#343434"
       id="path170" />
  </g>
  <g
     id="use74"
     transform="translate(3,218)">
    <g
       transform="translate(12,12)"
       id="g142" />
  </g>
  <g
     id="use78"
     transform="translate(6,263)">
    <g
       transform="translate(9,9)"
       id="g152">
      <path
         id="circle146"
         style="fill:none;stroke:#222222"
         d="M 8.5,0 A 8.5,8.5 0 0 1 0,8.5 8.5,8.5 0 0 1 -8.5,0 8.5,8.5 0 0 1 0,-8.5 8.5,8.5 0 0 1 8.5,0 Z" />
      <path
         id="circle148"
         style="fill:url(#linearGradient156)"
         transform="rotate(90)"
         d="M 8,0 A 8,8 0 0 1 0,8 8,8 0 0 1 -8,0 8,8 0 0 1 0,-8 8,8 0 0 1 8,0 Z" />
      <path
         id="circle150"
         style="fill:url(#linearGradient158)"
         transform="rotate(90)"
         d="M 7,0 A 7,7 0 0 1 0,7 7,7 0 0 1 -7,0 7,7 0 0 1 0,-7 7,7 0 0 1 7,0 Z" />
    </g>
  </g>
  <g
     transform="translate(15,287)"
     id="g86">
    <path
       id="polyline80"
       style="fill:none;stroke:#343434;stroke-width:1.2"
       d="m -7,0 h 4"
       class="icon" />
    <path
       id="polyline82"
       style="fill:none;stroke:#343434;stroke-width:1.2"
       d="M 7,0 H 3"
       class="icon" />
    <path
       id="polyline84"
       style="fill:none;stroke:#343434;stroke-width:1.2"
       d="M 5,-2 V 2"
       class="icon" />
  </g>
  <g
     id="use90"
     transform="translate(3,302)">
    <g
       transform="translate(12,12)"
       id="g160" />
  </g>
</svg>
