<?xml version="1.0" encoding="UTF-8" standalone="no"?>
<svg
   xmlns:dc="http://purl.org/dc/elements/1.1/"
   xmlns:cc="http://creativecommons.org/ns#"
   xmlns:rdf="http://www.w3.org/1999/02/22-rdf-syntax-ns#"
   xmlns:svg="http://www.w3.org/2000/svg"
   xmlns="http://www.w3.org/2000/svg"
   xmlns:xlink="http://www.w3.org/1999/xlink"
   xmlns:sodipodi="http://sodipodi.sourceforge.net/DTD/sodipodi-0.dtd"
   xmlns:inkscape="http://www.inkscape.org/namespaces/inkscape"
   version="1.1"
   width="30"
   height="380"
   viewBox="0 0 30 380"
   id="svg201"
   sodipodi:docname="ATV.svg"
   inkscape:version="1.0.2 (e86c8708, 2021-01-15)">
  <metadata
     id="metadata205">
    <rdf:RDF>
      <cc:Work
         rdf:about="">
        <dc:format>image/svg+xml</dc:format>
        <dc:type
           rdf:resource="http://purl.org/dc/dcmitype/StillImage" />
      </cc:Work>
    </rdf:RDF>
  </metadata>
  <sodipodi:namedview
     pagecolor="#ffffff"
     bordercolor="#666666"
     borderopacity="1"
     objecttolerance="10"
     gridtolerance="10"
     guidetolerance="10"
     inkscape:pageopacity="0"
     inkscape:pageshadow="2"
     inkscape:window-width="689"
     inkscape:window-height="480"
     id="namedview203"
     showgrid="false"
     inkscape:zoom="2.1763158"
     inkscape:cx="15"
     inkscape:cy="190"
     inkscape:window-x="0"
     inkscape:window-y="25"
     inkscape:window-maximized="0"
     inkscape:current-layer="svg201" />
  <!-- ================ header begin ================ -->
  <style
     id="style2">

    text.title {
      fill: #a91913;
      font-family: 'DIN Alternate';
      font-size: 11.5pt;
    }
    text.big-label {
      fill: #343434;
      font-family: 'DIN Alternate';
      font-size: 7.5pt;
    }
    text.label {
      fill: #343434;
      font-family: 'DIN Alternate';
      font-size: 6pt;
    }
    text.output-label {
      fill: #dfdfdf;
      font-family: 'DIN Alternate';
      font-size: 6pt;
    }

    .background {
      fill: #dfdfdf;
    }
    .poly-output {
      fill: #558955;
    }
    .mono-output {
      fill: #636c9d;
    }

    polyline.icon {
      stroke: #343434;
      stroke-width: 1.2;
      fill: none;
    }
    polyline.connect {
      stroke: #343434;
      stroke-width: 1;
      fill: none;
    }

    rect.lcd-bg {
      fill: #121212;
    }
    rect.lcd-bg-frame {
      fill: #888888;
    }
    rect.lcd-bg-accent {
      fill: #2a2a2a;
    }
    text.lcd-label {
      fill: #777777;
      font-family: 'Monaco';
      font-size: 5pt;
    }
    polyline.lcd-tick {
      stroke: #707070;
      stroke-width: 1;
      fill: none;
    }

    .blueprint {
      stroke: #444444;
      fill: none;
    }

  </style>
  <defs
     id="defs121">
    <linearGradient
       id="smallKnobLight"
       x1="0%"
       y1="0%"
       x2="0%"
       y2="100%">
      <stop
         offset="0%"
         stop-color="#6f6f6f"
         id="stop4" />
      <stop
         offset="100%"
         stop-color="#383838"
         id="stop6" />
    </linearGradient>
    <linearGradient
       id="smallKnobDark"
       x1="0%"
       y1="0%"
       x2="0%"
       y2="100%">
      <stop
         offset="0%"
         stop-color="#494949"
         id="stop9" />
      <stop
         offset="100%"
         stop-color="#282828"
         id="stop11" />
    </linearGradient>
    <linearGradient
       id="bigKnobLight"
       x1="0%"
       y1="0%"
       x2="0%"
       y2="100%">
      <stop
         offset="0%"
         stop-color="#888"
         id="stop14" />
      <stop
         offset="100%"
         stop-color="#333"
         id="stop16" />
    </linearGradient>
    <linearGradient
       id="bigKnobDark"
       x1="0%"
       y1="0%"
       x2="0%"
       y2="100%">
      <stop
         offset="0%"
         stop-color="#5c5c5c"
         id="stop19" />
      <stop
         offset="100%"
         stop-color="#282828"
         id="stop21" />
    </linearGradient>
    <symbol
       id="knob18">
      <g
         transform="translate(9 9)"
         id="g30">
        <circle
           r="8.5"
           stroke="#222"
           fill="none"
           id="circle24" />
        <circle
           r="8"
           fill="url('#smallKnobLight')"
           id="circle26" />
        <circle
           r="7"
           fill="url('#smallKnobDark')"
           id="circle28" />
      </g>
    </symbol>
    <symbol
       id="knob24">
      <g
         transform="translate(12 12)"
         id="g39">
        <circle
           r="11.5"
           stroke="#121212"
           fill="none"
           id="circle33" />
        <circle
           r="11"
           fill="url('#smallKnobLight')"
           id="circle35" />
        <circle
           r="10"
           fill="url('#smallKnobDark')"
           id="circle37" />
      </g>
    </symbol>
    <symbol
       id="knob45">
      <g
         transform="translate(22.5 22.5)"
         id="g46">
        <circle
           r="22"
           fill="url('#bigKnobDark')"
           id="circle42" />
        <circle
           r="20"
           fill="url('#bigKnobLight')"
           id="circle44" />
      </g>
    </symbol>
    <symbol
       id="toggleButton">
      <g
         transform="translate(9 9)"
         id="g49" />
    </symbol>
    <symbol
       id="port">
      <g
         transform="translate(12 12)"
         id="g52" />
    </symbol>
    <symbol
       id="screw">
      <g
         transform="translate(6 6)"
         id="g55" />
    </symbol>
    <symbol
       id="hswitch14">
      <g
         transform="translate(12 7)"
         id="g58" />
    </symbol>
    <symbol
       id="meter-strip">
      <g
         transform="translate(20 4)"
         id="g105">
        <rect
           x="-6"
           y="-1"
           width="5"
           height="98"
           class="lcd-bg-accent"
           id="rect61" />
        <rect
           x="1"
           y="-1"
           width="5"
           height="98"
           class="lcd-bg-accent"
           id="rect63" />
        <g
           transform="translate(-11 2.5)"
           id="g83">
          <text
             x="0"
             y="0"
             class="lcd-label"
             text-anchor="end"
             id="text65">0</text>
          <text
             x="0"
             y="12"
             class="lcd-label"
             text-anchor="end"
             id="text67">3</text>
          <text
             x="0"
             y="24"
             class="lcd-label"
             text-anchor="end"
             id="text69">6</text>
          <text
             x="0"
             y="36"
             class="lcd-label"
             text-anchor="end"
             id="text71">9</text>
          <text
             x="0"
             y="48"
             class="lcd-label"
             text-anchor="end"
             id="text73">12</text>
          <text
             x="0"
             y="60"
             class="lcd-label"
             text-anchor="end"
             id="text75">18</text>
          <text
             x="0"
             y="72"
             class="lcd-label"
             text-anchor="end"
             id="text77">24</text>
          <text
             x="0"
             y="84"
             class="lcd-label"
             text-anchor="end"
             id="text79">36</text>
          <text
             x="0"
             y="96"
             class="lcd-label"
             text-anchor="end"
             id="text81">48</text>
        </g>
        <g
           transform="translate(-10 0)"
           id="g103">
          <polyline
             points="0  0 2  0"
             class="lcd-tick"
             id="polyline85" />
          <polyline
             points="0 12 2 12"
             class="lcd-tick"
             id="polyline87" />
          <polyline
             points="0 24 2 24"
             class="lcd-tick"
             id="polyline89" />
          <polyline
             points="0 36 2 36"
             class="lcd-tick"
             id="polyline91" />
          <polyline
             points="0 48 2 48"
             class="lcd-tick"
             id="polyline93" />
          <polyline
             points="0 60 2 60"
             class="lcd-tick"
             id="polyline95" />
          <polyline
             points="0 72 2 72"
             class="lcd-tick"
             id="polyline97" />
          <polyline
             points="0 84 2 84"
             class="lcd-tick"
             id="polyline99" />
          <polyline
             points="0 96 2 96"
             class="lcd-tick"
             id="polyline101" />
        </g>
      </g>
    </symbol>
    <symbol
       id="logo">
      <g
         transform="translate(6 6)"
         id="g118">
        <rect
           x="-5"
           y="-4"
           height="12"
           width="10"
           rx="2"
           fill="#6a6a6a"
           stroke="none"
           id="rect108" />
        <rect
           x="-3"
           y="-5"
           height="4"
           width="6"
           rx="1"
           fill="#6a6a6a"
           stroke="none"
           id="rect110" />
        <path
           d="M0,-3, 0,-5"
           stroke="#6a6a6a"
           stroke-width="2"
           stroke-linecap="round"
           id="path112" />
        <circle
           cx="-2.5"
           cy="0"
           r="1.2"
           fill="#dfdfdf"
           stroke="none"
           id="circle114" />
        <circle
           cx="2.5"
           cy="0"
           r="1.2"
           fill="#dfdfdf"
           stroke="none"
           id="circle116" />
      </g>
    </symbol>
    <linearGradient
       inkscape:collect="always"
       xlink:href="#smallKnobLight"
       id="linearGradient253"
       x1="-8"
       y1="-8"
       x2="-8"
       y2="8"
       gradientUnits="userSpaceOnUse" />
    <linearGradient
       inkscape:collect="always"
       xlink:href="#smallKnobDark"
       id="linearGradient255"
       x1="-7"
       y1="-7"
       x2="-7"
       y2="7"
       gradientUnits="userSpaceOnUse" />
    <linearGradient
       inkscape:collect="always"
       xlink:href="#smallKnobLight"
       id="linearGradient275"
       x1="-8"
       y1="-8"
       x2="-8"
       y2="8"
       gradientUnits="userSpaceOnUse" />
    <linearGradient
       inkscape:collect="always"
       xlink:href="#smallKnobDark"
       id="linearGradient277"
       x1="-7"
       y1="-7"
       x2="-7"
       y2="7"
       gradientUnits="userSpaceOnUse" />
  </defs>
  <!-- ================ header end ================ -->
  <path
     id="rect123"
     style="fill:#dfdfdf"
     d="M 0,0 H 30 V 380 H 0 Z"
     class="background" />
  <g
     aria-label="ATV"
     id="text125"
     style="font-size:15.3333px;font-family:'DIN Alternate';text-anchor:middle;fill:#a91913"
     class="title">
    <path
       d="m 5.8808596,26.091797 1.5797525,-4.769206 h 0.029948 l 1.5797525,4.769206 z M 10.388021,30 h 1.744466 L 8.1643882,19.083985 H 6.779297 L 2.8111982,30 h 1.7519531 l 0.8385416,-2.440755 h 4.1402994 z"
       style="font-size:15.3333px;font-family:'DIN Alternate';text-anchor:middle;fill:#a91913"
       id="path321" />
    <path
       d="m 14.004231,30 h 1.66211 v -9.441081 h 2.987304 v -1.474934 h -7.636718 v 1.474934 h 2.987304 z"
       style="font-size:15.3333px;font-family:'DIN Alternate';text-anchor:middle;fill:#a91913"
       id="path323" />
    <path
       d="m 22.28483,30 h 1.28776 l 3.608724,-10.916015 h -1.751953 l -2.485677,8.310546 h -0.02995 l -2.47819,-8.310546 h -1.751953 z"
       style="font-size:15.3333px;font-family:'DIN Alternate';text-anchor:middle;fill:#a91913"
       id="path325" />
  </g>
  <g
     transform="translate(3,364)"
     id="g129">
    <g
       id="use127">
      <g
         transform="translate(6,6)"
         id="g293">
        <path
           id="rect283"
           style="fill:#6a6a6a;stroke:none"
           d="m -3,-4 h 6 c 1.108,0 2,0.892 2,2 V 6 C 5,7.108 4.108,8 3,8 H -3 C -4.108,8 -5,7.108 -5,6 v -8 c 0,-1.108 0.892,-2 2,-2 z" />
        <path
           id="rect285"
           style="fill:#6a6a6a;stroke:none"
           d="m -2,-5 h 4 c 0.554,0 1,0.446 1,1 v 2 c 0,0.554 -0.446,1 -1,1 h -4 c -0.554,0 -1,-0.446 -1,-1 v -2 c 0,-0.554 0.446,-1 1,-1 z" />
        <path
           d="M 0,-3 V -5"
           stroke="#6a6a6a"
           stroke-width="2"
           stroke-linecap="round"
           id="path287" />
        <path
           id="circle289"
           style="fill:#dfdfdf;stroke:none"
           d="M -1.3,0 A 1.2,1.2 0 0 1 -2.5,1.2 1.2,1.2 0 0 1 -3.7,0 1.2,1.2 0 0 1 -2.5,-1.2 1.2,1.2 0 0 1 -1.3,0 Z" />
        <path
           id="circle291"
           style="fill:#dfdfdf;stroke:none"
           d="M 3.7,0 A 1.2,1.2 0 0 1 2.5,1.2 1.2,1.2 0 0 1 1.3,0 1.2,1.2 0 0 1 2.5,-1.2 1.2,1.2 0 0 1 3.7,0 Z" />
      </g>
    </g>
  </g>
  <g
     id="use133">
    <g
       transform="translate(6,6)"
       id="g231" />
  </g>
  <g
     id="use137"
     transform="translate(18,368)">
    <g
       transform="translate(6,6)"
       id="g235" />
  </g>
  <!-- ======== A ======== -->
  <path
     id="rect141"
     style="fill:#558955"
     d="m 5,143 h 20 c 1.662,0 3,1.338 3,3 v 24 c 0,1.662 -1.338,3 -3,3 H 5 c -1.662,0 -3,-1.338 -3,-3 v -24 c 0,-1.662 1.338,-3 3,-3 z"
     class="poly-output" />
  <path
     id="polyline145"
     transform="translate(15,74)"
     style="fill:none;stroke:#343434;stroke-width:1"
     d="M 0,0 V 84"
     class="connect" />
  <g
     aria-label="A"
     id="text149"
     style="font-size:10px;font-family:'DIN Alternate';text-anchor:middle;fill:#343434"
     class="big-label">
    <path
       d="m 13.964844,53.451172 1.030273,-3.110352 h 0.01953 l 1.030274,3.110352 z M 16.904297,56 h 1.137695 l -2.58789,-7.119141 H 14.550781 L 11.962891,56 h 1.142578 l 0.546875,-1.591797 h 2.700195 z"
       style="font-size:10px;font-family:'DIN Alternate';text-anchor:middle;fill:#343434"
       id="path313" />
  </g>
  <g
     id="use151"
     transform="translate(3,62)">
    <g
       transform="translate(12,12)"
       id="g239" />
  </g>
  <g
     id="use155"
     transform="translate(6,107)">
    <g
       transform="translate(9,9)"
       id="g249">
      <path
         id="circle243"
         style="fill:none;stroke:#222222"
         d="M 8.5,0 A 8.5,8.5 0 0 1 0,8.5 8.5,8.5 0 0 1 -8.5,0 8.5,8.5 0 0 1 0,-8.5 8.5,8.5 0 0 1 8.5,0 Z" />
      <path
         id="circle245"
         style="fill:url(#linearGradient253)"
         d="M 8,0 A 8,8 0 0 1 0,8 8,8 0 0 1 -8,0 8,8 0 0 1 0,-8 8,8 0 0 1 8,0 Z" />
      <path
         id="circle247"
         style="fill:url(#linearGradient255)"
         d="M 7,0 A 7,7 0 0 1 0,7 7,7 0 0 1 -7,0 7,7 0 0 1 0,-7 7,7 0 0 1 7,0 Z" />
    </g>
  </g>
  <g
     transform="translate(15,131)"
     id="g163">
    <path
       id="polyline157"
       style="fill:none;stroke:#343434;stroke-width:1.2"
       d="m -7,0 h 4"
       class="icon" />
    <path
       id="polyline159"
       style="fill:none;stroke:#343434;stroke-width:1.2"
       d="M 7,0 H 3"
       class="icon" />
    <path
       id="polyline161"
       style="fill:none;stroke:#343434;stroke-width:1.2"
       d="M 5,-2 V 2"
       class="icon" />
  </g>
  <g
     id="use167"
     transform="translate(3,146)">
    <g
       transform="translate(12,12)"
       id="g257" />
  </g>
  <!-- ======== B ======== -->
  <path
     id="rect171"
     style="fill:#558955"
     d="m 5,293 h 20 c 1.662,0 3,1.338 3,3 v 24 c 0,1.662 -1.338,3 -3,3 H 5 c -1.662,0 -3,-1.338 -3,-3 v -24 c 0,-1.662 1.338,-3 3,-3 z"
     class="poly-output" />
  <path
     id="polyline175"
     transform="translate(15,224)"
     style="fill:none;stroke:#343434;stroke-width:1"
     d="M 0,0 V 84"
     class="connect" />
  <g
     aria-label="B"
     id="text179"
     style="font-size:10px;font-family:'DIN Alternate';text-anchor:middle;fill:#343434"
     class="big-label">
    <path
       d="m 12.705078,206 h 2.998047 q 0.839844,0 1.401367,-0.56152 0.566406,-0.53711 0.576172,-1.45996 0,-0.55665 -0.27832,-1.03028 -0.297852,-0.45898 -0.878907,-0.61035 v -0.0195 q 0.307618,-0.14649 0.517579,-0.32715 0.209961,-0.1709 0.322265,-0.36133 0.219727,-0.40039 0.209961,-0.83984 0,-0.85938 -0.532226,-1.38184 -0.527344,-0.51758 -1.577149,-0.52734 h -2.758789 z m 2.739258,-3.15918 q 0.600586,0.01 0.878906,0.31738 0.27832,0.3125 0.27832,0.75196 0,0.42968 -0.27832,0.74218 -0.27832,0.31739 -0.878906,0.32715 H 13.78418 v -2.13867 z m -0.102539,-2.99805 q 0.59082,0.01 0.86914,0.28809 0.283204,0.29785 0.283204,0.72754 0,0.42969 -0.283204,0.71289 -0.27832,0.30762 -0.86914,0.30762 H 13.78418 v -2.03614 z"
       style="font-size:10px;font-family:'DIN Alternate';text-anchor:middle;fill:#343434"
       id="path303" />
  </g>
  <g
     id="use181"
     transform="translate(3,212)">
    <g
       transform="translate(12,12)"
       id="g261" />
  </g>
  <g
     id="use185"
     transform="translate(6,257)">
    <g
       transform="translate(9,9)"
       id="g271">
      <path
         id="circle265"
         style="fill:none;stroke:#222222"
         d="M 8.5,0 A 8.5,8.5 0 0 1 0,8.5 8.5,8.5 0 0 1 -8.5,0 8.5,8.5 0 0 1 0,-8.5 8.5,8.5 0 0 1 8.5,0 Z" />
      <path
         id="circle267"
         style="fill:url(#linearGradient275)"
         d="M 8,0 A 8,8 0 0 1 0,8 8,8 0 0 1 -8,0 8,8 0 0 1 0,-8 8,8 0 0 1 8,0 Z" />
      <path
         id="circle269"
         style="fill:url(#linearGradient277)"
         d="M 7,0 A 7,7 0 0 1 0,7 7,7 0 0 1 -7,0 7,7 0 0 1 0,-7 7,7 0 0 1 7,0 Z" />
    </g>
  </g>
  <g
     transform="translate(15,281)"
     id="g193">
    <path
       id="polyline187"
       style="fill:none;stroke:#343434;stroke-width:1.2"
       d="m -7,0 h 4"
       class="icon" />
    <path
       id="polyline189"
       style="fill:none;stroke:#343434;stroke-width:1.2"
       d="M 7,0 H 3"
       class="icon" />
    <path
       id="polyline191"
       style="fill:none;stroke:#343434;stroke-width:1.2"
       d="M 5,-2 V 2"
       class="icon" />
  </g>
  <g
     id="use197"
     transform="translate(3,296)">
    <g
       transform="translate(12,12)"
       id="g279" />
  </g>
</svg>
