<?xml version="1.0" encoding="UTF-8" standalone="no"?>
<svg
   xmlns:dc="http://purl.org/dc/elements/1.1/"
   xmlns:cc="http://creativecommons.org/ns#"
   xmlns:rdf="http://www.w3.org/1999/02/22-rdf-syntax-ns#"
   xmlns:svg="http://www.w3.org/2000/svg"
   xmlns="http://www.w3.org/2000/svg"
   xmlns:xlink="http://www.w3.org/1999/xlink"
   xmlns:sodipodi="http://sodipodi.sourceforge.net/DTD/sodipodi-0.dtd"
   xmlns:inkscape="http://www.inkscape.org/namespaces/inkscape"
   version="1.1"
   width="45"
   height="380"
   viewBox="0 0 45 380"
   id="svg189"
   sodipodi:docname="CLIP.svg"
   inkscape:version="1.0.2 (e86c8708, 2021-01-15)">
  <metadata
     id="metadata193">
    <rdf:RDF>
      <cc:Work
         rdf:about="">
        <dc:format>image/svg+xml</dc:format>
        <dc:type
           rdf:resource="http://purl.org/dc/dcmitype/StillImage" />
      </cc:Work>
    </rdf:RDF>
  </metadata>
  <sodipodi:namedview
     pagecolor="#ffffff"
     bordercolor="#666666"
     borderopacity="1"
     objecttolerance="10"
     gridtolerance="10"
     guidetolerance="10"
     inkscape:pageopacity="0"
     inkscape:pageshadow="2"
     inkscape:window-width="689"
     inkscape:window-height="480"
     id="namedview191"
     showgrid="false"
     inkscape:zoom="2.1763158"
     inkscape:cx="22.5"
     inkscape:cy="190"
     inkscape:window-x="0"
     inkscape:window-y="25"
     inkscape:window-maximized="0"
     inkscape:current-layer="svg189" />
  <!-- ================ header begin ================ -->
  <style
     id="style2">

    text.title {
      fill: #a91913;
      font-family: 'DIN Alternate';
      font-size: 11.5pt;
    }
    text.big-label {
      fill: #343434;
      font-family: 'DIN Alternate';
      font-size: 7.5pt;
    }
    text.label {
      fill: #343434;
      font-family: 'DIN Alternate';
      font-size: 6pt;
    }
    text.output-label {
      fill: #dfdfdf;
      font-family: 'DIN Alternate';
      font-size: 6pt;
    }

    .background {
      fill: #dfdfdf;
    }
    .poly-output {
      fill: #558955;
    }
    .mono-output {
      fill: #636c9d;
    }

    polyline.icon {
      stroke: #343434;
      stroke-width: 1.2;
      fill: none;
    }
    polyline.connect {
      stroke: #343434;
      stroke-width: 1;
      fill: none;
    }

    rect.lcd-bg {
      fill: #121212;
    }
    rect.lcd-bg-frame {
      fill: #888888;
    }
    rect.lcd-bg-accent {
      fill: #2a2a2a;
    }
    text.lcd-label {
      fill: #777777;
      font-family: 'Monaco';
      font-size: 5pt;
    }
    polyline.lcd-tick {
      stroke: #707070;
      stroke-width: 1;
      fill: none;
    }

    .blueprint {
      stroke: #444444;
      fill: none;
    }

  </style>
  <defs
     id="defs121">
    <linearGradient
       id="smallKnobLight"
       x1="0%"
       y1="0%"
       x2="0%"
       y2="100%">
      <stop
         offset="0%"
         stop-color="#6f6f6f"
         id="stop4" />
      <stop
         offset="100%"
         stop-color="#383838"
         id="stop6" />
    </linearGradient>
    <linearGradient
       id="smallKnobDark"
       x1="0%"
       y1="0%"
       x2="0%"
       y2="100%">
      <stop
         offset="0%"
         stop-color="#494949"
         id="stop9" />
      <stop
         offset="100%"
         stop-color="#282828"
         id="stop11" />
    </linearGradient>
    <linearGradient
       id="bigKnobLight"
       x1="0%"
       y1="0%"
       x2="0%"
       y2="100%">
      <stop
         offset="0%"
         stop-color="#888"
         id="stop14" />
      <stop
         offset="100%"
         stop-color="#333"
         id="stop16" />
    </linearGradient>
    <linearGradient
       id="bigKnobDark"
       x1="0%"
       y1="0%"
       x2="0%"
       y2="100%">
      <stop
         offset="0%"
         stop-color="#5c5c5c"
         id="stop19" />
      <stop
         offset="100%"
         stop-color="#282828"
         id="stop21" />
    </linearGradient>
    <symbol
       id="knob18">
      <g
         transform="translate(9 9)"
         id="g30">
        <circle
           r="8.5"
           stroke="#222"
           fill="none"
           id="circle24" />
        <circle
           r="8"
           fill="url('#smallKnobLight')"
           id="circle26" />
        <circle
           r="7"
           fill="url('#smallKnobDark')"
           id="circle28" />
      </g>
    </symbol>
    <symbol
       id="knob24">
      <g
         transform="translate(12 12)"
         id="g39">
        <circle
           r="11.5"
           stroke="#121212"
           fill="none"
           id="circle33" />
        <circle
           r="11"
           fill="url('#smallKnobLight')"
           id="circle35" />
        <circle
           r="10"
           fill="url('#smallKnobDark')"
           id="circle37" />
      </g>
    </symbol>
    <symbol
       id="knob45">
      <g
         transform="translate(22.5 22.5)"
         id="g46">
        <circle
           r="22"
           fill="url('#bigKnobDark')"
           id="circle42" />
        <circle
           r="20"
           fill="url('#bigKnobLight')"
           id="circle44" />
      </g>
    </symbol>
    <symbol
       id="toggleButton">
      <g
         transform="translate(9 9)"
         id="g49" />
    </symbol>
    <symbol
       id="port">
      <g
         transform="translate(12 12)"
         id="g52" />
    </symbol>
    <symbol
       id="screw">
      <g
         transform="translate(6 6)"
         id="g55" />
    </symbol>
    <symbol
       id="hswitch14">
      <g
         transform="translate(12 7)"
         id="g58" />
    </symbol>
    <symbol
       id="meter-strip">
      <g
         transform="translate(20 4)"
         id="g105">
        <rect
           x="-6"
           y="-1"
           width="5"
           height="106"
           class="lcd-bg-accent"
           id="rect61" />
        <rect
           x="1"
           y="-1"
           width="5"
           height="106"
           class="lcd-bg-accent"
           id="rect63" />
        <g
           transform="translate(-11 2.5)"
           id="g83">
          <text
             x="0"
             y="0"
             class="lcd-label"
             text-anchor="end"
             id="text65">0</text>
          <text
             x="0"
             y="13"
             class="lcd-label"
             text-anchor="end"
             id="text67">3</text>
          <text
             x="0"
             y="26"
             class="lcd-label"
             text-anchor="end"
             id="text69">6</text>
          <text
             x="0"
             y="39"
             class="lcd-label"
             text-anchor="end"
             id="text71">9</text>
          <text
             x="0"
             y="52"
             class="lcd-label"
             text-anchor="end"
             id="text73">12</text>
          <text
             x="0"
             y="65"
             class="lcd-label"
             text-anchor="end"
             id="text75">18</text>
          <text
             x="0"
             y="78"
             class="lcd-label"
             text-anchor="end"
             id="text77">24</text>
          <text
             x="0"
             y="91"
             class="lcd-label"
             text-anchor="end"
             id="text79">36</text>
          <text
             x="0"
             y="104"
             class="lcd-label"
             text-anchor="end"
             id="text81">48</text>
        </g>
        <g
           transform="translate(-10 0)"
           id="g103">
          <polyline
             points="0   0 2   0"
             class="lcd-tick"
             id="polyline85" />
          <polyline
             points="0  13 2  13"
             class="lcd-tick"
             id="polyline87" />
          <polyline
             points="0  26 2  26"
             class="lcd-tick"
             id="polyline89" />
          <polyline
             points="0  39 2  39"
             class="lcd-tick"
             id="polyline91" />
          <polyline
             points="0  52 2  52"
             class="lcd-tick"
             id="polyline93" />
          <polyline
             points="0  65 2  65"
             class="lcd-tick"
             id="polyline95" />
          <polyline
             points="0  78 2  78"
             class="lcd-tick"
             id="polyline97" />
          <polyline
             points="0  91 2  91"
             class="lcd-tick"
             id="polyline99" />
          <polyline
             points="0 104 2 104"
             class="lcd-tick"
             id="polyline101" />
        </g>
      </g>
    </symbol>
    <symbol
       id="logo">
      <g
         transform="translate(6 6)"
         id="g118">
        <rect
           x="-5"
           y="-4"
           height="12"
           width="10"
           rx="2"
           fill="#6a6a6a"
           stroke="none"
           id="rect108" />
        <rect
           x="-3"
           y="-5"
           height="4"
           width="6"
           rx="1"
           fill="#6a6a6a"
           stroke="none"
           id="rect110" />
        <path
           d="M0,-3, 0,-5"
           stroke="#6a6a6a"
           stroke-width="2"
           stroke-linecap="round"
           id="path112" />
        <circle
           cx="-2.5"
           cy="0"
           r="1.2"
           fill="#dfdfdf"
           stroke="none"
           id="circle114" />
        <circle
           cx="2.5"
           cy="0"
           r="1.2"
           fill="#dfdfdf"
           stroke="none"
           id="circle116" />
      </g>
    </symbol>
    <linearGradient
       inkscape:collect="always"
       xlink:href="#smallKnobLight"
       id="linearGradient224"
       x1="-11"
       y1="-11"
       x2="-11"
       y2="11"
       gradientUnits="userSpaceOnUse" />
    <linearGradient
       inkscape:collect="always"
       xlink:href="#smallKnobDark"
       id="linearGradient226"
       x1="-10"
       y1="-10"
       x2="-10"
       y2="10"
       gradientUnits="userSpaceOnUse" />
    <linearGradient
       inkscape:collect="always"
       xlink:href="#smallKnobLight"
       id="linearGradient298"
       x1="-8"
       y1="-8"
       x2="-8"
       y2="8"
       gradientUnits="userSpaceOnUse" />
    <linearGradient
       inkscape:collect="always"
       xlink:href="#smallKnobDark"
       id="linearGradient300"
       x1="-7"
       y1="-7"
       x2="-7"
       y2="7"
       gradientUnits="userSpaceOnUse" />
  </defs>
  <!-- ================ header end ================ -->
  <path
     id="rect123"
     style="fill:#dfdfdf"
     d="M 0,0 H 45 V 380 H 0 Z"
     class="background" />
  <g
     aria-label="CLIP"
     id="text125"
     style="font-size:15.3333px;font-family:'DIN Alternate';text-anchor:middle;fill:#a91913"
     class="title">
    <path
       d="m 14.19694,26.945313 q -0.688802,1.489908 -2.08138,1.489908 -0.583984,0 -1.003255,-0.24707 -0.426758,-0.209635 -0.688802,-0.546549 -0.32194,-0.351888 -0.4267579,-0.920899 -0.1197917,-0.56901 -0.1197917,-2.178711 0,-1.6097 0.1197917,-2.193685 0.1048179,-0.554036 0.4267579,-0.905924 0.262044,-0.336914 0.688802,-0.561523 0.419271,-0.217123 1.003255,-0.232097 0.79362,0.01497 1.347656,0.456706 0.531576,0.464193 0.733724,1.123047 h 1.751953 q -0.262044,-1.370117 -1.257812,-2.298503 -0.995768,-0.920898 -2.575521,-0.935872 -1.28776,0.01497 -2.1487629,0.613932 -0.8759765,0.591471 -1.2727864,1.347656 -0.2470703,0.39681 -0.366862,1.04069 -0.1123047,0.643881 -0.1123047,2.545573 0,1.871745 0.1123047,2.530599 0.059896,0.351888 0.1497396,0.583985 0.097331,0.224609 0.2171224,0.471679 0.3968099,0.756185 1.2727864,1.332683 0.8610029,0.598958 2.1487629,0.628906 1.422526,0 2.463216,-0.808594 1.010742,-0.816081 1.370117,-2.335937 z"
       style="font-size:15.3333px;font-family:'DIN Alternate';text-anchor:middle;fill:#a91913"
       id="path392" />
    <path
       d="m 17.124349,30 h 6.970378 v -1.564779 h -5.315755 v -9.351236 h -1.654623 z"
       style="font-size:15.3333px;font-family:'DIN Alternate';text-anchor:middle;fill:#a91913"
       id="path394" />
    <path
       d="m 25.659505,30 h 1.654623 V 19.083985 h -1.654623 z"
       style="font-size:15.3333px;font-family:'DIN Alternate';text-anchor:middle;fill:#a91913"
       id="path396" />
    <path
       d="m 31.267253,20.648763 h 2.388346 q 0.673828,-0.01497 1.182943,0.306966 0.336914,0.194662 0.524088,0.531576 0.179688,0.374349 0.179688,0.920898 0,0.658854 -0.441732,1.197917 -0.464193,0.554036 -1.385091,0.56901 H 31.267253 Z M 29.61263,30 h 1.654623 v -4.260091 h 2.515625 q 1.68457,-0.02995 2.560547,-1.078125 0.853515,-0.995768 0.853515,-2.208659 0,-0.898437 -0.336914,-1.557291 -0.32194,-0.681316 -0.838541,-1.048178 -0.613933,-0.486653 -1.212891,-0.64388 -0.598958,-0.119791 -1.242839,-0.119791 H 29.61263 Z"
       style="font-size:15.3333px;font-family:'DIN Alternate';text-anchor:middle;fill:#a91913"
       id="path398" />
  </g>
  <g
     transform="translate(16.5,364)"
     id="g129">
    <g
       id="use127">
      <g
         transform="translate(6,6)"
         id="g320">
        <path
           id="rect310"
           style="fill:#6a6a6a;stroke:none"
           d="m -3,-4 h 6 c 1.108,0 2,0.892 2,2 V 6 C 5,7.108 4.108,8 3,8 H -3 C -4.108,8 -5,7.108 -5,6 v -8 c 0,-1.108 0.892,-2 2,-2 z" />
        <path
           id="rect312"
           style="fill:#6a6a6a;stroke:none"
           d="m -2,-5 h 4 c 0.554,0 1,0.446 1,1 v 2 c 0,0.554 -0.446,1 -1,1 h -4 c -0.554,0 -1,-0.446 -1,-1 v -2 c 0,-0.554 0.446,-1 1,-1 z" />
        <path
           d="M 0,-3 V -5"
           stroke="#6a6a6a"
           stroke-width="2"
           stroke-linecap="round"
           id="path314" />
        <path
           id="circle316"
           style="fill:#dfdfdf;stroke:none"
           d="M -1.3,0 A 1.2,1.2 0 0 1 -2.5,1.2 1.2,1.2 0 0 1 -3.7,0 1.2,1.2 0 0 1 -2.5,-1.2 1.2,1.2 0 0 1 -1.3,0 Z" />
        <path
           id="circle318"
           style="fill:#dfdfdf;stroke:none"
           d="M 3.7,0 A 1.2,1.2 0 0 1 2.5,1.2 1.2,1.2 0 0 1 1.3,0 1.2,1.2 0 0 1 2.5,-1.2 1.2,1.2 0 0 1 3.7,0 Z" />
      </g>
    </g>
  </g>
  <g
     id="use133">
    <g
       transform="translate(6,6)"
       id="g232" />
  </g>
  <g
     id="use137"
     transform="translate(33,368)">
    <g
       transform="translate(6,6)"
       id="g236" />
  </g>
  <!-- ======== lcd ======== -->
  <path
     id="rect141"
     style="fill:#888888"
     d="m 2,35 h 41 c 1.108,0 2,0.892 2,2 v 118 c 0,1.108 -0.892,2 -2,2 H 2 c -1.108,0 -2,-0.892 -2,-2 V 37 c 0,-1.108 0.892,-2 2,-2 z"
     class="lcd-bg-frame" />
  <path
     id="rect143"
     style="fill:#121212"
     d="m 2,36 h 41 c 1.108,0 2,0.892 2,2 v 116 c 0,1.108 -0.892,2 -2,2 H 2 c -1.108,0 -2,-0.892 -2,-2 V 38 c 0,-1.108 0.892,-2 2,-2 z"
     class="lcd-bg" />
  <g
     id="use145"
     transform="translate(4,40)">
    <g
       transform="translate(20,4)"
       id="g284">
      <path
         id="rect240"
         style="fill:#2a2a2a"
         d="m -6,-1 h 5 v 106 h -5 z"
         class="lcd-bg-accent" />
      <path
         id="rect242"
         style="fill:#2a2a2a"
         d="M 1,-1 H 6 V 105 H 1 Z"
         class="lcd-bg-accent" />
      <g
         transform="translate(-11,2.5)"
         id="g262">
        <g
           aria-label="0"
           id="text244"
           style="font-size:6.66667px;font-family:Monaco;text-anchor:end;fill:#777777"
           class="lcd-label">
          <path
             d="m -1.9986979,-5.2018228 q 0.8626302,0 1.31510417,0.7259114 0.45247394,0.7226563 0.45247394,1.9498698 0,1.2304687 -0.45247394,1.95638016 -0.45247397,0.72265623 -1.31510417,0.72265623 -0.8593749,0 -1.3151041,-0.72265623 -0.452474,-0.72591146 -0.452474,-1.95638016 0,-1.2272135 0.452474,-1.9498698 0.4557292,-0.7259114 1.3151041,-0.7259114 z m -0.9863281,3.7565103 1.7480469,-2.7376301 q -0.1660157,-0.3027344 -0.3613282,-0.406901 -0.1920572,-0.1074219 -0.4003906,-0.1074219 -0.5436197,0 -0.8268229,0.6054687 -0.2832031,0.6022135 -0.2832031,1.5299479 0,0.2115885 0.013021,0.4557292 0.013021,0.2441406 0.1106771,0.6608072 z m 1.9661458,-2.1354166 -1.735026,2.7539062 q 0.139974,0.23763021 0.3222656,0.35807291 0.1822917,0.1171875 0.4069011,0.1171875 0.6184895,0 0.8789062,-0.69010411 0.26041665,-0.6933594 0.26041665,-1.5364583 0,-0.5208334 -0.13346355,-1.0026042 z"
             style="font-size:6.66667px;font-family:Monaco;text-anchor:end;fill:#777777"
             id="path340" />
        </g>
        <g
           aria-label="3"
           id="text246"
           style="font-size:6.66667px;font-family:Monaco;text-anchor:end;fill:#777777"
           class="lcd-label">
          <path
             d="m -3.5253905,12.908854 v -0.638021 q 0.7454426,0.377605 1.2923176,0.377605 0.5013021,0 0.8268229,-0.302735 0.3287761,-0.305989 0.3287761,-0.784505 0,-0.481771 -0.3613281,-0.784505 -0.358073,-0.302735 -1.2207031,-0.302735 H -2.9947916 V 9.9694011 h 0.4654948 q 0.6347656,0 0.9179687,-0.2832031 0.2832031,-0.2864583 0.2832031,-0.6347656 0,-0.3157552 -0.2311198,-0.530599 -0.2311197,-0.2180989 -0.7096354,-0.2180989 -0.5371093,0 -1.1555989,0.3027344 V 8.029297 q 0.6184896,-0.2311198 1.1328125,-0.2311198 0.9212239,0 1.2695312,0.3645833 0.3515625,0.3613281 0.3515625,0.8268229 0,0.3450521 -0.18554687,0.6477865 -0.18554683,0.3027343 -0.68359373,0.5403641 0.4394531,0.130209 0.66406248,0.319011 0.22460937,0.188802 0.33854166,0.445963 0.1171875,0.257162 0.1171875,0.576172 0,0.709636 -0.52734374,1.171875 -0.5240885,0.46224 -1.3574218,0.46224 -0.2408855,0 -0.5273438,-0.03581 -0.2832031,-0.03581 -0.6933593,-0.208333 z"
             style="font-size:6.66667px;font-family:Monaco;text-anchor:end;fill:#777777"
             id="path343" />
        </g>
        <g
           aria-label="6"
           id="text248"
           style="font-size:6.66667px;font-family:Monaco;text-anchor:end;fill:#777777"
           class="lcd-label">
          <path
             d="m -3.0468749,23.630208 q 0.234375,-0.348307 0.579427,-0.566406 0.3483073,-0.221354 0.764974,-0.221354 0.3938802,0 0.74544267,0.192057 0.3548177,0.192058 0.54036457,0.53711 0.18554687,0.341797 0.18554687,0.797526 0,0.719401 -0.46223957,1.253255 -0.45898434,0.530599 -1.21093744,0.530599 -0.8854167,0 -1.3248698,-0.738932 -0.4361979,-0.742188 -0.4361979,-1.884766 0,-1.263021 0.5566406,-1.995443 0.5566406,-0.735677 1.5071614,-0.735677 0.5110677,0 0.99283856,0.14974 v 0.611979 q -0.54036456,-0.257162 -1.01888016,-0.257162 -0.6770833,0 -1.0481771,0.621745 Q -3.0468749,22.546224 -3.0468749,23.5 Z m 1.188151,2.01823 q 0.2441406,0 0.4915364,-0.14323 0.2473959,-0.146484 0.38736982,-0.445963 0.14322916,-0.302735 0.14322916,-0.657552 0,-0.46224 -0.24088538,-0.758464 -0.2376302,-0.296224 -0.6803386,-0.296224 -0.4589843,0 -0.7552083,0.345052 -0.2929687,0.341797 -0.2929687,0.833334 0,0.494791 0.2864583,0.810547 0.2897135,0.3125 0.6608073,0.3125 z"
             style="font-size:6.66667px;font-family:Monaco;text-anchor:end;fill:#777777"
             id="path346" />
        </g>
        <g
           aria-label="9"
           id="text250"
           style="font-size:6.66667px;font-family:Monaco;text-anchor:end;fill:#777777"
           class="lcd-label">
          <path
             d="m -0.95052081,36.317708 q -0.23437499,0.348308 -0.58268229,0.569662 -0.3450521,0.218099 -0.7617187,0.218099 -0.3938802,0 -0.7486979,-0.188802 -0.3515625,-0.192058 -0.5371094,-0.53711 -0.1855469,-0.345052 -0.1855469,-0.800781 0,-0.716146 0.4589844,-1.246745 0.4622396,-0.533854 1.2141927,-0.533854 0.8854166,0 1.32161454,0.742188 0.43945312,0.738932 0.43945312,1.88151 0,1.263021 -0.55664061,1.998698 -0.55664065,0.732422 -1.50716145,0.732422 -0.5110677,0 -0.9928385,-0.152995 v -0.608724 q 0.5403646,0.253906 1.0188802,0.253906 0.6770833,0 1.048177,-0.621744 0.37109379,-0.621745 0.37109379,-1.575521 z M -2.1386718,34.302734 q -0.2441406,0 -0.4915365,0.146485 -0.2473958,0.143229 -0.390625,0.442708 -0.1399739,0.299479 -0.1399739,0.657552 0,0.458985 0.2376302,0.755209 0.2408854,0.296224 0.6835937,0.296224 0.4589844,0 0.7519531,-0.341797 0.296224,-0.345052 0.296224,-0.833334 0,-0.494791 -0.2897136,-0.807291 -0.2864583,-0.315756 -0.657552,-0.315756 z"
             style="font-size:6.66667px;font-family:Monaco;text-anchor:end;fill:#777777"
             id="path349" />
        </g>
        <g
           aria-label="12"
           id="text252"
           style="font-size:6.66667px;font-family:Monaco;text-anchor:end;fill:#777777"
           class="lcd-label">
          <path
             d="m -6.1458332,51.495443 v -3.89974 q -0.2734375,0.218099 -0.5305989,0.371094 -0.2571615,0.152995 -0.7063802,0.3125 v -0.546875 q 0.7128906,-0.302734 1.2369791,-0.784505 h 0.6054687 v 4.547526 h 1.2141927 V 52 h -3.0566405 v -0.504557 z"
             style="font-size:6.66667px;font-family:Monaco;text-anchor:end;fill:#777777"
             id="path352" />
          <path
             d="M -0.45572914,52 H -3.5123697 v -0.556641 q 0,-0.214843 0.087891,-0.458984 0.087891,-0.247396 0.3352865,-0.553385 0.2473958,-0.30599 0.5240885,-0.589193 l 0.3450521,-0.351563 q 0.1041666,-0.107421 0.4557291,-0.498046 0.3515625,-0.390625 0.4622396,-0.598959 0.1139323,-0.208333 0.1139323,-0.410156 0,-0.325521 -0.2604167,-0.501302 -0.2604166,-0.179037 -0.5859374,-0.179037 -0.1855469,0 -0.4166667,0.04232 -0.2278646,0.04232 -0.4003906,0.100912 -0.1725261,0.05534 -0.5598958,0.231119 v -0.537109 q 0.4101562,-0.195312 0.8203124,-0.266927 0.4134115,-0.07487 0.6803386,-0.07487 0.3938802,0 0.7226562,0.130209 0.33203124,0.126953 0.49153645,0.397135 0.16276041,0.270182 0.16276041,0.576172 0,0.341797 -0.20833333,0.69987 -0.20507812,0.358072 -0.77799473,0.921224 l -0.3710938,0.367838 -0.3125,0.30599 q -0.2962239,0.299479 -0.4785156,0.579427 -0.1822916,0.279948 -0.2018229,0.667317 h 2.42838536 z"
             style="font-size:6.66667px;font-family:Monaco;text-anchor:end;fill:#777777"
             id="path354" />
        </g>
        <g
           aria-label="18"
           id="text254"
           style="font-size:6.66667px;font-family:Monaco;text-anchor:end;fill:#777777"
           class="lcd-label">
          <path
             d="m -6.1458332,64.495443 v -3.89974 q -0.2734375,0.218099 -0.5305989,0.371094 -0.2571615,0.152995 -0.7063802,0.3125 v -0.546875 q 0.7128906,-0.302734 1.2369791,-0.784505 h 0.6054687 v 4.547526 h 1.2141927 V 65 h -3.0566405 v -0.504557 z"
             style="font-size:6.66667px;font-family:Monaco;text-anchor:end;fill:#777777"
             id="path357" />
          <path
             d="m -2.5032551,62.275391 -0.1106771,-0.08138 q -0.2311198,-0.16276 -0.452474,-0.478515 -0.2213541,-0.319011 -0.2213541,-0.69987 0,-0.504557 0.3971354,-0.859375 0.3971354,-0.358073 1.0091145,-0.358073 0.374349,0 0.6738282,0.136719 0.29947911,0.133463 0.46223953,0.397135 0.16276041,0.263672 0.16276041,0.576172 0,0.214844 -0.0748698,0.416667 -0.0748698,0.198568 -0.22460937,0.397135 -0.14648438,0.195313 -0.58593748,0.553386 l 0.2734375,0.218099 q 0.4785156,0.390625 0.64453122,0.673828 0.16601562,0.283203 0.16601562,0.634765 0,0.546875 -0.39713541,0.950521 -0.39713543,0.400391 -1.19140623,0.400391 -0.797526,0 -1.1946614,-0.374349 -0.3971354,-0.377604 -0.3971354,-0.934245 0,-0.830078 1.0611979,-1.56901 z m 0.6217447,-0.309245 q 0.4589844,-0.348307 0.5729167,-0.582682 0.1171875,-0.234375 0.1171875,-0.436198 0,-0.244141 -0.2148438,-0.442709 -0.2148437,-0.201823 -0.5533854,-0.201823 -0.3645833,0 -0.5566406,0.218099 -0.188802,0.218099 -0.188802,0.452474 0,0.227865 0.1595052,0.429688 0.1595052,0.201823 0.5110677,0.452474 z m -0.1660156,0.63151 q -0.859375,0.660808 -0.859375,1.236979 0,0.341797 0.2832032,0.576172 0.2832031,0.234375 0.6705729,0.234375 0.3548177,0 0.6347656,-0.224609 0.2799479,-0.224609 0.2799479,-0.559896 0,-0.328776 -0.3417969,-0.667318 -0.3385416,-0.338541 -0.4720052,-0.442708 z"
             style="font-size:6.66667px;font-family:Monaco;text-anchor:end;fill:#777777"
             id="path359" />
        </g>
        <g
           aria-label="24"
           id="text256"
           style="font-size:6.66667px;font-family:Monaco;text-anchor:end;fill:#777777"
           class="lcd-label">
          <path
             d="m -4.4531249,78 h -3.0566405 v -0.556641 q 0,-0.214843 0.087891,-0.458984 0.087891,-0.247396 0.3352864,-0.553385 0.2473959,-0.30599 0.5240886,-0.589193 l 0.345052,-0.351563 q 0.1041667,-0.107421 0.4557292,-0.498046 0.3515625,-0.390625 0.4622396,-0.598959 0.1139322,-0.208333 0.1139322,-0.410156 0,-0.325521 -0.2604166,-0.501302 -0.2604167,-0.179037 -0.5859375,-0.179037 -0.1855469,0 -0.4166667,0.04232 -0.2278645,0.04232 -0.4003906,0.100912 -0.172526,0.05534 -0.5598958,0.231119 v -0.537109 q 0.4101563,-0.195312 0.8203125,-0.266927 0.4134114,-0.07487 0.6803385,-0.07487 0.3938802,0 0.7226562,0.130209 0.3320313,0.126953 0.4915365,0.397135 0.1627604,0.270182 0.1627604,0.576172 0,0.341797 -0.2083333,0.69987 -0.2050781,0.358072 -0.7779948,0.921224 l -0.3710937,0.367838 -0.3125,0.30599 q -0.296224,0.299479 -0.4785156,0.579427 -0.1822917,0.279948 -0.201823,0.667317 h 2.4283854 z"
             style="font-size:6.66667px;font-family:Monaco;text-anchor:end;fill:#777777"
             id="path362" />
          <path
             d="m -1.6959635,78 v -1.41276 h -2.1451822 v -0.507813 l 2.1451822,-3.13151 h 0.608724 v 3.13151 h 0.93424473 V 76.58724 H -1.0872395 V 78 Z m 0,-1.920573 v -2.213541 l -1.500651,2.213541 z"
             style="font-size:6.66667px;font-family:Monaco;text-anchor:end;fill:#777777"
             id="path364" />
        </g>
        <g
           aria-label="36"
           id="text258"
           style="font-size:6.66667px;font-family:Monaco;text-anchor:end;fill:#777777"
           class="lcd-label">
          <path
             d="m -7.5227863,90.908854 v -0.638021 q 0.7454427,0.377605 1.2923177,0.377605 0.5013021,0 0.8268229,-0.302735 0.328776,-0.305989 0.328776,-0.784505 0,-0.481771 -0.3613281,-0.784505 -0.3580729,-0.302735 -1.2207031,-0.302735 h -0.3352864 v -0.504557 h 0.4654947 q 0.6347657,0 0.9179688,-0.283203 0.2832031,-0.286458 0.2832031,-0.634766 0,-0.315755 -0.2311198,-0.530599 -0.2311198,-0.218099 -0.7096354,-0.218099 -0.5371094,0 -1.1555989,0.302735 v -0.576172 q 0.6184895,-0.23112 1.1328124,-0.23112 0.921224,0 1.2695313,0.364584 0.3515625,0.361328 0.3515625,0.826822 0,0.345053 -0.1855469,0.647787 -0.1855469,0.302734 -0.6835937,0.540364 0.4394531,0.130209 0.6640624,0.319011 0.2246094,0.188802 0.3385417,0.445963 0.1171875,0.257162 0.1171875,0.576172 0,0.709636 -0.5273437,1.171875 -0.5240886,0.46224 -1.3574219,0.46224 -0.2408854,0 -0.5273437,-0.03581 -0.2832031,-0.03581 -0.6933594,-0.208333 z"
             style="font-size:6.66667px;font-family:Monaco;text-anchor:end;fill:#777777"
             id="path367" />
          <path
             d="m -3.0468749,88.630208 q 0.234375,-0.348307 0.5794271,-0.566406 0.3483072,-0.221354 0.7649739,-0.221354 0.3938802,0 0.74544269,0.192057 0.3548177,0.192058 0.54036457,0.53711 0.18554687,0.341797 0.18554687,0.797526 0,0.719401 -0.46223957,1.253255 -0.45898436,0.530599 -1.21093746,0.530599 -0.8854167,0 -1.3248698,-0.738932 -0.4361979,-0.742188 -0.4361979,-1.884766 0,-1.263021 0.5566406,-1.995443 0.5566406,-0.735677 1.5071615,-0.735677 0.5110677,0 0.99283847,0.14974 v 0.611979 q -0.54036457,-0.257162 -1.01888017,-0.257162 -0.6770833,0 -1.0481771,0.621745 Q -3.0468749,87.546224 -3.0468749,88.5 Z m 1.188151,2.01823 q 0.2441406,0 0.4915364,-0.14323 0.2473959,-0.146484 0.38736983,-0.445963 0.14322916,-0.302735 0.14322916,-0.657552 0,-0.46224 -0.24088539,-0.758464 -0.2376302,-0.296224 -0.6803385,-0.296224 -0.4589844,0 -0.7552084,0.345052 -0.2929687,0.341797 -0.2929687,0.833334 0,0.494791 0.2864583,0.810547 0.2897136,0.3125 0.6608073,0.3125 z"
             style="font-size:6.66667px;font-family:Monaco;text-anchor:end;fill:#777777"
             id="path369" />
        </g>
        <g
           aria-label="48"
           id="text260"
           style="font-size:6.66667px;font-family:Monaco;text-anchor:end;fill:#777777"
           class="lcd-label">
          <path
             d="m -5.6933592,104 v -1.41276 h -2.1451823 v -0.50781 l 2.1451823,-3.131513 h 0.6087239 v 3.131513 h 0.9342448 v 0.50781 H -5.0846353 V 104 Z m 0,-1.92057 v -2.213544 l -1.500651,2.213544 z"
             style="font-size:6.66667px;font-family:Monaco;text-anchor:end;fill:#777777"
             id="path372" />
          <path
             d="m -2.5032551,101.27539 -0.1106771,-0.0814 q -0.2311198,-0.16276 -0.452474,-0.47852 -0.2213541,-0.31901 -0.2213541,-0.69986 0,-0.504562 0.3971354,-0.85938 0.3971354,-0.358073 1.0091145,-0.358073 0.374349,0 0.6738282,0.136719 0.29947911,0.133463 0.46223953,0.397135 0.16276041,0.263672 0.16276041,0.576172 0,0.214847 -0.0748698,0.416667 -0.0748698,0.19857 -0.22460937,0.39714 -0.14648438,0.19531 -0.58593748,0.55338 l 0.2734375,0.2181 q 0.4785156,0.39062 0.64453122,0.67383 0.16601562,0.2832 0.16601562,0.63476 0,0.54688 -0.39713541,0.95052 -0.39713543,0.40039 -1.19140623,0.40039 -0.797526,0 -1.1946614,-0.37434 -0.3971354,-0.37761 -0.3971354,-0.93425 0,-0.83008 1.0611979,-1.56901 z m 0.6217447,-0.30924 q 0.4589844,-0.34831 0.5729167,-0.58269 0.1171875,-0.23437 0.1171875,-0.436194 0,-0.244141 -0.2148438,-0.442709 -0.2148437,-0.201823 -0.5533854,-0.201823 -0.3645833,0 -0.5566406,0.218099 -0.188802,0.218099 -0.188802,0.452474 0,0.227863 0.1595052,0.429683 0.1595052,0.20183 0.5110677,0.45248 z m -0.1660156,0.63151 q -0.859375,0.6608 -0.859375,1.23698 0,0.34179 0.2832032,0.57617 0.2832031,0.23437 0.6705729,0.23437 0.3548177,0 0.6347656,-0.22461 0.2799479,-0.22461 0.2799479,-0.55989 0,-0.32878 -0.3417969,-0.66732 -0.3385416,-0.33854 -0.4720052,-0.44271 z"
             style="font-size:6.66667px;font-family:Monaco;text-anchor:end;fill:#777777"
             id="path374" />
        </g>
      </g>
      <g
         transform="translate(-10)"
         id="g282">
        <path
           id="polyline264"
           style="fill:none;stroke:#707070;stroke-width:1"
           d="M 0,0 H 2"
           class="lcd-tick" />
        <path
           id="polyline266"
           style="fill:none;stroke:#707070;stroke-width:1"
           d="M 0,13 H 2"
           class="lcd-tick" />
        <path
           id="polyline268"
           style="fill:none;stroke:#707070;stroke-width:1"
           d="M 0,26 H 2"
           class="lcd-tick" />
        <path
           id="polyline270"
           style="fill:none;stroke:#707070;stroke-width:1"
           d="M 0,39 H 2"
           class="lcd-tick" />
        <path
           id="polyline272"
           style="fill:none;stroke:#707070;stroke-width:1"
           d="M 0,52 H 2"
           class="lcd-tick" />
        <path
           id="polyline274"
           style="fill:none;stroke:#707070;stroke-width:1"
           d="M 0,65 H 2"
           class="lcd-tick" />
        <path
           id="polyline276"
           style="fill:none;stroke:#707070;stroke-width:1"
           d="M 0,78 H 2"
           class="lcd-tick" />
        <path
           id="polyline278"
           style="fill:none;stroke:#707070;stroke-width:1"
           d="M 0,91 H 2"
           class="lcd-tick" />
        <path
           id="polyline280"
           style="fill:none;stroke:#707070;stroke-width:1"
           d="M 0,104 H 2"
           class="lcd-tick" />
      </g>
    </g>
  </g>
  <!-- ======== level ======== -->
  <path
     id="polyline149"
     transform="translate(22.5,188)"
     style="fill:none;stroke:#343434;stroke-width:1"
     d="M 0,0 V 72"
     class="connect" />
  <g
     aria-label="LEVEL"
     id="text151"
     style="font-size:8px;font-family:'DIN Alternate';text-anchor:middle;fill:#343434"
     class="label">
    <path
       d="m 11.96875,171 h 3.636719 v -0.81641 h -2.773438 v -4.8789 H 11.96875 Z"
       style="font-size:8px;font-family:'DIN Alternate';text-anchor:middle;fill:#343434"
       id="path410" />
    <path
       d="m 16.421875,171 h 3.636719 v -0.81641 h -2.773438 v -1.67187 h 2.367188 v -0.76563 h -2.367188 v -1.625 h 2.773438 v -0.8164 h -3.636719 z"
       style="font-size:8px;font-family:'DIN Alternate';text-anchor:middle;fill:#343434"
       id="path412" />
    <path
       d="m 22.160156,171 h 0.671875 l 1.882813,-5.69531 h -0.914063 l -1.296875,4.33593 h -0.01563 l -1.292969,-4.33593 H 20.28125 Z"
       style="font-size:8px;font-family:'DIN Alternate';text-anchor:middle;fill:#343434"
       id="path414" />
    <path
       d="m 25.328125,171 h 3.636719 v -0.81641 h -2.773438 v -1.67187 h 2.367188 v -0.76563 h -2.367188 v -1.625 h 2.773438 v -0.8164 h -3.636719 z"
       style="font-size:8px;font-family:'DIN Alternate';text-anchor:middle;fill:#343434"
       id="path416" />
    <path
       d="m 29.78125,171 h 3.636719 v -0.81641 h -2.773438 v -4.8789 H 29.78125 Z"
       style="font-size:8px;font-family:'DIN Alternate';text-anchor:middle;fill:#343434"
       id="path418" />
  </g>
  <g
     id="use153"
     transform="translate(10.5,176)">
    <g
       transform="translate(12,12)"
       id="g220">
      <path
         id="circle214"
         style="fill:none;stroke:#121212"
         d="M 11.5,0 A 11.5,11.5 0 0 1 0,11.5 11.5,11.5 0 0 1 -11.5,0 11.5,11.5 0 0 1 0,-11.5 11.5,11.5 0 0 1 11.5,0 Z" />
      <path
         id="circle216"
         style="fill:url(#linearGradient224)"
         d="M 11,0 A 11,11 0 0 1 0,11 11,11 0 0 1 -11,0 11,11 0 0 1 0,-11 11,11 0 0 1 11,0 Z" />
      <path
         id="circle218"
         style="fill:url(#linearGradient226)"
         d="M 10,0 A 10,10 0 0 1 0,10 10,10 0 0 1 -10,0 10,10 0 0 1 0,-10 10,10 0 0 1 10,0 Z" />
    </g>
  </g>
  <g
     transform="translate(22.5,239)"
     id="g163">
    <path
       id="polyline157"
       style="fill:none;stroke:#343434;stroke-width:1.2"
       d="m -7,0 h 4"
       class="icon" />
    <path
       id="polyline159"
       style="fill:none;stroke:#343434;stroke-width:1.2"
       d="M 7,0 H 3"
       class="icon" />
    <path
       id="polyline161"
       style="fill:none;stroke:#343434;stroke-width:1.2"
       d="M 5,-2 V 2"
       class="icon" />
  </g>
  <g
     id="use167"
     transform="translate(13.5,215)">
    <g
       transform="translate(9,9)"
       id="g294">
      <path
         id="circle288"
         style="fill:none;stroke:#222222"
         d="M 8.5,0 A 8.5,8.5 0 0 1 0,8.5 8.5,8.5 0 0 1 -8.5,0 8.5,8.5 0 0 1 0,-8.5 8.5,8.5 0 0 1 8.5,0 Z" />
      <path
         id="circle290"
         style="fill:url(#linearGradient298)"
         d="M 8,0 A 8,8 0 0 1 0,8 8,8 0 0 1 -8,0 8,8 0 0 1 0,-8 8,8 0 0 1 8,0 Z" />
      <path
         id="circle292"
         style="fill:url(#linearGradient300)"
         d="M 7,0 A 7,7 0 0 1 0,7 7,7 0 0 1 -7,0 7,7 0 0 1 0,-7 7,7 0 0 1 7,0 Z" />
    </g>
  </g>
  <g
     id="use171"
     transform="translate(10.5,248)">
    <g
       transform="translate(12,12)"
       id="g302" />
  </g>
  <!-- ======== in/out ======== -->
  <g
     id="use175"
     transform="translate(10.5,281)">
    <g
       transform="translate(12,12)"
       id="g228" />
  </g>
  <g
     aria-label="IN"
     id="text177"
     style="font-size:8px;font-family:'DIN Alternate';text-anchor:middle;fill:#343434"
     class="label">
    <path
       d="m 19.335937,315 h 0.863282 v -5.69531 h -0.863282 z"
       style="font-size:8px;font-family:'DIN Alternate';text-anchor:middle;fill:#343434"
       id="path402" />
    <path
       d="m 21.398437,315 h 0.863282 v -4.04688 h 0.01563 L 24.851562,315 h 0.816407 v -5.69531 h -0.863282 v 4.04687 h -0.01563 l -2.578125,-4.04687 h -0.8125 z"
       style="font-size:8px;font-family:'DIN Alternate';text-anchor:middle;fill:#343434"
       id="path404" />
  </g>
  <path
     id="rect181"
     style="fill:#558955"
     d="m 10.5,319 h 24 c 1.662,0 3,1.338 3,3 v 35 c 0,1.662 -1.338,3 -3,3 h -24 c -1.662,0 -3,-1.338 -3,-3 v -35 c 0,-1.662 1.338,-3 3,-3 z"
     class="poly-output" />
  <g
     id="use183"
     transform="translate(10.5,322)">
    <g
       transform="translate(12,12)"
       id="g306" />
  </g>
  <g
     aria-label="OUT"
     id="text185"
     style="font-size:8px;font-family:'DIN Alternate';text-anchor:middle;fill:#dfdfdf"
     class="output-label">
    <path
       d="m 15.945313,353.15234 q 0,0.97657 0.05859,1.32032 0.03125,0.18359 0.07813,0.30468 0.05078,0.11719 0.113281,0.2461 0.207032,0.39453 0.664063,0.69531 0.449219,0.3125 1.121094,0.32812 0.679687,-0.0156 1.132812,-0.32812 0.449219,-0.30078 0.648438,-0.69531 0.144531,-0.20703 0.199218,-0.55078 0.05078,-0.34375 0.05078,-1.32032 0,-0.99218 -0.05078,-1.32812 -0.05469,-0.33594 -0.199218,-0.54297 -0.199219,-0.39453 -0.648438,-0.70313 -0.453125,-0.3125 -1.132812,-0.32031 -0.671875,0.008 -1.121094,0.32031 -0.457031,0.3086 -0.664063,0.70313 -0.128906,0.20703 -0.191406,0.54297 -0.05859,0.33594 -0.05859,1.32812 z m 0.867187,0 q 0,-0.83984 0.0625,-1.14453 0.05469,-0.28906 0.222656,-0.47265 0.136719,-0.17579 0.359375,-0.29297 0.21875,-0.11328 0.523438,-0.1211 0.308593,0.008 0.535156,0.1211 0.214844,0.11718 0.34375,0.29297 0.167969,0.18359 0.230469,0.47265 0.05859,0.30469 0.05859,1.14453 0,0.83985 -0.05859,1.13672 -0.0625,0.29688 -0.230469,0.48047 -0.128906,0.17578 -0.34375,0.28516 -0.226563,0.1289 -0.535156,0.1289 -0.304688,0 -0.523438,-0.1289 -0.222656,-0.10938 -0.359375,-0.28516 -0.167969,-0.18359 -0.222656,-0.48047 -0.0625,-0.29687 -0.0625,-1.13672 z"
       style="font-size:8px;font-family:'DIN Alternate';text-anchor:middle;fill:#dfdfdf"
       id="path324" />
    <path
       d="m 20.910156,354.07031 q 0.0078,0.89844 0.59375,1.42578 0.574219,0.54297 1.429688,0.55078 0.871093,-0.008 1.441406,-0.55078 0.566406,-0.52734 0.582031,-1.42578 v -3.76562 H 24.09375 v 3.67187 q -0.0078,0.58203 -0.328125,0.88672 -0.328125,0.32031 -0.832031,0.32031 -0.503907,0 -0.824219,-0.32031 -0.328125,-0.30469 -0.335938,-0.88672 v -3.67187 h -0.863281 z"
       style="font-size:8px;font-family:'DIN Alternate';text-anchor:middle;fill:#dfdfdf"
       id="path326" />
    <path
       d="m 27.027344,356 h 0.867187 v -4.92578 h 1.558594 v -0.76953 H 25.46875 v 0.76953 h 1.558594 z"
       style="font-size:8px;font-family:'DIN Alternate';text-anchor:middle;fill:#dfdfdf"
       id="path328" />
  </g>
</svg>
