<?xml version="1.0" encoding="UTF-8" standalone="no"?>
<svg
   xmlns:dc="http://purl.org/dc/elements/1.1/"
   xmlns:cc="http://creativecommons.org/ns#"
   xmlns:rdf="http://www.w3.org/1999/02/22-rdf-syntax-ns#"
   xmlns:svg="http://www.w3.org/2000/svg"
   xmlns="http://www.w3.org/2000/svg"
   xmlns:sodipodi="http://sodipodi.sourceforge.net/DTD/sodipodi-0.dtd"
   xmlns:inkscape="http://www.inkscape.org/namespaces/inkscape"
   version="1.1"
   width="45"
   height="380"
   viewBox="0 0 45 380"
   id="svg110"
   sodipodi:docname="CLIP.svg"
   inkscape:version="1.0.2 (e86c8708, 2021-01-15)">
  <metadata
     id="metadata114">
    <rdf:RDF>
      <cc:Work
         rdf:about="">
        <dc:format>image/svg+xml</dc:format>
        <dc:type
           rdf:resource="http://purl.org/dc/dcmitype/StillImage" />
      </cc:Work>
    </rdf:RDF>
  </metadata>
  <sodipodi:namedview
     pagecolor="#ffffff"
     bordercolor="#666666"
     borderopacity="1"
     objecttolerance="10"
     gridtolerance="10"
     guidetolerance="10"
     inkscape:pageopacity="0"
     inkscape:pageshadow="2"
     inkscape:window-width="689"
     inkscape:window-height="480"
     id="namedview112"
     showgrid="false"
     inkscape:zoom="2.1763158"
     inkscape:cx="22.5"
     inkscape:cy="190"
     inkscape:window-x="0"
     inkscape:window-y="25"
     inkscape:window-maximized="0"
     inkscape:current-layer="svg110" />
  <style
     id="style2">
    text.title {
      fill: #a91913;
      font-family: 'DIN Alternate';
      font-size: 12pt;
    }
    text.logo {
      fill: #a91913;
      font-family: 'DIN Alternate';
      font-size: 10pt;
    }
    text.big-label {
      fill: #343434;
      font-family: 'DIN Alternate';
      font-size: 7.5pt;
    }
    text.label {
      fill: #343434;
      font-family: 'DIN Alternate';
      font-size: 6pt;
    }
    .background {
      fill: #e0e0e0;
    }
    .output {
      fill: #bbbbbb;
    }
    polyline.icon {
      stroke: #343434;
      stroke-width: 1.2;
      fill: none;
    }
    polyline.connect {
      stroke: #343434;
      stroke-width: 1;
      fill: none;
    }

    .blueprint {
      stroke: #08f;
      fill: none;
    }
  </style>
  <!-- ======== defs ======== -->
  <defs
     id="defs74">
    <symbol
       id="port">
      <g
         transform="translate(12 12)"
         id="g4" />
    </symbol>
    <symbol
       id="toggleButton">
      <g
         transform="translate(9 9)"
         id="g7" />
    </symbol>
    <symbol
       id="meter">
      <g
         transform="translate(20 6)"
         id="g66">
        <text
           x="-14.5"
           y="3"
           class="label"
           id="text10">6</text>
        <text
           x="-14.5"
           y="18"
           class="label"
           id="text12">3</text>
        <text
           x="-14.5"
           y="33"
           class="label"
           id="text14">0</text>
        <text
           x="-14.5"
           y="48"
           class="label"
           id="text16">3</text>
        <text
           x="-14.5"
           y="63"
           class="label"
           id="text18">6</text>
        <text
           x="-18"
           y="84"
           class="label"
           id="text20">12</text>
        <text
           x="-18"
           y="105"
           class="label"
           id="text22">24</text>
        <text
           x="-18"
           y="126"
           class="label"
           id="text24">48</text>
        <text
           x="-17.5"
           y="145"
           class="label"
           id="text26">∞</text>
        <polyline
           points="-9   0   -6   0"
           class="connect"
           id="polyline28" />
        <polyline
           points="-9  15   -6  15"
           class="connect"
           id="polyline30" />
        <polyline
           points="-9  30   -6  30"
           class="connect"
           id="polyline32" />
        <polyline
           points="-9  45   -6  45"
           class="connect"
           id="polyline34" />
        <polyline
           points="-9  60   -6  60"
           class="connect"
           id="polyline36" />
        <polyline
           points="-9  81   -6  81"
           class="connect"
           id="polyline38" />
        <polyline
           points="-9 102   -6 102"
           class="connect"
           id="polyline40" />
        <polyline
           points="-9 123   -6 123"
           class="connect"
           id="polyline42" />
        <polyline
           points="-9 142.5 -6 142.5"
           class="connect"
           id="polyline44" />
        <polyline
           points="6   0   9   0"
           class="connect"
           id="polyline46" />
        <polyline
           points="6  15   9  15"
           class="connect"
           id="polyline48" />
        <polyline
           points="6  30   9  30"
           class="connect"
           id="polyline50" />
        <polyline
           points="6  45   9  45"
           class="connect"
           id="polyline52" />
        <polyline
           points="6  60   9  60"
           class="connect"
           id="polyline54" />
        <polyline
           points="6  81   9  81"
           class="connect"
           id="polyline56" />
        <polyline
           points="6 102   9 102"
           class="connect"
           id="polyline58" />
        <polyline
           points="6 123   9 123"
           class="connect"
           id="polyline60" />
        <polyline
           points="6 142.5 9 142.5"
           class="connect"
           id="polyline62" />
        <rect
           x="-5"
           y="-2"
           width="10"
           height="146"
           rx="2"
           fill="#121212"
           id="rect64" />
      </g>
    </symbol>
    <symbol
       id="fader">
      <g
         transform="translate(6 8)"
         id="g71">
        <g
           transform="translate(0 144)"
           id="g69" />
      </g>
    </symbol>
  </defs>
  <!-- ======== header/footer ======== -->
  <path
     id="rect76"
     style="fill:#e0e0e0"
     d="M 0,0 H 45 V 380 H 0 Z"
     class="background" />
  <g
     aria-label="CLIP"
     id="text78"
     style="font-size:16px;font-family:'DIN Alternate';text-anchor:middle;fill:#a91913"
     class="title">
    <path
       d="m 13.835938,26.8125 q -0.71875,1.554687 -2.171875,1.554687 -0.609375,0 -1.046875,-0.257812 Q 10.171875,27.890625 9.8984375,27.539062 9.5625,27.171875 9.453125,26.578125 q -0.125,-0.59375 -0.125,-2.273438 0,-1.679687 0.125,-2.289062 Q 9.5625,21.4375 9.8984375,21.070312 10.171875,20.71875 10.617188,20.484375 q 0.4375,-0.226563 1.046875,-0.242188 0.828125,0.01563 1.40625,0.476563 0.554687,0.484375 0.765625,1.171875 h 1.828125 Q 15.390625,20.460937 14.351563,19.492187 13.3125,18.53125 11.664063,18.515625 10.320313,18.53125 9.421875,19.15625 8.5078125,19.773437 8.09375,20.5625 7.8359375,20.976562 7.7109375,21.648437 7.59375,22.320312 7.59375,24.304687 q 0,1.953125 0.1171875,2.640625 0.0625,0.367188 0.15625,0.609375 0.1015625,0.234375 0.2265625,0.492188 0.4140625,0.789062 1.328125,1.390625 0.898438,0.625 2.242188,0.65625 1.484375,0 2.570312,-0.84375 1.054688,-0.851563 1.429688,-2.4375 z"
       style="font-size:16px;font-family:'DIN Alternate';text-anchor:middle;fill:#a91913"
       id="path209" />
    <path
       d="m 16.890625,30 h 7.273437 v -1.632813 h -5.546875 v -9.757812 h -1.726562 z"
       style="font-size:16px;font-family:'DIN Alternate';text-anchor:middle;fill:#a91913"
       id="path211" />
    <path
       d="m 25.796875,30 h 1.726562 V 18.609375 h -1.726562 z"
       style="font-size:16px;font-family:'DIN Alternate';text-anchor:middle;fill:#a91913"
       id="path213" />
    <path
       d="m 31.648437,20.242187 h 2.492188 q 0.703125,-0.01563 1.234375,0.320313 0.351562,0.203125 0.546875,0.554687 0.1875,0.390625 0.1875,0.960938 0,0.6875 -0.460938,1.25 -0.484375,0.578125 -1.445312,0.59375 H 31.648437 Z M 29.921875,30 h 1.726562 v -4.445313 h 2.625 q 1.757813,-0.03125 2.671875,-1.125 0.890625,-1.039062 0.890625,-2.304687 0,-0.9375 -0.351562,-1.625 -0.335938,-0.710938 -0.875,-1.09375 -0.640625,-0.507813 -1.265625,-0.671875 -0.625,-0.125 -1.296875,-0.125 h -4.125 z"
       style="font-size:16px;font-family:'DIN Alternate';text-anchor:middle;fill:#a91913"
       id="path215" />
  </g>
  <g
     aria-label="RM"
     id="text80"
     style="font-size:13.3333px;font-family:'DIN Alternate';text-anchor:middle;fill:#a91913"
     class="logo">
    <path
       d="m 14.926823,367.79036 h 2.252605 q 0.690104,0 1.054687,0.29297 0.46224,0.33203 0.47526,1.07422 0,0.61849 -0.397135,1.04167 -0.403646,0.45573 -1.210937,0.46875 h -2.17448 z M 13.488021,376 h 1.438802 v -4.05599 h 1.835938 L 18.722396,376 h 1.71224 l -2.200521,-4.21224 q 1.809896,-0.69661 1.835938,-2.63021 -0.03906,-1.3151 -0.944011,-2.02474 -0.748698,-0.625 -1.933594,-0.625 h -3.704427 z"
       style="font-size:13.3333px;font-family:'DIN Alternate';text-anchor:middle;fill:#a91913"
       id="path204" />
    <path
       d="m 21.613021,376 h 1.438802 v -5.91797 h 0.02604 l 1.985677,4.55729 h 1.197917 l 1.985677,-4.55729 h 0.03255 V 376 h 1.438802 v -9.49219 h -1.360677 l -2.669271,6.1849 v 0 l -2.721354,-6.1849 h -1.354167 z"
       style="font-size:13.3333px;font-family:'DIN Alternate';text-anchor:middle;fill:#a91913"
       id="path206" />
  </g>
  <!-- ======== track ======== -->
  <g
     id="use82"
     transform="translate(1,41)">
    <g
       transform="translate(20,6)"
       id="g182">
      <g
         aria-label="6"
         id="text126"
         style="font-size:8px;font-family:'DIN Alternate';fill:#343434"
         class="label">
        <path
           d="m -11.53125,-2.7539063 q 0.0039,0 -0.03906,0.085937 -0.03906,0.082031 -0.109375,0.2265625 -0.07031,0.1445313 -0.164062,0.3320313 -0.09375,0.1875 -0.199219,0.3945313 -0.101562,0.2070312 -0.210937,0.4179687 -0.105469,0.2109375 -0.207032,0.40234375 -0.09766,0.19140625 -0.179687,0.34765625 -0.08203,0.15625 -0.136719,0.25 0.113281,-0.0664063 0.253906,-0.078125 0.144532,-0.015625 0.332032,-0.007813 0.269531,0.007813 0.46875,0.09375 0.203125,0.0859375 0.347656,0.21484375 0.144531,0.12890625 0.238281,0.2890625 0.09766,0.15625 0.152344,0.30859375 0.05469,0.1484375 0.07422,0.28125 0.02344,0.12890625 0.02344,0.203125 0,0.023437 0,0.085937 0,0.0625 0,0.140625 0,0.074219 -0.0039,0.1523437 0,0.078125 -0.0039,0.1328125 -0.0039,0.027344 -0.02734,0.1445313 Q -10.941406,1.7773437 -11,1.9375 q -0.05469,0.15625 -0.160156,0.3398438 -0.105469,0.1796875 -0.277344,0.34375 -0.171875,0.1601562 -0.417969,0.2773437 -0.246094,0.1171875 -0.585937,0.1445313 -0.355469,0.03125 -0.628907,-0.046875 Q -13.34375,2.9179688 -13.542969,2.7734375 -13.742188,2.6289063 -13.875,2.4414063 -14.007813,2.25 -14.085938,2.0507813 -14.160156,1.8515625 -14.1875,1.6679687 q -0.02344,-0.1835937 -0.0078,-0.3125 0.02344,-0.1914062 0.05078,-0.3398437 0.02734,-0.15234375 0.0625,-0.2890625 0.03906,-0.13671875 0.08594,-0.26953125 0.04687,-0.1328125 0.109375,-0.2890625 0.01563,-0.0390625 0.08594,-0.18359375 0.07031,-0.1484375 0.171875,-0.36328125 0.105468,-0.21484375 0.234375,-0.47265625 0.128906,-0.2578125 0.257812,-0.5234375 0.304688,-0.6171875 0.683594,-1.3789063 z m -0.164063,4.1679688 q 0,-0.1484375 -0.01172,-0.328125 -0.01172,-0.1796875 -0.08984,-0.33984375 -0.07422,-0.1640625 -0.246094,-0.28125 -0.171875,-0.1171875 -0.488281,-0.140625 -0.148438,-0.0117188 -0.269531,0.03125 -0.121094,0.0429687 -0.214844,0.1171875 -0.09375,0.0742188 -0.164063,0.171875 -0.06641,0.09375 -0.113281,0.1875 -0.04297,0.09375 -0.0625,0.17578125 -0.01953,0.078125 -0.01953,0.1210937 0,0.097656 0.0039,0.21875 0.0039,0.1171875 0.02344,0.2382813 0.02344,0.1171875 0.07422,0.2304687 0.05078,0.109375 0.144532,0.1953126 0.09375,0.085937 0.238281,0.140625 0.148437,0.054687 0.367187,0.054687 0.175782,0.00391 0.304688,-0.042969 0.132812,-0.050781 0.222656,-0.125 0.09375,-0.078125 0.152344,-0.171875 0.05859,-0.09375 0.08984,-0.1835938 0.03516,-0.089844 0.04687,-0.1601562 0.01172,-0.074219 0.01172,-0.109375 z"
           style="font-size:8px;font-family:'DIN Alternate';fill:#343434"
           id="path243" />
      </g>
      <g
         aria-label="3"
         id="text128"
         style="font-size:8px;font-family:'DIN Alternate';fill:#343434"
         class="label">
        <path
           d="M -13.09375,15.425781 H -12.75 q 0.378906,0 0.625,0.230469 0.25,0.238281 0.257812,0.671875 -0.0078,0.425781 -0.257812,0.65625 -0.246094,0.246094 -0.605469,0.246094 -0.335937,0 -0.539062,-0.183594 -0.199219,-0.175781 -0.308594,-0.460938 h -0.816406 q 0.132812,0.710938 0.582031,1.085938 0.449219,0.375 1.03125,0.375 0.753906,-0.0078 1.234375,-0.480469 0.488281,-0.460937 0.496094,-1.261719 0,-0.359374 -0.152344,-0.687499 -0.160156,-0.328125 -0.519531,-0.5625 0.351562,-0.238282 0.488281,-0.542969 0.117187,-0.304688 0.117187,-0.632813 -0.0078,-0.648437 -0.445312,-1.125 -0.457031,-0.488281 -1.234375,-0.496093 -0.613281,0.0078 -1.054688,0.4375 -0.449218,0.433593 -0.511718,1.066406 h 0.816406 q 0.07813,-0.351563 0.304687,-0.519531 0.214844,-0.167969 0.476563,-0.167969 0.363281,0.0078 0.59375,0.230469 0.230469,0.230468 0.238281,0.589843 0,0.355469 -0.230469,0.578125 -0.230468,0.230469 -0.648437,0.230469 h -0.28125 z"
           style="font-size:8px;font-family:'DIN Alternate';fill:#343434"
           id="path246" />
      </g>
      <g
         aria-label="0"
         id="text130"
         style="font-size:8px;font-family:'DIN Alternate';fill:#343434"
         class="label">
        <path
           d="m -11.78125,31.359375 q -0.02344,0.863281 -0.800781,0.871094 -0.78125,-0.0078 -0.796875,-0.871094 v -2.414063 q 0.01563,-0.855468 0.796875,-0.871093 0.777343,0.01563 0.800781,0.871093 z m -2.414063,0.04687 q 0.0078,0.785156 0.503907,1.210937 0.464843,0.421875 1.109375,0.429688 0.664062,-0.0078 1.128906,-0.429688 0.472656,-0.425781 0.488281,-1.210937 v -2.511719 q -0.01563,-0.789062 -0.488281,-1.214844 -0.464844,-0.421875 -1.128906,-0.421875 -0.644532,0 -1.109375,0.421875 -0.496094,0.425782 -0.503907,1.214844 z"
           style="font-size:8px;font-family:'DIN Alternate';fill:#343434"
           id="path249" />
      </g>
      <g
         aria-label="3"
         id="text132"
         style="font-size:8px;font-family:'DIN Alternate';fill:#343434"
         class="label">
        <path
           d="M -13.09375,45.425781 H -12.75 q 0.378906,0 0.625,0.230469 0.25,0.238281 0.257812,0.671875 -0.0078,0.425781 -0.257812,0.65625 -0.246094,0.246094 -0.605469,0.246094 -0.335937,0 -0.539062,-0.183594 -0.199219,-0.175781 -0.308594,-0.460938 h -0.816406 q 0.132812,0.710938 0.582031,1.085938 0.449219,0.375 1.03125,0.375 0.753906,-0.0078 1.234375,-0.480469 0.488281,-0.460937 0.496094,-1.261719 0,-0.359375 -0.152344,-0.6875 -0.160156,-0.328125 -0.519531,-0.5625 0.351562,-0.238281 0.488281,-0.542968 0.117187,-0.304688 0.117187,-0.632813 -0.0078,-0.648437 -0.445312,-1.125 -0.457031,-0.488281 -1.234375,-0.496094 -0.613281,0.0078 -1.054688,0.4375 -0.449218,0.433594 -0.511718,1.066407 h 0.816406 q 0.07813,-0.351563 0.304687,-0.519532 0.214844,-0.167968 0.476563,-0.167968 0.363281,0.0078 0.59375,0.230468 0.230469,0.230469 0.238281,0.589844 0,0.355469 -0.230469,0.578125 -0.230468,0.230469 -0.648437,0.230469 h -0.28125 z"
           style="font-size:8px;font-family:'DIN Alternate';fill:#343434"
           id="path252" />
      </g>
      <g
         aria-label="6"
         id="text134"
         style="font-size:8px;font-family:'DIN Alternate';fill:#343434"
         class="label">
        <path
           d="m -11.53125,57.246094 q 0.0039,0 -0.03906,0.08594 -0.03906,0.08203 -0.109375,0.226563 -0.07031,0.144531 -0.164062,0.332031 -0.09375,0.1875 -0.199219,0.394531 -0.101562,0.207031 -0.210937,0.417969 -0.105469,0.210937 -0.207032,0.402344 -0.09766,0.191406 -0.179687,0.347656 -0.08203,0.15625 -0.136719,0.25 0.113281,-0.06641 0.253906,-0.07813 0.144532,-0.01563 0.332032,-0.0078 0.269531,0.0078 0.46875,0.09375 0.203125,0.08594 0.347656,0.214844 0.144531,0.128906 0.238281,0.289063 0.09766,0.15625 0.152344,0.308593 0.05469,0.148438 0.07422,0.28125 0.02344,0.128907 0.02344,0.203125 0,0.02344 0,0.08594 0,0.0625 0,0.140625 0,0.07422 -0.0039,0.152344 0,0.07813 -0.0039,0.132812 -0.0039,0.02734 -0.02734,0.144531 -0.01953,0.113282 -0.07813,0.273438 -0.05469,0.15625 -0.160156,0.339844 -0.105469,0.179687 -0.277344,0.34375 -0.171875,0.160156 -0.417969,0.277343 -0.246094,0.117188 -0.585937,0.144532 -0.355469,0.03125 -0.628907,-0.04687 -0.273437,-0.07813 -0.472656,-0.222657 -0.199219,-0.144531 -0.332031,-0.332031 -0.132813,-0.191406 -0.210938,-0.390625 -0.07422,-0.199219 -0.101562,-0.382812 -0.02344,-0.183594 -0.0078,-0.3125 0.02344,-0.191407 0.05078,-0.339844 0.02734,-0.152344 0.0625,-0.289063 0.03906,-0.136718 0.08594,-0.269531 0.04687,-0.132812 0.109375,-0.289062 0.01563,-0.03906 0.08594,-0.183594 0.07031,-0.148438 0.171875,-0.363281 0.105468,-0.214844 0.234375,-0.472657 0.128906,-0.257812 0.257812,-0.523437 0.304688,-0.617188 0.683594,-1.378906 z m -0.164063,4.167968 q 0,-0.148437 -0.01172,-0.328125 -0.01172,-0.179687 -0.08984,-0.339843 -0.07422,-0.164063 -0.246094,-0.28125 -0.171875,-0.117188 -0.488281,-0.140625 -0.148438,-0.01172 -0.269531,0.03125 -0.121094,0.04297 -0.214844,0.117187 -0.09375,0.07422 -0.164063,0.171875 -0.06641,0.09375 -0.113281,0.1875 -0.04297,0.09375 -0.0625,0.175781 -0.01953,0.07813 -0.01953,0.121094 0,0.09766 0.0039,0.21875 0.0039,0.117188 0.02344,0.238281 0.02344,0.117188 0.07422,0.230469 0.05078,0.109375 0.144532,0.195313 0.09375,0.08594 0.238281,0.140625 0.148437,0.05469 0.367187,0.05469 0.175782,0.0039 0.304688,-0.04297 0.132812,-0.05078 0.222656,-0.125 0.09375,-0.07813 0.152344,-0.171875 0.05859,-0.09375 0.08984,-0.183593 0.03516,-0.08984 0.04687,-0.160157 0.01172,-0.07422 0.01172,-0.109375 z"
           style="font-size:8px;font-family:'DIN Alternate';fill:#343434"
           id="path255" />
      </g>
      <g
         aria-label="12"
         id="text136"
         style="font-size:8px;font-family:'DIN Alternate';fill:#343434"
         class="label">
        <path
           d="M -16.449219,79.167969 V 84 h 0.816406 v -5.695313 h -0.816406 l -0.808593,0.589844 v 0.867188 0 l 0.808593,-0.59375 z"
           style="font-size:8px;font-family:'DIN Alternate';fill:#343434"
           id="path258" />
        <path
           d="m -13.898438,84 h 3.246094 v -0.816406 h -2.175781 l 1.832031,-2.296875 q 0.34375,-0.4375 0.34375,-1 -0.0078,-0.703125 -0.472656,-1.160157 -0.457031,-0.460937 -1.191406,-0.46875 -0.65625,0.0078 -1.105469,0.460938 -0.445313,0.464844 -0.476563,1.175781 h 0.8125 q 0.04297,-0.390625 0.273438,-0.605469 0.222656,-0.214843 0.558594,-0.214843 0.378906,0.0078 0.585937,0.246093 0.199219,0.238282 0.199219,0.558594 0,0.121094 -0.03125,0.257813 -0.04687,0.144531 -0.175781,0.3125 l -2.222657,2.78125 z"
           style="font-size:8px;font-family:'DIN Alternate';fill:#343434"
           id="path260" />
      </g>
      <g
         aria-label="24"
         id="text138"
         style="font-size:8px;font-family:'DIN Alternate';fill:#343434"
         class="label">
        <path
           d="m -17.742187,105 h 3.246093 v -0.81641 h -2.175781 l 1.832031,-2.29687 q 0.34375,-0.4375 0.34375,-1 -0.0078,-0.70313 -0.472656,-1.160158 -0.457031,-0.460937 -1.191406,-0.46875 -0.65625,0.0078 -1.105469,0.460938 -0.445312,0.46484 -0.476562,1.17578 h 0.8125 q 0.04297,-0.39062 0.273437,-0.60547 0.222656,-0.21484 0.558594,-0.21484 0.378906,0.008 0.585937,0.24609 0.199219,0.23828 0.199219,0.5586 0,0.12109 -0.03125,0.25781 -0.04687,0.14453 -0.175781,0.3125 l -2.222656,2.78125 z"
           style="font-size:8px;font-family:'DIN Alternate';fill:#343434"
           id="path263" />
        <path
           d="m -14.058594,104.15234 h 2.375 V 105 h 0.816406 v -0.84766 h 0.453125 v -0.76953 h -0.453125 v -1.63672 h -0.816406 v 1.63672 h -1.488281 l 1.925781,-4.078123 h -0.910156 l -1.902344,4.078123 z"
           style="font-size:8px;font-family:'DIN Alternate';fill:#343434"
           id="path265" />
      </g>
      <g
         aria-label="48"
         id="text140"
         style="font-size:8px;font-family:'DIN Alternate';fill:#343434"
         class="label">
        <path
           d="m -17.902344,125.15234 h 2.375 V 126 h 0.816406 v -0.84766 h 0.453125 v -0.76953 h -0.453125 v -1.63672 h -0.816406 v 1.63672 h -1.488281 l 1.925781,-4.07812 H -16 l -1.902344,4.07812 z"
           style="font-size:8px;font-family:'DIN Alternate';fill:#343434"
           id="path268" />
        <path
           d="m -13.050781,121.88672 q 0.0078,-0.40625 0.253906,-0.61328 0.242187,-0.19922 0.558594,-0.19922 0.328125,0 0.570312,0.19922 0.238281,0.20703 0.246094,0.61328 -0.0078,0.39453 -0.246094,0.60156 -0.242187,0.21485 -0.570312,0.21485 -0.316407,0 -0.558594,-0.21485 -0.246094,-0.20703 -0.253906,-0.60156 z m -0.921875,2.44922 q 0.0078,0.76953 0.519531,1.23047 0.488281,0.47265 1.214844,0.48047 0.730468,-0.008 1.234375,-0.48047 0.496093,-0.46094 0.503906,-1.23047 -0.0078,-0.82422 -0.671875,-1.28125 0.253906,-0.22266 0.414062,-0.51172 0.152344,-0.26953 0.152344,-0.64063 -0.0078,-0.71093 -0.464844,-1.17578 -0.453125,-0.46093 -1.167968,-0.46875 -0.703125,0.008 -1.148438,0.46875 -0.472656,0.46485 -0.480469,1.17578 0,0.3711 0.167969,0.64063 0.144531,0.28906 0.398438,0.51172 -0.664063,0.45703 -0.671875,1.28125 z m 0.816406,-0.008 q 0.0078,-0.39844 0.28125,-0.64844 0.261719,-0.2461 0.636719,-0.25391 0.386718,0.008 0.648437,0.25391 0.265625,0.25 0.273438,0.64844 -0.0078,0.39062 -0.273438,0.64062 -0.261719,0.26172 -0.648437,0.26172 -0.375,0 -0.636719,-0.26172 -0.273438,-0.25 -0.28125,-0.64062 z"
           style="font-size:8px;font-family:'DIN Alternate';fill:#343434"
           id="path270" />
      </g>
      <g
         aria-label="∞"
         id="text142"
         style="font-size:8px;font-family:'DIN Alternate';fill:#343434"
         class="label">
        <path
           d="m -10.128906,142.41016 q 0,0.93359 -0.480469,1.45703 -0.476563,0.51953 -1.285156,0.51953 -0.519532,0 -0.953125,-0.29688 -0.433594,-0.30078 -0.703125,-0.87109 -0.308594,0.58984 -0.722657,0.87891 -0.410156,0.28906 -0.96875,0.28906 -0.746093,0 -1.187499,-0.52735 -0.441407,-0.53125 -0.441407,-1.36718 0,-0.92969 0.488282,-1.45313 0.488281,-0.52344 1.277343,-0.52344 0.523438,0 0.957031,0.30079 0.433594,0.30078 0.699219,0.86718 0.308594,-0.58593 0.722656,-0.875 0.417969,-0.29297 0.96875,-0.29297 0.746094,0 1.1875,0.53125 0.441407,0.52735 0.441407,1.36329 z m -3.59375,-0.25782 q -0.246094,-0.45703 -0.605469,-0.68359 -0.359375,-0.23047 -0.734375,-0.23047 -0.539063,0 -0.84375,0.32813 -0.304687,0.32421 -0.304687,0.92578 0,0.51953 0.246093,0.84375 0.25,0.32422 0.714844,0.32422 0.429687,0 0.671875,-0.1875 0.242187,-0.19141 0.464844,-0.5586 0.132812,-0.22265 0.203125,-0.35937 0.07422,-0.14063 0.1875,-0.40235 z m 2.933593,0.25782 q 0,-0.52344 -0.25,-0.84375 -0.25,-0.32422 -0.710937,-0.32422 -0.34375,0 -0.597656,0.14062 -0.25,0.13672 -0.539063,0.60547 -0.117187,0.1875 -0.21875,0.39063 -0.09766,0.19921 -0.171875,0.37109 0.234375,0.44922 0.597656,0.68359 0.367188,0.23047 0.742188,0.23047 0.539062,0 0.84375,-0.32422 0.304687,-0.32422 0.304687,-0.92968 z"
           style="font-size:8px;font-family:'DIN Alternate';fill:#343434"
           id="path273" />
      </g>
      <path
         id="polyline144"
         style="fill:none;stroke:#343434;stroke-width:1"
         d="m -9,0 h 3"
         class="connect" />
      <path
         id="polyline146"
         style="fill:none;stroke:#343434;stroke-width:1"
         d="m -9,15 h 3"
         class="connect" />
      <path
         id="polyline148"
         style="fill:none;stroke:#343434;stroke-width:1"
         d="m -9,30 h 3"
         class="connect" />
      <path
         id="polyline150"
         style="fill:none;stroke:#343434;stroke-width:1"
         d="m -9,45 h 3"
         class="connect" />
      <path
         id="polyline152"
         style="fill:none;stroke:#343434;stroke-width:1"
         d="m -9,60 h 3"
         class="connect" />
      <path
         id="polyline154"
         style="fill:none;stroke:#343434;stroke-width:1"
         d="m -9,81 h 3"
         class="connect" />
      <path
         id="polyline156"
         style="fill:none;stroke:#343434;stroke-width:1"
         d="m -9,102 h 3"
         class="connect" />
      <path
         id="polyline158"
         style="fill:none;stroke:#343434;stroke-width:1"
         d="m -9,123 h 3"
         class="connect" />
      <path
         id="polyline160"
         style="fill:none;stroke:#343434;stroke-width:1"
         d="m -9,142.5 h 3"
         class="connect" />
      <path
         id="polyline162"
         style="fill:none;stroke:#343434;stroke-width:1"
         d="M 6,0 H 9"
         class="connect" />
      <path
         id="polyline164"
         style="fill:none;stroke:#343434;stroke-width:1"
         d="M 6,15 H 9"
         class="connect" />
      <path
         id="polyline166"
         style="fill:none;stroke:#343434;stroke-width:1"
         d="M 6,30 H 9"
         class="connect" />
      <path
         id="polyline168"
         style="fill:none;stroke:#343434;stroke-width:1"
         d="M 6,45 H 9"
         class="connect" />
      <path
         id="polyline170"
         style="fill:none;stroke:#343434;stroke-width:1"
         d="M 6,60 H 9"
         class="connect" />
      <path
         id="polyline172"
         style="fill:none;stroke:#343434;stroke-width:1"
         d="M 6,81 H 9"
         class="connect" />
      <path
         id="polyline174"
         style="fill:none;stroke:#343434;stroke-width:1"
         d="M 6,102 H 9"
         class="connect" />
      <path
         id="polyline176"
         style="fill:none;stroke:#343434;stroke-width:1"
         d="M 6,123 H 9"
         class="connect" />
      <path
         id="polyline178"
         style="fill:none;stroke:#343434;stroke-width:1"
         d="M 6,142.5 H 9"
         class="connect" />
      <path
         id="rect180"
         style="fill:#121212"
         d="m -3,-2 h 6 c 1.108,0 2,0.892 2,2 v 142 c 0,1.108 -0.892,2 -2,2 h -6 c -1.108,0 -2,-0.892 -2,-2 V 0 c 0,-1.108 0.892,-2 2,-2 z" />
    </g>
  </g>
  <g
     transform="translate(33,46)"
     id="g86">
    <g
       id="use84"
       transform="translate(-6,-8)">
      <g
         transform="translate(6,8)"
         id="g200">
        <g
           transform="translate(0,144)"
           id="g198" />
      </g>
    </g>
  </g>
  <!-- ======== params and ports ======== -->
  <g
     id="use90"
     transform="translate(10.5,242)">
    <g
       transform="translate(12,12)"
       id="g186" />
  </g>
  <g
     aria-label="LEVEL"
     id="text92"
     style="font-size:8px;font-family:'DIN Alternate';text-anchor:middle;fill:#343434"
     class="label">
    <path
       d="m 11.96875,276 h 3.636719 v -0.81641 h -2.773438 v -4.8789 H 11.96875 Z"
       style="font-size:8px;font-family:'DIN Alternate';text-anchor:middle;fill:#343434"
       id="path232" />
    <path
       d="m 16.421875,276 h 3.636719 v -0.81641 h -2.773438 v -1.67187 h 2.367188 v -0.76563 h -2.367188 v -1.625 h 2.773438 v -0.8164 h -3.636719 z"
       style="font-size:8px;font-family:'DIN Alternate';text-anchor:middle;fill:#343434"
       id="path234" />
    <path
       d="m 22.160156,276 h 0.671875 l 1.882813,-5.69531 h -0.914063 l -1.296875,4.33593 h -0.01563 l -1.292969,-4.33593 H 20.28125 Z"
       style="font-size:8px;font-family:'DIN Alternate';text-anchor:middle;fill:#343434"
       id="path236" />
    <path
       d="m 25.328125,276 h 3.636719 v -0.81641 h -2.773438 v -1.67187 h 2.367188 v -0.76563 h -2.367188 v -1.625 h 2.773438 v -0.8164 h -3.636719 z"
       style="font-size:8px;font-family:'DIN Alternate';text-anchor:middle;fill:#343434"
       id="path238" />
    <path
       d="m 29.78125,276 h 3.636719 v -0.81641 h -2.773438 v -4.8789 H 29.78125 Z"
       style="font-size:8px;font-family:'DIN Alternate';text-anchor:middle;fill:#343434"
       id="path240" />
  </g>
  <!-- ======== inputs ======== -->
  <g
     id="use96"
     transform="translate(10.5,280)">
    <g
       transform="translate(12,12)"
       id="g190" />
  </g>
  <g
     aria-label="IN"
     id="text98"
     style="font-size:8px;font-family:'DIN Alternate';text-anchor:middle;fill:#343434"
     class="label">
    <path
       d="m 19.335937,314 h 0.863282 v -5.69531 h -0.863282 z"
       style="font-size:8px;font-family:'DIN Alternate';text-anchor:middle;fill:#343434"
       id="path227" />
    <path
       d="m 21.398437,314 h 0.863282 v -4.04688 h 0.01563 L 24.851562,314 h 0.816407 v -5.69531 h -0.863282 v 4.04687 h -0.01563 l -2.578125,-4.04687 h -0.8125 z"
       style="font-size:8px;font-family:'DIN Alternate';text-anchor:middle;fill:#343434"
       id="path229" />
  </g>
  <!-- ======== outputs ======== -->
  <path
     id="rect102"
     style="fill:#bbbbbb"
     d="m 9.5,318 h 26 c 1.662,0 3,1.338 3,3 v 36 c 0,1.662 -1.338,3 -3,3 h -26 c -1.662,0 -3,-1.338 -3,-3 v -36 c 0,-1.662 1.338,-3 3,-3 z"
     class="output" />
  <g
     id="use104"
     transform="translate(10.5,322)">
    <g
       transform="translate(12,12)"
       id="g194" />
  </g>
  <g
     aria-label="OUT"
     id="text106"
     style="font-size:8px;font-family:'DIN Alternate';text-anchor:middle;fill:#343434"
     class="label">
    <path
       d="m 15.945313,353.15234 q 0,0.97657 0.05859,1.32032 0.03125,0.18359 0.07813,0.30468 0.05078,0.11719 0.113281,0.2461 0.207032,0.39453 0.664063,0.69531 0.449219,0.3125 1.121094,0.32812 0.679687,-0.0156 1.132812,-0.32812 0.449219,-0.30078 0.648438,-0.69531 0.144531,-0.20703 0.199218,-0.55078 0.05078,-0.34375 0.05078,-1.32032 0,-0.99218 -0.05078,-1.32812 -0.05469,-0.33594 -0.199218,-0.54297 -0.199219,-0.39453 -0.648438,-0.70313 -0.453125,-0.3125 -1.132812,-0.32031 -0.671875,0.008 -1.121094,0.32031 -0.457031,0.3086 -0.664063,0.70313 -0.128906,0.20703 -0.191406,0.54297 -0.05859,0.33594 -0.05859,1.32812 z m 0.867187,0 q 0,-0.83984 0.0625,-1.14453 0.05469,-0.28906 0.222656,-0.47265 0.136719,-0.17579 0.359375,-0.29297 0.21875,-0.11328 0.523438,-0.1211 0.308593,0.008 0.535156,0.1211 0.214844,0.11718 0.34375,0.29297 0.167969,0.18359 0.230469,0.47265 0.05859,0.30469 0.05859,1.14453 0,0.83985 -0.05859,1.13672 -0.0625,0.29688 -0.230469,0.48047 -0.128906,0.17578 -0.34375,0.28516 -0.226563,0.1289 -0.535156,0.1289 -0.304688,0 -0.523438,-0.1289 -0.222656,-0.10938 -0.359375,-0.28516 -0.167969,-0.18359 -0.222656,-0.48047 -0.0625,-0.29687 -0.0625,-1.13672 z"
       style="font-size:8px;font-family:'DIN Alternate';text-anchor:middle;fill:#343434"
       id="path219" />
    <path
       d="m 20.910156,354.07031 q 0.0078,0.89844 0.59375,1.42578 0.574219,0.54297 1.429688,0.55078 0.871093,-0.008 1.441406,-0.55078 0.566406,-0.52734 0.582031,-1.42578 v -3.76562 H 24.09375 v 3.67187 q -0.0078,0.58203 -0.328125,0.88672 -0.328125,0.32031 -0.832031,0.32031 -0.503907,0 -0.824219,-0.32031 -0.328125,-0.30469 -0.335938,-0.88672 v -3.67187 h -0.863281 z"
       style="font-size:8px;font-family:'DIN Alternate';text-anchor:middle;fill:#343434"
       id="path221" />
    <path
       d="m 27.027344,356 h 0.867187 v -4.92578 h 1.558594 v -0.76953 H 25.46875 v 0.76953 h 1.558594 z"
       style="font-size:8px;font-family:'DIN Alternate';text-anchor:middle;fill:#343434"
       id="path223" />
  </g>
</svg>
