<?xml version="1.0" encoding="UTF-8" standalone="no"?>
<svg
   xmlns:dc="http://purl.org/dc/elements/1.1/"
   xmlns:cc="http://creativecommons.org/ns#"
   xmlns:rdf="http://www.w3.org/1999/02/22-rdf-syntax-ns#"
   xmlns:svg="http://www.w3.org/2000/svg"
   xmlns="http://www.w3.org/2000/svg"
   xmlns:xlink="http://www.w3.org/1999/xlink"
   xmlns:sodipodi="http://sodipodi.sourceforge.net/DTD/sodipodi-0.dtd"
   xmlns:inkscape="http://www.inkscape.org/namespaces/inkscape"
   version="1.1"
   width="45"
   height="380"
   viewBox="0 0 45 380"
   id="svg167"
   sodipodi:docname="CLIP.svg"
   inkscape:version="1.0.2 (e86c8708, 2021-01-15)">
  <metadata
     id="metadata171">
    <rdf:RDF>
      <cc:Work
         rdf:about="">
        <dc:format>image/svg+xml</dc:format>
        <dc:type
           rdf:resource="http://purl.org/dc/dcmitype/StillImage" />
      </cc:Work>
    </rdf:RDF>
  </metadata>
  <sodipodi:namedview
     pagecolor="#ffffff"
     bordercolor="#666666"
     borderopacity="1"
     objecttolerance="10"
     gridtolerance="10"
     guidetolerance="10"
     inkscape:pageopacity="0"
     inkscape:pageshadow="2"
     inkscape:window-width="689"
     inkscape:window-height="480"
     id="namedview169"
     showgrid="false"
     inkscape:zoom="2.1763158"
     inkscape:cx="22.5"
     inkscape:cy="190"
     inkscape:window-x="0"
     inkscape:window-y="25"
     inkscape:window-maximized="0"
     inkscape:current-layer="svg167" />
  <!-- ================ header begin ================ -->
  <style
     id="style2">

    text.title {
      fill: #a91913;
      font-family: 'DIN Alternate';
      font-size: 11.5pt;
    }
    text.big-label {
      fill: #343434;
      font-family: 'DIN Alternate';
      font-size: 7.5pt;
    }
    text.label {
      fill: #343434;
      font-family: 'DIN Alternate';
      font-size: 6pt;
    }
    text.output-label {
      fill: #dfdfdf;
      font-family: 'DIN Alternate';
      font-size: 6pt;
    }

    .background {
      fill: #dfdfdf;
    }
    .poly-output {
      fill: #558955;
    }
    .mono-output {
      fill: #636c9d;
    }

    polyline.icon {
      stroke: #343434;
      stroke-width: 1.2;
      fill: none;
    }
    polyline.connect {
      stroke: #343434;
      stroke-width: 1;
      fill: none;
    }

    rect.lcd-bg {
      fill: #121212;
    }
    rect.lcd-bg-frame {
      fill: #888888;
    }
    rect.lcd-bg-accent {
      fill: #2a2a2a;
    }
    text.lcd-label {
      fill: #777777;
      font-family: 'Monaco';
      font-size: 5pt;
    }
    polyline.lcd-tick {
      stroke: #707070;
      stroke-width: 1;
      fill: none;
    }

    .blueprint {
      stroke: #444444;
      fill: none;
    }

  </style>
  <defs
     id="defs121">
    <linearGradient
       id="smallKnobLight"
       x1="0%"
       y1="0%"
       x2="0%"
       y2="100%">
      <stop
         offset="0%"
         stop-color="#6f6f6f"
         id="stop4" />
      <stop
         offset="100%"
         stop-color="#383838"
         id="stop6" />
    </linearGradient>
    <linearGradient
       id="smallKnobDark"
       x1="0%"
       y1="0%"
       x2="0%"
       y2="100%">
      <stop
         offset="0%"
         stop-color="#494949"
         id="stop9" />
      <stop
         offset="100%"
         stop-color="#282828"
         id="stop11" />
    </linearGradient>
    <linearGradient
       id="bigKnobLight"
       x1="0%"
       y1="0%"
       x2="0%"
       y2="100%">
      <stop
         offset="0%"
         stop-color="#888"
         id="stop14" />
      <stop
         offset="100%"
         stop-color="#333"
         id="stop16" />
    </linearGradient>
    <linearGradient
       id="bigKnobDark"
       x1="0%"
       y1="0%"
       x2="0%"
       y2="100%">
      <stop
         offset="0%"
         stop-color="#5c5c5c"
         id="stop19" />
      <stop
         offset="100%"
         stop-color="#282828"
         id="stop21" />
    </linearGradient>
    <symbol
       id="knob18">
      <g
         transform="translate(9 9)"
         id="g30">
        <circle
           r="8.5"
           stroke="#222"
           fill="none"
           id="circle24" />
        <circle
           r="8"
           fill="url('#smallKnobLight')"
           id="circle26" />
        <circle
           r="7"
           fill="url('#smallKnobDark')"
           id="circle28" />
      </g>
    </symbol>
    <symbol
       id="knob24">
      <g
         transform="translate(12 12)"
         id="g39">
        <circle
           r="11.5"
           stroke="#121212"
           fill="none"
           id="circle33" />
        <circle
           r="11"
           fill="url('#smallKnobLight')"
           id="circle35" />
        <circle
           r="10"
           fill="url('#smallKnobDark')"
           id="circle37" />
      </g>
    </symbol>
    <symbol
       id="knob45">
      <g
         transform="translate(22.5 22.5)"
         id="g46">
        <circle
           r="22"
           fill="url('#bigKnobDark')"
           id="circle42" />
        <circle
           r="20"
           fill="url('#bigKnobLight')"
           id="circle44" />
      </g>
    </symbol>
    <symbol
       id="toggleButton">
      <g
         transform="translate(9 9)"
         id="g49" />
    </symbol>
    <symbol
       id="port">
      <g
         transform="translate(12 12)"
         id="g52" />
    </symbol>
    <symbol
       id="screw">
      <g
         transform="translate(6 6)"
         id="g55" />
    </symbol>
    <symbol
       id="hswitch14">
      <g
         transform="translate(12 7)"
         id="g58" />
    </symbol>
    <symbol
       id="meter-strip">
      <g
         transform="translate(20 4)"
         id="g105">
        <rect
           x="-6"
           y="-1"
           width="5"
           height="98"
           class="lcd-bg-accent"
           id="rect61" />
        <rect
           x="1"
           y="-1"
           width="5"
           height="98"
           class="lcd-bg-accent"
           id="rect63" />
        <g
           transform="translate(-11 2.5)"
           id="g83">
          <text
             x="0"
             y="0"
             class="lcd-label"
             text-anchor="end"
             id="text65">0</text>
          <text
             x="0"
             y="12"
             class="lcd-label"
             text-anchor="end"
             id="text67">3</text>
          <text
             x="0"
             y="24"
             class="lcd-label"
             text-anchor="end"
             id="text69">6</text>
          <text
             x="0"
             y="36"
             class="lcd-label"
             text-anchor="end"
             id="text71">9</text>
          <text
             x="0"
             y="48"
             class="lcd-label"
             text-anchor="end"
             id="text73">12</text>
          <text
             x="0"
             y="60"
             class="lcd-label"
             text-anchor="end"
             id="text75">18</text>
          <text
             x="0"
             y="72"
             class="lcd-label"
             text-anchor="end"
             id="text77">24</text>
          <text
             x="0"
             y="84"
             class="lcd-label"
             text-anchor="end"
             id="text79">36</text>
          <text
             x="0"
             y="96"
             class="lcd-label"
             text-anchor="end"
             id="text81">48</text>
        </g>
        <g
           transform="translate(-10 0)"
           id="g103">
          <polyline
             points="0  0 2  0"
             class="lcd-tick"
             id="polyline85" />
          <polyline
             points="0 12 2 12"
             class="lcd-tick"
             id="polyline87" />
          <polyline
             points="0 24 2 24"
             class="lcd-tick"
             id="polyline89" />
          <polyline
             points="0 36 2 36"
             class="lcd-tick"
             id="polyline91" />
          <polyline
             points="0 48 2 48"
             class="lcd-tick"
             id="polyline93" />
          <polyline
             points="0 60 2 60"
             class="lcd-tick"
             id="polyline95" />
          <polyline
             points="0 72 2 72"
             class="lcd-tick"
             id="polyline97" />
          <polyline
             points="0 84 2 84"
             class="lcd-tick"
             id="polyline99" />
          <polyline
             points="0 96 2 96"
             class="lcd-tick"
             id="polyline101" />
        </g>
      </g>
    </symbol>
    <symbol
       id="logo">
      <g
         transform="translate(6 6)"
         id="g118">
        <rect
           x="-5"
           y="-4"
           height="12"
           width="10"
           rx="2"
           fill="#6a6a6a"
           stroke="none"
           id="rect108" />
        <rect
           x="-3"
           y="-5"
           height="4"
           width="6"
           rx="1"
           fill="#6a6a6a"
           stroke="none"
           id="rect110" />
        <path
           d="M0,-3, 0,-5"
           stroke="#6a6a6a"
           stroke-width="2"
           stroke-linecap="round"
           id="path112" />
        <circle
           cx="-2.5"
           cy="0"
           r="1.2"
           fill="#dfdfdf"
           stroke="none"
           id="circle114" />
        <circle
           cx="2.5"
           cy="0"
           r="1.2"
           fill="#dfdfdf"
           stroke="none"
           id="circle116" />
      </g>
    </symbol>
    <linearGradient
       inkscape:collect="always"
       xlink:href="#smallKnobLight"
       id="linearGradient196"
       x1="-11"
       y1="-11"
       x2="-11"
       y2="11"
       gradientUnits="userSpaceOnUse" />
    <linearGradient
       inkscape:collect="always"
       xlink:href="#smallKnobDark"
       id="linearGradient198"
       x1="-10"
       y1="-10"
       x2="-10"
       y2="10"
       gradientUnits="userSpaceOnUse" />
  </defs>
  <!-- ================ header end ================ -->
  <path
     id="rect123"
     style="fill:#dfdfdf"
     d="M 0,0 H 45 V 380 H 0 Z"
     class="background" />
  <g
     aria-label="CLIP"
     id="text125"
     style="font-size:15.3333px;font-family:'DIN Alternate';text-anchor:middle;fill:#a91913"
     class="title">
    <path
       d="m 14.19694,26.945313 q -0.688802,1.489908 -2.08138,1.489908 -0.583984,0 -1.003255,-0.24707 -0.426758,-0.209635 -0.688802,-0.546549 -0.32194,-0.351888 -0.4267579,-0.920899 -0.1197917,-0.56901 -0.1197917,-2.178711 0,-1.6097 0.1197917,-2.193685 0.1048179,-0.554036 0.4267579,-0.905924 0.262044,-0.336914 0.688802,-0.561523 0.419271,-0.217123 1.003255,-0.232097 0.79362,0.01497 1.347656,0.456706 0.531576,0.464193 0.733724,1.123047 h 1.751953 q -0.262044,-1.370117 -1.257812,-2.298503 -0.995768,-0.920898 -2.575521,-0.935872 -1.28776,0.01497 -2.1487629,0.613932 -0.8759765,0.591471 -1.2727864,1.347656 -0.2470703,0.39681 -0.366862,1.04069 -0.1123047,0.643881 -0.1123047,2.545573 0,1.871745 0.1123047,2.530599 0.059896,0.351888 0.1497396,0.583985 0.097331,0.224609 0.2171224,0.471679 0.3968099,0.756185 1.2727864,1.332683 0.8610029,0.598958 2.1487629,0.628906 1.422526,0 2.463216,-0.808594 1.010742,-0.816081 1.370117,-2.335937 z"
       style="font-size:15.3333px;font-family:'DIN Alternate';text-anchor:middle;fill:#a91913"
       id="path246" />
    <path
       d="m 17.124349,30 h 6.970378 v -1.564779 h -5.315755 v -9.351236 h -1.654623 z"
       style="font-size:15.3333px;font-family:'DIN Alternate';text-anchor:middle;fill:#a91913"
       id="path248" />
    <path
       d="m 25.659505,30 h 1.654623 V 19.083985 h -1.654623 z"
       style="font-size:15.3333px;font-family:'DIN Alternate';text-anchor:middle;fill:#a91913"
       id="path250" />
    <path
       d="m 31.267253,20.648763 h 2.388346 q 0.673828,-0.01497 1.182943,0.306966 0.336914,0.194662 0.524088,0.531576 0.179688,0.374349 0.179688,0.920898 0,0.658854 -0.441732,1.197917 -0.464193,0.554036 -1.385091,0.56901 H 31.267253 Z M 29.61263,30 h 1.654623 v -4.260091 h 2.515625 q 1.68457,-0.02995 2.560547,-1.078125 0.853515,-0.995768 0.853515,-2.208659 0,-0.898437 -0.336914,-1.557291 -0.32194,-0.681316 -0.838541,-1.048178 -0.613933,-0.486653 -1.212891,-0.64388 -0.598958,-0.119791 -1.242839,-0.119791 H 29.61263 Z"
       style="font-size:15.3333px;font-family:'DIN Alternate';text-anchor:middle;fill:#a91913"
       id="path252" />
  </g>
  <g
     transform="translate(16.5,364)"
     id="g129">
    <g
       id="use127">
      <g
         transform="translate(6,6)"
         id="g230">
        <path
           id="rect220"
           style="fill:#6a6a6a;stroke:none"
           d="m -3,-4 h 6 c 1.108,0 2,0.892 2,2 V 6 C 5,7.108 4.108,8 3,8 H -3 C -4.108,8 -5,7.108 -5,6 v -8 c 0,-1.108 0.892,-2 2,-2 z" />
        <path
           id="rect222"
           style="fill:#6a6a6a;stroke:none"
           d="m -2,-5 h 4 c 0.554,0 1,0.446 1,1 v 2 c 0,0.554 -0.446,1 -1,1 h -4 c -0.554,0 -1,-0.446 -1,-1 v -2 c 0,-0.554 0.446,-1 1,-1 z" />
        <path
           d="M 0,-3 V -5"
           stroke="#6a6a6a"
           stroke-width="2"
           stroke-linecap="round"
           id="path224" />
        <path
           id="circle226"
           style="fill:#dfdfdf;stroke:none"
           d="M -1.3,0 A 1.2,1.2 0 0 1 -2.5,1.2 1.2,1.2 0 0 1 -3.7,0 1.2,1.2 0 0 1 -2.5,-1.2 1.2,1.2 0 0 1 -1.3,0 Z" />
        <path
           id="circle228"
           style="fill:#dfdfdf;stroke:none"
           d="M 3.7,0 A 1.2,1.2 0 0 1 2.5,1.2 1.2,1.2 0 0 1 1.3,0 1.2,1.2 0 0 1 2.5,-1.2 1.2,1.2 0 0 1 3.7,0 Z" />
      </g>
    </g>
  </g>
  <g
     id="use133">
    <g
       transform="translate(6,6)"
       id="g204" />
  </g>
  <g
     id="use137"
     transform="translate(33,368)">
    <g
       transform="translate(6,6)"
       id="g208" />
  </g>
  <!-- ======== level ======== -->
  <path
     id="polyline141"
     transform="translate(22.5,74)"
     style="fill:none;stroke:#343434;stroke-width:1"
     d="M 0,0 V 36"
     class="connect" />
  <g
     aria-label="LEVEL"
     id="text143"
     style="font-size:8px;font-family:'DIN Alternate';text-anchor:middle;fill:#343434"
     class="label">
    <path
       d="m 11.96875,57 h 3.636719 V 56.183594 H 12.832031 V 51.304687 H 11.96875 Z"
       style="font-size:8px;font-family:'DIN Alternate';text-anchor:middle;fill:#343434"
       id="path264" />
    <path
       d="m 16.421875,57 h 3.636719 v -0.816406 h -2.773438 v -1.671875 h 2.367188 v -0.765625 h -2.367188 v -1.625 h 2.773438 v -0.816407 h -3.636719 z"
       style="font-size:8px;font-family:'DIN Alternate';text-anchor:middle;fill:#343434"
       id="path266" />
    <path
       d="m 22.160156,57 h 0.671875 l 1.882813,-5.695313 h -0.914063 l -1.296875,4.335938 h -0.01563 L 21.195312,51.304687 H 20.28125 Z"
       style="font-size:8px;font-family:'DIN Alternate';text-anchor:middle;fill:#343434"
       id="path268" />
    <path
       d="m 25.328125,57 h 3.636719 v -0.816406 h -2.773438 v -1.671875 h 2.367188 v -0.765625 h -2.367188 v -1.625 h 2.773438 v -0.816407 h -3.636719 z"
       style="font-size:8px;font-family:'DIN Alternate';text-anchor:middle;fill:#343434"
       id="path270" />
    <path
       d="m 29.78125,57 h 3.636719 V 56.183594 H 30.644531 V 51.304687 H 29.78125 Z"
       style="font-size:8px;font-family:'DIN Alternate';text-anchor:middle;fill:#343434"
       id="path272" />
  </g>
  <g
     id="use145"
     transform="translate(10.5,62)">
    <g
       transform="translate(12,12)"
       id="g192">
      <path
         id="circle186"
         style="fill:none;stroke:#121212"
         d="M 11.5,0 A 11.5,11.5 0 0 1 0,11.5 11.5,11.5 0 0 1 -11.5,0 11.5,11.5 0 0 1 0,-11.5 11.5,11.5 0 0 1 11.5,0 Z" />
      <path
         id="circle188"
         style="fill:url(#linearGradient196)"
         d="M 11,0 A 11,11 0 0 1 0,11 11,11 0 0 1 -11,0 11,11 0 0 1 0,-11 11,11 0 0 1 11,0 Z" />
      <path
         id="circle190"
         style="fill:url(#linearGradient198)"
         d="M 10,0 A 10,10 0 0 1 0,10 10,10 0 0 1 -10,0 10,10 0 0 1 0,-10 10,10 0 0 1 10,0 Z" />
    </g>
  </g>
  <g
     id="use149"
     transform="translate(10.5,98)">
    <g
       transform="translate(12,12)"
       id="g212" />
  </g>
  <!-- ======== in/out ======== -->
  <g
     id="use153"
     transform="translate(10.5,281)">
    <g
       transform="translate(12,12)"
       id="g200" />
  </g>
  <g
     aria-label="IN"
     id="text155"
     style="font-size:8px;font-family:'DIN Alternate';text-anchor:middle;fill:#343434"
     class="label">
    <path
       d="m 19.335937,315 h 0.863282 v -5.69531 h -0.863282 z"
       style="font-size:8px;font-family:'DIN Alternate';text-anchor:middle;fill:#343434"
       id="path256" />
    <path
       d="m 21.398437,315 h 0.863282 v -4.04688 h 0.01563 L 24.851562,315 h 0.816407 v -5.69531 h -0.863282 v 4.04687 h -0.01563 l -2.578125,-4.04687 h -0.8125 z"
       style="font-size:8px;font-family:'DIN Alternate';text-anchor:middle;fill:#343434"
       id="path258" />
  </g>
  <path
     id="rect159"
     style="fill:#558955"
     d="m 10.5,319 h 24 c 1.662,0 3,1.338 3,3 v 35 c 0,1.662 -1.338,3 -3,3 h -24 c -1.662,0 -3,-1.338 -3,-3 v -35 c 0,-1.662 1.338,-3 3,-3 z"
     class="poly-output" />
  <g
     id="use161"
     transform="translate(10.5,322)">
    <g
       transform="translate(12,12)"
       id="g216" />
  </g>
  <g
     aria-label="OUT"
     id="text163"
     style="font-size:8px;font-family:'DIN Alternate';text-anchor:middle;fill:#dfdfdf"
     class="output-label">
    <path
       d="m 15.945313,353.15234 q 0,0.97657 0.05859,1.32032 0.03125,0.18359 0.07813,0.30468 0.05078,0.11719 0.113281,0.2461 0.207032,0.39453 0.664063,0.69531 0.449219,0.3125 1.121094,0.32812 0.679687,-0.0156 1.132812,-0.32812 0.449219,-0.30078 0.648438,-0.69531 0.144531,-0.20703 0.199218,-0.55078 0.05078,-0.34375 0.05078,-1.32032 0,-0.99218 -0.05078,-1.32812 -0.05469,-0.33594 -0.199218,-0.54297 -0.199219,-0.39453 -0.648438,-0.70313 -0.453125,-0.3125 -1.132812,-0.32031 -0.671875,0.008 -1.121094,0.32031 -0.457031,0.3086 -0.664063,0.70313 -0.128906,0.20703 -0.191406,0.54297 -0.05859,0.33594 -0.05859,1.32812 z m 0.867187,0 q 0,-0.83984 0.0625,-1.14453 0.05469,-0.28906 0.222656,-0.47265 0.136719,-0.17579 0.359375,-0.29297 0.21875,-0.11328 0.523438,-0.1211 0.308593,0.008 0.535156,0.1211 0.214844,0.11718 0.34375,0.29297 0.167969,0.18359 0.230469,0.47265 0.05859,0.30469 0.05859,1.14453 0,0.83985 -0.05859,1.13672 -0.0625,0.29688 -0.230469,0.48047 -0.128906,0.17578 -0.34375,0.28516 -0.226563,0.1289 -0.535156,0.1289 -0.304688,0 -0.523438,-0.1289 -0.222656,-0.10938 -0.359375,-0.28516 -0.167969,-0.18359 -0.222656,-0.48047 -0.0625,-0.29687 -0.0625,-1.13672 z"
       style="font-size:8px;font-family:'DIN Alternate';text-anchor:middle;fill:#dfdfdf"
       id="path234" />
    <path
       d="m 20.910156,354.07031 q 0.0078,0.89844 0.59375,1.42578 0.574219,0.54297 1.429688,0.55078 0.871093,-0.008 1.441406,-0.55078 0.566406,-0.52734 0.582031,-1.42578 v -3.76562 H 24.09375 v 3.67187 q -0.0078,0.58203 -0.328125,0.88672 -0.328125,0.32031 -0.832031,0.32031 -0.503907,0 -0.824219,-0.32031 -0.328125,-0.30469 -0.335938,-0.88672 v -3.67187 h -0.863281 z"
       style="font-size:8px;font-family:'DIN Alternate';text-anchor:middle;fill:#dfdfdf"
       id="path236" />
    <path
       d="m 27.027344,356 h 0.867187 v -4.92578 h 1.558594 v -0.76953 H 25.46875 v 0.76953 h 1.558594 z"
       style="font-size:8px;font-family:'DIN Alternate';text-anchor:middle;fill:#dfdfdf"
       id="path238" />
  </g>
</svg>
