<?xml version="1.0" encoding="UTF-8" standalone="no"?>
<svg
   xmlns:dc="http://purl.org/dc/elements/1.1/"
   xmlns:cc="http://creativecommons.org/ns#"
   xmlns:rdf="http://www.w3.org/1999/02/22-rdf-syntax-ns#"
   xmlns:svg="http://www.w3.org/2000/svg"
   xmlns="http://www.w3.org/2000/svg"
   xmlns:sodipodi="http://sodipodi.sourceforge.net/DTD/sodipodi-0.dtd"
   xmlns:inkscape="http://www.inkscape.org/namespaces/inkscape"
   version="1.1"
   width="12"
   height="160"
   viewBox="0 0 12 160"
   id="svg6"
   sodipodi:docname="fader-bg.svg"
   inkscape:version="1.0.2 (e86c8708, 2021-01-15)">
  <metadata
     id="metadata12">
    <rdf:RDF>
      <cc:Work
         rdf:about="">
        <dc:format>image/svg+xml</dc:format>
        <dc:type
           rdf:resource="http://purl.org/dc/dcmitype/StillImage" />
      </cc:Work>
    </rdf:RDF>
  </metadata>
  <defs
     id="defs10" />
  <sodipodi:namedview
     pagecolor="#ffffff"
     bordercolor="#666666"
     borderopacity="1"
     objecttolerance="10"
     gridtolerance="10"
     guidetolerance="10"
     inkscape:pageopacity="0"
     inkscape:pageshadow="2"
     inkscape:window-width="689"
     inkscape:window-height="480"
     id="namedview8"
     showgrid="false"
     inkscape:zoom="5.16875"
     inkscape:cx="6"
     inkscape:cy="80"
     inkscape:window-x="0"
     inkscape:window-y="25"
     inkscape:window-maximized="0"
     inkscape:current-layer="svg6" />
  <!--rect x="0" y="0" width="12" height="160" stroke-width="1" stroke="none" fill="pink"/-->
  <path
     id="rect2"
     style="fill:#dddddd;stroke:none;stroke-width:1"
     d="m 5,7.5 h 2 c 1.108,0 2,0.892 2,2 V 154 c 0,1.108 -0.892,2 -2,2 H 5 c -1.108,0 -2,-0.892 -2,-2 V 9.5 c 0,-1.108 0.892,-2 2,-2 z" />
  <path
     id="rect4"
     style="fill:#121212;stroke:none;stroke-width:1"
     d="m 5.5,8 h 1 c 1.108,0 2,0.892 2,2 v 143.5 c 0,1.108 -0.892,2 -2,2 h -1 c -1.108,0 -2,-0.892 -2,-2 V 10 c 0,-1.108 0.892,-2 2,-2 z" />
</svg>
