<?xml version="1.0" encoding="UTF-8" standalone="no"?>
<svg
   xmlns:dc="http://purl.org/dc/elements/1.1/"
   xmlns:cc="http://creativecommons.org/ns#"
   xmlns:rdf="http://www.w3.org/1999/02/22-rdf-syntax-ns#"
   xmlns:svg="http://www.w3.org/2000/svg"
   xmlns="http://www.w3.org/2000/svg"
   xmlns:xlink="http://www.w3.org/1999/xlink"
   xmlns:sodipodi="http://sodipodi.sourceforge.net/DTD/sodipodi-0.dtd"
   xmlns:inkscape="http://www.inkscape.org/namespaces/inkscape"
   version="1.1"
   width="75"
   height="380"
   viewBox="0 0 75 380"
   id="svg231"
   sodipodi:docname="FM.svg"
   inkscape:version="1.0.2 (e86c8708, 2021-01-15)">
  <metadata
     id="metadata235">
    <rdf:RDF>
      <cc:Work
         rdf:about="">
        <dc:format>image/svg+xml</dc:format>
        <dc:type
           rdf:resource="http://purl.org/dc/dcmitype/StillImage" />
      </cc:Work>
    </rdf:RDF>
  </metadata>
  <sodipodi:namedview
     pagecolor="#ffffff"
     bordercolor="#666666"
     borderopacity="1"
     objecttolerance="10"
     gridtolerance="10"
     guidetolerance="10"
     inkscape:pageopacity="0"
     inkscape:pageshadow="2"
     inkscape:window-width="689"
     inkscape:window-height="480"
     id="namedview233"
     showgrid="false"
     inkscape:zoom="2.1763158"
     inkscape:cx="37.5"
     inkscape:cy="190"
     inkscape:window-x="0"
     inkscape:window-y="25"
     inkscape:window-maximized="0"
     inkscape:current-layer="svg231" />
  <!-- ================ header begin ================ -->
  <style
     id="style2">

    text.title {
      fill: #a91913;
      font-family: 'DIN Alternate';
      font-size: 11.5pt;
    }
    text.big-label {
      fill: #343434;
      font-family: 'DIN Alternate';
      font-size: 7.5pt;
    }
    text.label {
      fill: #343434;
      font-family: 'DIN Alternate';
      font-size: 6pt;
    }
    text.output-label {
      fill: #dfdfdf;
      font-family: 'DIN Alternate';
      font-size: 6pt;
    }

    .background {
      fill: #dfdfdf;
    }
    .poly-output {
      fill: #558955;
    }
    .mono-output {
      fill: #636c9d;
    }

    polyline.icon {
      stroke: #343434;
      stroke-width: 1.2;
      fill: none;
    }
    polyline.connect {
      stroke: #343434;
      stroke-width: 1;
      fill: none;
    }

    rect.lcd-bg {
      fill: #121212;
    }
    rect.lcd-bg-frame {
      fill: #888888;
    }
    rect.lcd-bg-accent {
      fill: #2a2a2a;
    }
    text.lcd-label {
      fill: #777777;
      font-family: 'Monaco';
      font-size: 5pt;
    }
    polyline.lcd-tick {
      stroke: #707070;
      stroke-width: 1;
      fill: none;
    }

    .blueprint {
      stroke: #444444;
      fill: none;
    }

  </style>
  <defs
     id="defs121">
    <linearGradient
       id="smallKnobLight"
       x1="0%"
       y1="0%"
       x2="0%"
       y2="100%">
      <stop
         offset="0%"
         stop-color="#6f6f6f"
         id="stop4" />
      <stop
         offset="100%"
         stop-color="#383838"
         id="stop6" />
    </linearGradient>
    <linearGradient
       id="smallKnobDark"
       x1="0%"
       y1="0%"
       x2="0%"
       y2="100%">
      <stop
         offset="0%"
         stop-color="#494949"
         id="stop9" />
      <stop
         offset="100%"
         stop-color="#282828"
         id="stop11" />
    </linearGradient>
    <linearGradient
       id="bigKnobLight"
       x1="0%"
       y1="0%"
       x2="0%"
       y2="100%">
      <stop
         offset="0%"
         stop-color="#888"
         id="stop14" />
      <stop
         offset="100%"
         stop-color="#333"
         id="stop16" />
    </linearGradient>
    <linearGradient
       id="bigKnobDark"
       x1="0%"
       y1="0%"
       x2="0%"
       y2="100%">
      <stop
         offset="0%"
         stop-color="#5c5c5c"
         id="stop19" />
      <stop
         offset="100%"
         stop-color="#282828"
         id="stop21" />
    </linearGradient>
    <symbol
       id="knob18">
      <g
         transform="translate(9 9)"
         id="g30">
        <circle
           r="8.5"
           stroke="#222"
           fill="none"
           id="circle24" />
        <circle
           r="8"
           fill="url('#smallKnobLight')"
           id="circle26" />
        <circle
           r="7"
           fill="url('#smallKnobDark')"
           id="circle28" />
      </g>
    </symbol>
    <symbol
       id="knob24">
      <g
         transform="translate(12 12)"
         id="g39">
        <circle
           r="11.5"
           stroke="#121212"
           fill="none"
           id="circle33" />
        <circle
           r="11"
           fill="url('#smallKnobLight')"
           id="circle35" />
        <circle
           r="10"
           fill="url('#smallKnobDark')"
           id="circle37" />
      </g>
    </symbol>
    <symbol
       id="knob45">
      <g
         transform="translate(22.5 22.5)"
         id="g46">
        <circle
           r="22"
           fill="url('#bigKnobDark')"
           id="circle42" />
        <circle
           r="20"
           fill="url('#bigKnobLight')"
           id="circle44" />
      </g>
    </symbol>
    <symbol
       id="toggleButton">
      <g
         transform="translate(9 9)"
         id="g49" />
    </symbol>
    <symbol
       id="port">
      <g
         transform="translate(12 12)"
         id="g52" />
    </symbol>
    <symbol
       id="screw">
      <g
         transform="translate(6 6)"
         id="g55" />
    </symbol>
    <symbol
       id="hswitch14">
      <g
         transform="translate(12 7)"
         id="g58" />
    </symbol>
    <symbol
       id="meter-strip">
      <g
         transform="translate(20 4)"
         id="g105">
        <rect
           x="-6"
           y="-1"
           width="5"
           height="106"
           class="lcd-bg-accent"
           id="rect61" />
        <rect
           x="1"
           y="-1"
           width="5"
           height="106"
           class="lcd-bg-accent"
           id="rect63" />
        <g
           transform="translate(-11 2.5)"
           id="g83">
          <text
             x="0"
             y="0"
             class="lcd-label"
             text-anchor="end"
             id="text65">0</text>
          <text
             x="0"
             y="13"
             class="lcd-label"
             text-anchor="end"
             id="text67">3</text>
          <text
             x="0"
             y="26"
             class="lcd-label"
             text-anchor="end"
             id="text69">6</text>
          <text
             x="0"
             y="39"
             class="lcd-label"
             text-anchor="end"
             id="text71">9</text>
          <text
             x="0"
             y="52"
             class="lcd-label"
             text-anchor="end"
             id="text73">12</text>
          <text
             x="0"
             y="65"
             class="lcd-label"
             text-anchor="end"
             id="text75">18</text>
          <text
             x="0"
             y="78"
             class="lcd-label"
             text-anchor="end"
             id="text77">24</text>
          <text
             x="0"
             y="91"
             class="lcd-label"
             text-anchor="end"
             id="text79">36</text>
          <text
             x="0"
             y="104"
             class="lcd-label"
             text-anchor="end"
             id="text81">48</text>
        </g>
        <g
           transform="translate(-10 0)"
           id="g103">
          <polyline
             points="0   0 2   0"
             class="lcd-tick"
             id="polyline85" />
          <polyline
             points="0  13 2  13"
             class="lcd-tick"
             id="polyline87" />
          <polyline
             points="0  26 2  26"
             class="lcd-tick"
             id="polyline89" />
          <polyline
             points="0  39 2  39"
             class="lcd-tick"
             id="polyline91" />
          <polyline
             points="0  52 2  52"
             class="lcd-tick"
             id="polyline93" />
          <polyline
             points="0  65 2  65"
             class="lcd-tick"
             id="polyline95" />
          <polyline
             points="0  78 2  78"
             class="lcd-tick"
             id="polyline97" />
          <polyline
             points="0  91 2  91"
             class="lcd-tick"
             id="polyline99" />
          <polyline
             points="0 104 2 104"
             class="lcd-tick"
             id="polyline101" />
        </g>
      </g>
    </symbol>
    <symbol
       id="logo">
      <g
         transform="translate(6 6)"
         id="g118">
        <rect
           x="-5"
           y="-4"
           height="12"
           width="10"
           rx="2"
           fill="#6a6a6a"
           stroke="none"
           id="rect108" />
        <rect
           x="-3"
           y="-5"
           height="4"
           width="6"
           rx="1"
           fill="#6a6a6a"
           stroke="none"
           id="rect110" />
        <path
           d="M0,-3, 0,-5"
           stroke="#6a6a6a"
           stroke-width="2"
           stroke-linecap="round"
           id="path112" />
        <circle
           cx="-2.5"
           cy="0"
           r="1.2"
           fill="#dfdfdf"
           stroke="none"
           id="circle114" />
        <circle
           cx="2.5"
           cy="0"
           r="1.2"
           fill="#dfdfdf"
           stroke="none"
           id="circle116" />
      </g>
    </symbol>
    <linearGradient
       inkscape:collect="always"
       xlink:href="#bigKnobDark"
       id="linearGradient283"
       x1="-22"
       y1="-22"
       x2="-22"
       y2="22"
       gradientUnits="userSpaceOnUse" />
    <linearGradient
       inkscape:collect="always"
       xlink:href="#bigKnobLight"
       id="linearGradient285"
       x1="-20"
       y1="-20"
       x2="-20"
       y2="20"
       gradientUnits="userSpaceOnUse" />
    <linearGradient
       inkscape:collect="always"
       xlink:href="#bigKnobDark"
       id="linearGradient315"
       x1="-22"
       y1="-22"
       x2="-22"
       y2="22"
       gradientUnits="userSpaceOnUse" />
    <linearGradient
       inkscape:collect="always"
       xlink:href="#bigKnobLight"
       id="linearGradient317"
       x1="-20"
       y1="-20"
       x2="-20"
       y2="20"
       gradientUnits="userSpaceOnUse" />
    <linearGradient
       inkscape:collect="always"
       xlink:href="#smallKnobLight"
       id="linearGradient329"
       x1="-8"
       y1="-8"
       x2="-8"
       y2="8"
       gradientUnits="userSpaceOnUse" />
    <linearGradient
       inkscape:collect="always"
       xlink:href="#smallKnobDark"
       id="linearGradient331"
       x1="-7"
       y1="-7"
       x2="-7"
       y2="7"
       gradientUnits="userSpaceOnUse" />
    <linearGradient
       inkscape:collect="always"
       xlink:href="#smallKnobLight"
       id="linearGradient343"
       x1="-8"
       y1="-8"
       x2="-8"
       y2="8"
       gradientUnits="userSpaceOnUse" />
    <linearGradient
       inkscape:collect="always"
       xlink:href="#smallKnobDark"
       id="linearGradient345"
       x1="-7"
       y1="-7"
       x2="-7"
       y2="7"
       gradientUnits="userSpaceOnUse" />
  </defs>
  <!-- ================ header end ================ -->
  <path
     id="rect123"
     style="fill:#dfdfdf"
     d="M 0,0 H 75 V 380 H 0 Z"
     class="background" />
  <g
     aria-label="FM"
     id="text125"
     style="font-size:15.3333px;font-family:'DIN Alternate';text-anchor:middle;fill:#a91913"
     class="title">
    <path
       d="m 28.725261,30 h 1.654622 v -4.664388 h 4.537109 v -1.467448 h -4.537109 v -3.219401 h 5.315755 v -1.564778 h -6.970377 z"
       style="font-size:15.3333px;font-family:'DIN Alternate';text-anchor:middle;fill:#a91913"
       id="path451" />
    <path
       d="m 36.960937,30 h 1.654623 v -6.805664 h 0.02995 l 2.283528,5.240885 h 1.377604 l 2.283529,-5.240885 h 0.03743 V 30 h 1.654622 V 19.083985 h -1.564778 l -3.069662,7.11263 v 0 l -3.129557,-7.11263 h -1.557292 z"
       style="font-size:15.3333px;font-family:'DIN Alternate';text-anchor:middle;fill:#a91913"
       id="path453" />
  </g>
  <g
     transform="translate(19.5,364)"
     id="g129">
    <g
       id="use127">
      <g
         transform="translate(6,6)"
         id="g393">
        <path
           id="rect383"
           style="fill:#6a6a6a;stroke:none"
           d="m -3,-4 h 6 c 1.108,0 2,0.892 2,2 V 6 C 5,7.108 4.108,8 3,8 H -3 C -4.108,8 -5,7.108 -5,6 v -8 c 0,-1.108 0.892,-2 2,-2 z" />
        <path
           id="rect385"
           style="fill:#6a6a6a;stroke:none"
           d="m -2,-5 h 4 c 0.554,0 1,0.446 1,1 v 2 c 0,0.554 -0.446,1 -1,1 h -4 c -0.554,0 -1,-0.446 -1,-1 v -2 c 0,-0.554 0.446,-1 1,-1 z" />
        <path
           d="M 0,-3 V -5"
           stroke="#6a6a6a"
           stroke-width="2"
           stroke-linecap="round"
           id="path387" />
        <path
           id="circle389"
           style="fill:#dfdfdf;stroke:none"
           d="M -1.3,0 A 1.2,1.2 0 0 1 -2.5,1.2 1.2,1.2 0 0 1 -3.7,0 1.2,1.2 0 0 1 -2.5,-1.2 1.2,1.2 0 0 1 -1.3,0 Z" />
        <path
           id="circle391"
           style="fill:#dfdfdf;stroke:none"
           d="M 3.7,0 A 1.2,1.2 0 0 1 2.5,1.2 1.2,1.2 0 0 1 1.3,0 1.2,1.2 0 0 1 2.5,-1.2 1.2,1.2 0 0 1 3.7,0 Z" />
      </g>
    </g>
  </g>
  <g
     transform="translate(31.5,364)"
     id="g133">
    <g
       id="use131">
      <g
         transform="translate(6,6)"
         id="g379">
        <path
           id="rect369"
           style="fill:#6a6a6a;stroke:none"
           d="m -3,-4 h 6 c 1.108,0 2,0.892 2,2 V 6 C 5,7.108 4.108,8 3,8 H -3 C -4.108,8 -5,7.108 -5,6 v -8 c 0,-1.108 0.892,-2 2,-2 z" />
        <path
           id="rect371"
           style="fill:#6a6a6a;stroke:none"
           d="m -2,-5 h 4 c 0.554,0 1,0.446 1,1 v 2 c 0,0.554 -0.446,1 -1,1 h -4 c -0.554,0 -1,-0.446 -1,-1 v -2 c 0,-0.554 0.446,-1 1,-1 z" />
        <path
           d="M 0,-3 V -5"
           stroke="#6a6a6a"
           stroke-width="2"
           stroke-linecap="round"
           id="path373" />
        <path
           id="circle375"
           style="fill:#dfdfdf;stroke:none"
           d="M -1.3,0 A 1.2,1.2 0 0 1 -2.5,1.2 1.2,1.2 0 0 1 -3.7,0 1.2,1.2 0 0 1 -2.5,-1.2 1.2,1.2 0 0 1 -1.3,0 Z" />
        <path
           id="circle377"
           style="fill:#dfdfdf;stroke:none"
           d="M 3.7,0 A 1.2,1.2 0 0 1 2.5,1.2 1.2,1.2 0 0 1 1.3,0 1.2,1.2 0 0 1 2.5,-1.2 1.2,1.2 0 0 1 3.7,0 Z" />
      </g>
    </g>
  </g>
  <g
     transform="translate(43.5,364)"
     id="g137">
    <g
       id="use135">
      <g
         transform="translate(6,6)"
         id="g365">
        <path
           id="rect355"
           style="fill:#6a6a6a;stroke:none"
           d="m -3,-4 h 6 c 1.108,0 2,0.892 2,2 V 6 C 5,7.108 4.108,8 3,8 H -3 C -4.108,8 -5,7.108 -5,6 v -8 c 0,-1.108 0.892,-2 2,-2 z" />
        <path
           id="rect357"
           style="fill:#6a6a6a;stroke:none"
           d="m -2,-5 h 4 c 0.554,0 1,0.446 1,1 v 2 c 0,0.554 -0.446,1 -1,1 h -4 c -0.554,0 -1,-0.446 -1,-1 v -2 c 0,-0.554 0.446,-1 1,-1 z" />
        <path
           d="M 0,-3 V -5"
           stroke="#6a6a6a"
           stroke-width="2"
           stroke-linecap="round"
           id="path359" />
        <path
           id="circle361"
           style="fill:#dfdfdf;stroke:none"
           d="M -1.3,0 A 1.2,1.2 0 0 1 -2.5,1.2 1.2,1.2 0 0 1 -3.7,0 1.2,1.2 0 0 1 -2.5,-1.2 1.2,1.2 0 0 1 -1.3,0 Z" />
        <path
           id="circle363"
           style="fill:#dfdfdf;stroke:none"
           d="M 3.7,0 A 1.2,1.2 0 0 1 2.5,1.2 1.2,1.2 0 0 1 1.3,0 1.2,1.2 0 0 1 2.5,-1.2 1.2,1.2 0 0 1 3.7,0 Z" />
      </g>
    </g>
  </g>
  <g
     id="use141">
    <g
       transform="translate(6,6)"
       id="g295" />
  </g>
  <g
     id="use145"
     transform="translate(63,368)">
    <g
       transform="translate(6,6)"
       id="g299" />
  </g>
  <!-- ======== knobs and switches ======== -->
  <g
     aria-label="RATIO"
     id="text149"
     style="font-size:10px;font-family:'DIN Alternate';text-anchor:middle;fill:#343434"
     class="big-label">
    <path
       d="m 26.772461,49.842773 h 1.689453 q 0.517578,0 0.791016,0.219727 0.346679,0.249023 0.356445,0.805664 0,0.463867 -0.297852,0.78125 -0.302734,0.341797 -0.908203,0.351563 H 26.772461 Z M 25.693359,56 h 1.079102 v -3.041992 h 1.376953 L 29.619141,56 h 1.284179 l -1.65039,-3.15918 q 1.357422,-0.522461 1.376953,-1.972656 -0.0293,-0.986328 -0.708008,-1.518555 -0.561523,-0.46875 -1.450195,-0.46875 h -2.778321 z"
       style="font-size:10px;font-family:'DIN Alternate';text-anchor:middle;fill:#343434"
       id="path477" />
    <path
       d="m 33.046875,53.451172 1.030273,-3.110352 h 0.01953 l 1.030273,3.110352 z M 35.986328,56 h 1.137695 l -2.58789,-7.119141 H 33.632812 L 31.044922,56 H 32.1875 l 0.546875,-1.591797 h 2.700195 z"
       style="font-size:10px;font-family:'DIN Alternate';text-anchor:middle;fill:#343434"
       id="path479" />
    <path
       d="m 38.344727,56 h 1.083984 v -6.157227 h 1.948242 v -0.961914 h -4.980469 v 0.961914 h 1.948243 z"
       style="font-size:10px;font-family:'DIN Alternate';text-anchor:middle;fill:#343434"
       id="path481" />
    <path
       d="m 42.138672,56 h 1.079101 v -7.119141 h -1.079101 z"
       style="font-size:10px;font-family:'DIN Alternate';text-anchor:middle;fill:#343434"
       id="path483" />
    <path
       d="m 44.472656,52.44043 q 0,1.220703 0.07324,1.65039 0.03906,0.229492 0.09766,0.38086 0.06348,0.146484 0.141601,0.307617 0.258789,0.493164 0.830078,0.86914 0.561524,0.390625 1.401368,0.410157 0.849609,-0.01953 1.416015,-0.410157 0.561524,-0.375976 0.810547,-0.86914 0.180664,-0.258789 0.249023,-0.688477 0.06348,-0.429687 0.06348,-1.65039 0,-1.240235 -0.06348,-1.660157 -0.06836,-0.419921 -0.249023,-0.678711 -0.249023,-0.493164 -0.810547,-0.878906 -0.566406,-0.390625 -1.416015,-0.40039 -0.839844,0.0098 -1.401368,0.40039 -0.571289,0.385742 -0.830078,0.878906 -0.161133,0.25879 -0.239258,0.678711 -0.07324,0.419922 -0.07324,1.660157 z m 1.083985,0 q 0,-1.049805 0.07813,-1.430664 0.06836,-0.361329 0.27832,-0.590821 0.170898,-0.219726 0.449219,-0.366211 0.273437,-0.141601 0.654297,-0.151367 0.385742,0.0098 0.668945,0.151367 0.268555,0.146485 0.429687,0.366211 0.209961,0.229492 0.288086,0.590821 0.07324,0.380859 0.07324,1.430664 0,1.049804 -0.07324,1.420898 -0.07813,0.371094 -0.288086,0.600586 -0.161132,0.219727 -0.429687,0.356445 -0.283203,0.161133 -0.668945,0.161133 -0.38086,0 -0.654297,-0.161133 -0.278321,-0.136718 -0.449219,-0.356445 -0.209961,-0.229492 -0.27832,-0.600586 -0.07813,-0.371094 -0.07813,-1.420898 z"
       style="font-size:10px;font-family:'DIN Alternate';text-anchor:middle;fill:#343434"
       id="path485" />
  </g>
  <g
     id="use151"
     transform="translate(15,61.5)">
    <g
       transform="translate(22.5,22.5)"
       id="g279">
      <path
         id="circle275"
         style="fill:url(#linearGradient283)"
         d="M 22,0 A 22,22 0 0 1 0,22 22,22 0 0 1 -22,0 22,22 0 0 1 0,-22 22,22 0 0 1 22,0 Z" />
      <path
         id="circle277"
         style="fill:url(#linearGradient285)"
         d="M 20,0 A 20,20 0 0 1 0,20 20,20 0 0 1 -20,0 20,20 0 0 1 0,-20 20,20 0 0 1 20,0 Z" />
    </g>
  </g>
  <g
     id="use155"
     transform="translate(25.5,113)">
    <g
       transform="translate(12,7)"
       id="g303" />
  </g>
  <g
     transform="translate(56.5,120)"
     id="g159">
    <path
       id="polyline157"
       style="fill:none;stroke:#343434;stroke-width:1.2"
       d="M -4,4 4,-4"
       class="icon" />
  </g>
  <g
     transform="translate(18.5,120)"
     id="g163">
    <path
       id="polyline161"
       style="fill:none;stroke:#343434;stroke-width:1.2"
       d="M -4,4 V 0 h 4 v -4 h 4"
       class="icon" />
  </g>
  <g
     aria-label="OFFSET"
     id="text167"
     style="font-size:10px;font-family:'DIN Alternate';text-anchor:middle;fill:#343434"
     class="big-label">
    <path
       d="m 21.435547,151.44043 q 0,1.2207 0.07324,1.65039 0.03906,0.22949 0.09766,0.38086 0.06348,0.14648 0.141602,0.30762 0.258789,0.49316 0.830078,0.86914 0.561523,0.39062 1.401367,0.41015 0.84961,-0.0195 1.416016,-0.41015 0.561523,-0.37598 0.810547,-0.86914 0.180664,-0.25879 0.249023,-0.68848 0.06348,-0.42969 0.06348,-1.65039 0,-1.24023 -0.06348,-1.66016 -0.06836,-0.41992 -0.249023,-0.67871 -0.249024,-0.49316 -0.810547,-0.8789 -0.566406,-0.39063 -1.416016,-0.40039 -0.839844,0.01 -1.401367,0.40039 -0.571289,0.38574 -0.830078,0.8789 -0.161133,0.25879 -0.239258,0.67871 -0.07324,0.41993 -0.07324,1.66016 z m 1.083984,0 q 0,-1.04981 0.07813,-1.43066 0.06836,-0.36133 0.278321,-0.59082 0.170898,-0.21973 0.449218,-0.36622 0.273438,-0.1416 0.654297,-0.15136 0.385742,0.01 0.668945,0.15136 0.268555,0.14649 0.429688,0.36622 0.209961,0.22949 0.288086,0.59082 0.07324,0.38085 0.07324,1.43066 0,1.0498 -0.07324,1.4209 -0.07813,0.37109 -0.288086,0.60058 -0.161133,0.21973 -0.429688,0.35645 -0.283203,0.16113 -0.668945,0.16113 -0.380859,0 -0.654297,-0.16113 -0.27832,-0.13672 -0.449218,-0.35645 -0.209961,-0.22949 -0.278321,-0.60058 -0.07813,-0.3711 -0.07813,-1.4209 z"
       style="font-size:10px;font-family:'DIN Alternate';text-anchor:middle;fill:#343434"
       id="path424" />
    <path
       d="m 27.773437,155 h 1.079102 v -3.04199 h 2.958984 v -0.95703 h -2.958984 v -2.09961 h 3.466797 v -1.02051 h -4.545899 z"
       style="font-size:10px;font-family:'DIN Alternate';text-anchor:middle;fill:#343434"
       id="path426" />
    <path
       d="m 33.144531,155 h 1.079102 v -3.04199 h 2.958984 v -0.95703 h -2.958984 v -2.09961 h 3.466797 v -1.02051 h -4.545899 z"
       style="font-size:10px;font-family:'DIN Alternate';text-anchor:middle;fill:#343434"
       id="path428" />
    <path
       d="m 38.603516,153.27148 -0.708008,0.81055 q 1.137695,0.97656 2.719726,0.97656 2.446289,-0.0293 2.5,-2.07031 0,-0.75683 -0.473632,-1.32812 -0.478516,-0.58106 -1.479493,-0.71778 -0.507812,-0.0635 -0.800781,-0.1123 -0.527344,-0.0977 -0.766601,-0.35156 -0.239258,-0.24903 -0.239258,-0.55665 0.0098,-0.51269 0.356445,-0.77148 0.332031,-0.24902 0.830078,-0.24902 0.961914,0.0195 1.762695,0.54687 v 0 l 0.600586,-0.88867 q -0.981445,-0.70801 -2.30957,-0.7373 -1.103516,0.01 -1.704101,0.57617 -0.620118,0.57129 -0.620118,1.5039 0,0.77637 0.493164,1.31836 0.478516,0.52735 1.396485,0.67871 0.512695,0.0733 0.942383,0.13184 0.9375,0.16113 0.927734,0.95703 -0.01953,0.97168 -1.40625,0.99121 -1.171875,-0.01 -2.021484,-0.70801 z"
       style="font-size:10px;font-family:'DIN Alternate';text-anchor:middle;fill:#343434"
       id="path430" />
    <path
       d="m 44.257812,155 h 4.545899 v -1.02051 h -3.466797 v -2.08984 h 2.958984 v -0.95703 h -2.958984 v -2.03125 h 3.466797 v -1.02051 h -4.545899 z"
       style="font-size:10px;font-family:'DIN Alternate';text-anchor:middle;fill:#343434"
       id="path432" />
    <path
       d="m 51.030273,155 h 1.083985 v -6.15723 H 54.0625 v -0.96191 h -4.980469 v 0.96191 h 1.948242 z"
       style="font-size:10px;font-family:'DIN Alternate';text-anchor:middle;fill:#343434"
       id="path434" />
  </g>
  <g
     id="use169"
     transform="translate(15,160.5)">
    <g
       transform="translate(22.5,22.5)"
       id="g311">
      <path
         id="circle307"
         style="fill:url(#linearGradient315)"
         d="M 22,0 A 22,22 0 0 1 0,22 22,22 0 0 1 -22,0 22,22 0 0 1 0,-22 22,22 0 0 1 22,0 Z" />
      <path
         id="circle309"
         style="fill:url(#linearGradient317)"
         d="M 20,0 A 20,20 0 0 1 0,20 20,20 0 0 1 -20,0 20,20 0 0 1 0,-20 20,20 0 0 1 20,0 Z" />
    </g>
  </g>
  <!-- ======== row 1 ======== -->
  <path
     id="polyline173"
     transform="translate(19.5,250)"
     style="fill:none;stroke:#343434;stroke-width:1"
     d="M 0,0 V 42"
     class="connect" />
  <g
     transform="translate(19.5,265)"
     id="g181">
    <path
       id="polyline175"
       style="fill:none;stroke:#343434;stroke-width:1.2"
       d="m -7,0 h 4"
       class="icon" />
    <path
       id="polyline177"
       style="fill:none;stroke:#343434;stroke-width:1.2"
       d="M 7,0 H 3"
       class="icon" />
    <path
       id="polyline179"
       style="fill:none;stroke:#343434;stroke-width:1.2"
       d="M 5,-2 V 2"
       class="icon" />
  </g>
  <g
     id="use185"
     transform="translate(10.5,241)">
    <g
       transform="translate(9,9)"
       id="g325">
      <path
         id="circle319"
         style="fill:none;stroke:#222222"
         d="M 8.5,0 A 8.5,8.5 0 0 1 0,8.5 8.5,8.5 0 0 1 -8.5,0 8.5,8.5 0 0 1 0,-8.5 8.5,8.5 0 0 1 8.5,0 Z" />
      <path
         id="circle321"
         style="fill:url(#linearGradient329)"
         d="M 8,0 A 8,8 0 0 1 0,8 8,8 0 0 1 -8,0 8,8 0 0 1 0,-8 8,8 0 0 1 8,0 Z" />
      <path
         id="circle323"
         style="fill:url(#linearGradient331)"
         d="M 7,0 A 7,7 0 0 1 0,7 7,7 0 0 1 -7,0 7,7 0 0 1 0,-7 7,7 0 0 1 7,0 Z" />
    </g>
  </g>
  <path
     id="polyline189"
     transform="translate(55.5,250)"
     style="fill:none;stroke:#343434;stroke-width:1"
     d="M 0,0 V 42"
     class="connect" />
  <g
     transform="translate(55.5,265)"
     id="g197">
    <path
       id="polyline191"
       style="fill:none;stroke:#343434;stroke-width:1.2"
       d="m -7,0 h 4"
       class="icon" />
    <path
       id="polyline193"
       style="fill:none;stroke:#343434;stroke-width:1.2"
       d="M 7,0 H 3"
       class="icon" />
    <path
       id="polyline195"
       style="fill:none;stroke:#343434;stroke-width:1.2"
       d="M 5,-2 V 2"
       class="icon" />
  </g>
  <g
     id="use201"
     transform="translate(46.5,241)">
    <g
       transform="translate(9,9)"
       id="g339">
      <path
         id="circle333"
         style="fill:none;stroke:#222222"
         d="M 8.5,0 A 8.5,8.5 0 0 1 0,8.5 8.5,8.5 0 0 1 -8.5,0 8.5,8.5 0 0 1 0,-8.5 8.5,8.5 0 0 1 8.5,0 Z" />
      <path
         id="circle335"
         style="fill:url(#linearGradient343)"
         d="M 8,0 A 8,8 0 0 1 0,8 8,8 0 0 1 -8,0 8,8 0 0 1 0,-8 8,8 0 0 1 8,0 Z" />
      <path
         id="circle337"
         style="fill:url(#linearGradient345)"
         d="M 7,0 A 7,7 0 0 1 0,7 7,7 0 0 1 -7,0 7,7 0 0 1 0,-7 7,7 0 0 1 7,0 Z" />
    </g>
  </g>
  <!-- ======== row 2 ======== -->
  <g
     id="use205"
     transform="translate(7.5,280)">
    <g
       transform="translate(12,12)"
       id="g287" />
  </g>
  <g
     aria-label="RAT"
     id="text207"
     style="font-size:8px;font-family:'DIN Alternate';text-anchor:middle;fill:#343434"
     class="label">
    <path
       d="m 14.386719,309.07422 h 1.351562 q 0.414063,0 0.632813,0.17578 0.277343,0.19922 0.285156,0.64453 0,0.37109 -0.238281,0.625 -0.242188,0.27344 -0.726563,0.28125 H 14.386719 Z M 13.523438,314 h 0.863281 v -2.43359 h 1.101562 L 16.664062,314 h 1.027344 l -1.320312,-2.52734 q 1.085937,-0.41797 1.101562,-1.57813 -0.02344,-0.78906 -0.566406,-1.21484 -0.449219,-0.375 -1.160156,-0.375 h -2.222656 z"
       style="font-size:8px;font-family:'DIN Alternate';text-anchor:middle;fill:#343434"
       id="path464" />
    <path
       d="m 19.40625,311.96094 0.824219,-2.48828 h 0.01563 l 0.824218,2.48828 z M 21.757812,314 h 0.910157 l -2.070313,-5.69531 H 19.875 L 17.804687,314 h 0.914063 l 0.4375,-1.27344 h 2.160156 z"
       style="font-size:8px;font-family:'DIN Alternate';text-anchor:middle;fill:#343434"
       id="path466" />
    <path
       d="m 23.644531,314 h 0.867188 v -4.92578 h 1.558593 v -0.76953 h -3.984375 v 0.76953 h 1.558594 z"
       style="font-size:8px;font-family:'DIN Alternate';text-anchor:middle;fill:#343434"
       id="path468" />
  </g>
  <g
     id="use211"
     transform="translate(43.5,280)">
    <g
       transform="translate(12,12)"
       id="g347" />
  </g>
  <g
     aria-label="OFS"
     id="text213"
     style="font-size:8px;font-family:'DIN Alternate';text-anchor:middle;fill:#343434"
     class="label">
    <path
       d="m 49.023437,311.15234 q 0,0.97657 0.05859,1.32032 0.03125,0.18359 0.07813,0.30468 0.05078,0.11719 0.113281,0.2461 0.207032,0.39453 0.664063,0.69531 0.449219,0.3125 1.121094,0.32812 0.679687,-0.0156 1.132812,-0.32812 0.449219,-0.30078 0.648438,-0.69531 0.144531,-0.20703 0.199218,-0.55078 0.05078,-0.34375 0.05078,-1.32032 0,-0.99218 -0.05078,-1.32812 -0.05469,-0.33594 -0.199218,-0.54297 -0.199219,-0.39453 -0.648438,-0.70313 -0.453125,-0.3125 -1.132812,-0.32031 -0.671875,0.008 -1.121094,0.32031 -0.457031,0.3086 -0.664063,0.70313 -0.128906,0.20703 -0.191406,0.54297 -0.05859,0.33594 -0.05859,1.32812 z m 0.867188,0 q 0,-0.83984 0.0625,-1.14453 0.05469,-0.28906 0.222656,-0.47265 0.136719,-0.17579 0.359375,-0.29297 0.21875,-0.11328 0.523438,-0.1211 0.308593,0.008 0.535156,0.1211 0.214844,0.11718 0.34375,0.29297 0.167969,0.18359 0.230469,0.47265 0.05859,0.30469 0.05859,1.14453 0,0.83985 -0.05859,1.13672 -0.0625,0.29688 -0.230469,0.48047 -0.128906,0.17578 -0.34375,0.28516 -0.226563,0.1289 -0.535156,0.1289 -0.304688,0 -0.523438,-0.1289 -0.222656,-0.10938 -0.359375,-0.28516 -0.167969,-0.18359 -0.222656,-0.48047 -0.0625,-0.29687 -0.0625,-1.13672 z"
       style="font-size:8px;font-family:'DIN Alternate';text-anchor:middle;fill:#343434"
       id="path405" />
    <path
       d="m 54.09375,314 h 0.863281 v -2.43359 h 2.367188 v -0.76563 h -2.367188 v -1.67969 h 2.773438 v -0.8164 H 54.09375 Z"
       style="font-size:8px;font-family:'DIN Alternate';text-anchor:middle;fill:#343434"
       id="path407" />
    <path
       d="m 58.460937,312.61719 -0.566406,0.64843 q 0.910156,0.78125 2.175781,0.78125 1.957032,-0.0234 2,-1.65625 0,-0.60546 -0.378906,-1.0625 -0.382812,-0.46484 -1.183594,-0.57421 -0.40625,-0.0508 -0.640625,-0.0899 -0.421875,-0.0781 -0.613281,-0.28125 -0.191406,-0.19922 -0.191406,-0.44531 0.0078,-0.41016 0.285156,-0.61719 0.265625,-0.19922 0.664063,-0.19922 0.769531,0.0156 1.410156,0.4375 v 0 l 0.480469,-0.71093 q -0.785157,-0.56641 -1.847657,-0.58985 -0.882812,0.008 -1.363281,0.46094 -0.496094,0.45703 -0.496094,1.20312 0,0.6211 0.394532,1.05469 0.382812,0.42188 1.117187,0.54297 0.410156,0.0586 0.753906,0.10547 0.75,0.12891 0.742188,0.76562 -0.01563,0.77735 -1.125,0.79297 -0.9375,-0.008 -1.617188,-0.5664 z"
       style="font-size:8px;font-family:'DIN Alternate';text-anchor:middle;fill:#343434"
       id="path409" />
  </g>
  <!-- ======== row 3 ======== -->
  <g
     id="use217"
     transform="translate(7.5,322)">
    <g
       transform="translate(12,12)"
       id="g291" />
  </g>
  <g
     aria-label="CAR"
     id="text219"
     style="font-size:8px;font-family:'DIN Alternate';text-anchor:middle;fill:#343434"
     class="label">
    <path
       d="m 15.925781,354.40625 q -0.359375,0.77734 -1.085937,0.77734 -0.304688,0 -0.523438,-0.1289 -0.222656,-0.10938 -0.359375,-0.28516 -0.167968,-0.18359 -0.222656,-0.48047 -0.0625,-0.29687 -0.0625,-1.13672 0,-0.83984 0.0625,-1.14453 0.05469,-0.28906 0.222656,-0.47265 0.136719,-0.17579 0.359375,-0.29297 0.21875,-0.11328 0.523438,-0.1211 0.414062,0.008 0.703125,0.23828 0.277344,0.24219 0.382812,0.58594 h 0.914063 q -0.136719,-0.71484 -0.65625,-1.19922 -0.519531,-0.48047 -1.34375,-0.48828 -0.671875,0.008 -1.121094,0.32031 -0.457031,0.3086 -0.664062,0.70313 -0.128907,0.20703 -0.191407,0.54297 -0.05859,0.33594 -0.05859,1.32812 0,0.97657 0.05859,1.32032 0.03125,0.18359 0.07813,0.30468 0.05078,0.11719 0.113282,0.2461 0.207031,0.39453 0.664062,0.69531 0.449219,0.3125 1.121094,0.32812 0.742187,0 1.285156,-0.42187 0.527344,-0.42578 0.714844,-1.21875 z"
       style="font-size:8px;font-family:'DIN Alternate';text-anchor:middle;fill:#343434"
       id="path457" />
    <path
       d="m 18.460937,353.96094 0.824219,-2.48828 h 0.01563 L 20.125,353.96094 Z M 20.8125,356 h 0.910156 l -2.070312,-5.69531 H 18.929687 L 16.859375,356 h 0.914062 l 0.4375,-1.27344 h 2.160157 z"
       style="font-size:8px;font-family:'DIN Alternate';text-anchor:middle;fill:#343434"
       id="path459" />
    <path
       d="m 23.191406,351.07422 h 1.351563 q 0.414062,0 0.632812,0.17578 0.277344,0.19922 0.285156,0.64453 0,0.37109 -0.238281,0.625 -0.242187,0.27344 -0.726562,0.28125 H 23.191406 Z M 22.328125,356 h 0.863281 v -2.43359 h 1.101563 L 25.46875,356 h 1.027344 l -1.320313,-2.52734 q 1.085938,-0.41797 1.101563,-1.57813 -0.02344,-0.78906 -0.566407,-1.21484 -0.449218,-0.375 -1.160156,-0.375 h -2.222656 z"
       style="font-size:8px;font-family:'DIN Alternate';text-anchor:middle;fill:#343434"
       id="path461" />
  </g>
  <path
     id="rect223"
     style="fill:#558955"
     d="m 43.5,318 h 24 c 1.662,0 3,1.338 3,3 v 36 c 0,1.662 -1.338,3 -3,3 h -24 c -1.662,0 -3,-1.338 -3,-3 v -36 c 0,-1.662 1.338,-3 3,-3 z"
     class="poly-output" />
  <g
     id="use225"
     transform="translate(43.5,322)">
    <g
       transform="translate(12,12)"
       id="g351" />
  </g>
  <g
     aria-label="MOD"
     id="text227"
     style="font-size:8px;font-family:'DIN Alternate';text-anchor:middle;fill:#dfdfdf"
     class="output-label">
    <path
       d="m 48.109375,356 h 0.863281 v -3.55078 h 0.01563 l 1.191406,2.73437 h 0.71875 l 1.191407,-2.73437 h 0.01953 V 356 h 0.863281 v -5.69531 H 52.15625 l -1.601563,3.71093 v 0 l -1.632812,-3.71093 h -0.8125 z"
       style="font-size:8px;font-family:'DIN Alternate';text-anchor:middle;fill:#dfdfdf"
       id="path397" />
    <path
       d="m 53.976562,353.15234 q 0,0.97657 0.05859,1.32032 0.03125,0.18359 0.07813,0.30468 0.05078,0.11719 0.113281,0.2461 0.207032,0.39453 0.664063,0.69531 0.449219,0.3125 1.121094,0.32812 0.679687,-0.0156 1.132812,-0.32812 0.449219,-0.30078 0.648438,-0.69531 0.144531,-0.20703 0.199218,-0.55078 0.05078,-0.34375 0.05078,-1.32032 0,-0.99218 -0.05078,-1.32812 -0.05469,-0.33594 -0.199218,-0.54297 -0.199219,-0.39453 -0.648438,-0.70313 -0.453125,-0.3125 -1.132812,-0.32031 -0.671875,0.008 -1.121094,0.32031 -0.457031,0.3086 -0.664063,0.70313 -0.128906,0.20703 -0.191406,0.54297 -0.05859,0.33594 -0.05859,1.32812 z m 0.867188,0 q 0,-0.83984 0.0625,-1.14453 0.05469,-0.28906 0.222656,-0.47265 0.136719,-0.17579 0.359375,-0.29297 0.21875,-0.11328 0.523438,-0.1211 0.308593,0.008 0.535156,0.1211 0.214844,0.11718 0.34375,0.29297 0.167969,0.18359 0.230469,0.47265 0.05859,0.30469 0.05859,1.14453 0,0.83985 -0.05859,1.13672 -0.0625,0.29688 -0.230469,0.48047 -0.128906,0.17578 -0.34375,0.28516 -0.226563,0.1289 -0.535156,0.1289 -0.304688,0 -0.523438,-0.1289 -0.222656,-0.10938 -0.359375,-0.28516 -0.167969,-0.18359 -0.222656,-0.48047 -0.0625,-0.29687 -0.0625,-1.13672 z"
       style="font-size:8px;font-family:'DIN Alternate';text-anchor:middle;fill:#dfdfdf"
       id="path399" />
    <path
       d="m 59.046875,356 h 1.933594 q 0.640625,0 1.082031,-0.28125 0.445312,-0.26172 0.695312,-0.66406 0.09375,-0.15235 0.160157,-0.29297 0.0625,-0.14453 0.09375,-0.32813 0.06641,-0.36328 0.06641,-1.28125 0,-0.86328 -0.04297,-1.21484 -0.05469,-0.35156 -0.261719,-0.67188 -0.578125,-0.95312 -1.734375,-0.96093 h -1.992187 z m 0.863281,-4.87891 h 1.03125 q 0.65625,-0.0156 1.015625,0.48047 0.175781,0.19922 0.222656,0.51953 0.03516,0.32032 0.03516,1.0625 0,0.76172 -0.03516,1.03907 -0.03906,0.28125 -0.183593,0.46484 -0.328125,0.49609 -1.054688,0.49609 h -1.03125 z"
       style="font-size:8px;font-family:'DIN Alternate';text-anchor:middle;fill:#dfdfdf"
       id="path401" />
  </g>
</svg>
