<?xml version="1.0" encoding="UTF-8" standalone="no"?>
<svg
   xmlns:dc="http://purl.org/dc/elements/1.1/"
   xmlns:cc="http://creativecommons.org/ns#"
   xmlns:rdf="http://www.w3.org/1999/02/22-rdf-syntax-ns#"
   xmlns:svg="http://www.w3.org/2000/svg"
   xmlns="http://www.w3.org/2000/svg"
   xmlns:xlink="http://www.w3.org/1999/xlink"
   xmlns:sodipodi="http://sodipodi.sourceforge.net/DTD/sodipodi-0.dtd"
   xmlns:inkscape="http://www.inkscape.org/namespaces/inkscape"
   version="1.1"
   width="135"
   height="380"
   viewBox="0 0 135 380"
   id="svg245"
   sodipodi:docname="FOO.svg"
   inkscape:version="1.0.2 (e86c8708, 2021-01-15)">
  <metadata
     id="metadata249">
    <rdf:RDF>
      <cc:Work
         rdf:about="">
        <dc:format>image/svg+xml</dc:format>
        <dc:type
           rdf:resource="http://purl.org/dc/dcmitype/StillImage" />
      </cc:Work>
    </rdf:RDF>
  </metadata>
  <sodipodi:namedview
     pagecolor="#ffffff"
     bordercolor="#666666"
     borderopacity="1"
     objecttolerance="10"
     gridtolerance="10"
     guidetolerance="10"
     inkscape:pageopacity="0"
     inkscape:pageshadow="2"
     inkscape:window-width="689"
     inkscape:window-height="480"
     id="namedview247"
     showgrid="false"
     inkscape:zoom="2.1763158"
     inkscape:cx="67.5"
     inkscape:cy="190"
     inkscape:window-x="0"
     inkscape:window-y="25"
     inkscape:window-maximized="0"
     inkscape:current-layer="svg245" />
  <style
     id="style2">
    text.title {
      fill: #a91913;
      font-family: 'DIN Alternate';
      font-size: 11pt;
    }
    text.logo {
      fill: #a91913;
      font-family: 'DIN Alternate';
      font-size: 10pt;
    }
    text.big-label {
      fill: #343434;
      font-family: 'DIN Alternate';
      font-size: 7.5pt;
    }
    text.label {
      fill: #343434;
      font-family: 'DIN Alternate';
      font-size: 6pt;
    }
    .background {
      fill: #dfdfdf;
    }
    .output {
      fill: #bbbbbb;
    }
    polyline.icon {
      stroke: #343434;
      stroke-width: 1.2;
      fill: none;
    }
    polyline.connect {
      stroke: #343434;
      stroke-width: 1;
      fill: none;
    }

    text.lcd-label {
      fill: #777777;
      font-family: 'Monaco';
      font-size: 5pt;
    }
    polyline.lcd-tick {
      stroke: #707070;
      stroke-width: 1;
      fill: none;
    }

    .blueprint {
      stroke: #838598;
      fill: none;
    }
  </style>
  <!-- ======== defs ======== -->
  <defs
     id="defs85">
    <linearGradient
       id="smallKnobLight"
       x1="0%"
       y1="0%"
       x2="0%"
       y2="100%">
      <stop
         offset="0%"
         stop-color="#6f6f6f"
         id="stop4" />
      <stop
         offset="100%"
         stop-color="#3c3836"
         id="stop6" />
    </linearGradient>
    <linearGradient
       id="smallKnobDark"
       x1="0%"
       y1="0%"
       x2="0%"
       y2="100%">
      <stop
         offset="0%"
         stop-color="#494949"
         id="stop9" />
      <stop
         offset="100%"
         stop-color="#282828"
         id="stop11" />
    </linearGradient>
    <symbol
       id="knob18">
      <g
         transform="translate(9 9)"
         id="g20">
        <circle
           r="8.5"
           stroke="#222"
           fill="none"
           id="circle14" />
        <circle
           r="8"
           fill="url('#smallKnobLight')"
           id="circle16" />
        <circle
           r="7"
           fill="url('#smallKnobDark')"
           id="circle18" />
      </g>
    </symbol>
    <symbol
       id="knob24">
      <g
         transform="translate(12 12)"
         id="g29">
        <circle
           r="11.5"
           stroke="#121212"
           fill="none"
           id="circle23" />
        <circle
           r="11"
           fill="url('#smallKnobLight')"
           id="circle25" />
        <circle
           r="10"
           fill="url('#smallKnobDark')"
           id="circle27" />
      </g>
    </symbol>
    <symbol
       id="toggleButton">
      <g
         transform="translate(9 9)"
         id="g32" />
    </symbol>
    <symbol
       id="port">
      <g
         transform="translate(12 12)"
         id="g35" />
    </symbol>
    <symbol
       id="meter-strip">
      <g
         transform="translate(20 4)"
         id="g82">
        <rect
           x="-9"
           y="-1"
           width="8"
           height="106"
           fill="#1a1a1a"
           id="rect38" />
        <rect
           x="1"
           y="-1"
           width="8"
           height="106"
           fill="#1a1a1a"
           id="rect40" />
        <g
           transform="translate(-13 2.5)"
           id="g60">
          <text
             x="0"
             y="0"
             class="lcd-label"
             text-anchor="end"
             id="text42">0</text>
          <text
             x="0"
             y="13"
             class="lcd-label"
             text-anchor="end"
             id="text44">3</text>
          <text
             x="0"
             y="26"
             class="lcd-label"
             text-anchor="end"
             id="text46">6</text>
          <text
             x="0"
             y="39"
             class="lcd-label"
             text-anchor="end"
             id="text48">9</text>
          <text
             x="0"
             y="52"
             class="lcd-label"
             text-anchor="end"
             id="text50">12</text>
          <text
             x="0"
             y="65"
             class="lcd-label"
             text-anchor="end"
             id="text52">18</text>
          <text
             x="0"
             y="78"
             class="lcd-label"
             text-anchor="end"
             id="text54">24</text>
          <text
             x="0"
             y="91"
             class="lcd-label"
             text-anchor="end"
             id="text56">36</text>
          <text
             x="0"
             y="104"
             class="lcd-label"
             text-anchor="end"
             id="text58">48</text>
        </g>
        <g
           transform="translate(-12 0)"
           id="g80">
          <polyline
             points="0   0 2   0"
             class="lcd-tick"
             id="polyline62" />
          <polyline
             points="0  13 2  13"
             class="lcd-tick"
             id="polyline64" />
          <polyline
             points="0  26 2  26"
             class="lcd-tick"
             id="polyline66" />
          <polyline
             points="0  39 2  39"
             class="lcd-tick"
             id="polyline68" />
          <polyline
             points="0  52 2  52"
             class="lcd-tick"
             id="polyline70" />
          <polyline
             points="0  65 2  65"
             class="lcd-tick"
             id="polyline72" />
          <polyline
             points="0  78 2  78"
             class="lcd-tick"
             id="polyline74" />
          <polyline
             points="0  91 2  91"
             class="lcd-tick"
             id="polyline76" />
          <polyline
             points="0 104 2 104"
             class="lcd-tick"
             id="polyline78" />
        </g>
      </g>
    </symbol>
    <linearGradient
       inkscape:collect="always"
       xlink:href="#smallKnobLight"
       id="linearGradient356"
       x1="-11"
       y1="-11"
       x2="-11"
       y2="11"
       gradientUnits="userSpaceOnUse" />
    <linearGradient
       inkscape:collect="always"
       xlink:href="#smallKnobDark"
       id="linearGradient358"
       x1="-10"
       y1="-10"
       x2="-10"
       y2="10"
       gradientUnits="userSpaceOnUse" />
    <linearGradient
       inkscape:collect="always"
       xlink:href="#smallKnobLight"
       id="linearGradient378"
       x1="-11"
       y1="-11"
       x2="-11"
       y2="11"
       gradientUnits="userSpaceOnUse" />
    <linearGradient
       inkscape:collect="always"
       xlink:href="#smallKnobDark"
       id="linearGradient380"
       x1="-10"
       y1="-10"
       x2="-10"
       y2="10"
       gradientUnits="userSpaceOnUse" />
    <linearGradient
       inkscape:collect="always"
       xlink:href="#smallKnobLight"
       id="linearGradient452"
       x1="-11"
       y1="-11"
       x2="-11"
       y2="11"
       gradientUnits="userSpaceOnUse" />
    <linearGradient
       inkscape:collect="always"
       xlink:href="#smallKnobDark"
       id="linearGradient454"
       x1="-10"
       y1="-10"
       x2="-10"
       y2="10"
       gradientUnits="userSpaceOnUse" />
    <linearGradient
       inkscape:collect="always"
       xlink:href="#smallKnobLight"
       id="linearGradient474"
       x1="-11"
       y1="-11"
       x2="-11"
       y2="11"
       gradientUnits="userSpaceOnUse" />
    <linearGradient
       inkscape:collect="always"
       xlink:href="#smallKnobDark"
       id="linearGradient476"
       x1="-10"
       y1="-10"
       x2="-10"
       y2="10"
       gradientUnits="userSpaceOnUse" />
    <linearGradient
       inkscape:collect="always"
       xlink:href="#smallKnobLight"
       id="linearGradient548"
       x1="-11"
       y1="-11"
       x2="-11"
       y2="11"
       gradientUnits="userSpaceOnUse" />
    <linearGradient
       inkscape:collect="always"
       xlink:href="#smallKnobDark"
       id="linearGradient550"
       x1="-10"
       y1="-10"
       x2="-10"
       y2="10"
       gradientUnits="userSpaceOnUse" />
  </defs>
  <!-- ======== body ======== -->
  <path
     id="rect87"
     style="fill:#dfdfdf"
     d="M 0,0 H 135 V 380 H 0 Z"
     class="background" />
  <g
     aria-label="MIX-2"
     id="text89"
     style="font-size:14.6667px;font-family:'DIN Alternate';text-anchor:middle;fill:#a91913"
     class="title">
    <path
       d="m 50.713541,16 h 1.582683 V 9.4902342 h 0.02864 l 2.184245,5.0130208 h 1.317709 l 2.184245,-5.0130208 h 0.03581 V 16 h 1.582682 V 5.5585935 h -1.496745 l -2.936198,6.8033855 v 0 L 52.203125,5.5585935 h -1.489584 z"
       style="font-size:14.6667px;font-family:'DIN Alternate';text-anchor:middle;fill:#a91913"
       id="path755" />
    <path
       d="m 61.828125,16 h 1.582683 V 5.5585935 h -1.582683 z"
       style="font-size:14.6667px;font-family:'DIN Alternate';text-anchor:middle;fill:#a91913"
       id="path757" />
    <path
       d="M 68.438151,12.111328 70.722657,16 h 1.790364 l -3.19401,-5.349609 2.986328,-5.0917975 h -1.783203 l -2.083985,3.623698 v 0 L 66.354167,5.5585935 H 64.563802 L 67.557292,10.650391 64.363281,16 h 1.783204 l 2.291666,-3.888672 z"
       style="font-size:14.6667px;font-family:'DIN Alternate';text-anchor:middle;fill:#a91913"
       id="path759" />
    <path
       d="m 73.164713,12.684245 h 4.411459 V 11.1875 h -4.411459 z"
       style="font-size:14.6667px;font-family:'DIN Alternate';text-anchor:middle;fill:#a91913"
       id="path761" />
    <path
       d="m 78.815104,16 h 5.951172 v -1.496745 h -3.988932 l 3.358724,-4.210937 Q 84.766276,9.4902342 84.766276,8.4589842 84.751954,7.1699217 83.89974,6.332031 83.061849,5.4869789 81.715495,5.472656 80.51237,5.4869789 79.688802,6.3177081 78.872396,7.1699217 78.815104,8.4733071 h 1.489584 q 0.07878,-0.7161458 0.501302,-1.110026 0.408203,-0.3938803 1.024088,-0.3938803 0.694662,0.014323 1.074219,0.4511719 0.365235,0.436849 0.365235,1.0240886 0,0.2220052 -0.05729,0.4726563 -0.08594,0.2649739 -0.322266,0.5729166 l -4.07487,5.0989588 z"
       style="font-size:14.6667px;font-family:'DIN Alternate';text-anchor:middle;fill:#a91913"
       id="path763" />
  </g>
  <g
     aria-label="RM"
     id="text91"
     style="font-size:13.3333px;font-family:'DIN Alternate';text-anchor:middle;fill:#a91913"
     class="logo">
    <path
       d="m 60.826823,367.79036 h 2.252604 q 0.690104,0 1.054688,0.29297 0.462239,0.33203 0.47526,1.07422 0,0.61849 -0.397135,1.04167 -0.403646,0.45573 -1.210938,0.46875 H 60.826823 Z M 59.388021,376 h 1.438802 v -4.05599 h 1.835938 L 64.622396,376 h 1.712239 l -2.20052,-4.21224 q 1.809895,-0.69661 1.835937,-2.63021 -0.03906,-1.3151 -0.94401,-2.02474 -0.748698,-0.625 -1.933594,-0.625 h -3.704427 z"
       style="font-size:13.3333px;font-family:'DIN Alternate';text-anchor:middle;fill:#a91913"
       id="path750" />
    <path
       d="m 67.513021,376 h 1.438802 v -5.91797 h 0.02604 l 1.985677,4.55729 h 1.197916 l 1.985677,-4.55729 h 0.03255 V 376 h 1.438802 v -9.49219 h -1.360677 l -2.669271,6.1849 v 0 l -2.721354,-6.1849 h -1.354167 z"
       style="font-size:13.3333px;font-family:'DIN Alternate';text-anchor:middle;fill:#a91913"
       id="path752" />
  </g>
  <path
     id="rect93"
     style="fill:#121212"
     d="M 0,36 H 135 V 156 H 0 Z" />
  <!-- labels -->
  <g
     transform="translate(10,174)"
     id="g97">
    <g
       aria-label="V"
       id="text95"
       style="font-size:8px;font-family:'DIN Alternate';text-anchor:middle;fill:#343434"
       class="label">
      <path
         d="m -0.33984375,3 h 0.671875 L 2.2148438,-2.6953125 H 1.3007812 L 0.00390625,1.640625 h -0.015625 L -1.3046875,-2.6953125 H -2.21875 Z"
         style="font-size:8px;font-family:'DIN Alternate';text-anchor:middle;fill:#343434"
         id="path798" />
    </g>
  </g>
  <g
     transform="translate(10,203)"
     id="g101">
    <g
       aria-label="V"
       id="text99"
       style="font-size:8px;font-family:'DIN Alternate';text-anchor:middle;fill:#343434"
       class="label">
      <path
         d="m -0.33984375,3 h 0.671875 L 2.2148438,-2.6953125 H 1.3007812 L 0.00390625,1.640625 h -0.015625 L -1.3046875,-2.6953125 H -2.21875 Z"
         style="font-size:8px;font-family:'DIN Alternate';text-anchor:middle;fill:#343434"
         id="path795" />
    </g>
  </g>
  <g
     transform="translate(10,232)"
     id="g105">
    <g
       aria-label="M"
       id="text103"
       style="font-size:8px;font-family:'DIN Alternate';text-anchor:middle;fill:#343434"
       class="label">
      <path
         d="m -2.4296875,3 h 0.8632813 v -3.55078125 h 0.015625 L -0.359375,2.1835938 h 0.71875 l 1.1914062,-2.73437505 h 0.019531 V 3 H 2.4335938 V -2.6953125 H 1.6171875 L 0.015625,1.015625 v 0 l -1.6328125,-3.7109375 h -0.8125 z"
         style="font-size:8px;font-family:'DIN Alternate';text-anchor:middle;fill:#343434"
         id="path792" />
    </g>
  </g>
  <g
     transform="translate(10,261)"
     id="g109">
    <g
       aria-label="P"
       id="text107"
       style="font-size:8px;font-family:'DIN Alternate';text-anchor:middle;fill:#343434"
       class="label">
      <path
         d="M -0.91015625,-1.8789062 H 0.3359375 Q 0.6875,-1.8867187 0.953125,-1.71875 q 0.1757812,0.1015625 0.2734375,0.2773438 0.09375,0.1953125 0.09375,0.4804687 0,0.34375 -0.2304688,0.625 -0.24218745,0.2890625 -0.7226562,0.296875 H -0.91015625 Z M -1.7734375,3 h 0.86328125 V 0.77734375 h 1.3125 Q 1.28125,0.76171875 1.7382812,0.21484375 2.1835938,-0.3046875 2.1835938,-0.9375 q 0,-0.46875 -0.1757813,-0.8125 -0.1679688,-0.3554688 -0.4375,-0.546875 Q 1.25,-2.5507813 0.9375,-2.6328125 q -0.3125,-0.0625 -0.6484375,-0.0625 h -2.0625 z"
         style="font-size:8px;font-family:'DIN Alternate';text-anchor:middle;fill:#343434"
         id="path789" />
    </g>
  </g>
  <g
     transform="translate(10,290)"
     id="g113">
    <g
       aria-label="P"
       id="text111"
       style="font-size:8px;font-family:'DIN Alternate';text-anchor:middle;fill:#343434"
       class="label">
      <path
         d="M -0.91015625,-1.8789062 H 0.3359375 Q 0.6875,-1.8867187 0.953125,-1.71875 q 0.1757812,0.1015625 0.2734375,0.2773438 0.09375,0.1953125 0.09375,0.4804687 0,0.34375 -0.2304688,0.625 -0.24218745,0.2890625 -0.7226562,0.296875 H -0.91015625 Z M -1.7734375,3 h 0.86328125 V 0.77734375 h 1.3125 Q 1.28125,0.76171875 1.7382812,0.21484375 2.1835938,-0.3046875 2.1835938,-0.9375 q 0,-0.46875 -0.1757813,-0.8125 -0.1679688,-0.3554688 -0.4375,-0.546875 Q 1.25,-2.5507813 0.9375,-2.6328125 q -0.3125,-0.0625 -0.6484375,-0.0625 h -2.0625 z"
         style="font-size:8px;font-family:'DIN Alternate';text-anchor:middle;fill:#343434"
         id="path786" />
    </g>
  </g>
  <g
     transform="translate(10,319)"
     id="g117">
    <g
       aria-label="L"
       id="text115"
       style="font-size:8px;font-family:'DIN Alternate';text-anchor:middle;fill:#343434"
       class="label">
      <path
         d="M -1.625,3 H 2.0117188 V 2.1835938 H -0.76171875 V -2.6953125 H -1.625 Z"
         style="font-size:8px;font-family:'DIN Alternate';text-anchor:middle;fill:#343434"
         id="path783" />
    </g>
  </g>
  <g
     transform="translate(10,348)"
     id="g121">
    <g
       aria-label="R"
       id="text119"
       style="font-size:8px;font-family:'DIN Alternate';text-anchor:middle;fill:#343434"
       class="label">
      <path
         d="m -0.97265625,-1.9257812 h 1.3515625 q 0.4140625,0 0.63281245,0.1757812 0.2773438,0.1992188 0.2851563,0.6445313 0,0.3710937 -0.2382813,0.62499995 -0.24218745,0.2734375 -0.72656245,0.28125 h -1.3046875 z M -1.8359375,3 h 0.86328125 V 0.56640625 h 1.1015625 L 1.3046875,3 H 2.3320313 L 1.0117187,0.47265625 Q 2.0976563,0.0546875 2.1132813,-1.1054687 2.0898438,-1.8945312 1.546875,-2.3203125 q -0.4492188,-0.375 -1.16015625,-0.375 H -1.8359375 Z"
         style="font-size:8px;font-family:'DIN Alternate';text-anchor:middle;fill:#343434"
         id="path780" />
    </g>
  </g>
  <!-- 1 -->
  <g
     aria-label="1"
     id="text125"
     style="font-size:10px;font-family:'DIN Alternate';text-anchor:middle;fill:#343434"
     class="big-label">
    <path
       d="M 30.536133,25.959961 V 32 h 1.020508 v -7.119141 h -1.020508 l -1.010742,0.737305 v 1.083984 0 l 1.010742,-0.742187 z"
       style="font-size:10px;font-family:'DIN Alternate';text-anchor:middle;fill:#343434"
       id="path777" />
  </g>
  <g
     id="use129"
     transform="translate(11,40)">
    <g
       transform="translate(20,4)"
       id="g342">
      <path
         id="rect298"
         style="fill:#1a1a1a"
         d="m -9,-1 h 8 v 106 h -8 z" />
      <path
         id="rect300"
         style="fill:#1a1a1a"
         d="M 1,-1 H 9 V 105 H 1 Z" />
      <g
         transform="translate(-13,2.5)"
         id="g320">
        <g
           aria-label="0"
           id="text302"
           style="font-size:6.66667px;font-family:Monaco;text-anchor:end;fill:#777777"
           class="lcd-label">
          <path
             d="m -1.9986979,-5.2018228 q 0.8626302,0 1.31510417,0.7259114 0.45247394,0.7226563 0.45247394,1.9498698 0,1.2304687 -0.45247394,1.95638016 -0.45247397,0.72265623 -1.31510417,0.72265623 -0.8593749,0 -1.3151041,-0.72265623 -0.452474,-0.72591146 -0.452474,-1.95638016 0,-1.2272135 0.452474,-1.9498698 0.4557292,-0.7259114 1.3151041,-0.7259114 z m -0.9863281,3.7565103 1.7480469,-2.7376301 q -0.1660157,-0.3027344 -0.3613282,-0.406901 -0.1920572,-0.1074219 -0.4003906,-0.1074219 -0.5436197,0 -0.8268229,0.6054687 -0.2832031,0.6022135 -0.2832031,1.5299479 0,0.2115885 0.013021,0.4557292 0.013021,0.2441406 0.1106771,0.6608072 z m 1.9661458,-2.1354166 -1.735026,2.7539062 q 0.139974,0.23763021 0.3222656,0.35807291 0.1822917,0.1171875 0.4069011,0.1171875 0.6184895,0 0.8789062,-0.69010411 0.26041665,-0.6933594 0.26041665,-1.5364583 0,-0.5208334 -0.13346355,-1.0026042 z"
             style="font-size:6.66667px;font-family:Monaco;text-anchor:end;fill:#777777"
             id="path703" />
        </g>
        <g
           aria-label="3"
           id="text304"
           style="font-size:6.66667px;font-family:Monaco;text-anchor:end;fill:#777777"
           class="lcd-label">
          <path
             d="m -3.5253905,12.908854 v -0.638021 q 0.7454426,0.377605 1.2923176,0.377605 0.5013021,0 0.8268229,-0.302735 0.3287761,-0.305989 0.3287761,-0.784505 0,-0.481771 -0.3613281,-0.784505 -0.358073,-0.302735 -1.2207031,-0.302735 H -2.9947916 V 9.9694011 h 0.4654948 q 0.6347656,0 0.9179687,-0.2832031 0.2832031,-0.2864583 0.2832031,-0.6347656 0,-0.3157552 -0.2311198,-0.530599 -0.2311197,-0.2180989 -0.7096354,-0.2180989 -0.5371093,0 -1.1555989,0.3027344 V 8.029297 q 0.6184896,-0.2311198 1.1328125,-0.2311198 0.9212239,0 1.2695312,0.3645833 0.3515625,0.3613281 0.3515625,0.8268229 0,0.3450521 -0.18554687,0.6477865 -0.18554683,0.3027343 -0.68359373,0.5403641 0.4394531,0.130209 0.66406248,0.319011 0.22460937,0.188802 0.33854166,0.445963 0.1171875,0.257162 0.1171875,0.576172 0,0.709636 -0.52734374,1.171875 -0.5240885,0.46224 -1.3574218,0.46224 -0.2408855,0 -0.5273438,-0.03581 -0.2832031,-0.03581 -0.6933593,-0.208333 z"
             style="font-size:6.66667px;font-family:Monaco;text-anchor:end;fill:#777777"
             id="path706" />
        </g>
        <g
           aria-label="6"
           id="text306"
           style="font-size:6.66667px;font-family:Monaco;text-anchor:end;fill:#777777"
           class="lcd-label">
          <path
             d="m -3.0468749,23.630208 q 0.234375,-0.348307 0.579427,-0.566406 0.3483073,-0.221354 0.764974,-0.221354 0.3938802,0 0.74544267,0.192057 0.3548177,0.192058 0.54036457,0.53711 0.18554687,0.341797 0.18554687,0.797526 0,0.719401 -0.46223957,1.253255 -0.45898434,0.530599 -1.21093744,0.530599 -0.8854167,0 -1.3248698,-0.738932 -0.4361979,-0.742188 -0.4361979,-1.884766 0,-1.263021 0.5566406,-1.995443 0.5566406,-0.735677 1.5071614,-0.735677 0.5110677,0 0.99283856,0.14974 v 0.611979 q -0.54036456,-0.257162 -1.01888016,-0.257162 -0.6770833,0 -1.0481771,0.621745 Q -3.0468749,22.546224 -3.0468749,23.5 Z m 1.188151,2.01823 q 0.2441406,0 0.4915364,-0.14323 0.2473959,-0.146484 0.38736982,-0.445963 0.14322916,-0.302735 0.14322916,-0.657552 0,-0.46224 -0.24088538,-0.758464 -0.2376302,-0.296224 -0.6803386,-0.296224 -0.4589843,0 -0.7552083,0.345052 -0.2929687,0.341797 -0.2929687,0.833334 0,0.494791 0.2864583,0.810547 0.2897135,0.3125 0.6608073,0.3125 z"
             style="font-size:6.66667px;font-family:Monaco;text-anchor:end;fill:#777777"
             id="path709" />
        </g>
        <g
           aria-label="9"
           id="text308"
           style="font-size:6.66667px;font-family:Monaco;text-anchor:end;fill:#777777"
           class="lcd-label">
          <path
             d="m -0.95052081,36.317708 q -0.23437499,0.348308 -0.58268229,0.569662 -0.3450521,0.218099 -0.7617187,0.218099 -0.3938802,0 -0.7486979,-0.188802 -0.3515625,-0.192058 -0.5371094,-0.53711 -0.1855469,-0.345052 -0.1855469,-0.800781 0,-0.716146 0.4589844,-1.246745 0.4622396,-0.533854 1.2141927,-0.533854 0.8854166,0 1.32161454,0.742188 0.43945312,0.738932 0.43945312,1.88151 0,1.263021 -0.55664061,1.998698 -0.55664065,0.732422 -1.50716145,0.732422 -0.5110677,0 -0.9928385,-0.152995 v -0.608724 q 0.5403646,0.253906 1.0188802,0.253906 0.6770833,0 1.048177,-0.621744 0.37109379,-0.621745 0.37109379,-1.575521 z M -2.1386718,34.302734 q -0.2441406,0 -0.4915365,0.146485 -0.2473958,0.143229 -0.390625,0.442708 -0.1399739,0.299479 -0.1399739,0.657552 0,0.458985 0.2376302,0.755209 0.2408854,0.296224 0.6835937,0.296224 0.4589844,0 0.7519531,-0.341797 0.296224,-0.345052 0.296224,-0.833334 0,-0.494791 -0.2897136,-0.807291 -0.2864583,-0.315756 -0.657552,-0.315756 z"
             style="font-size:6.66667px;font-family:Monaco;text-anchor:end;fill:#777777"
             id="path712" />
        </g>
        <g
           aria-label="12"
           id="text310"
           style="font-size:6.66667px;font-family:Monaco;text-anchor:end;fill:#777777"
           class="lcd-label">
          <path
             d="m -6.1458332,51.495443 v -3.89974 q -0.2734375,0.218099 -0.5305989,0.371094 -0.2571615,0.152995 -0.7063802,0.3125 v -0.546875 q 0.7128906,-0.302734 1.2369791,-0.784505 h 0.6054687 v 4.547526 h 1.2141927 V 52 h -3.0566405 v -0.504557 z"
             style="font-size:6.66667px;font-family:Monaco;text-anchor:end;fill:#777777"
             id="path715" />
          <path
             d="M -0.45572914,52 H -3.5123697 v -0.556641 q 0,-0.214843 0.087891,-0.458984 0.087891,-0.247396 0.3352865,-0.553385 0.2473958,-0.30599 0.5240885,-0.589193 l 0.3450521,-0.351563 q 0.1041666,-0.107421 0.4557291,-0.498046 0.3515625,-0.390625 0.4622396,-0.598959 0.1139323,-0.208333 0.1139323,-0.410156 0,-0.325521 -0.2604167,-0.501302 -0.2604166,-0.179037 -0.5859374,-0.179037 -0.1855469,0 -0.4166667,0.04232 -0.2278646,0.04232 -0.4003906,0.100912 -0.1725261,0.05534 -0.5598958,0.231119 v -0.537109 q 0.4101562,-0.195312 0.8203124,-0.266927 0.4134115,-0.07487 0.6803386,-0.07487 0.3938802,0 0.7226562,0.130209 0.33203124,0.126953 0.49153645,0.397135 0.16276041,0.270182 0.16276041,0.576172 0,0.341797 -0.20833333,0.69987 -0.20507812,0.358072 -0.77799473,0.921224 l -0.3710938,0.367838 -0.3125,0.30599 q -0.2962239,0.299479 -0.4785156,0.579427 -0.1822916,0.279948 -0.2018229,0.667317 h 2.42838536 z"
             style="font-size:6.66667px;font-family:Monaco;text-anchor:end;fill:#777777"
             id="path717" />
        </g>
        <g
           aria-label="18"
           id="text312"
           style="font-size:6.66667px;font-family:Monaco;text-anchor:end;fill:#777777"
           class="lcd-label">
          <path
             d="m -6.1458332,64.495443 v -3.89974 q -0.2734375,0.218099 -0.5305989,0.371094 -0.2571615,0.152995 -0.7063802,0.3125 v -0.546875 q 0.7128906,-0.302734 1.2369791,-0.784505 h 0.6054687 v 4.547526 h 1.2141927 V 65 h -3.0566405 v -0.504557 z"
             style="font-size:6.66667px;font-family:Monaco;text-anchor:end;fill:#777777"
             id="path720" />
          <path
             d="m -2.5032551,62.275391 -0.1106771,-0.08138 q -0.2311198,-0.16276 -0.452474,-0.478515 -0.2213541,-0.319011 -0.2213541,-0.69987 0,-0.504557 0.3971354,-0.859375 0.3971354,-0.358073 1.0091145,-0.358073 0.374349,0 0.6738282,0.136719 0.29947911,0.133463 0.46223953,0.397135 0.16276041,0.263672 0.16276041,0.576172 0,0.214844 -0.0748698,0.416667 -0.0748698,0.198568 -0.22460937,0.397135 -0.14648438,0.195313 -0.58593748,0.553386 l 0.2734375,0.218099 q 0.4785156,0.390625 0.64453122,0.673828 0.16601562,0.283203 0.16601562,0.634765 0,0.546875 -0.39713541,0.950521 -0.39713543,0.400391 -1.19140623,0.400391 -0.797526,0 -1.1946614,-0.374349 -0.3971354,-0.377604 -0.3971354,-0.934245 0,-0.830078 1.0611979,-1.56901 z m 0.6217447,-0.309245 q 0.4589844,-0.348307 0.5729167,-0.582682 0.1171875,-0.234375 0.1171875,-0.436198 0,-0.244141 -0.2148438,-0.442709 -0.2148437,-0.201823 -0.5533854,-0.201823 -0.3645833,0 -0.5566406,0.218099 -0.188802,0.218099 -0.188802,0.452474 0,0.227865 0.1595052,0.429688 0.1595052,0.201823 0.5110677,0.452474 z m -0.1660156,0.63151 q -0.859375,0.660808 -0.859375,1.236979 0,0.341797 0.2832032,0.576172 0.2832031,0.234375 0.6705729,0.234375 0.3548177,0 0.6347656,-0.224609 0.2799479,-0.224609 0.2799479,-0.559896 0,-0.328776 -0.3417969,-0.667318 -0.3385416,-0.338541 -0.4720052,-0.442708 z"
             style="font-size:6.66667px;font-family:Monaco;text-anchor:end;fill:#777777"
             id="path722" />
        </g>
        <g
           aria-label="24"
           id="text314"
           style="font-size:6.66667px;font-family:Monaco;text-anchor:end;fill:#777777"
           class="lcd-label">
          <path
             d="m -4.4531249,78 h -3.0566405 v -0.556641 q 0,-0.214843 0.087891,-0.458984 0.087891,-0.247396 0.3352864,-0.553385 0.2473959,-0.30599 0.5240886,-0.589193 l 0.345052,-0.351563 q 0.1041667,-0.107421 0.4557292,-0.498046 0.3515625,-0.390625 0.4622396,-0.598959 0.1139322,-0.208333 0.1139322,-0.410156 0,-0.325521 -0.2604166,-0.501302 -0.2604167,-0.179037 -0.5859375,-0.179037 -0.1855469,0 -0.4166667,0.04232 -0.2278645,0.04232 -0.4003906,0.100912 -0.172526,0.05534 -0.5598958,0.231119 v -0.537109 q 0.4101563,-0.195312 0.8203125,-0.266927 0.4134114,-0.07487 0.6803385,-0.07487 0.3938802,0 0.7226562,0.130209 0.3320313,0.126953 0.4915365,0.397135 0.1627604,0.270182 0.1627604,0.576172 0,0.341797 -0.2083333,0.69987 -0.2050781,0.358072 -0.7779948,0.921224 l -0.3710937,0.367838 -0.3125,0.30599 q -0.296224,0.299479 -0.4785156,0.579427 -0.1822917,0.279948 -0.201823,0.667317 h 2.4283854 z"
             style="font-size:6.66667px;font-family:Monaco;text-anchor:end;fill:#777777"
             id="path725" />
          <path
             d="m -1.6959635,78 v -1.41276 h -2.1451822 v -0.507813 l 2.1451822,-3.13151 h 0.608724 v 3.13151 h 0.93424473 V 76.58724 H -1.0872395 V 78 Z m 0,-1.920573 v -2.213541 l -1.500651,2.213541 z"
             style="font-size:6.66667px;font-family:Monaco;text-anchor:end;fill:#777777"
             id="path727" />
        </g>
        <g
           aria-label="36"
           id="text316"
           style="font-size:6.66667px;font-family:Monaco;text-anchor:end;fill:#777777"
           class="lcd-label">
          <path
             d="m -7.5227863,90.908854 v -0.638021 q 0.7454427,0.377605 1.2923177,0.377605 0.5013021,0 0.8268229,-0.302735 0.328776,-0.305989 0.328776,-0.784505 0,-0.481771 -0.3613281,-0.784505 -0.3580729,-0.302735 -1.2207031,-0.302735 h -0.3352864 v -0.504557 h 0.4654947 q 0.6347657,0 0.9179688,-0.283203 0.2832031,-0.286458 0.2832031,-0.634766 0,-0.315755 -0.2311198,-0.530599 -0.2311198,-0.218099 -0.7096354,-0.218099 -0.5371094,0 -1.1555989,0.302735 v -0.576172 q 0.6184895,-0.23112 1.1328124,-0.23112 0.921224,0 1.2695313,0.364584 0.3515625,0.361328 0.3515625,0.826822 0,0.345053 -0.1855469,0.647787 -0.1855469,0.302734 -0.6835937,0.540364 0.4394531,0.130209 0.6640624,0.319011 0.2246094,0.188802 0.3385417,0.445963 0.1171875,0.257162 0.1171875,0.576172 0,0.709636 -0.5273437,1.171875 -0.5240886,0.46224 -1.3574219,0.46224 -0.2408854,0 -0.5273437,-0.03581 -0.2832031,-0.03581 -0.6933594,-0.208333 z"
             style="font-size:6.66667px;font-family:Monaco;text-anchor:end;fill:#777777"
             id="path730" />
          <path
             d="m -3.0468749,88.630208 q 0.234375,-0.348307 0.5794271,-0.566406 0.3483072,-0.221354 0.7649739,-0.221354 0.3938802,0 0.74544269,0.192057 0.3548177,0.192058 0.54036457,0.53711 0.18554687,0.341797 0.18554687,0.797526 0,0.719401 -0.46223957,1.253255 -0.45898436,0.530599 -1.21093746,0.530599 -0.8854167,0 -1.3248698,-0.738932 -0.4361979,-0.742188 -0.4361979,-1.884766 0,-1.263021 0.5566406,-1.995443 0.5566406,-0.735677 1.5071615,-0.735677 0.5110677,0 0.99283847,0.14974 v 0.611979 q -0.54036457,-0.257162 -1.01888017,-0.257162 -0.6770833,0 -1.0481771,0.621745 Q -3.0468749,87.546224 -3.0468749,88.5 Z m 1.188151,2.01823 q 0.2441406,0 0.4915364,-0.14323 0.2473959,-0.146484 0.38736983,-0.445963 0.14322916,-0.302735 0.14322916,-0.657552 0,-0.46224 -0.24088539,-0.758464 -0.2376302,-0.296224 -0.6803385,-0.296224 -0.4589844,0 -0.7552084,0.345052 -0.2929687,0.341797 -0.2929687,0.833334 0,0.494791 0.2864583,0.810547 0.2897136,0.3125 0.6608073,0.3125 z"
             style="font-size:6.66667px;font-family:Monaco;text-anchor:end;fill:#777777"
             id="path732" />
        </g>
        <g
           aria-label="48"
           id="text318"
           style="font-size:6.66667px;font-family:Monaco;text-anchor:end;fill:#777777"
           class="lcd-label">
          <path
             d="m -5.6933592,104 v -1.41276 h -2.1451823 v -0.50781 l 2.1451823,-3.131513 h 0.6087239 v 3.131513 h 0.9342448 v 0.50781 H -5.0846353 V 104 Z m 0,-1.92057 v -2.213544 l -1.500651,2.213544 z"
             style="font-size:6.66667px;font-family:Monaco;text-anchor:end;fill:#777777"
             id="path735" />
          <path
             d="m -2.5032551,101.27539 -0.1106771,-0.0814 q -0.2311198,-0.16276 -0.452474,-0.47852 -0.2213541,-0.31901 -0.2213541,-0.69986 0,-0.504562 0.3971354,-0.85938 0.3971354,-0.358073 1.0091145,-0.358073 0.374349,0 0.6738282,0.136719 0.29947911,0.133463 0.46223953,0.397135 0.16276041,0.263672 0.16276041,0.576172 0,0.214847 -0.0748698,0.416667 -0.0748698,0.19857 -0.22460937,0.39714 -0.14648438,0.19531 -0.58593748,0.55338 l 0.2734375,0.2181 q 0.4785156,0.39062 0.64453122,0.67383 0.16601562,0.2832 0.16601562,0.63476 0,0.54688 -0.39713541,0.95052 -0.39713543,0.40039 -1.19140623,0.40039 -0.797526,0 -1.1946614,-0.37434 -0.3971354,-0.37761 -0.3971354,-0.93425 0,-0.83008 1.0611979,-1.56901 z m 0.6217447,-0.30924 q 0.4589844,-0.34831 0.5729167,-0.58269 0.1171875,-0.23437 0.1171875,-0.436194 0,-0.244141 -0.2148438,-0.442709 -0.2148437,-0.201823 -0.5533854,-0.201823 -0.3645833,0 -0.5566406,0.218099 -0.188802,0.218099 -0.188802,0.452474 0,0.227863 0.1595052,0.429683 0.1595052,0.20183 0.5110677,0.45248 z m -0.1660156,0.63151 q -0.859375,0.6608 -0.859375,1.23698 0,0.34179 0.2832032,0.57617 0.2832031,0.23437 0.6705729,0.23437 0.3548177,0 0.6347656,-0.22461 0.2799479,-0.22461 0.2799479,-0.55989 0,-0.32878 -0.3417969,-0.66732 -0.3385416,-0.33854 -0.4720052,-0.44271 z"
             style="font-size:6.66667px;font-family:Monaco;text-anchor:end;fill:#777777"
             id="path737" />
        </g>
      </g>
      <g
         transform="translate(-12)"
         id="g340">
        <path
           id="polyline322"
           style="fill:none;stroke:#707070;stroke-width:1"
           d="M 0,0 H 2"
           class="lcd-tick" />
        <path
           id="polyline324"
           style="fill:none;stroke:#707070;stroke-width:1"
           d="M 0,13 H 2"
           class="lcd-tick" />
        <path
           id="polyline326"
           style="fill:none;stroke:#707070;stroke-width:1"
           d="M 0,26 H 2"
           class="lcd-tick" />
        <path
           id="polyline328"
           style="fill:none;stroke:#707070;stroke-width:1"
           d="M 0,39 H 2"
           class="lcd-tick" />
        <path
           id="polyline330"
           style="fill:none;stroke:#707070;stroke-width:1"
           d="M 0,52 H 2"
           class="lcd-tick" />
        <path
           id="polyline332"
           style="fill:none;stroke:#707070;stroke-width:1"
           d="M 0,65 H 2"
           class="lcd-tick" />
        <path
           id="polyline334"
           style="fill:none;stroke:#707070;stroke-width:1"
           d="M 0,78 H 2"
           class="lcd-tick" />
        <path
           id="polyline336"
           style="fill:none;stroke:#707070;stroke-width:1"
           d="M 0,91 H 2"
           class="lcd-tick" />
        <path
           id="polyline338"
           style="fill:none;stroke:#707070;stroke-width:1"
           d="M 0,104 H 2"
           class="lcd-tick" />
      </g>
    </g>
  </g>
  <g
     id="use133"
     transform="translate(19,162)">
    <g
       transform="translate(12,12)"
       id="g352">
      <path
         id="circle346"
         style="fill:none;stroke:#121212"
         d="M 11.5,0 A 11.5,11.5 0 0 1 0,11.5 11.5,11.5 0 0 1 -11.5,0 11.5,11.5 0 0 1 0,-11.5 11.5,11.5 0 0 1 11.5,0 Z" />
      <path
         id="circle348"
         style="fill:url(#linearGradient356)"
         d="M 11,0 A 11,11 0 0 1 0,11 11,11 0 0 1 -11,0 11,11 0 0 1 0,-11 11,11 0 0 1 11,0 Z" />
      <path
         id="circle350"
         style="fill:url(#linearGradient358)"
         d="M 10,0 A 10,10 0 0 1 0,10 10,10 0 0 1 -10,0 10,10 0 0 1 0,-10 10,10 0 0 1 10,0 Z" />
    </g>
  </g>
  <g
     id="use137"
     transform="translate(19,191)">
    <g
       transform="translate(12,12)"
       id="g360" />
  </g>
  <g
     id="use141"
     transform="translate(22,223)">
    <g
       transform="translate(9,9)"
       id="g364" />
  </g>
  <g
     id="use145"
     transform="translate(19,249)">
    <g
       transform="translate(12,12)"
       id="g374">
      <path
         id="circle368"
         style="fill:none;stroke:#121212"
         d="M 11.5,0 A 11.5,11.5 0 0 1 0,11.5 11.5,11.5 0 0 1 -11.5,0 11.5,11.5 0 0 1 0,-11.5 11.5,11.5 0 0 1 11.5,0 Z" />
      <path
         id="circle370"
         style="fill:url(#linearGradient378)"
         d="M 11,0 A 11,11 0 0 1 0,11 11,11 0 0 1 -11,0 11,11 0 0 1 0,-11 11,11 0 0 1 11,0 Z" />
      <path
         id="circle372"
         style="fill:url(#linearGradient380)"
         d="M 10,0 A 10,10 0 0 1 0,10 10,10 0 0 1 -10,0 10,10 0 0 1 0,-10 10,10 0 0 1 10,0 Z" />
    </g>
  </g>
  <g
     id="use149"
     transform="translate(19,278)">
    <g
       transform="translate(12,12)"
       id="g382" />
  </g>
  <g
     id="use153"
     transform="translate(19,307)">
    <g
       transform="translate(12,12)"
       id="g386" />
  </g>
  <g
     id="use157"
     transform="translate(19,336)">
    <g
       transform="translate(12,12)"
       id="g390" />
  </g>
  <!-- 2 -->
  <g
     aria-label="2"
     id="text161"
     style="font-size:10px;font-family:'DIN Alternate';text-anchor:middle;fill:#343434"
     class="big-label">
    <path
       d="m 69.919922,32 h 4.057617 v -1.020508 h -2.719727 l 2.29004,-2.871094 q 0.429687,-0.546875 0.429687,-1.25 -0.0098,-0.878906 -0.59082,-1.450195 -0.571289,-0.576172 -1.489258,-0.585937 -0.820313,0.0098 -1.381836,0.576171 -0.556641,0.581055 -0.595703,1.469727 h 1.015625 q 0.05371,-0.488281 0.341797,-0.756836 0.27832,-0.268555 0.698242,-0.268555 0.473633,0.0098 0.732422,0.307618 0.249023,0.297851 0.249023,0.698242 0,0.151367 -0.03906,0.322265 -0.05859,0.180664 -0.219727,0.390625 l -2.77832,3.476563 z"
       style="font-size:10px;font-family:'DIN Alternate';text-anchor:middle;fill:#343434"
       id="path774" />
  </g>
  <g
     id="use165"
     transform="translate(52,40)">
    <g
       transform="translate(20,4)"
       id="g438">
      <path
         id="rect394"
         style="fill:#1a1a1a"
         d="m -9,-1 h 8 v 106 h -8 z" />
      <path
         id="rect396"
         style="fill:#1a1a1a"
         d="M 1,-1 H 9 V 105 H 1 Z" />
      <g
         transform="translate(-13,2.5)"
         id="g416">
        <g
           aria-label="0"
           id="text398"
           style="font-size:6.66667px;font-family:Monaco;text-anchor:end;fill:#777777"
           class="lcd-label">
          <path
             d="m -1.9986979,-5.2018228 q 0.8626302,0 1.31510417,0.7259114 0.45247394,0.7226563 0.45247394,1.9498698 0,1.2304687 -0.45247394,1.95638016 -0.45247397,0.72265623 -1.31510417,0.72265623 -0.8593749,0 -1.3151041,-0.72265623 -0.452474,-0.72591146 -0.452474,-1.95638016 0,-1.2272135 0.452474,-1.9498698 0.4557292,-0.7259114 1.3151041,-0.7259114 z m -0.9863281,3.7565103 1.7480469,-2.7376301 q -0.1660157,-0.3027344 -0.3613282,-0.406901 -0.1920572,-0.1074219 -0.4003906,-0.1074219 -0.5436197,0 -0.8268229,0.6054687 -0.2832031,0.6022135 -0.2832031,1.5299479 0,0.2115885 0.013021,0.4557292 0.013021,0.2441406 0.1106771,0.6608072 z m 1.9661458,-2.1354166 -1.735026,2.7539062 q 0.139974,0.23763021 0.3222656,0.35807291 0.1822917,0.1171875 0.4069011,0.1171875 0.6184895,0 0.8789062,-0.69010411 0.26041665,-0.6933594 0.26041665,-1.5364583 0,-0.5208334 -0.13346355,-1.0026042 z"
             style="font-size:6.66667px;font-family:Monaco;text-anchor:end;fill:#777777"
             id="path649" />
        </g>
        <g
           aria-label="3"
           id="text400"
           style="font-size:6.66667px;font-family:Monaco;text-anchor:end;fill:#777777"
           class="lcd-label">
          <path
             d="m -3.5253905,12.908854 v -0.638021 q 0.7454426,0.377605 1.2923176,0.377605 0.5013021,0 0.8268229,-0.302735 0.3287761,-0.305989 0.3287761,-0.784505 0,-0.481771 -0.3613281,-0.784505 -0.358073,-0.302735 -1.2207031,-0.302735 H -2.9947916 V 9.9694011 h 0.4654948 q 0.6347656,0 0.9179687,-0.2832031 0.2832031,-0.2864583 0.2832031,-0.6347656 0,-0.3157552 -0.2311198,-0.530599 -0.2311197,-0.2180989 -0.7096354,-0.2180989 -0.5371093,0 -1.1555989,0.3027344 V 8.029297 q 0.6184896,-0.2311198 1.1328125,-0.2311198 0.9212239,0 1.2695312,0.3645833 0.3515625,0.3613281 0.3515625,0.8268229 0,0.3450521 -0.18554687,0.6477865 -0.18554683,0.3027343 -0.68359373,0.5403641 0.4394531,0.130209 0.66406248,0.319011 0.22460937,0.188802 0.33854166,0.445963 0.1171875,0.257162 0.1171875,0.576172 0,0.709636 -0.52734374,1.171875 -0.5240885,0.46224 -1.3574218,0.46224 -0.2408855,0 -0.5273438,-0.03581 -0.2832031,-0.03581 -0.6933593,-0.208333 z"
             style="font-size:6.66667px;font-family:Monaco;text-anchor:end;fill:#777777"
             id="path652" />
        </g>
        <g
           aria-label="6"
           id="text402"
           style="font-size:6.66667px;font-family:Monaco;text-anchor:end;fill:#777777"
           class="lcd-label">
          <path
             d="m -3.0468749,23.630208 q 0.234375,-0.348307 0.579427,-0.566406 0.3483073,-0.221354 0.764974,-0.221354 0.3938802,0 0.74544267,0.192057 0.3548177,0.192058 0.54036457,0.53711 0.18554687,0.341797 0.18554687,0.797526 0,0.719401 -0.46223957,1.253255 -0.45898434,0.530599 -1.21093744,0.530599 -0.8854167,0 -1.3248698,-0.738932 -0.4361979,-0.742188 -0.4361979,-1.884766 0,-1.263021 0.5566406,-1.995443 0.5566406,-0.735677 1.5071614,-0.735677 0.5110677,0 0.99283856,0.14974 v 0.611979 q -0.54036456,-0.257162 -1.01888016,-0.257162 -0.6770833,0 -1.0481771,0.621745 Q -3.0468749,22.546224 -3.0468749,23.5 Z m 1.188151,2.01823 q 0.2441406,0 0.4915364,-0.14323 0.2473959,-0.146484 0.38736982,-0.445963 0.14322916,-0.302735 0.14322916,-0.657552 0,-0.46224 -0.24088538,-0.758464 -0.2376302,-0.296224 -0.6803386,-0.296224 -0.4589843,0 -0.7552083,0.345052 -0.2929687,0.341797 -0.2929687,0.833334 0,0.494791 0.2864583,0.810547 0.2897135,0.3125 0.6608073,0.3125 z"
             style="font-size:6.66667px;font-family:Monaco;text-anchor:end;fill:#777777"
             id="path655" />
        </g>
        <g
           aria-label="9"
           id="text404"
           style="font-size:6.66667px;font-family:Monaco;text-anchor:end;fill:#777777"
           class="lcd-label">
          <path
             d="m -0.95052081,36.317708 q -0.23437499,0.348308 -0.58268229,0.569662 -0.3450521,0.218099 -0.7617187,0.218099 -0.3938802,0 -0.7486979,-0.188802 -0.3515625,-0.192058 -0.5371094,-0.53711 -0.1855469,-0.345052 -0.1855469,-0.800781 0,-0.716146 0.4589844,-1.246745 0.4622396,-0.533854 1.2141927,-0.533854 0.8854166,0 1.32161454,0.742188 0.43945312,0.738932 0.43945312,1.88151 0,1.263021 -0.55664061,1.998698 -0.55664065,0.732422 -1.50716145,0.732422 -0.5110677,0 -0.9928385,-0.152995 v -0.608724 q 0.5403646,0.253906 1.0188802,0.253906 0.6770833,0 1.048177,-0.621744 0.37109379,-0.621745 0.37109379,-1.575521 z M -2.1386718,34.302734 q -0.2441406,0 -0.4915365,0.146485 -0.2473958,0.143229 -0.390625,0.442708 -0.1399739,0.299479 -0.1399739,0.657552 0,0.458985 0.2376302,0.755209 0.2408854,0.296224 0.6835937,0.296224 0.4589844,0 0.7519531,-0.341797 0.296224,-0.345052 0.296224,-0.833334 0,-0.494791 -0.2897136,-0.807291 -0.2864583,-0.315756 -0.657552,-0.315756 z"
             style="font-size:6.66667px;font-family:Monaco;text-anchor:end;fill:#777777"
             id="path658" />
        </g>
        <g
           aria-label="12"
           id="text406"
           style="font-size:6.66667px;font-family:Monaco;text-anchor:end;fill:#777777"
           class="lcd-label">
          <path
             d="m -6.1458332,51.495443 v -3.89974 q -0.2734375,0.218099 -0.5305989,0.371094 -0.2571615,0.152995 -0.7063802,0.3125 v -0.546875 q 0.7128906,-0.302734 1.2369791,-0.784505 h 0.6054687 v 4.547526 h 1.2141927 V 52 h -3.0566405 v -0.504557 z"
             style="font-size:6.66667px;font-family:Monaco;text-anchor:end;fill:#777777"
             id="path661" />
          <path
             d="M -0.45572914,52 H -3.5123697 v -0.556641 q 0,-0.214843 0.087891,-0.458984 0.087891,-0.247396 0.3352865,-0.553385 0.2473958,-0.30599 0.5240885,-0.589193 l 0.3450521,-0.351563 q 0.1041666,-0.107421 0.4557291,-0.498046 0.3515625,-0.390625 0.4622396,-0.598959 0.1139323,-0.208333 0.1139323,-0.410156 0,-0.325521 -0.2604167,-0.501302 -0.2604166,-0.179037 -0.5859374,-0.179037 -0.1855469,0 -0.4166667,0.04232 -0.2278646,0.04232 -0.4003906,0.100912 -0.1725261,0.05534 -0.5598958,0.231119 v -0.537109 q 0.4101562,-0.195312 0.8203124,-0.266927 0.4134115,-0.07487 0.6803386,-0.07487 0.3938802,0 0.7226562,0.130209 0.33203124,0.126953 0.49153645,0.397135 0.16276041,0.270182 0.16276041,0.576172 0,0.341797 -0.20833333,0.69987 -0.20507812,0.358072 -0.77799473,0.921224 l -0.3710938,0.367838 -0.3125,0.30599 q -0.2962239,0.299479 -0.4785156,0.579427 -0.1822916,0.279948 -0.2018229,0.667317 h 2.42838536 z"
             style="font-size:6.66667px;font-family:Monaco;text-anchor:end;fill:#777777"
             id="path663" />
        </g>
        <g
           aria-label="18"
           id="text408"
           style="font-size:6.66667px;font-family:Monaco;text-anchor:end;fill:#777777"
           class="lcd-label">
          <path
             d="m -6.1458332,64.495443 v -3.89974 q -0.2734375,0.218099 -0.5305989,0.371094 -0.2571615,0.152995 -0.7063802,0.3125 v -0.546875 q 0.7128906,-0.302734 1.2369791,-0.784505 h 0.6054687 v 4.547526 h 1.2141927 V 65 h -3.0566405 v -0.504557 z"
             style="font-size:6.66667px;font-family:Monaco;text-anchor:end;fill:#777777"
             id="path666" />
          <path
             d="m -2.5032551,62.275391 -0.1106771,-0.08138 q -0.2311198,-0.16276 -0.452474,-0.478515 -0.2213541,-0.319011 -0.2213541,-0.69987 0,-0.504557 0.3971354,-0.859375 0.3971354,-0.358073 1.0091145,-0.358073 0.374349,0 0.6738282,0.136719 0.29947911,0.133463 0.46223953,0.397135 0.16276041,0.263672 0.16276041,0.576172 0,0.214844 -0.0748698,0.416667 -0.0748698,0.198568 -0.22460937,0.397135 -0.14648438,0.195313 -0.58593748,0.553386 l 0.2734375,0.218099 q 0.4785156,0.390625 0.64453122,0.673828 0.16601562,0.283203 0.16601562,0.634765 0,0.546875 -0.39713541,0.950521 -0.39713543,0.400391 -1.19140623,0.400391 -0.797526,0 -1.1946614,-0.374349 -0.3971354,-0.377604 -0.3971354,-0.934245 0,-0.830078 1.0611979,-1.56901 z m 0.6217447,-0.309245 q 0.4589844,-0.348307 0.5729167,-0.582682 0.1171875,-0.234375 0.1171875,-0.436198 0,-0.244141 -0.2148438,-0.442709 -0.2148437,-0.201823 -0.5533854,-0.201823 -0.3645833,0 -0.5566406,0.218099 -0.188802,0.218099 -0.188802,0.452474 0,0.227865 0.1595052,0.429688 0.1595052,0.201823 0.5110677,0.452474 z m -0.1660156,0.63151 q -0.859375,0.660808 -0.859375,1.236979 0,0.341797 0.2832032,0.576172 0.2832031,0.234375 0.6705729,0.234375 0.3548177,0 0.6347656,-0.224609 0.2799479,-0.224609 0.2799479,-0.559896 0,-0.328776 -0.3417969,-0.667318 -0.3385416,-0.338541 -0.4720052,-0.442708 z"
             style="font-size:6.66667px;font-family:Monaco;text-anchor:end;fill:#777777"
             id="path668" />
        </g>
        <g
           aria-label="24"
           id="text410"
           style="font-size:6.66667px;font-family:Monaco;text-anchor:end;fill:#777777"
           class="lcd-label">
          <path
             d="m -4.4531249,78 h -3.0566405 v -0.556641 q 0,-0.214843 0.087891,-0.458984 0.087891,-0.247396 0.3352864,-0.553385 0.2473959,-0.30599 0.5240886,-0.589193 l 0.345052,-0.351563 q 0.1041667,-0.107421 0.4557292,-0.498046 0.3515625,-0.390625 0.4622396,-0.598959 0.1139322,-0.208333 0.1139322,-0.410156 0,-0.325521 -0.2604166,-0.501302 -0.2604167,-0.179037 -0.5859375,-0.179037 -0.1855469,0 -0.4166667,0.04232 -0.2278645,0.04232 -0.4003906,0.100912 -0.172526,0.05534 -0.5598958,0.231119 v -0.537109 q 0.4101563,-0.195312 0.8203125,-0.266927 0.4134114,-0.07487 0.6803385,-0.07487 0.3938802,0 0.7226562,0.130209 0.3320313,0.126953 0.4915365,0.397135 0.1627604,0.270182 0.1627604,0.576172 0,0.341797 -0.2083333,0.69987 -0.2050781,0.358072 -0.7779948,0.921224 l -0.3710937,0.367838 -0.3125,0.30599 q -0.296224,0.299479 -0.4785156,0.579427 -0.1822917,0.279948 -0.201823,0.667317 h 2.4283854 z"
             style="font-size:6.66667px;font-family:Monaco;text-anchor:end;fill:#777777"
             id="path671" />
          <path
             d="m -1.6959635,78 v -1.41276 h -2.1451822 v -0.507813 l 2.1451822,-3.13151 h 0.608724 v 3.13151 h 0.93424473 V 76.58724 H -1.0872395 V 78 Z m 0,-1.920573 v -2.213541 l -1.500651,2.213541 z"
             style="font-size:6.66667px;font-family:Monaco;text-anchor:end;fill:#777777"
             id="path673" />
        </g>
        <g
           aria-label="36"
           id="text412"
           style="font-size:6.66667px;font-family:Monaco;text-anchor:end;fill:#777777"
           class="lcd-label">
          <path
             d="m -7.5227863,90.908854 v -0.638021 q 0.7454427,0.377605 1.2923177,0.377605 0.5013021,0 0.8268229,-0.302735 0.328776,-0.305989 0.328776,-0.784505 0,-0.481771 -0.3613281,-0.784505 -0.3580729,-0.302735 -1.2207031,-0.302735 h -0.3352864 v -0.504557 h 0.4654947 q 0.6347657,0 0.9179688,-0.283203 0.2832031,-0.286458 0.2832031,-0.634766 0,-0.315755 -0.2311198,-0.530599 -0.2311198,-0.218099 -0.7096354,-0.218099 -0.5371094,0 -1.1555989,0.302735 v -0.576172 q 0.6184895,-0.23112 1.1328124,-0.23112 0.921224,0 1.2695313,0.364584 0.3515625,0.361328 0.3515625,0.826822 0,0.345053 -0.1855469,0.647787 -0.1855469,0.302734 -0.6835937,0.540364 0.4394531,0.130209 0.6640624,0.319011 0.2246094,0.188802 0.3385417,0.445963 0.1171875,0.257162 0.1171875,0.576172 0,0.709636 -0.5273437,1.171875 -0.5240886,0.46224 -1.3574219,0.46224 -0.2408854,0 -0.5273437,-0.03581 -0.2832031,-0.03581 -0.6933594,-0.208333 z"
             style="font-size:6.66667px;font-family:Monaco;text-anchor:end;fill:#777777"
             id="path676" />
          <path
             d="m -3.0468749,88.630208 q 0.234375,-0.348307 0.5794271,-0.566406 0.3483072,-0.221354 0.7649739,-0.221354 0.3938802,0 0.74544269,0.192057 0.3548177,0.192058 0.54036457,0.53711 0.18554687,0.341797 0.18554687,0.797526 0,0.719401 -0.46223957,1.253255 -0.45898436,0.530599 -1.21093746,0.530599 -0.8854167,0 -1.3248698,-0.738932 -0.4361979,-0.742188 -0.4361979,-1.884766 0,-1.263021 0.5566406,-1.995443 0.5566406,-0.735677 1.5071615,-0.735677 0.5110677,0 0.99283847,0.14974 v 0.611979 q -0.54036457,-0.257162 -1.01888017,-0.257162 -0.6770833,0 -1.0481771,0.621745 Q -3.0468749,87.546224 -3.0468749,88.5 Z m 1.188151,2.01823 q 0.2441406,0 0.4915364,-0.14323 0.2473959,-0.146484 0.38736983,-0.445963 0.14322916,-0.302735 0.14322916,-0.657552 0,-0.46224 -0.24088539,-0.758464 -0.2376302,-0.296224 -0.6803385,-0.296224 -0.4589844,0 -0.7552084,0.345052 -0.2929687,0.341797 -0.2929687,0.833334 0,0.494791 0.2864583,0.810547 0.2897136,0.3125 0.6608073,0.3125 z"
             style="font-size:6.66667px;font-family:Monaco;text-anchor:end;fill:#777777"
             id="path678" />
        </g>
        <g
           aria-label="48"
           id="text414"
           style="font-size:6.66667px;font-family:Monaco;text-anchor:end;fill:#777777"
           class="lcd-label">
          <path
             d="m -5.6933592,104 v -1.41276 h -2.1451823 v -0.50781 l 2.1451823,-3.131513 h 0.6087239 v 3.131513 h 0.9342448 v 0.50781 H -5.0846353 V 104 Z m 0,-1.92057 v -2.213544 l -1.500651,2.213544 z"
             style="font-size:6.66667px;font-family:Monaco;text-anchor:end;fill:#777777"
             id="path681" />
          <path
             d="m -2.5032551,101.27539 -0.1106771,-0.0814 q -0.2311198,-0.16276 -0.452474,-0.47852 -0.2213541,-0.31901 -0.2213541,-0.69986 0,-0.504562 0.3971354,-0.85938 0.3971354,-0.358073 1.0091145,-0.358073 0.374349,0 0.6738282,0.136719 0.29947911,0.133463 0.46223953,0.397135 0.16276041,0.263672 0.16276041,0.576172 0,0.214847 -0.0748698,0.416667 -0.0748698,0.19857 -0.22460937,0.39714 -0.14648438,0.19531 -0.58593748,0.55338 l 0.2734375,0.2181 q 0.4785156,0.39062 0.64453122,0.67383 0.16601562,0.2832 0.16601562,0.63476 0,0.54688 -0.39713541,0.95052 -0.39713543,0.40039 -1.19140623,0.40039 -0.797526,0 -1.1946614,-0.37434 -0.3971354,-0.37761 -0.3971354,-0.93425 0,-0.83008 1.0611979,-1.56901 z m 0.6217447,-0.30924 q 0.4589844,-0.34831 0.5729167,-0.58269 0.1171875,-0.23437 0.1171875,-0.436194 0,-0.244141 -0.2148438,-0.442709 -0.2148437,-0.201823 -0.5533854,-0.201823 -0.3645833,0 -0.5566406,0.218099 -0.188802,0.218099 -0.188802,0.452474 0,0.227863 0.1595052,0.429683 0.1595052,0.20183 0.5110677,0.45248 z m -0.1660156,0.63151 q -0.859375,0.6608 -0.859375,1.23698 0,0.34179 0.2832032,0.57617 0.2832031,0.23437 0.6705729,0.23437 0.3548177,0 0.6347656,-0.22461 0.2799479,-0.22461 0.2799479,-0.55989 0,-0.32878 -0.3417969,-0.66732 -0.3385416,-0.33854 -0.4720052,-0.44271 z"
             style="font-size:6.66667px;font-family:Monaco;text-anchor:end;fill:#777777"
             id="path683" />
        </g>
      </g>
      <g
         transform="translate(-12)"
         id="g436">
        <path
           id="polyline418"
           style="fill:none;stroke:#707070;stroke-width:1"
           d="M 0,0 H 2"
           class="lcd-tick" />
        <path
           id="polyline420"
           style="fill:none;stroke:#707070;stroke-width:1"
           d="M 0,13 H 2"
           class="lcd-tick" />
        <path
           id="polyline422"
           style="fill:none;stroke:#707070;stroke-width:1"
           d="M 0,26 H 2"
           class="lcd-tick" />
        <path
           id="polyline424"
           style="fill:none;stroke:#707070;stroke-width:1"
           d="M 0,39 H 2"
           class="lcd-tick" />
        <path
           id="polyline426"
           style="fill:none;stroke:#707070;stroke-width:1"
           d="M 0,52 H 2"
           class="lcd-tick" />
        <path
           id="polyline428"
           style="fill:none;stroke:#707070;stroke-width:1"
           d="M 0,65 H 2"
           class="lcd-tick" />
        <path
           id="polyline430"
           style="fill:none;stroke:#707070;stroke-width:1"
           d="M 0,78 H 2"
           class="lcd-tick" />
        <path
           id="polyline432"
           style="fill:none;stroke:#707070;stroke-width:1"
           d="M 0,91 H 2"
           class="lcd-tick" />
        <path
           id="polyline434"
           style="fill:none;stroke:#707070;stroke-width:1"
           d="M 0,104 H 2"
           class="lcd-tick" />
      </g>
    </g>
  </g>
  <g
     id="use169"
     transform="translate(60,162)">
    <g
       transform="translate(12,12)"
       id="g448">
      <path
         id="circle442"
         style="fill:none;stroke:#121212"
         d="M 11.5,0 A 11.5,11.5 0 0 1 0,11.5 11.5,11.5 0 0 1 -11.5,0 11.5,11.5 0 0 1 0,-11.5 11.5,11.5 0 0 1 11.5,0 Z" />
      <path
         id="circle444"
         style="fill:url(#linearGradient452)"
         d="M 11,0 A 11,11 0 0 1 0,11 11,11 0 0 1 -11,0 11,11 0 0 1 0,-11 11,11 0 0 1 11,0 Z" />
      <path
         id="circle446"
         style="fill:url(#linearGradient454)"
         d="M 10,0 A 10,10 0 0 1 0,10 10,10 0 0 1 -10,0 10,10 0 0 1 0,-10 10,10 0 0 1 10,0 Z" />
    </g>
  </g>
  <g
     id="use173"
     transform="translate(60,191)">
    <g
       transform="translate(12,12)"
       id="g456" />
  </g>
  <g
     id="use177"
     transform="translate(63,223)">
    <g
       transform="translate(9,9)"
       id="g460" />
  </g>
  <g
     id="use181"
     transform="translate(60,249)">
    <g
       transform="translate(12,12)"
       id="g470">
      <path
         id="circle464"
         style="fill:none;stroke:#121212"
         d="M 11.5,0 A 11.5,11.5 0 0 1 0,11.5 11.5,11.5 0 0 1 -11.5,0 11.5,11.5 0 0 1 0,-11.5 11.5,11.5 0 0 1 11.5,0 Z" />
      <path
         id="circle466"
         style="fill:url(#linearGradient474)"
         d="M 11,0 A 11,11 0 0 1 0,11 11,11 0 0 1 -11,0 11,11 0 0 1 0,-11 11,11 0 0 1 11,0 Z" />
      <path
         id="circle468"
         style="fill:url(#linearGradient476)"
         d="M 10,0 A 10,10 0 0 1 0,10 10,10 0 0 1 -10,0 10,10 0 0 1 0,-10 10,10 0 0 1 10,0 Z" />
    </g>
  </g>
  <g
     id="use185"
     transform="translate(60,278)">
    <g
       transform="translate(12,12)"
       id="g478" />
  </g>
  <g
     id="use189"
     transform="translate(60,307)">
    <g
       transform="translate(12,12)"
       id="g482" />
  </g>
  <g
     id="use193"
     transform="translate(60,336)">
    <g
       transform="translate(12,12)"
       id="g486" />
  </g>
  <!-- mix -->
  <g
     aria-label="MIX"
     id="text197"
     style="font-size:10px;font-family:'DIN Alternate';text-anchor:middle;fill:#343434"
     class="big-label">
    <path
       d="m 105.98828,32 h 1.0791 v -4.438477 h 0.0195 l 1.48926,3.417969 h 0.89844 l 1.48926,-3.417969 h 0.0244 V 32 h 1.0791 v -7.119141 h -1.0205 l -2.00196,4.638672 v 0 l -2.04101,-4.638672 h -1.01563 z"
       style="font-size:10px;font-family:'DIN Alternate';text-anchor:middle;fill:#343434"
       id="path767" />
    <path
       d="m 113.56641,32 h 1.0791 v -7.119141 h -1.0791 z"
       style="font-size:10px;font-family:'DIN Alternate';text-anchor:middle;fill:#343434"
       id="path769" />
    <path
       d="M 118.07324,29.348633 119.63086,32 h 1.2207 l -2.17773,-3.647461 2.03613,-3.47168 h -1.21582 l -1.4209,2.470703 v 0 l -1.4209,-2.470703 h -1.2207 l 2.04102,3.47168 L 115.29492,32 h 1.21582 l 1.5625,-2.651367 z"
       style="font-size:10px;font-family:'DIN Alternate';text-anchor:middle;fill:#343434"
       id="path771" />
  </g>
  <g
     id="use201"
     transform="translate(93,40)">
    <g
       transform="translate(20,4)"
       id="g534">
      <path
         id="rect490"
         style="fill:#1a1a1a"
         d="m -9,-1 h 8 v 106 h -8 z" />
      <path
         id="rect492"
         style="fill:#1a1a1a"
         d="M 1,-1 H 9 V 105 H 1 Z" />
      <g
         transform="translate(-13,2.5)"
         id="g512">
        <g
           aria-label="0"
           id="text494"
           style="font-size:6.66667px;font-family:Monaco;text-anchor:end;fill:#777777"
           class="lcd-label">
          <path
             d="m -1.9986979,-5.2018228 q 0.8626302,0 1.31510417,0.7259114 0.45247394,0.7226563 0.45247394,1.9498698 0,1.2304687 -0.45247394,1.95638016 -0.45247397,0.72265623 -1.31510417,0.72265623 -0.8593749,0 -1.3151041,-0.72265623 -0.452474,-0.72591146 -0.452474,-1.95638016 0,-1.2272135 0.452474,-1.9498698 0.4557292,-0.7259114 1.3151041,-0.7259114 z m -0.9863281,3.7565103 1.7480469,-2.7376301 q -0.1660157,-0.3027344 -0.3613282,-0.406901 -0.1920572,-0.1074219 -0.4003906,-0.1074219 -0.5436197,0 -0.8268229,0.6054687 -0.2832031,0.6022135 -0.2832031,1.5299479 0,0.2115885 0.013021,0.4557292 0.013021,0.2441406 0.1106771,0.6608072 z m 1.9661458,-2.1354166 -1.735026,2.7539062 q 0.139974,0.23763021 0.3222656,0.35807291 0.1822917,0.1171875 0.4069011,0.1171875 0.6184895,0 0.8789062,-0.69010411 0.26041665,-0.6933594 0.26041665,-1.5364583 0,-0.5208334 -0.13346355,-1.0026042 z"
             style="font-size:6.66667px;font-family:Monaco;text-anchor:end;fill:#777777"
             id="path595" />
        </g>
        <g
           aria-label="3"
           id="text496"
           style="font-size:6.66667px;font-family:Monaco;text-anchor:end;fill:#777777"
           class="lcd-label">
          <path
             d="m -3.5253905,12.908854 v -0.638021 q 0.7454426,0.377605 1.2923176,0.377605 0.5013021,0 0.8268229,-0.302735 0.3287761,-0.305989 0.3287761,-0.784505 0,-0.481771 -0.3613281,-0.784505 -0.358073,-0.302735 -1.2207031,-0.302735 H -2.9947916 V 9.9694011 h 0.4654948 q 0.6347656,0 0.9179687,-0.2832031 0.2832031,-0.2864583 0.2832031,-0.6347656 0,-0.3157552 -0.2311198,-0.530599 -0.2311197,-0.2180989 -0.7096354,-0.2180989 -0.5371093,0 -1.1555989,0.3027344 V 8.029297 q 0.6184896,-0.2311198 1.1328125,-0.2311198 0.9212239,0 1.2695312,0.3645833 0.3515625,0.3613281 0.3515625,0.8268229 0,0.3450521 -0.18554687,0.6477865 -0.18554683,0.3027343 -0.68359373,0.5403641 0.4394531,0.130209 0.66406248,0.319011 0.22460937,0.188802 0.33854166,0.445963 0.1171875,0.257162 0.1171875,0.576172 0,0.709636 -0.52734374,1.171875 -0.5240885,0.46224 -1.3574218,0.46224 -0.2408855,0 -0.5273438,-0.03581 -0.2832031,-0.03581 -0.6933593,-0.208333 z"
             style="font-size:6.66667px;font-family:Monaco;text-anchor:end;fill:#777777"
             id="path598" />
        </g>
        <g
           aria-label="6"
           id="text498"
           style="font-size:6.66667px;font-family:Monaco;text-anchor:end;fill:#777777"
           class="lcd-label">
          <path
             d="m -3.0468749,23.630208 q 0.234375,-0.348307 0.579427,-0.566406 0.3483073,-0.221354 0.764974,-0.221354 0.3938802,0 0.74544267,0.192057 0.3548177,0.192058 0.54036457,0.53711 0.18554687,0.341797 0.18554687,0.797526 0,0.719401 -0.46223957,1.253255 -0.45898434,0.530599 -1.21093744,0.530599 -0.8854167,0 -1.3248698,-0.738932 -0.4361979,-0.742188 -0.4361979,-1.884766 0,-1.263021 0.5566406,-1.995443 0.5566406,-0.735677 1.5071614,-0.735677 0.5110677,0 0.99283856,0.14974 v 0.611979 q -0.54036456,-0.257162 -1.01888016,-0.257162 -0.6770833,0 -1.0481771,0.621745 Q -3.0468749,22.546224 -3.0468749,23.5 Z m 1.188151,2.01823 q 0.2441406,0 0.4915364,-0.14323 0.2473959,-0.146484 0.38736982,-0.445963 0.14322916,-0.302735 0.14322916,-0.657552 0,-0.46224 -0.24088538,-0.758464 -0.2376302,-0.296224 -0.6803386,-0.296224 -0.4589843,0 -0.7552083,0.345052 -0.2929687,0.341797 -0.2929687,0.833334 0,0.494791 0.2864583,0.810547 0.2897135,0.3125 0.6608073,0.3125 z"
             style="font-size:6.66667px;font-family:Monaco;text-anchor:end;fill:#777777"
             id="path601" />
        </g>
        <g
           aria-label="9"
           id="text500"
           style="font-size:6.66667px;font-family:Monaco;text-anchor:end;fill:#777777"
           class="lcd-label">
          <path
             d="m -0.95052081,36.317708 q -0.23437499,0.348308 -0.58268229,0.569662 -0.3450521,0.218099 -0.7617187,0.218099 -0.3938802,0 -0.7486979,-0.188802 -0.3515625,-0.192058 -0.5371094,-0.53711 -0.1855469,-0.345052 -0.1855469,-0.800781 0,-0.716146 0.4589844,-1.246745 0.4622396,-0.533854 1.2141927,-0.533854 0.8854166,0 1.32161454,0.742188 0.43945312,0.738932 0.43945312,1.88151 0,1.263021 -0.55664061,1.998698 -0.55664065,0.732422 -1.50716145,0.732422 -0.5110677,0 -0.9928385,-0.152995 v -0.608724 q 0.5403646,0.253906 1.0188802,0.253906 0.6770833,0 1.048177,-0.621744 0.37109379,-0.621745 0.37109379,-1.575521 z M -2.1386718,34.302734 q -0.2441406,0 -0.4915365,0.146485 -0.2473958,0.143229 -0.390625,0.442708 -0.1399739,0.299479 -0.1399739,0.657552 0,0.458985 0.2376302,0.755209 0.2408854,0.296224 0.6835937,0.296224 0.4589844,0 0.7519531,-0.341797 0.296224,-0.345052 0.296224,-0.833334 0,-0.494791 -0.2897136,-0.807291 -0.2864583,-0.315756 -0.657552,-0.315756 z"
             style="font-size:6.66667px;font-family:Monaco;text-anchor:end;fill:#777777"
             id="path604" />
        </g>
        <g
           aria-label="12"
           id="text502"
           style="font-size:6.66667px;font-family:Monaco;text-anchor:end;fill:#777777"
           class="lcd-label">
          <path
             d="m -6.1458332,51.495443 v -3.89974 q -0.2734375,0.218099 -0.5305989,0.371094 -0.2571615,0.152995 -0.7063802,0.3125 v -0.546875 q 0.7128906,-0.302734 1.2369791,-0.784505 h 0.6054687 v 4.547526 h 1.2141927 V 52 h -3.0566405 v -0.504557 z"
             style="font-size:6.66667px;font-family:Monaco;text-anchor:end;fill:#777777"
             id="path607" />
          <path
             d="M -0.45572914,52 H -3.5123697 v -0.556641 q 0,-0.214843 0.087891,-0.458984 0.087891,-0.247396 0.3352865,-0.553385 0.2473958,-0.30599 0.5240885,-0.589193 l 0.3450521,-0.351563 q 0.1041666,-0.107421 0.4557291,-0.498046 0.3515625,-0.390625 0.4622396,-0.598959 0.1139323,-0.208333 0.1139323,-0.410156 0,-0.325521 -0.2604167,-0.501302 -0.2604166,-0.179037 -0.5859374,-0.179037 -0.1855469,0 -0.4166667,0.04232 -0.2278646,0.04232 -0.4003906,0.100912 -0.1725261,0.05534 -0.5598958,0.231119 v -0.537109 q 0.4101562,-0.195312 0.8203124,-0.266927 0.4134115,-0.07487 0.6803386,-0.07487 0.3938802,0 0.7226562,0.130209 0.33203124,0.126953 0.49153645,0.397135 0.16276041,0.270182 0.16276041,0.576172 0,0.341797 -0.20833333,0.69987 -0.20507812,0.358072 -0.77799473,0.921224 l -0.3710938,0.367838 -0.3125,0.30599 q -0.2962239,0.299479 -0.4785156,0.579427 -0.1822916,0.279948 -0.2018229,0.667317 h 2.42838536 z"
             style="font-size:6.66667px;font-family:Monaco;text-anchor:end;fill:#777777"
             id="path609" />
        </g>
        <g
           aria-label="18"
           id="text504"
           style="font-size:6.66667px;font-family:Monaco;text-anchor:end;fill:#777777"
           class="lcd-label">
          <path
             d="m -6.1458332,64.495443 v -3.89974 q -0.2734375,0.218099 -0.5305989,0.371094 -0.2571615,0.152995 -0.7063802,0.3125 v -0.546875 q 0.7128906,-0.302734 1.2369791,-0.784505 h 0.6054687 v 4.547526 h 1.2141927 V 65 h -3.0566405 v -0.504557 z"
             style="font-size:6.66667px;font-family:Monaco;text-anchor:end;fill:#777777"
             id="path612" />
          <path
             d="m -2.5032551,62.275391 -0.1106771,-0.08138 q -0.2311198,-0.16276 -0.452474,-0.478515 -0.2213541,-0.319011 -0.2213541,-0.69987 0,-0.504557 0.3971354,-0.859375 0.3971354,-0.358073 1.0091145,-0.358073 0.374349,0 0.6738282,0.136719 0.29947911,0.133463 0.46223953,0.397135 0.16276041,0.263672 0.16276041,0.576172 0,0.214844 -0.0748698,0.416667 -0.0748698,0.198568 -0.22460937,0.397135 -0.14648438,0.195313 -0.58593748,0.553386 l 0.2734375,0.218099 q 0.4785156,0.390625 0.64453122,0.673828 0.16601562,0.283203 0.16601562,0.634765 0,0.546875 -0.39713541,0.950521 -0.39713543,0.400391 -1.19140623,0.400391 -0.797526,0 -1.1946614,-0.374349 -0.3971354,-0.377604 -0.3971354,-0.934245 0,-0.830078 1.0611979,-1.56901 z m 0.6217447,-0.309245 q 0.4589844,-0.348307 0.5729167,-0.582682 0.1171875,-0.234375 0.1171875,-0.436198 0,-0.244141 -0.2148438,-0.442709 -0.2148437,-0.201823 -0.5533854,-0.201823 -0.3645833,0 -0.5566406,0.218099 -0.188802,0.218099 -0.188802,0.452474 0,0.227865 0.1595052,0.429688 0.1595052,0.201823 0.5110677,0.452474 z m -0.1660156,0.63151 q -0.859375,0.660808 -0.859375,1.236979 0,0.341797 0.2832032,0.576172 0.2832031,0.234375 0.6705729,0.234375 0.3548177,0 0.6347656,-0.224609 0.2799479,-0.224609 0.2799479,-0.559896 0,-0.328776 -0.3417969,-0.667318 -0.3385416,-0.338541 -0.4720052,-0.442708 z"
             style="font-size:6.66667px;font-family:Monaco;text-anchor:end;fill:#777777"
             id="path614" />
        </g>
        <g
           aria-label="24"
           id="text506"
           style="font-size:6.66667px;font-family:Monaco;text-anchor:end;fill:#777777"
           class="lcd-label">
          <path
             d="m -4.4531249,78 h -3.0566405 v -0.556641 q 0,-0.214843 0.087891,-0.458984 0.087891,-0.247396 0.3352864,-0.553385 0.2473959,-0.30599 0.5240886,-0.589193 l 0.345052,-0.351563 q 0.1041667,-0.107421 0.4557292,-0.498046 0.3515625,-0.390625 0.4622396,-0.598959 0.1139322,-0.208333 0.1139322,-0.410156 0,-0.325521 -0.2604166,-0.501302 -0.2604167,-0.179037 -0.5859375,-0.179037 -0.1855469,0 -0.4166667,0.04232 -0.2278645,0.04232 -0.4003906,0.100912 -0.172526,0.05534 -0.5598958,0.231119 v -0.537109 q 0.4101563,-0.195312 0.8203125,-0.266927 0.4134114,-0.07487 0.6803385,-0.07487 0.3938802,0 0.7226562,0.130209 0.3320313,0.126953 0.4915365,0.397135 0.1627604,0.270182 0.1627604,0.576172 0,0.341797 -0.2083333,0.69987 -0.2050781,0.358072 -0.7779948,0.921224 l -0.3710937,0.367838 -0.3125,0.30599 q -0.296224,0.299479 -0.4785156,0.579427 -0.1822917,0.279948 -0.201823,0.667317 h 2.4283854 z"
             style="font-size:6.66667px;font-family:Monaco;text-anchor:end;fill:#777777"
             id="path617" />
          <path
             d="m -1.6959635,78 v -1.41276 h -2.1451822 v -0.507813 l 2.1451822,-3.13151 h 0.608724 v 3.13151 h 0.93424473 V 76.58724 H -1.0872395 V 78 Z m 0,-1.920573 v -2.213541 l -1.500651,2.213541 z"
             style="font-size:6.66667px;font-family:Monaco;text-anchor:end;fill:#777777"
             id="path619" />
        </g>
        <g
           aria-label="36"
           id="text508"
           style="font-size:6.66667px;font-family:Monaco;text-anchor:end;fill:#777777"
           class="lcd-label">
          <path
             d="m -7.5227863,90.908854 v -0.638021 q 0.7454427,0.377605 1.2923177,0.377605 0.5013021,0 0.8268229,-0.302735 0.328776,-0.305989 0.328776,-0.784505 0,-0.481771 -0.3613281,-0.784505 -0.3580729,-0.302735 -1.2207031,-0.302735 h -0.3352864 v -0.504557 h 0.4654947 q 0.6347657,0 0.9179688,-0.283203 0.2832031,-0.286458 0.2832031,-0.634766 0,-0.315755 -0.2311198,-0.530599 -0.2311198,-0.218099 -0.7096354,-0.218099 -0.5371094,0 -1.1555989,0.302735 v -0.576172 q 0.6184895,-0.23112 1.1328124,-0.23112 0.921224,0 1.2695313,0.364584 0.3515625,0.361328 0.3515625,0.826822 0,0.345053 -0.1855469,0.647787 -0.1855469,0.302734 -0.6835937,0.540364 0.4394531,0.130209 0.6640624,0.319011 0.2246094,0.188802 0.3385417,0.445963 0.1171875,0.257162 0.1171875,0.576172 0,0.709636 -0.5273437,1.171875 -0.5240886,0.46224 -1.3574219,0.46224 -0.2408854,0 -0.5273437,-0.03581 -0.2832031,-0.03581 -0.6933594,-0.208333 z"
             style="font-size:6.66667px;font-family:Monaco;text-anchor:end;fill:#777777"
             id="path622" />
          <path
             d="m -3.0468749,88.630208 q 0.234375,-0.348307 0.5794271,-0.566406 0.3483072,-0.221354 0.7649739,-0.221354 0.3938802,0 0.74544269,0.192057 0.3548177,0.192058 0.54036457,0.53711 0.18554687,0.341797 0.18554687,0.797526 0,0.719401 -0.46223957,1.253255 -0.45898436,0.530599 -1.21093746,0.530599 -0.8854167,0 -1.3248698,-0.738932 -0.4361979,-0.742188 -0.4361979,-1.884766 0,-1.263021 0.5566406,-1.995443 0.5566406,-0.735677 1.5071615,-0.735677 0.5110677,0 0.99283847,0.14974 v 0.611979 q -0.54036457,-0.257162 -1.01888017,-0.257162 -0.6770833,0 -1.0481771,0.621745 Q -3.0468749,87.546224 -3.0468749,88.5 Z m 1.188151,2.01823 q 0.2441406,0 0.4915364,-0.14323 0.2473959,-0.146484 0.38736983,-0.445963 0.14322916,-0.302735 0.14322916,-0.657552 0,-0.46224 -0.24088539,-0.758464 -0.2376302,-0.296224 -0.6803385,-0.296224 -0.4589844,0 -0.7552084,0.345052 -0.2929687,0.341797 -0.2929687,0.833334 0,0.494791 0.2864583,0.810547 0.2897136,0.3125 0.6608073,0.3125 z"
             style="font-size:6.66667px;font-family:Monaco;text-anchor:end;fill:#777777"
             id="path624" />
        </g>
        <g
           aria-label="48"
           id="text510"
           style="font-size:6.66667px;font-family:Monaco;text-anchor:end;fill:#777777"
           class="lcd-label">
          <path
             d="m -5.6933592,104 v -1.41276 h -2.1451823 v -0.50781 l 2.1451823,-3.131513 h 0.6087239 v 3.131513 h 0.9342448 v 0.50781 H -5.0846353 V 104 Z m 0,-1.92057 v -2.213544 l -1.500651,2.213544 z"
             style="font-size:6.66667px;font-family:Monaco;text-anchor:end;fill:#777777"
             id="path627" />
          <path
             d="m -2.5032551,101.27539 -0.1106771,-0.0814 q -0.2311198,-0.16276 -0.452474,-0.47852 -0.2213541,-0.31901 -0.2213541,-0.69986 0,-0.504562 0.3971354,-0.85938 0.3971354,-0.358073 1.0091145,-0.358073 0.374349,0 0.6738282,0.136719 0.29947911,0.133463 0.46223953,0.397135 0.16276041,0.263672 0.16276041,0.576172 0,0.214847 -0.0748698,0.416667 -0.0748698,0.19857 -0.22460937,0.39714 -0.14648438,0.19531 -0.58593748,0.55338 l 0.2734375,0.2181 q 0.4785156,0.39062 0.64453122,0.67383 0.16601562,0.2832 0.16601562,0.63476 0,0.54688 -0.39713541,0.95052 -0.39713543,0.40039 -1.19140623,0.40039 -0.797526,0 -1.1946614,-0.37434 -0.3971354,-0.37761 -0.3971354,-0.93425 0,-0.83008 1.0611979,-1.56901 z m 0.6217447,-0.30924 q 0.4589844,-0.34831 0.5729167,-0.58269 0.1171875,-0.23437 0.1171875,-0.436194 0,-0.244141 -0.2148438,-0.442709 -0.2148437,-0.201823 -0.5533854,-0.201823 -0.3645833,0 -0.5566406,0.218099 -0.188802,0.218099 -0.188802,0.452474 0,0.227863 0.1595052,0.429683 0.1595052,0.20183 0.5110677,0.45248 z m -0.1660156,0.63151 q -0.859375,0.6608 -0.859375,1.23698 0,0.34179 0.2832032,0.57617 0.2832031,0.23437 0.6705729,0.23437 0.3548177,0 0.6347656,-0.22461 0.2799479,-0.22461 0.2799479,-0.55989 0,-0.32878 -0.3417969,-0.66732 -0.3385416,-0.33854 -0.4720052,-0.44271 z"
             style="font-size:6.66667px;font-family:Monaco;text-anchor:end;fill:#777777"
             id="path629" />
        </g>
      </g>
      <g
         transform="translate(-12)"
         id="g532">
        <path
           id="polyline514"
           style="fill:none;stroke:#707070;stroke-width:1"
           d="M 0,0 H 2"
           class="lcd-tick" />
        <path
           id="polyline516"
           style="fill:none;stroke:#707070;stroke-width:1"
           d="M 0,13 H 2"
           class="lcd-tick" />
        <path
           id="polyline518"
           style="fill:none;stroke:#707070;stroke-width:1"
           d="M 0,26 H 2"
           class="lcd-tick" />
        <path
           id="polyline520"
           style="fill:none;stroke:#707070;stroke-width:1"
           d="M 0,39 H 2"
           class="lcd-tick" />
        <path
           id="polyline522"
           style="fill:none;stroke:#707070;stroke-width:1"
           d="M 0,52 H 2"
           class="lcd-tick" />
        <path
           id="polyline524"
           style="fill:none;stroke:#707070;stroke-width:1"
           d="M 0,65 H 2"
           class="lcd-tick" />
        <path
           id="polyline526"
           style="fill:none;stroke:#707070;stroke-width:1"
           d="M 0,78 H 2"
           class="lcd-tick" />
        <path
           id="polyline528"
           style="fill:none;stroke:#707070;stroke-width:1"
           d="M 0,91 H 2"
           class="lcd-tick" />
        <path
           id="polyline530"
           style="fill:none;stroke:#707070;stroke-width:1"
           d="M 0,104 H 2"
           class="lcd-tick" />
      </g>
    </g>
  </g>
  <g
     id="use205"
     transform="translate(101,162)">
    <g
       transform="translate(12,12)"
       id="g544">
      <path
         id="circle538"
         style="fill:none;stroke:#121212"
         d="M 11.5,0 A 11.5,11.5 0 0 1 0,11.5 11.5,11.5 0 0 1 -11.5,0 11.5,11.5 0 0 1 0,-11.5 11.5,11.5 0 0 1 11.5,0 Z" />
      <path
         id="circle540"
         style="fill:url(#linearGradient548)"
         d="M 11,0 A 11,11 0 0 1 0,11 11,11 0 0 1 -11,0 11,11 0 0 1 0,-11 11,11 0 0 1 11,0 Z" />
      <path
         id="circle542"
         style="fill:url(#linearGradient550)"
         d="M 10,0 A 10,10 0 0 1 0,10 10,10 0 0 1 -10,0 10,10 0 0 1 0,-10 10,10 0 0 1 10,0 Z" />
    </g>
  </g>
  <g
     id="use209"
     transform="translate(101,191)">
    <g
       transform="translate(12,12)"
       id="g552" />
  </g>
  <g
     id="use213"
     transform="translate(104,223)">
    <g
       transform="translate(9,9)"
       id="g556" />
  </g>
  <path
     id="rect217"
     style="fill:#bbbbbb"
     d="m 94,247 h 31 c 1.662,0 3,1.338 3,3 v 51 c 0,1.662 -1.338,3 -3,3 H 94 c -1.662,0 -3,-1.338 -3,-3 v -51 c 0,-1.662 1.338,-3 3,-3 z"
     class="output" />
  <g
     aria-label="L"
     id="text219"
     style="font-size:8px;font-family:'DIN Alternate';text-anchor:middle;fill:#343434"
     class="label">
    <path
       d="m 94.875,263.5 h 3.636719 v -0.81641 h -2.773438 v -4.8789 H 94.875 Z"
       style="font-size:8px;font-family:'DIN Alternate';text-anchor:middle;fill:#343434"
       id="path586" />
  </g>
  <g
     id="use221"
     transform="translate(101,249)">
    <g
       transform="translate(12,12)"
       id="g560" />
  </g>
  <g
     aria-label="R"
     id="text225"
     style="font-size:8px;font-family:'DIN Alternate';text-anchor:middle;fill:#343434"
     class="label">
    <path
       d="m 95.527344,287.57422 h 1.351562 q 0.414063,0 0.632813,0.17578 0.277343,0.19922 0.285156,0.64453 0,0.37109 -0.238281,0.625 -0.242188,0.27344 -0.726563,0.28125 H 95.527344 Z M 94.664062,292.5 h 0.863282 v -2.43359 h 1.101562 L 97.804687,292.5 h 1.027344 l -1.320312,-2.52734 q 1.085937,-0.41797 1.101562,-1.57813 -0.02344,-0.78906 -0.566406,-1.21484 -0.449219,-0.375 -1.160156,-0.375 h -2.222657 z"
       style="font-size:8px;font-family:'DIN Alternate';text-anchor:middle;fill:#343434"
       id="path583" />
  </g>
  <g
     id="use227"
     transform="translate(101,278)">
    <g
       transform="translate(12,12)"
       id="g564" />
  </g>
  <path
     id="rect231"
     style="fill:#bbbbbb"
     d="m 94,305 h 31 c 1.662,0 3,1.338 3,3 v 51 c 0,1.662 -1.338,3 -3,3 H 94 c -1.662,0 -3,-1.338 -3,-3 v -51 c 0,-1.662 1.338,-3 3,-3 z"
     class="output" />
  <g
     aria-label="L"
     id="text233"
     style="font-size:8px;font-family:'DIN Alternate';text-anchor:middle;fill:#343434"
     class="label">
    <path
       d="m 94.875,321.5 h 3.636719 v -0.81641 h -2.773438 v -4.8789 H 94.875 Z"
       style="font-size:8px;font-family:'DIN Alternate';text-anchor:middle;fill:#343434"
       id="path579" />
  </g>
  <g
     id="use235"
     transform="translate(101,307)">
    <g
       transform="translate(12,12)"
       id="g568" />
  </g>
  <g
     aria-label="R"
     id="text239"
     style="font-size:8px;font-family:'DIN Alternate';text-anchor:middle;fill:#343434"
     class="label">
    <path
       d="m 95.527344,345.57422 h 1.351562 q 0.414063,0 0.632813,0.17578 0.277343,0.19922 0.285156,0.64453 0,0.37109 -0.238281,0.625 -0.242188,0.27344 -0.726563,0.28125 H 95.527344 Z M 94.664062,350.5 h 0.863282 v -2.43359 h 1.101562 L 97.804687,350.5 h 1.027344 l -1.320312,-2.52734 q 1.085937,-0.41797 1.101562,-1.57813 -0.02344,-0.78906 -0.566406,-1.21484 -0.449219,-0.375 -1.160156,-0.375 h -2.222657 z"
       style="font-size:8px;font-family:'DIN Alternate';text-anchor:middle;fill:#343434"
       id="path576" />
  </g>
  <g
     id="use241"
     transform="translate(101,336)">
    <g
       transform="translate(12,12)"
       id="g572" />
  </g>
</svg>
