<?xml version="1.0" encoding="UTF-8" standalone="no"?>
<svg
   xmlns:dc="http://purl.org/dc/elements/1.1/"
   xmlns:cc="http://creativecommons.org/ns#"
   xmlns:rdf="http://www.w3.org/1999/02/22-rdf-syntax-ns#"
   xmlns:svg="http://www.w3.org/2000/svg"
   xmlns="http://www.w3.org/2000/svg"
   xmlns:xlink="http://www.w3.org/1999/xlink"
   xmlns:sodipodi="http://sodipodi.sourceforge.net/DTD/sodipodi-0.dtd"
   xmlns:inkscape="http://www.inkscape.org/namespaces/inkscape"
   version="1.1"
   width="135"
   height="380"
   viewBox="0 0 135 380"
   id="svg221"
   sodipodi:docname="FOO.svg"
   inkscape:version="1.0.2 (e86c8708, 2021-01-15)">
  <metadata
     id="metadata225">
    <rdf:RDF>
      <cc:Work
         rdf:about="">
        <dc:format>image/svg+xml</dc:format>
        <dc:type
           rdf:resource="http://purl.org/dc/dcmitype/StillImage" />
      </cc:Work>
    </rdf:RDF>
  </metadata>
  <sodipodi:namedview
     pagecolor="#ffffff"
     bordercolor="#666666"
     borderopacity="1"
     objecttolerance="10"
     gridtolerance="10"
     guidetolerance="10"
     inkscape:pageopacity="0"
     inkscape:pageshadow="2"
     inkscape:window-width="689"
     inkscape:window-height="480"
     id="namedview223"
     showgrid="false"
     inkscape:zoom="2.1763158"
     inkscape:cx="67.5"
     inkscape:cy="190"
     inkscape:window-x="0"
     inkscape:window-y="25"
     inkscape:window-maximized="0"
     inkscape:current-layer="svg221" />
  <style
     id="style2">
    text.title {
      fill: #ebdbb2;
      font-family: 'DIN Alternate';
      font-size: 12pt;
    }
    text.logo {
      fill: #ebdbb2;
      font-family: 'DIN Alternate';
      font-size: 10pt;
    }
    text.big-label {
      fill: #ebdbb2;
      font-family: 'DIN Alternate';
      font-size: 7.5pt;
    }
    text.label {
      fill: #ebdbb2;
      font-family: 'DIN Alternate';
      font-size: 6pt;
    }
    text.led-label {
      fill: #87796c;
      font-family: 'DIN Alternate';
      font-size: 6pt;
    }
    .background {
      fill: #3c3836;
    }
    .output {
      fill: #665c54;
    }
    polyline.icon {
      stroke: #ebdbb2;
      stroke-width: 1.2;
      fill: none;
    }
    polyline.connect {
      stroke: #ebdbb2;
      stroke-width: 1;
      fill: none;
    }

    .blueprint {
      stroke: #838598;
      fill: none;
    }
  </style>
  <!-- ======== defs ======== -->
  <defs
     id="defs41">
    <linearGradient
       id="smallKnobMediumGradient">
      <stop
         offset="5%"
         stop-color="#665c54"
         id="stop4" />
      <stop
         offset="95%"
         stop-color="#282828"
         id="stop6" />
    </linearGradient>
    <linearGradient
       id="smallKnobDarkGradient">
      <stop
         offset="5%"
         stop-color="#504945"
         id="stop9" />
      <stop
         offset="95%"
         stop-color="#1d2021"
         id="stop11" />
    </linearGradient>
    <symbol
       id="knob18">
      <g
         transform="translate(9 9)"
         id="g20">
        <circle
           r="8.5"
           stroke="#222"
           fill="none"
           id="circle14" />
        <circle
           r="8"
           fill="url('#smallKnobMediumGradient')"
           transform="rotate(90)"
           id="circle16" />
        <circle
           r="7"
           fill="url('#smallKnobDarkGradient')"
           transform="rotate(90)"
           id="circle18" />
      </g>
    </symbol>
    <symbol
       id="knob24">
      <g
         transform="translate(12 12)"
         id="g29">
        <circle
           r="11.5"
           stroke="#121212"
           fill="none"
           id="circle23" />
        <circle
           r="11"
           fill="url('#smallKnobMediumGradient')"
           transform="rotate(90)"
           id="circle25" />
        <circle
           r="10"
           fill="url('#smallKnobDarkGradient')"
           transform="rotate(90)"
           id="circle27" />
      </g>
    </symbol>
    <symbol
       id="toggleButton">
      <g
         transform="translate(9 9)"
         id="g32" />
    </symbol>
    <symbol
       id="port">
      <g
         transform="translate(12 12)"
         id="g35" />
    </symbol>
    <symbol
       id="led-strip">
      <g
         transform="translate(5 2.5)"
         id="g38" />
    </symbol>
    <linearGradient
       inkscape:collect="always"
       xlink:href="#smallKnobMediumGradient"
       id="linearGradient295"
       x1="-11"
       y1="-11"
       x2="11"
       y2="-11"
       gradientUnits="userSpaceOnUse" />
    <linearGradient
       inkscape:collect="always"
       xlink:href="#smallKnobDarkGradient"
       id="linearGradient297"
       x1="-10"
       y1="-10"
       x2="10"
       y2="-10"
       gradientUnits="userSpaceOnUse" />
    <linearGradient
       inkscape:collect="always"
       xlink:href="#smallKnobMediumGradient"
       id="linearGradient317"
       x1="-11"
       y1="-11"
       x2="11"
       y2="-11"
       gradientUnits="userSpaceOnUse" />
    <linearGradient
       inkscape:collect="always"
       xlink:href="#smallKnobDarkGradient"
       id="linearGradient319"
       x1="-10"
       y1="-10"
       x2="10"
       y2="-10"
       gradientUnits="userSpaceOnUse" />
    <linearGradient
       inkscape:collect="always"
       xlink:href="#smallKnobMediumGradient"
       id="linearGradient343"
       x1="-11"
       y1="-11"
       x2="11"
       y2="-11"
       gradientUnits="userSpaceOnUse" />
    <linearGradient
       inkscape:collect="always"
       xlink:href="#smallKnobDarkGradient"
       id="linearGradient345"
       x1="-10"
       y1="-10"
       x2="10"
       y2="-10"
       gradientUnits="userSpaceOnUse" />
    <linearGradient
       inkscape:collect="always"
       xlink:href="#smallKnobMediumGradient"
       id="linearGradient365"
       x1="-11"
       y1="-11"
       x2="11"
       y2="-11"
       gradientUnits="userSpaceOnUse" />
    <linearGradient
       inkscape:collect="always"
       xlink:href="#smallKnobDarkGradient"
       id="linearGradient367"
       x1="-10"
       y1="-10"
       x2="10"
       y2="-10"
       gradientUnits="userSpaceOnUse" />
    <linearGradient
       inkscape:collect="always"
       xlink:href="#smallKnobMediumGradient"
       id="linearGradient391"
       x1="-11"
       y1="-11"
       x2="11"
       y2="-11"
       gradientUnits="userSpaceOnUse" />
    <linearGradient
       inkscape:collect="always"
       xlink:href="#smallKnobDarkGradient"
       id="linearGradient393"
       x1="-10"
       y1="-10"
       x2="10"
       y2="-10"
       gradientUnits="userSpaceOnUse" />
  </defs>
  <!-- ======== body ======== -->
  <path
     id="rect43"
     style="fill:#3c3836"
     d="M 0,0 H 135 V 380 H 0 Z"
     class="background" />
  <g
     aria-label="FOO"
     id="text45"
     style="font-size:16px;font-family:'DIN Alternate';text-anchor:middle;fill:#ebdbb2"
     class="title">
    <path
       d="m 54.65625,16 h 1.726562 v -4.867187 h 4.734375 V 9.6015625 h -4.734375 v -3.359375 h 5.546875 V 4.609375 H 54.65625 Z"
       style="font-size:16px;font-family:'DIN Alternate';text-anchor:middle;fill:#ebdbb2"
       id="path503" />
    <path
       d="m 62.859375,10.304688 q 0,1.953125 0.117187,2.640625 0.0625,0.367187 0.15625,0.609375 0.101563,0.234375 0.226563,0.492187 0.414062,0.789063 1.328125,1.390625 0.898437,0.625 2.242187,0.65625 1.359375,-0.03125 2.265625,-0.65625 0.898438,-0.601562 1.296875,-1.390625 0.289063,-0.414062 0.398438,-1.101562 0.101562,-0.6875 0.101562,-2.640625 0,-1.9843755 -0.101562,-2.6562505 Q 70.78125,6.9765625 70.492187,6.5625 70.09375,5.7734375 69.195312,5.15625 68.289062,4.53125 66.929687,4.515625 65.585937,4.53125 64.6875,5.15625 63.773437,5.7734375 63.359375,6.5625 63.101562,6.9765625 62.976562,7.6484375 62.859375,8.3203125 62.859375,10.304688 Z m 1.734375,0 q 0,-1.679688 0.125,-2.289063 Q 64.828125,7.4375 65.164062,7.0703125 65.4375,6.71875 65.882812,6.484375 66.320312,6.2578125 66.929687,6.2421875 67.546875,6.2578125 68,6.484375 68.429687,6.71875 68.6875,7.0703125 69.023437,7.4375 69.148437,8.015625 q 0.117188,0.609375 0.117188,2.289063 0,1.679687 -0.117188,2.273437 -0.125,0.59375 -0.460937,0.960938 -0.257813,0.351562 -0.6875,0.570312 -0.453125,0.257813 -1.070313,0.257813 -0.609375,0 -1.046875,-0.257813 -0.445312,-0.21875 -0.71875,-0.570312 -0.335937,-0.367188 -0.445312,-0.960938 -0.125,-0.59375 -0.125,-2.273437 z"
       style="font-size:16px;font-family:'DIN Alternate';text-anchor:middle;fill:#ebdbb2"
       id="path505" />
    <path
       d="m 72.609375,10.304688 q 0,1.953125 0.117187,2.640625 0.0625,0.367187 0.15625,0.609375 0.101563,0.234375 0.226563,0.492187 0.414062,0.789063 1.328125,1.390625 0.898437,0.625 2.242187,0.65625 1.359375,-0.03125 2.265625,-0.65625 0.898438,-0.601562 1.296875,-1.390625 0.289063,-0.414062 0.398438,-1.101562 0.101562,-0.6875 0.101562,-2.640625 0,-1.9843755 -0.101562,-2.6562505 Q 80.53125,6.9765625 80.242187,6.5625 79.84375,5.7734375 78.945312,5.15625 78.039062,4.53125 76.679687,4.515625 75.335937,4.53125 74.4375,5.15625 73.523437,5.7734375 73.109375,6.5625 72.851562,6.9765625 72.726562,7.6484375 72.609375,8.3203125 72.609375,10.304688 Z m 1.734375,0 q 0,-1.679688 0.125,-2.289063 Q 74.578125,7.4375 74.914062,7.0703125 75.1875,6.71875 75.632812,6.484375 76.070312,6.2578125 76.679687,6.2421875 77.296875,6.2578125 77.75,6.484375 78.179687,6.71875 78.4375,7.0703125 78.773437,7.4375 78.898437,8.015625 q 0.117188,0.609375 0.117188,2.289063 0,1.679687 -0.117188,2.273437 -0.125,0.59375 -0.460937,0.960938 -0.257813,0.351562 -0.6875,0.570312 -0.453125,0.257813 -1.070313,0.257813 -0.609375,0 -1.046875,-0.257813 -0.445312,-0.21875 -0.71875,-0.570312 -0.335937,-0.367188 -0.445312,-0.960938 -0.125,-0.59375 -0.125,-2.273437 z"
       style="font-size:16px;font-family:'DIN Alternate';text-anchor:middle;fill:#ebdbb2"
       id="path507" />
  </g>
  <g
     aria-label="RM"
     id="text47"
     style="font-size:13.3333px;font-family:'DIN Alternate';text-anchor:middle;fill:#ebdbb2"
     class="logo">
    <path
       d="m 60.826823,367.79036 h 2.252604 q 0.690104,0 1.054688,0.29297 0.462239,0.33203 0.47526,1.07422 0,0.61849 -0.397135,1.04167 -0.403646,0.45573 -1.210938,0.46875 H 60.826823 Z M 59.388021,376 h 1.438802 v -4.05599 h 1.835938 L 64.622396,376 h 1.712239 l -2.20052,-4.21224 q 1.809895,-0.69661 1.835937,-2.63021 -0.03906,-1.3151 -0.94401,-2.02474 -0.748698,-0.625 -1.933594,-0.625 h -3.704427 z"
       style="font-size:13.3333px;font-family:'DIN Alternate';text-anchor:middle;fill:#ebdbb2"
       id="path498" />
    <path
       d="m 67.513021,376 h 1.438802 v -5.91797 h 0.02604 l 1.985677,4.55729 h 1.197916 l 1.985677,-4.55729 h 0.03255 V 376 h 1.438802 v -9.49219 h -1.360677 l -2.669271,6.1849 v 0 l -2.721354,-6.1849 h -1.354167 z"
       style="font-size:13.3333px;font-family:'DIN Alternate';text-anchor:middle;fill:#ebdbb2"
       id="path500" />
  </g>
  <path
     id="rect49"
     style="fill:#121212"
     d="M 0,35 H 135 V 151 H 0 Z" />
  <g
     transform="translate(14,46.5)"
     id="g67">
    <g
       aria-label="0"
       id="text51"
       style="font-size:8px;font-family:'DIN Alternate';text-anchor:end;fill:#87796c"
       class="led-label">
      <path
         d="m -1.125,-1.640625 q -0.023437,0.86328125 -0.8007812,0.87109375 -0.7812501,-0.007813 -0.7968751,-0.87109375 v -2.4140625 q 0.015625,-0.8554687 0.7968751,-0.8710937 0.7773437,0.015625 0.8007812,0.8710937 z m -2.4140625,0.046875 q 0.00781,0.78515625 0.5039062,1.2109375 0.4648438,0.421875 1.1093751,0.4296875 0.6640625,-0.0078125 1.1289062,-0.4296875 0.47265625,-0.42578125 0.48828125,-1.2109375 v -2.5117187 q -0.015625,-0.7890625 -0.48828125,-1.2148438 -0.4648437,-0.421875 -1.1289062,-0.421875 -0.6445313,0 -1.1093751,0.421875 -0.4960937,0.4257813 -0.5039062,1.2148438 z"
         style="font-size:8px;font-family:'DIN Alternate';text-anchor:end;fill:#87796c"
         id="path451" />
    </g>
    <g
       aria-label="-3"
       id="text53"
       style="font-size:8px;font-family:'DIN Alternate';text-anchor:end;fill:#87796c"
       class="led-label">
      <path
         d="m -6.6679687,12.191406 h 2.40625 V 11.375 h -2.40625 z"
         style="font-size:8px;font-family:'DIN Alternate';text-anchor:end;fill:#87796c"
         id="path454" />
      <path
         d="m -2.4375,11.425781 h 0.34375 q 0.3789063,0 0.625,0.230469 0.25,0.238281 0.2578125,0.671875 -0.00781,0.425781 -0.2578125,0.65625 -0.2460937,0.246094 -0.6054688,0.246094 -0.3359375,0 -0.5390625,-0.183594 Q -2.8125,12.871094 -2.921875,12.585938 h -0.8164063 q 0.1328125,0.710937 0.5820313,1.085937 0.4492187,0.375 1.03125,0.375 0.7539063,-0.0078 1.234375,-0.480469 0.48828125,-0.460937 0.49609375,-1.261718 0,-0.359375 -0.15234375,-0.6875 -0.16015625,-0.328125 -0.5195312,-0.5625 0.35156245,-0.238282 0.4882812,-0.542969 0.1171875,-0.304688 0.1171875,-0.6328127 -0.007813,-0.6484375 -0.4453125,-1.125 -0.4570312,-0.4882813 -1.234375,-0.4960938 -0.6132813,0.00781 -1.0546875,0.4375 -0.4492188,0.4335938 -0.5117188,1.0664063 H -2.890625 Q -2.8125,9.4101563 -2.5859375,9.2421875 -2.3710938,9.0742188 -2.109375,9.0742188 q 0.3632813,0.00781 0.59375,0.2304687 0.2304688,0.2304688 0.2382813,0.5898438 0,0.3554687 -0.2304688,0.5781247 -0.2304687,0.230469 -0.6484375,0.230469 H -2.4375 Z"
         style="font-size:8px;font-family:'DIN Alternate';text-anchor:end;fill:#87796c"
         id="path456" />
    </g>
    <g
       aria-label="-6"
       id="text55"
       style="font-size:8px;font-family:'DIN Alternate';text-anchor:end;fill:#87796c"
       class="led-label">
      <path
         d="m -6.6679687,26.191406 h 2.40625 V 25.375 h -2.40625 z"
         style="font-size:8px;font-family:'DIN Alternate';text-anchor:end;fill:#87796c"
         id="path459" />
      <path
         d="m -0.875,22.246094 q 0.003906,0 -0.0390625,0.08594 -0.0390625,0.08203 -0.109375,0.226563 -0.070312,0.144531 -0.1640625,0.332031 -0.09375,0.1875 -0.1992187,0.394531 -0.1015625,0.207031 -0.2109375,0.417969 -0.1054688,0.210937 -0.2070313,0.402344 -0.097656,0.191406 -0.1796875,0.347656 -0.082031,0.15625 -0.1367188,0.25 0.1132813,-0.06641 0.2539063,-0.07813 0.1445313,-0.01563 0.3320313,-0.0078 0.2695312,0.0078 0.46875,0.09375 0.20312495,0.08594 0.3476562,0.214844 0.14453125,0.128906 0.23828125,0.289063 0.0976563,0.15625 0.15234375,0.308593 0.0546875,0.148438 0.0742188,0.28125 0.0234375,0.128907 0.0234375,0.203125 0,0.02344 0,0.08594 0,0.0625 0,0.140625 0,0.07422 -0.003906,0.152344 0,0.07813 -0.003906,0.132812 -0.003906,0.02734 -0.0273438,0.144531 -0.0195313,0.113282 -0.078125,0.273438 -0.0546875,0.15625 -0.16015625,0.339844 -0.10546875,0.179687 -0.27734375,0.34375 -0.171875,0.160156 -0.4179687,0.277343 -0.2460938,0.117188 -0.5859375,0.144532 -0.3554688,0.03125 -0.6289063,-0.04687 Q -2.6875,27.917969 -2.8867188,27.773437 -3.0859375,27.628906 -3.21875,27.441406 -3.3515625,27.25 -3.4296875,27.050781 -3.5039063,26.851562 -3.53125,26.667969 q -0.023437,-0.183594 -0.00781,-0.3125 0.023437,-0.191407 0.050781,-0.339844 0.027344,-0.152344 0.0625,-0.289063 0.039063,-0.136718 0.085937,-0.269531 0.046875,-0.132812 0.109375,-0.289062 0.015625,-0.03906 0.085937,-0.183594 0.070312,-0.148438 0.171875,-0.363281 0.1054688,-0.214844 0.234375,-0.472657 0.1289063,-0.257812 0.2578125,-0.523437 0.3046875,-0.617188 0.6835938,-1.378906 z m -0.1640625,4.167968 q 0,-0.148437 -0.011719,-0.328125 -0.011719,-0.179687 -0.089844,-0.339843 -0.074219,-0.164063 -0.2460937,-0.28125 -0.171875,-0.117188 -0.4882813,-0.140625 -0.1484375,-0.01172 -0.2695313,0.03125 -0.1210937,0.04297 -0.2148437,0.117187 -0.09375,0.07422 -0.1640625,0.171875 -0.066406,0.09375 -0.1132813,0.1875 -0.042969,0.09375 -0.0625,0.175781 -0.019531,0.07813 -0.019531,0.121094 0,0.09766 0.00391,0.21875 0.00391,0.117188 0.023437,0.238281 0.023437,0.117188 0.074219,0.230469 0.050781,0.109375 0.1445312,0.195313 0.09375,0.08594 0.2382813,0.140625 0.1484375,0.05469 0.3671875,0.05469 0.1757813,0.0039 0.3046875,-0.04297 0.1328125,-0.05078 0.2226563,-0.125 0.09375,-0.07813 0.1523437,-0.171875 0.058594,-0.09375 0.089844,-0.183593 0.035156,-0.08984 0.046875,-0.160157 0.011719,-0.07422 0.011719,-0.109375 z"
         style="font-size:8px;font-family:'DIN Alternate';text-anchor:end;fill:#87796c"
         id="path461" />
    </g>
    <g
       aria-label="-9"
       id="text57"
       style="font-size:8px;font-family:'DIN Alternate';text-anchor:end;fill:#87796c"
       class="led-label">
      <path
         d="m -6.6679687,40.191406 h 2.40625 V 39.375 h -2.40625 z"
         style="font-size:8px;font-family:'DIN Alternate';text-anchor:end;fill:#87796c"
         id="path464" />
      <path
         d="m -3,42 q -0.00391,0 0.066406,-0.140625 0.070312,-0.144531 0.1835938,-0.371094 0.1132812,-0.226562 0.2539062,-0.503906 0.140625,-0.277344 0.2773438,-0.546875 0.1367187,-0.269531 0.2539063,-0.496094 0.1210937,-0.226562 0.1953125,-0.355469 -0.1132813,0.06641 -0.2578126,0.08203 -0.140625,0.01172 -0.328125,0.0039 -0.2578125,-0.0078 -0.453125,-0.09375 Q -3,39.492187 -3.140625,39.363281 -3.28125,39.234375 -3.375,39.078125 q -0.09375,-0.160156 -0.1523438,-0.308594 -0.054687,-0.152344 -0.082031,-0.28125 -0.023437,-0.132812 -0.023437,-0.207031 0,-0.02344 -0.00391,-0.08594 0,-0.0625 0,-0.136718 0,-0.07813 0,-0.15625 0.00391,-0.07813 0.011719,-0.132813 0.00391,-0.02734 0.023437,-0.136719 0.023437,-0.113281 0.082031,-0.269531 0.058594,-0.15625 0.1640625,-0.332031 0.1054688,-0.179688 0.2734375,-0.335938 0.171875,-0.15625 0.4179688,-0.269531 0.25,-0.113281 0.5898437,-0.144531 0.3554688,-0.03125 0.6250001,0.04297 0.2734375,0.07422 0.46874995,0.214843 0.1953125,0.140625 0.32421875,0.328125 0.12890625,0.1875 0.19921875,0.382813 0.0742188,0.191406 0.0976563,0.375 0.0234375,0.179687 0.007813,0.308594 Q -0.375,38.125 -0.40234375,38.277344 -0.4296875,38.425781 -0.46875,38.5625 q -0.0351563,0.136719 -0.0820313,0.269531 -0.046875,0.132813 -0.109375,0.289063 -0.015625,0.04297 -0.0859375,0.1875 -0.0664063,0.144531 -0.171875,0.355468 -0.10156245,0.207032 -0.22656245,0.464844 -0.1210938,0.253906 -0.25,0.511719 Q -1.6953125,41.25 -2.0664063,42 Z m 0.1757812,-4.125 q 0,0.152344 0.015625,0.335937 0.015625,0.183594 0.089844,0.347657 0.078125,0.160156 0.2421875,0.277343 0.1640625,0.113282 0.4609375,0.128907 0.1484375,0.0078 0.2695313,-0.03516 0.1210937,-0.04687 0.2148437,-0.121093 0.09375,-0.07422 0.1601563,-0.167969 0.070312,-0.09375 0.1132812,-0.183594 0.046875,-0.09375 0.066406,-0.171875 0.019531,-0.07813 0.019531,-0.125 -0.00391,-0.09766 -0.00781,-0.21875 0,-0.121094 -0.023437,-0.246094 -0.019531,-0.125 -0.070312,-0.238281 -0.050781,-0.117187 -0.1445312,-0.203125 -0.09375,-0.08594 -0.2421875,-0.132812 -0.1445313,-0.05078 -0.3632813,-0.03906 -0.2421875,0.01172 -0.3984375,0.121094 -0.1523438,0.109375 -0.2421875,0.242187 -0.089844,0.132813 -0.125,0.257813 -0.035156,0.125 -0.035156,0.171875 z"
         style="font-size:8px;font-family:'DIN Alternate';text-anchor:end;fill:#87796c"
         id="path466" />
    </g>
    <g
       aria-label="-12"
       id="text59"
       style="font-size:8px;font-family:'DIN Alternate';text-anchor:end;fill:#87796c"
       class="led-label">
      <path
         d="m -10.511719,54.191406 h 2.4062502 V 53.375 h -2.4062502 z"
         style="font-size:8px;font-family:'DIN Alternate';text-anchor:end;fill:#87796c"
         id="path469" />
      <path
         d="M -6.1367187,51.167969 V 56 h 0.8164062 v -5.695313 h -0.8164062 l -0.8085938,0.589844 v 0.867188 0 l 0.8085938,-0.59375 z"
         style="font-size:8px;font-family:'DIN Alternate';text-anchor:end;fill:#87796c"
         id="path471" />
      <path
         d="m -3.5859375,56 h 3.24609375 V 55.183594 H -2.515625 l 1.83203125,-2.296875 q 0.34375,-0.4375 0.34375,-1 -0.007813,-0.703125 -0.47265625,-1.160157 -0.4570312,-0.460937 -1.1914063,-0.46875 -0.65625,0.0078 -1.1054687,0.460938 -0.4453125,0.464844 -0.4765625,1.175781 h 0.8125 Q -2.7304688,51.503906 -2.5,51.289062 q 0.2226562,-0.214843 0.5585938,-0.214843 0.3789062,0.0078 0.5859375,0.246093 0.1992187,0.238282 0.1992187,0.558594 0,0.121094 -0.03125,0.257813 -0.046875,0.144531 -0.1757812,0.3125 l -2.2226563,2.78125 z"
         style="font-size:8px;font-family:'DIN Alternate';text-anchor:end;fill:#87796c"
         id="path473" />
    </g>
    <g
       aria-label="-18"
       id="text61"
       style="font-size:8px;font-family:'DIN Alternate';text-anchor:end;fill:#87796c"
       class="led-label">
      <path
         d="m -10.511719,68.191406 h 2.4062502 V 67.375 h -2.4062502 z"
         style="font-size:8px;font-family:'DIN Alternate';text-anchor:end;fill:#87796c"
         id="path476" />
      <path
         d="M -6.1367187,65.167969 V 70 h 0.8164062 v -5.695313 h -0.8164062 l -0.8085938,0.589844 v 0.867188 0 l 0.8085938,-0.59375 z"
         style="font-size:8px;font-family:'DIN Alternate';text-anchor:end;fill:#87796c"
         id="path478" />
      <path
         d="m -2.7382813,65.886719 q 0.00781,-0.40625 0.2539063,-0.613282 0.2421875,-0.199218 0.5585938,-0.199218 0.328125,0 0.5703125,0.199218 0.2382812,0.207032 0.2460937,0.613282 -0.00781,0.394531 -0.2460937,0.601562 -0.2421875,0.214844 -0.5703125,0.214844 -0.3164063,0 -0.5585938,-0.214844 -0.2460938,-0.207031 -0.2539063,-0.601562 z m -0.921875,2.449218 q 0.00781,0.769532 0.5195313,1.230469 0.4882812,0.472656 1.2148438,0.480469 0.7304687,-0.0078 1.23437495,-0.480469 0.49609375,-0.460937 0.50390625,-1.230469 -0.007813,-0.824218 -0.671875,-1.28125 0.25390625,-0.222656 0.4140625,-0.511718 0.15234375,-0.269532 0.15234375,-0.640625 -0.007813,-0.710938 -0.46484375,-1.175782 -0.453125,-0.460937 -1.1679687,-0.46875 -0.7031251,0.0078 -1.1484376,0.46875 -0.4726562,0.464844 -0.4804687,1.175782 0,0.371093 0.1679687,0.640625 0.1445313,0.289062 0.3984375,0.511718 -0.6640625,0.457032 -0.671875,1.28125 z m 0.8164063,-0.0078 q 0.00781,-0.398438 0.28125,-0.648438 0.2617187,-0.246093 0.6367188,-0.253906 0.3867187,0.0078 0.6484375,0.253906 0.265625,0.25 0.2734375,0.648438 -0.00781,0.390625 -0.2734375,0.640625 -0.2617188,0.261719 -0.6484375,0.261719 -0.3750001,0 -0.6367188,-0.261719 -0.2734375,-0.25 -0.28125,-0.640625 z"
         style="font-size:8px;font-family:'DIN Alternate';text-anchor:end;fill:#87796c"
         id="path480" />
    </g>
    <g
       aria-label="-24"
       id="text63"
       style="font-size:8px;font-family:'DIN Alternate';text-anchor:end;fill:#87796c"
       class="led-label">
      <path
         d="m -10.511719,82.191406 h 2.4062502 V 81.375 h -2.4062502 z"
         style="font-size:8px;font-family:'DIN Alternate';text-anchor:end;fill:#87796c"
         id="path483" />
      <path
         d="m -7.4296875,84 h 3.2460938 V 83.183594 H -6.359375 l 1.8320313,-2.296875 q 0.34375,-0.4375 0.34375,-1 -0.00781,-0.703125 -0.4726563,-1.160157 -0.4570312,-0.460937 -1.1914062,-0.46875 -0.65625,0.0078 -1.1054688,0.460938 -0.4453125,0.464844 -0.4765625,1.175781 h 0.8125 q 0.042969,-0.390625 0.2734375,-0.605469 0.2226563,-0.214843 0.5585938,-0.214843 0.3789062,0.0078 0.5859375,0.246093 Q -5,79.558594 -5,79.878906 -5,80 -5.03125,80.136719 q -0.046875,0.144531 -0.1757812,0.3125 l -2.2226563,2.78125 z"
         style="font-size:8px;font-family:'DIN Alternate';text-anchor:end;fill:#87796c"
         id="path485" />
      <path
         d="m -3.7460938,83.152344 h 2.3750001 V 84 h 0.8164062 v -0.847656 h 0.453125 v -0.769532 h -0.453125 v -1.636718 h -0.8164062 v 1.636718 H -2.859375 l 1.92578125,-4.078125 H -1.84375 l -1.9023438,4.078125 z"
         style="font-size:8px;font-family:'DIN Alternate';text-anchor:end;fill:#87796c"
         id="path487" />
    </g>
    <g
       aria-label="-36"
       id="text65"
       style="font-size:8px;font-family:'DIN Alternate';text-anchor:end;fill:#87796c"
       class="led-label">
      <path
         d="m -10.511719,96.191406 h 2.4062502 V 95.375 h -2.4062502 z"
         style="font-size:8px;font-family:'DIN Alternate';text-anchor:end;fill:#87796c"
         id="path490" />
      <path
         d="m -6.28125,95.425781 h 0.34375 q 0.3789063,0 0.625,0.230469 0.25,0.238281 0.2578125,0.671875 -0.00781,0.425781 -0.2578125,0.65625 -0.2460937,0.246094 -0.6054687,0.246094 -0.3359375,0 -0.5390625,-0.183594 Q -6.65625,96.871094 -6.765625,96.585937 H -7.5820312 Q -7.4492187,97.296875 -7,97.671875 q 0.4492188,0.375 1.03125,0.375 0.7539063,-0.0078 1.234375,-0.480469 0.4882813,-0.460937 0.4960938,-1.261719 0,-0.359375 -0.1523438,-0.6875 -0.1601562,-0.328125 -0.5195312,-0.5625 0.3515625,-0.238281 0.4882812,-0.542968 0.1171875,-0.304688 0.1171875,-0.632813 -0.00781,-0.648437 -0.4453125,-1.125 -0.4570312,-0.488281 -1.234375,-0.496094 -0.6132812,0.0078 -1.0546875,0.4375 -0.4492187,0.433594 -0.5117187,1.066407 h 0.8164062 q 0.078125,-0.351563 0.3046875,-0.519532 0.2148438,-0.167968 0.4765625,-0.167968 0.3632813,0.0078 0.59375,0.230468 0.2304688,0.230469 0.2382813,0.589844 0,0.355469 -0.2304688,0.578125 Q -5.5820312,94.703125 -6,94.703125 h -0.28125 z"
         style="font-size:8px;font-family:'DIN Alternate';text-anchor:end;fill:#87796c"
         id="path492" />
      <path
         d="m -0.875,92.246094 q 0.003906,0 -0.0390625,0.08594 -0.0390625,0.08203 -0.109375,0.226563 -0.070312,0.144531 -0.1640625,0.332031 -0.09375,0.1875 -0.1992187,0.394531 -0.1015625,0.207031 -0.2109375,0.417969 -0.1054688,0.210937 -0.2070313,0.402344 -0.097656,0.191406 -0.1796875,0.347656 -0.082031,0.15625 -0.1367188,0.25 0.1132813,-0.06641 0.2539063,-0.07813 0.1445313,-0.01563 0.3320313,-0.0078 0.2695312,0.0078 0.46875,0.09375 0.20312495,0.08594 0.3476562,0.214844 0.14453125,0.128906 0.23828125,0.289063 0.0976563,0.15625 0.15234375,0.308593 0.0546875,0.148438 0.0742188,0.28125 0.0234375,0.128907 0.0234375,0.203125 0,0.02344 0,0.08594 0,0.0625 0,0.140625 0,0.07422 -0.003906,0.152344 0,0.07813 -0.003906,0.132812 -0.003906,0.02734 -0.0273438,0.144531 -0.0195313,0.113282 -0.078125,0.273438 -0.0546875,0.15625 -0.16015625,0.339844 -0.10546875,0.179687 -0.27734375,0.34375 -0.171875,0.160156 -0.4179687,0.277343 -0.2460938,0.117188 -0.5859375,0.144532 -0.3554688,0.03125 -0.6289063,-0.04687 Q -2.6875,97.917969 -2.8867188,97.773437 -3.0859375,97.628906 -3.21875,97.441406 -3.3515625,97.25 -3.4296875,97.050781 -3.5039063,96.851562 -3.53125,96.667969 q -0.023437,-0.183594 -0.00781,-0.3125 0.023437,-0.191407 0.050781,-0.339844 0.027344,-0.152344 0.0625,-0.289063 0.039063,-0.136718 0.085937,-0.269531 0.046875,-0.132812 0.109375,-0.289062 0.015625,-0.03906 0.085937,-0.183594 0.070312,-0.148438 0.171875,-0.363281 0.1054688,-0.214844 0.234375,-0.472657 0.1289063,-0.257812 0.2578125,-0.523437 0.3046875,-0.617188 0.6835938,-1.378906 z m -0.1640625,4.167968 q 0,-0.148437 -0.011719,-0.328125 -0.011719,-0.179687 -0.089844,-0.339843 -0.074219,-0.164063 -0.2460937,-0.28125 -0.171875,-0.117188 -0.4882813,-0.140625 -0.1484375,-0.01172 -0.2695313,0.03125 -0.1210937,0.04297 -0.2148437,0.117187 -0.09375,0.07422 -0.1640625,0.171875 -0.066406,0.09375 -0.1132813,0.1875 -0.042969,0.09375 -0.0625,0.175781 -0.019531,0.07813 -0.019531,0.121094 0,0.09766 0.00391,0.21875 0.00391,0.117188 0.023437,0.238281 0.023437,0.117188 0.074219,0.230469 0.050781,0.109375 0.1445312,0.195313 0.09375,0.08594 0.2382813,0.140625 0.1484375,0.05469 0.3671875,0.05469 0.1757813,0.0039 0.3046875,-0.04297 0.1328125,-0.05078 0.2226563,-0.125 0.09375,-0.07813 0.1523437,-0.171875 0.058594,-0.09375 0.089844,-0.183593 0.035156,-0.08984 0.046875,-0.160157 0.011719,-0.07422 0.011719,-0.109375 z"
         style="font-size:8px;font-family:'DIN Alternate';text-anchor:end;fill:#87796c"
         id="path494" />
    </g>
  </g>
  <!-- labels -->
  <g
     transform="translate(10,168)"
     id="g73">
    <g
       aria-label="V"
       id="text71"
       style="font-size:8px;font-family:'DIN Alternate';text-anchor:middle;fill:#ebdbb2"
       class="label">
      <path
         d="m -0.33984375,3 h 0.671875 L 2.2148438,-2.6953125 H 1.3007812 L 0.00390625,1.640625 h -0.015625 L -1.3046875,-2.6953125 H -2.21875 Z"
         style="font-size:8px;font-family:'DIN Alternate';text-anchor:middle;fill:#ebdbb2"
         id="path542" />
    </g>
  </g>
  <g
     transform="translate(10,198)"
     id="g77">
    <g
       aria-label="V"
       id="text75"
       style="font-size:8px;font-family:'DIN Alternate';text-anchor:middle;fill:#ebdbb2"
       class="label">
      <path
         d="m -0.33984375,3 h 0.671875 L 2.2148438,-2.6953125 H 1.3007812 L 0.00390625,1.640625 h -0.015625 L -1.3046875,-2.6953125 H -2.21875 Z"
         style="font-size:8px;font-family:'DIN Alternate';text-anchor:middle;fill:#ebdbb2"
         id="path539" />
    </g>
  </g>
  <g
     transform="translate(10,228)"
     id="g81">
    <g
       aria-label="M"
       id="text79"
       style="font-size:8px;font-family:'DIN Alternate';text-anchor:middle;fill:#ebdbb2"
       class="label">
      <path
         d="m -2.4296875,3 h 0.8632813 v -3.55078125 h 0.015625 L -0.359375,2.1835938 h 0.71875 l 1.1914062,-2.73437505 h 0.019531 V 3 H 2.4335938 V -2.6953125 H 1.6171875 L 0.015625,1.015625 v 0 l -1.6328125,-3.7109375 h -0.8125 z"
         style="font-size:8px;font-family:'DIN Alternate';text-anchor:middle;fill:#ebdbb2"
         id="path536" />
    </g>
  </g>
  <g
     transform="translate(10,258)"
     id="g85">
    <g
       aria-label="P"
       id="text83"
       style="font-size:8px;font-family:'DIN Alternate';text-anchor:middle;fill:#ebdbb2"
       class="label">
      <path
         d="M -0.91015625,-1.8789062 H 0.3359375 Q 0.6875,-1.8867187 0.953125,-1.71875 q 0.1757812,0.1015625 0.2734375,0.2773438 0.09375,0.1953125 0.09375,0.4804687 0,0.34375 -0.2304688,0.625 -0.24218745,0.2890625 -0.7226562,0.296875 H -0.91015625 Z M -1.7734375,3 h 0.86328125 V 0.77734375 h 1.3125 Q 1.28125,0.76171875 1.7382812,0.21484375 2.1835938,-0.3046875 2.1835938,-0.9375 q 0,-0.46875 -0.1757813,-0.8125 -0.1679688,-0.3554688 -0.4375,-0.546875 Q 1.25,-2.5507813 0.9375,-2.6328125 q -0.3125,-0.0625 -0.6484375,-0.0625 h -2.0625 z"
         style="font-size:8px;font-family:'DIN Alternate';text-anchor:middle;fill:#ebdbb2"
         id="path533" />
    </g>
  </g>
  <g
     transform="translate(10,288)"
     id="g89">
    <g
       aria-label="P"
       id="text87"
       style="font-size:8px;font-family:'DIN Alternate';text-anchor:middle;fill:#ebdbb2"
       class="label">
      <path
         d="M -0.91015625,-1.8789062 H 0.3359375 Q 0.6875,-1.8867187 0.953125,-1.71875 q 0.1757812,0.1015625 0.2734375,0.2773438 0.09375,0.1953125 0.09375,0.4804687 0,0.34375 -0.2304688,0.625 -0.24218745,0.2890625 -0.7226562,0.296875 H -0.91015625 Z M -1.7734375,3 h 0.86328125 V 0.77734375 h 1.3125 Q 1.28125,0.76171875 1.7382812,0.21484375 2.1835938,-0.3046875 2.1835938,-0.9375 q 0,-0.46875 -0.1757813,-0.8125 -0.1679688,-0.3554688 -0.4375,-0.546875 Q 1.25,-2.5507813 0.9375,-2.6328125 q -0.3125,-0.0625 -0.6484375,-0.0625 h -2.0625 z"
         style="font-size:8px;font-family:'DIN Alternate';text-anchor:middle;fill:#ebdbb2"
         id="path530" />
    </g>
  </g>
  <g
     transform="translate(10,318)"
     id="g93">
    <g
       aria-label="L"
       id="text91"
       style="font-size:8px;font-family:'DIN Alternate';text-anchor:middle;fill:#ebdbb2"
       class="label">
      <path
         d="M -1.625,3 H 2.0117188 V 2.1835938 H -0.76171875 V -2.6953125 H -1.625 Z"
         style="font-size:8px;font-family:'DIN Alternate';text-anchor:middle;fill:#ebdbb2"
         id="path527" />
    </g>
  </g>
  <g
     transform="translate(10,348)"
     id="g97">
    <g
       aria-label="R"
       id="text95"
       style="font-size:8px;font-family:'DIN Alternate';text-anchor:middle;fill:#ebdbb2"
       class="label">
      <path
         d="m -0.97265625,-1.9257812 h 1.3515625 q 0.4140625,0 0.63281245,0.1757812 0.2773438,0.1992188 0.2851563,0.6445313 0,0.3710937 -0.2382813,0.62499995 -0.24218745,0.2734375 -0.72656245,0.28125 h -1.3046875 z M -1.8359375,3 h 0.86328125 V 0.56640625 h 1.1015625 L 1.3046875,3 H 2.3320313 L 1.0117187,0.47265625 Q 2.0976563,0.0546875 2.1132813,-1.1054687 2.0898438,-1.8945312 1.546875,-2.3203125 q -0.4492188,-0.375 -1.16015625,-0.375 H -1.8359375 Z"
         style="font-size:8px;font-family:'DIN Alternate';text-anchor:middle;fill:#ebdbb2"
         id="path524" />
    </g>
  </g>
  <!-- ch1 -->
  <g
     aria-label="1"
     id="text101"
     style="font-size:10px;font-family:'DIN Alternate';text-anchor:middle;fill:#ebdbb2"
     class="big-label">
    <path
       d="M 30.536133,24.959961 V 31 h 1.020508 v -7.119141 h -1.020508 l -1.010742,0.737305 v 1.083984 0 l 1.010742,-0.742187 z"
       style="font-size:10px;font-family:'DIN Alternate';text-anchor:middle;fill:#ebdbb2"
       id="path521" />
  </g>
  <g
     transform="translate(25,41)"
     id="g107">
    <g
       id="use105"
       transform="translate(-5)">
      <g
         transform="translate(5,2.5)"
         id="g431" />
    </g>
  </g>
  <g
     transform="translate(37,41)"
     id="g111">
    <g
       id="use109"
       transform="translate(-5)">
      <g
         transform="translate(5,2.5)"
         id="g427" />
    </g>
  </g>
  <g
     id="use115"
     transform="translate(19,156)">
    <g
       transform="translate(12,12)"
       id="g291">
      <path
         id="circle285"
         style="fill:none;stroke:#121212"
         d="M 11.5,0 A 11.5,11.5 0 0 1 0,11.5 11.5,11.5 0 0 1 -11.5,0 11.5,11.5 0 0 1 0,-11.5 11.5,11.5 0 0 1 11.5,0 Z" />
      <path
         id="circle287"
         style="fill:url(#linearGradient295)"
         transform="rotate(90)"
         d="M 11,0 A 11,11 0 0 1 0,11 11,11 0 0 1 -11,0 11,11 0 0 1 0,-11 11,11 0 0 1 11,0 Z" />
      <path
         id="circle289"
         style="fill:url(#linearGradient297)"
         transform="rotate(90)"
         d="M 10,0 A 10,10 0 0 1 0,10 10,10 0 0 1 -10,0 10,10 0 0 1 0,-10 10,10 0 0 1 10,0 Z" />
    </g>
  </g>
  <g
     id="use119"
     transform="translate(19,186)">
    <g
       transform="translate(12,12)"
       id="g299" />
  </g>
  <g
     id="use123"
     transform="translate(22,219)">
    <g
       transform="translate(9,9)"
       id="g303" />
  </g>
  <g
     id="use127"
     transform="translate(19,246)">
    <g
       transform="translate(12,12)"
       id="g313">
      <path
         id="circle307"
         style="fill:none;stroke:#121212"
         d="M 11.5,0 A 11.5,11.5 0 0 1 0,11.5 11.5,11.5 0 0 1 -11.5,0 11.5,11.5 0 0 1 0,-11.5 11.5,11.5 0 0 1 11.5,0 Z" />
      <path
         id="circle309"
         style="fill:url(#linearGradient317)"
         transform="rotate(90)"
         d="M 11,0 A 11,11 0 0 1 0,11 11,11 0 0 1 -11,0 11,11 0 0 1 0,-11 11,11 0 0 1 11,0 Z" />
      <path
         id="circle311"
         style="fill:url(#linearGradient319)"
         transform="rotate(90)"
         d="M 10,0 A 10,10 0 0 1 0,10 10,10 0 0 1 -10,0 10,10 0 0 1 0,-10 10,10 0 0 1 10,0 Z" />
    </g>
  </g>
  <g
     id="use131"
     transform="translate(19,276)">
    <g
       transform="translate(12,12)"
       id="g321" />
  </g>
  <g
     id="use135"
     transform="translate(19,306)">
    <g
       transform="translate(12,12)"
       id="g325" />
  </g>
  <g
     id="use139"
     transform="translate(19,336)">
    <g
       transform="translate(12,12)"
       id="g329" />
  </g>
  <!-- ch2 -->
  <g
     aria-label="2"
     id="text143"
     style="font-size:10px;font-family:'DIN Alternate';text-anchor:middle;fill:#ebdbb2"
     class="big-label">
    <path
       d="m 69.919922,31 h 4.057617 v -1.020508 h -2.719727 l 2.29004,-2.871094 q 0.429687,-0.546875 0.429687,-1.25 -0.0098,-0.878906 -0.59082,-1.450195 -0.571289,-0.576172 -1.489258,-0.585937 -0.820313,0.0098 -1.381836,0.576171 -0.556641,0.581055 -0.595703,1.469727 h 1.015625 q 0.05371,-0.488281 0.341797,-0.756836 0.27832,-0.268555 0.698242,-0.268555 0.473633,0.0098 0.732422,0.307618 0.249023,0.297851 0.249023,0.698242 0,0.151367 -0.03906,0.322265 -0.05859,0.180664 -0.219727,0.390625 l -2.77832,3.476563 z"
       style="font-size:10px;font-family:'DIN Alternate';text-anchor:middle;fill:#ebdbb2"
       id="path518" />
  </g>
  <g
     transform="translate(66,41)"
     id="g149">
    <g
       id="use147"
       transform="translate(-5)">
      <g
         transform="translate(5,2.5)"
         id="g423" />
    </g>
  </g>
  <g
     transform="translate(78,41)"
     id="g153">
    <g
       id="use151"
       transform="translate(-5)">
      <g
         transform="translate(5,2.5)"
         id="g419" />
    </g>
  </g>
  <g
     id="use157"
     transform="translate(60,156)">
    <g
       transform="translate(12,12)"
       id="g339">
      <path
         id="circle333"
         style="fill:none;stroke:#121212"
         d="M 11.5,0 A 11.5,11.5 0 0 1 0,11.5 11.5,11.5 0 0 1 -11.5,0 11.5,11.5 0 0 1 0,-11.5 11.5,11.5 0 0 1 11.5,0 Z" />
      <path
         id="circle335"
         style="fill:url(#linearGradient343)"
         transform="rotate(90)"
         d="M 11,0 A 11,11 0 0 1 0,11 11,11 0 0 1 -11,0 11,11 0 0 1 0,-11 11,11 0 0 1 11,0 Z" />
      <path
         id="circle337"
         style="fill:url(#linearGradient345)"
         transform="rotate(90)"
         d="M 10,0 A 10,10 0 0 1 0,10 10,10 0 0 1 -10,0 10,10 0 0 1 0,-10 10,10 0 0 1 10,0 Z" />
    </g>
  </g>
  <g
     id="use161"
     transform="translate(60,186)">
    <g
       transform="translate(12,12)"
       id="g347" />
  </g>
  <g
     id="use165"
     transform="translate(63,219)">
    <g
       transform="translate(9,9)"
       id="g351" />
  </g>
  <g
     id="use169"
     transform="translate(60,246)">
    <g
       transform="translate(12,12)"
       id="g361">
      <path
         id="circle355"
         style="fill:none;stroke:#121212"
         d="M 11.5,0 A 11.5,11.5 0 0 1 0,11.5 11.5,11.5 0 0 1 -11.5,0 11.5,11.5 0 0 1 0,-11.5 11.5,11.5 0 0 1 11.5,0 Z" />
      <path
         id="circle357"
         style="fill:url(#linearGradient365)"
         transform="rotate(90)"
         d="M 11,0 A 11,11 0 0 1 0,11 11,11 0 0 1 -11,0 11,11 0 0 1 0,-11 11,11 0 0 1 11,0 Z" />
      <path
         id="circle359"
         style="fill:url(#linearGradient367)"
         transform="rotate(90)"
         d="M 10,0 A 10,10 0 0 1 0,10 10,10 0 0 1 -10,0 10,10 0 0 1 0,-10 10,10 0 0 1 10,0 Z" />
    </g>
  </g>
  <g
     id="use173"
     transform="translate(60,276)">
    <g
       transform="translate(12,12)"
       id="g369" />
  </g>
  <g
     id="use177"
     transform="translate(60,306)">
    <g
       transform="translate(12,12)"
       id="g373" />
  </g>
  <g
     id="use181"
     transform="translate(60,336)">
    <g
       transform="translate(12,12)"
       id="g377" />
  </g>
  <!-- mix -->
  <g
     aria-label="MIX"
     id="text185"
     style="font-size:10px;font-family:'DIN Alternate';text-anchor:middle;fill:#ebdbb2"
     class="big-label">
    <path
       d="m 105.98828,31 h 1.0791 v -4.438477 h 0.0195 l 1.48926,3.417969 h 0.89844 l 1.48926,-3.417969 h 0.0244 V 31 h 1.0791 v -7.119141 h -1.0205 l -2.00196,4.638672 v 0 l -2.04101,-4.638672 h -1.01563 z"
       style="font-size:10px;font-family:'DIN Alternate';text-anchor:middle;fill:#ebdbb2"
       id="path511" />
    <path
       d="m 113.56641,31 h 1.0791 v -7.119141 h -1.0791 z"
       style="font-size:10px;font-family:'DIN Alternate';text-anchor:middle;fill:#ebdbb2"
       id="path513" />
    <path
       d="M 118.07324,28.348633 119.63086,31 h 1.2207 l -2.17773,-3.647461 2.03613,-3.47168 h -1.21582 l -1.4209,2.470703 v 0 l -1.4209,-2.470703 h -1.2207 l 2.04102,3.47168 L 115.29492,31 h 1.21582 l 1.5625,-2.651367 z"
       style="font-size:10px;font-family:'DIN Alternate';text-anchor:middle;fill:#ebdbb2"
       id="path515" />
  </g>
  <g
     transform="translate(107,41)"
     id="g191">
    <g
       id="use189"
       transform="translate(-5)">
      <g
         transform="translate(5,2.5)"
         id="g415" />
    </g>
  </g>
  <g
     transform="translate(119,41)"
     id="g195">
    <g
       id="use193"
       transform="translate(-5)">
      <g
         transform="translate(5,2.5)"
         id="g411" />
    </g>
  </g>
  <g
     id="use199"
     transform="translate(101,156)">
    <g
       transform="translate(12,12)"
       id="g387">
      <path
         id="circle381"
         style="fill:none;stroke:#121212"
         d="M 11.5,0 A 11.5,11.5 0 0 1 0,11.5 11.5,11.5 0 0 1 -11.5,0 11.5,11.5 0 0 1 0,-11.5 11.5,11.5 0 0 1 11.5,0 Z" />
      <path
         id="circle383"
         style="fill:url(#linearGradient391)"
         transform="rotate(90)"
         d="M 11,0 A 11,11 0 0 1 0,11 11,11 0 0 1 -11,0 11,11 0 0 1 0,-11 11,11 0 0 1 11,0 Z" />
      <path
         id="circle385"
         style="fill:url(#linearGradient393)"
         transform="rotate(90)"
         d="M 10,0 A 10,10 0 0 1 0,10 10,10 0 0 1 -10,0 10,10 0 0 1 0,-10 10,10 0 0 1 10,0 Z" />
    </g>
  </g>
  <g
     id="use203"
     transform="translate(101,186)">
    <g
       transform="translate(12,12)"
       id="g395" />
  </g>
  <g
     id="use207"
     transform="translate(104,219)">
    <g
       transform="translate(9,9)"
       id="g399" />
  </g>
  <path
     id="rect211"
     style="fill:#665c54"
     d="m 101,303 h 24 c 1.662,0 3,1.338 3,3 v 54 c 0,1.662 -1.338,3 -3,3 h -24 c -1.662,0 -3,-1.338 -3,-3 v -54 c 0,-1.662 1.338,-3 3,-3 z"
     class="output" />
  <g
     id="use213"
     transform="translate(101,306)">
    <g
       transform="translate(12,12)"
       id="g403" />
  </g>
  <g
     id="use217"
     transform="translate(101,336)">
    <g
       transform="translate(12,12)"
       id="g407" />
  </g>
</svg>
