<?xml version="1.0" encoding="UTF-8" standalone="no"?>
<svg
   xmlns:dc="http://purl.org/dc/elements/1.1/"
   xmlns:cc="http://creativecommons.org/ns#"
   xmlns:rdf="http://www.w3.org/1999/02/22-rdf-syntax-ns#"
   xmlns:svg="http://www.w3.org/2000/svg"
   xmlns="http://www.w3.org/2000/svg"
   xmlns:xlink="http://www.w3.org/1999/xlink"
   xmlns:sodipodi="http://sodipodi.sourceforge.net/DTD/sodipodi-0.dtd"
   xmlns:inkscape="http://www.inkscape.org/namespaces/inkscape"
   version="1.1"
   width="135"
   height="380"
   viewBox="0 0 135 380"
   id="svg231"
   sodipodi:docname="FOO.svg"
   inkscape:version="1.0.2 (e86c8708, 2021-01-15)">
  <metadata
     id="metadata235">
    <rdf:RDF>
      <cc:Work
         rdf:about="">
        <dc:format>image/svg+xml</dc:format>
        <dc:type
           rdf:resource="http://purl.org/dc/dcmitype/StillImage" />
      </cc:Work>
    </rdf:RDF>
  </metadata>
  <sodipodi:namedview
     pagecolor="#ffffff"
     bordercolor="#666666"
     borderopacity="1"
     objecttolerance="10"
     gridtolerance="10"
     guidetolerance="10"
     inkscape:pageopacity="0"
     inkscape:pageshadow="2"
     inkscape:window-width="689"
     inkscape:window-height="480"
     id="namedview233"
     showgrid="false"
     inkscape:zoom="2.1763158"
     inkscape:cx="67.5"
     inkscape:cy="190"
     inkscape:window-x="0"
     inkscape:window-y="25"
     inkscape:window-maximized="0"
     inkscape:current-layer="svg231" />
  <style
     id="style2">
    text.title {
      fill: #a91913;
      font-family: 'DIN Alternate';
      font-size: 12pt;
    }
    text.logo {
      fill: #a91913;
      font-family: 'DIN Alternate';
      font-size: 10pt;
    }
    text.big-label {
      fill: #343434;
      font-family: 'DIN Alternate';
      font-size: 7.5pt;
    }
    text.label {
      fill: #343434;
      font-family: 'DIN Alternate';
      font-size: 6pt;
    }
    text.led-label {
      fill: #888;
      font-family: 'DIN Alternate';
      font-size: 6pt;
    }
    .background {
      fill: #e0e0e0;
    }
    .output {
      fill: #bbbbbb;
    }
    polyline.icon {
      stroke: #343434;
      stroke-width: 1.2;
      fill: none;
    }
    polyline.connect {
      stroke: #343434;
      stroke-width: 1;
      fill: none;
    }

    .blueprint {
      stroke: #08f;
      fill: none;
    }
  </style>
  <!-- ======== defs ======== -->
  <defs
     id="defs49">
    <linearGradient
       id="smallKnobMediumGradient">
      <stop
         offset="5%"
         stop-color="#888"
         id="stop4" />
      <stop
         offset="95%"
         stop-color="#333"
         id="stop6" />
    </linearGradient>
    <linearGradient
       id="smallKnobDarkGradient">
      <stop
         offset="5%"
         stop-color="#444"
         id="stop9" />
      <stop
         offset="95%"
         stop-color="#222"
         id="stop11" />
    </linearGradient>
    <linearGradient
       id="bigKnobDarkGradient">
      <stop
         offset="5%"
         stop-color="#5c5c5c"
         id="stop14" />
      <stop
         offset="95%"
         stop-color="#282828"
         id="stop16" />
    </linearGradient>
    <linearGradient
       id="bigKnobMediumGradient">
      <stop
         offset="5%"
         stop-color="#888"
         id="stop19" />
      <stop
         offset="95%"
         stop-color="#333"
         id="stop21" />
    </linearGradient>
    <symbol
       id="knob18">
      <g
         transform="translate(9 9)"
         id="g30">
        <circle
           r="8.5"
           stroke="#222"
           fill="none"
           id="circle24" />
        <circle
           r="8"
           fill="url('#smallKnobMediumGradient')"
           transform="rotate(90)"
           id="circle26" />
        <circle
           r="7"
           fill="url('#smallKnobDarkGradient')"
           transform="rotate(90)"
           id="circle28" />
      </g>
    </symbol>
    <symbol
       id="knob24">
      <g
         transform="translate(12 12)"
         id="g37">
        <circle
           r="11.5"
           fill="url('#bigKnobDarkGradient')"
           transform="rotate(90)"
           id="circle33" />
        <circle
           r="9.5"
           fill="url('#bigKnobMediumGradient')"
           transform="rotate(90)"
           id="circle35" />
      </g>
    </symbol>
    <symbol
       id="toggleButton">
      <g
         transform="translate(9 9)"
         id="g40" />
    </symbol>
    <symbol
       id="port">
      <g
         transform="translate(12 12)"
         id="g43" />
    </symbol>
    <symbol
       id="led-strip">
      <g
         transform="translate(5 2.5)"
         id="g46" />
    </symbol>
    <linearGradient
       inkscape:collect="always"
       xlink:href="#bigKnobDarkGradient"
       id="linearGradient304"
       x1="-11.5"
       y1="-11.5"
       x2="11.5"
       y2="-11.5"
       gradientUnits="userSpaceOnUse" />
    <linearGradient
       inkscape:collect="always"
       xlink:href="#bigKnobMediumGradient"
       id="linearGradient306"
       x1="-9.5"
       y1="-9.5"
       x2="9.5"
       y2="-9.5"
       gradientUnits="userSpaceOnUse" />
    <linearGradient
       inkscape:collect="always"
       xlink:href="#smallKnobMediumGradient"
       id="linearGradient326"
       x1="-8"
       y1="-8"
       x2="8"
       y2="-8"
       gradientUnits="userSpaceOnUse" />
    <linearGradient
       inkscape:collect="always"
       xlink:href="#smallKnobDarkGradient"
       id="linearGradient328"
       x1="-7"
       y1="-7"
       x2="7"
       y2="-7"
       gradientUnits="userSpaceOnUse" />
    <linearGradient
       inkscape:collect="always"
       xlink:href="#bigKnobDarkGradient"
       id="linearGradient350"
       x1="-11.5"
       y1="-11.5"
       x2="11.5"
       y2="-11.5"
       gradientUnits="userSpaceOnUse" />
    <linearGradient
       inkscape:collect="always"
       xlink:href="#bigKnobMediumGradient"
       id="linearGradient352"
       x1="-9.5"
       y1="-9.5"
       x2="9.5"
       y2="-9.5"
       gradientUnits="userSpaceOnUse" />
    <linearGradient
       inkscape:collect="always"
       xlink:href="#smallKnobMediumGradient"
       id="linearGradient372"
       x1="-8"
       y1="-8"
       x2="8"
       y2="-8"
       gradientUnits="userSpaceOnUse" />
    <linearGradient
       inkscape:collect="always"
       xlink:href="#smallKnobDarkGradient"
       id="linearGradient374"
       x1="-7"
       y1="-7"
       x2="7"
       y2="-7"
       gradientUnits="userSpaceOnUse" />
    <linearGradient
       inkscape:collect="always"
       xlink:href="#bigKnobDarkGradient"
       id="linearGradient396"
       x1="-11.5"
       y1="-11.5"
       x2="11.5"
       y2="-11.5"
       gradientUnits="userSpaceOnUse" />
    <linearGradient
       inkscape:collect="always"
       xlink:href="#bigKnobMediumGradient"
       id="linearGradient398"
       x1="-9.5"
       y1="-9.5"
       x2="9.5"
       y2="-9.5"
       gradientUnits="userSpaceOnUse" />
  </defs>
  <!-- ======== body ======== -->
  <path
     id="rect51"
     style="fill:#e0e0e0"
     d="M 0,0 H 135 V 380 H 0 Z"
     class="background" />
  <g
     aria-label="FOO"
     id="text53"
     style="font-size:16px;font-family:'DIN Alternate';text-anchor:middle;fill:#a91913"
     class="title">
    <path
       d="m 54.65625,16 h 1.726562 v -4.867187 h 4.734375 V 9.6015625 h -4.734375 v -3.359375 h 5.546875 V 4.609375 H 54.65625 Z"
       style="font-size:16px;font-family:'DIN Alternate';text-anchor:middle;fill:#a91913"
       id="path512" />
    <path
       d="m 62.859375,10.304688 q 0,1.953125 0.117187,2.640625 0.0625,0.367187 0.15625,0.609375 0.101563,0.234375 0.226563,0.492187 0.414062,0.789063 1.328125,1.390625 0.898437,0.625 2.242187,0.65625 1.359375,-0.03125 2.265625,-0.65625 0.898438,-0.601562 1.296875,-1.390625 0.289063,-0.414062 0.398438,-1.101562 0.101562,-0.6875 0.101562,-2.640625 0,-1.9843755 -0.101562,-2.6562505 Q 70.78125,6.9765625 70.492187,6.5625 70.09375,5.7734375 69.195312,5.15625 68.289062,4.53125 66.929687,4.515625 65.585937,4.53125 64.6875,5.15625 63.773437,5.7734375 63.359375,6.5625 63.101562,6.9765625 62.976562,7.6484375 62.859375,8.3203125 62.859375,10.304688 Z m 1.734375,0 q 0,-1.679688 0.125,-2.289063 Q 64.828125,7.4375 65.164062,7.0703125 65.4375,6.71875 65.882812,6.484375 66.320312,6.2578125 66.929687,6.2421875 67.546875,6.2578125 68,6.484375 68.429687,6.71875 68.6875,7.0703125 69.023437,7.4375 69.148437,8.015625 q 0.117188,0.609375 0.117188,2.289063 0,1.679687 -0.117188,2.273437 -0.125,0.59375 -0.460937,0.960938 -0.257813,0.351562 -0.6875,0.570312 -0.453125,0.257813 -1.070313,0.257813 -0.609375,0 -1.046875,-0.257813 -0.445312,-0.21875 -0.71875,-0.570312 -0.335937,-0.367188 -0.445312,-0.960938 -0.125,-0.59375 -0.125,-2.273437 z"
       style="font-size:16px;font-family:'DIN Alternate';text-anchor:middle;fill:#a91913"
       id="path514" />
    <path
       d="m 72.609375,10.304688 q 0,1.953125 0.117187,2.640625 0.0625,0.367187 0.15625,0.609375 0.101563,0.234375 0.226563,0.492187 0.414062,0.789063 1.328125,1.390625 0.898437,0.625 2.242187,0.65625 1.359375,-0.03125 2.265625,-0.65625 0.898438,-0.601562 1.296875,-1.390625 0.289063,-0.414062 0.398438,-1.101562 0.101562,-0.6875 0.101562,-2.640625 0,-1.9843755 -0.101562,-2.6562505 Q 80.53125,6.9765625 80.242187,6.5625 79.84375,5.7734375 78.945312,5.15625 78.039062,4.53125 76.679687,4.515625 75.335937,4.53125 74.4375,5.15625 73.523437,5.7734375 73.109375,6.5625 72.851562,6.9765625 72.726562,7.6484375 72.609375,8.3203125 72.609375,10.304688 Z m 1.734375,0 q 0,-1.679688 0.125,-2.289063 Q 74.578125,7.4375 74.914062,7.0703125 75.1875,6.71875 75.632812,6.484375 76.070312,6.2578125 76.679687,6.2421875 77.296875,6.2578125 77.75,6.484375 78.179687,6.71875 78.4375,7.0703125 78.773437,7.4375 78.898437,8.015625 q 0.117188,0.609375 0.117188,2.289063 0,1.679687 -0.117188,2.273437 -0.125,0.59375 -0.460937,0.960938 -0.257813,0.351562 -0.6875,0.570312 -0.453125,0.257813 -1.070313,0.257813 -0.609375,0 -1.046875,-0.257813 -0.445312,-0.21875 -0.71875,-0.570312 -0.335937,-0.367188 -0.445312,-0.960938 -0.125,-0.59375 -0.125,-2.273437 z"
       style="font-size:16px;font-family:'DIN Alternate';text-anchor:middle;fill:#a91913"
       id="path516" />
  </g>
  <g
     aria-label="RM"
     id="text55"
     style="font-size:13.3333px;font-family:'DIN Alternate';text-anchor:middle;fill:#a91913"
     class="logo">
    <path
       d="m 60.826823,367.79036 h 2.252604 q 0.690104,0 1.054688,0.29297 0.462239,0.33203 0.47526,1.07422 0,0.61849 -0.397135,1.04167 -0.403646,0.45573 -1.210938,0.46875 H 60.826823 Z M 59.388021,376 h 1.438802 v -4.05599 h 1.835938 L 64.622396,376 h 1.712239 l -2.20052,-4.21224 q 1.809895,-0.69661 1.835937,-2.63021 -0.03906,-1.3151 -0.94401,-2.02474 -0.748698,-0.625 -1.933594,-0.625 h -3.704427 z"
       style="font-size:13.3333px;font-family:'DIN Alternate';text-anchor:middle;fill:#a91913"
       id="path507" />
    <path
       d="m 67.513021,376 h 1.438802 v -5.91797 h 0.02604 l 1.985677,4.55729 h 1.197916 l 1.985677,-4.55729 h 0.03255 V 376 h 1.438802 v -9.49219 h -1.360677 l -2.669271,6.1849 v 0 l -2.721354,-6.1849 h -1.354167 z"
       style="font-size:13.3333px;font-family:'DIN Alternate';text-anchor:middle;fill:#a91913"
       id="path509" />
  </g>
  <path
     id="rect57"
     style="fill:#121212"
     d="M 0,36 H 135 V 150 H 0 Z" />
  <g
     transform="translate(13,47)"
     id="g77">
    <g
       aria-label="0"
       id="text59"
       style="font-size:8px;font-family:'DIN Alternate';text-anchor:end;fill:#888888"
       class="led-label">
      <path
         d="m -1.125,-1.640625 q -0.023437,0.86328125 -0.8007812,0.87109375 -0.7812501,-0.007813 -0.7968751,-0.87109375 v -2.4140625 q 0.015625,-0.8554687 0.7968751,-0.8710937 0.7773437,0.015625 0.8007812,0.8710937 z m -2.4140625,0.046875 q 0.00781,0.78515625 0.5039062,1.2109375 0.4648438,0.421875 1.1093751,0.4296875 0.6640625,-0.0078125 1.1289062,-0.4296875 0.47265625,-0.42578125 0.48828125,-1.2109375 v -2.5117187 q -0.015625,-0.7890625 -0.48828125,-1.2148438 -0.4648437,-0.421875 -1.1289062,-0.421875 -0.6445313,0 -1.1093751,0.421875 -0.4960937,0.4257813 -0.5039062,1.2148438 z"
         style="font-size:8px;font-family:'DIN Alternate';text-anchor:end;fill:#888888"
         id="path453" />
    </g>
    <g
       aria-label="-3"
       id="text61"
       style="font-size:8px;font-family:'DIN Alternate';text-anchor:end;fill:#888888"
       class="led-label">
      <path
         d="m -6.6679687,10.191406 h 2.40625 V 9.375 h -2.40625 z"
         style="font-size:8px;font-family:'DIN Alternate';text-anchor:end;fill:#888888"
         id="path456" />
      <path
         d="m -2.4375,9.4257813 h 0.34375 q 0.3789063,0 0.625,0.2304687 0.25,0.2382813 0.2578125,0.671875 -0.00781,0.425781 -0.2578125,0.65625 -0.2460937,0.246094 -0.6054688,0.246094 -0.3359375,0 -0.5390625,-0.183594 Q -2.8125,10.871094 -2.921875,10.585938 h -0.8164063 q 0.1328125,0.710937 0.5820313,1.085937 0.4492187,0.375 1.03125,0.375 0.7539063,-0.0078 1.234375,-0.480469 0.48828125,-0.460937 0.49609375,-1.261718 0,-0.3593755 -0.15234375,-0.6875005 -0.16015625,-0.328125 -0.5195312,-0.5625 Q -0.71484375,8.8164063 -0.578125,8.5117188 -0.4609375,8.2070313 -0.4609375,7.8789062 -0.46875,7.2304687 -0.90625,6.7539062 -1.3632812,6.265625 -2.140625,6.2578125 q -0.6132813,0.00781 -1.0546875,0.4375 -0.4492188,0.4335937 -0.5117188,1.0664062 H -2.890625 Q -2.8125,7.4101562 -2.5859375,7.2421875 -2.3710938,7.0742187 -2.109375,7.0742187 q 0.3632813,0.00781 0.59375,0.2304688 0.2304688,0.2304687 0.2382813,0.5898437 0,0.3554688 -0.2304688,0.5781251 Q -1.7382812,8.703125 -2.15625,8.703125 H -2.4375 Z"
         style="font-size:8px;font-family:'DIN Alternate';text-anchor:end;fill:#888888"
         id="path458" />
    </g>
    <g
       aria-label="-6"
       id="text63"
       style="font-size:8px;font-family:'DIN Alternate';text-anchor:end;fill:#888888"
       class="led-label">
      <path
         d="m -6.6679687,22.191406 h 2.40625 V 21.375 h -2.40625 z"
         style="font-size:8px;font-family:'DIN Alternate';text-anchor:end;fill:#888888"
         id="path461" />
      <path
         d="m -0.875,18.246094 q 0.003906,0 -0.0390625,0.08594 -0.0390625,0.08203 -0.109375,0.226563 -0.070312,0.144531 -0.1640625,0.332031 -0.09375,0.1875 -0.1992187,0.394531 -0.1015625,0.207031 -0.2109375,0.417969 -0.1054688,0.210937 -0.2070313,0.402344 -0.097656,0.191406 -0.1796875,0.347656 -0.082031,0.15625 -0.1367188,0.25 0.1132813,-0.06641 0.2539063,-0.07813 0.1445313,-0.01563 0.3320313,-0.0078 0.2695312,0.0078 0.46875,0.09375 0.20312495,0.08594 0.3476562,0.214844 0.14453125,0.128906 0.23828125,0.289063 0.0976563,0.15625 0.15234375,0.308593 0.0546875,0.148438 0.0742188,0.28125 0.0234375,0.128907 0.0234375,0.203125 0,0.02344 0,0.08594 0,0.0625 0,0.140625 0,0.07422 -0.003906,0.152344 0,0.07813 -0.003906,0.132812 -0.003906,0.02734 -0.0273438,0.144531 -0.0195313,0.113282 -0.078125,0.273438 -0.0546875,0.15625 -0.16015625,0.339844 -0.10546875,0.179687 -0.27734375,0.34375 -0.171875,0.160156 -0.4179687,0.277343 -0.2460938,0.117188 -0.5859375,0.144532 -0.3554688,0.03125 -0.6289063,-0.04687 Q -2.6875,23.917969 -2.8867188,23.773437 -3.0859375,23.628906 -3.21875,23.441406 -3.3515625,23.25 -3.4296875,23.050781 -3.5039063,22.851562 -3.53125,22.667969 q -0.023437,-0.183594 -0.00781,-0.3125 0.023437,-0.191407 0.050781,-0.339844 0.027344,-0.152344 0.0625,-0.289063 0.039063,-0.136718 0.085937,-0.269531 0.046875,-0.132812 0.109375,-0.289062 0.015625,-0.03906 0.085937,-0.183594 0.070312,-0.148438 0.171875,-0.363281 0.1054688,-0.214844 0.234375,-0.472657 0.1289063,-0.257812 0.2578125,-0.523437 0.3046875,-0.617188 0.6835938,-1.378906 z m -0.1640625,4.167968 q 0,-0.148437 -0.011719,-0.328125 -0.011719,-0.179687 -0.089844,-0.339843 -0.074219,-0.164063 -0.2460937,-0.28125 -0.171875,-0.117188 -0.4882813,-0.140625 -0.1484375,-0.01172 -0.2695313,0.03125 -0.1210937,0.04297 -0.2148437,0.117187 -0.09375,0.07422 -0.1640625,0.171875 -0.066406,0.09375 -0.1132813,0.1875 -0.042969,0.09375 -0.0625,0.175781 -0.019531,0.07813 -0.019531,0.121094 0,0.09766 0.00391,0.21875 0.00391,0.117188 0.023437,0.238281 0.023437,0.117188 0.074219,0.230469 0.050781,0.109375 0.1445312,0.195313 0.09375,0.08594 0.2382813,0.140625 0.1484375,0.05469 0.3671875,0.05469 0.1757813,0.0039 0.3046875,-0.04297 0.1328125,-0.05078 0.2226563,-0.125 0.09375,-0.07813 0.1523437,-0.171875 0.058594,-0.09375 0.089844,-0.183593 0.035156,-0.08984 0.046875,-0.160157 0.011719,-0.07422 0.011719,-0.109375 z"
         style="font-size:8px;font-family:'DIN Alternate';text-anchor:end;fill:#888888"
         id="path463" />
    </g>
    <g
       aria-label="-9"
       id="text65"
       style="font-size:8px;font-family:'DIN Alternate';text-anchor:end;fill:#888888"
       class="led-label">
      <path
         d="m -6.6679687,34.191406 h 2.40625 V 33.375 h -2.40625 z"
         style="font-size:8px;font-family:'DIN Alternate';text-anchor:end;fill:#888888"
         id="path466" />
      <path
         d="m -3,36 q -0.00391,0 0.066406,-0.140625 0.070312,-0.144531 0.1835938,-0.371094 0.1132812,-0.226562 0.2539062,-0.503906 0.140625,-0.277344 0.2773438,-0.546875 0.1367187,-0.269531 0.2539063,-0.496094 0.1210937,-0.226562 0.1953125,-0.355469 -0.1132813,0.06641 -0.2578126,0.08203 -0.140625,0.01172 -0.328125,0.0039 -0.2578125,-0.0078 -0.453125,-0.09375 Q -3,33.492187 -3.140625,33.363281 -3.28125,33.234375 -3.375,33.078125 q -0.09375,-0.160156 -0.1523438,-0.308594 -0.054687,-0.152344 -0.082031,-0.28125 -0.023437,-0.132812 -0.023437,-0.207031 0,-0.02344 -0.00391,-0.08594 0,-0.0625 0,-0.136718 0,-0.07813 0,-0.15625 0.00391,-0.07813 0.011719,-0.132813 0.00391,-0.02734 0.023437,-0.136719 0.023437,-0.113281 0.082031,-0.269531 0.058594,-0.15625 0.1640625,-0.332031 0.1054688,-0.179688 0.2734375,-0.335938 0.171875,-0.15625 0.4179688,-0.269531 0.25,-0.113281 0.5898437,-0.144531 0.3554688,-0.03125 0.6250001,0.04297 0.2734375,0.07422 0.46874995,0.214843 0.1953125,0.140625 0.32421875,0.328125 0.12890625,0.1875 0.19921875,0.382813 0.0742188,0.191406 0.0976563,0.375 0.0234375,0.179687 0.007813,0.308594 Q -0.375,32.125 -0.40234375,32.277344 -0.4296875,32.425781 -0.46875,32.5625 q -0.0351563,0.136719 -0.0820313,0.269531 -0.046875,0.132813 -0.109375,0.289063 -0.015625,0.04297 -0.0859375,0.1875 -0.0664063,0.144531 -0.171875,0.355468 -0.10156245,0.207032 -0.22656245,0.464844 -0.1210938,0.253906 -0.25,0.511719 Q -1.6953125,35.25 -2.0664063,36 Z m 0.1757812,-4.125 q 0,0.152344 0.015625,0.335937 0.015625,0.183594 0.089844,0.347657 0.078125,0.160156 0.2421875,0.277343 0.1640625,0.113282 0.4609375,0.128907 0.1484375,0.0078 0.2695313,-0.03516 0.1210937,-0.04687 0.2148437,-0.121093 0.09375,-0.07422 0.1601563,-0.167969 0.070312,-0.09375 0.1132812,-0.183594 0.046875,-0.09375 0.066406,-0.171875 0.019531,-0.07813 0.019531,-0.125 -0.00391,-0.09766 -0.00781,-0.21875 0,-0.121094 -0.023437,-0.246094 -0.019531,-0.125 -0.070312,-0.238281 -0.050781,-0.117187 -0.1445312,-0.203125 -0.09375,-0.08594 -0.2421875,-0.132812 -0.1445313,-0.05078 -0.3632813,-0.03906 -0.2421875,0.01172 -0.3984375,0.121094 -0.1523438,0.109375 -0.2421875,0.242187 -0.089844,0.132813 -0.125,0.257813 -0.035156,0.125 -0.035156,0.171875 z"
         style="font-size:8px;font-family:'DIN Alternate';text-anchor:end;fill:#888888"
         id="path468" />
    </g>
    <g
       aria-label="-12"
       id="text67"
       style="font-size:8px;font-family:'DIN Alternate';text-anchor:end;fill:#888888"
       class="led-label">
      <path
         d="m -10.511719,46.191406 h 2.4062502 V 45.375 h -2.4062502 z"
         style="font-size:8px;font-family:'DIN Alternate';text-anchor:end;fill:#888888"
         id="path471" />
      <path
         d="M -6.1367187,43.167969 V 48 h 0.8164062 v -5.695313 h -0.8164062 l -0.8085938,0.589844 v 0.867188 0 l 0.8085938,-0.59375 z"
         style="font-size:8px;font-family:'DIN Alternate';text-anchor:end;fill:#888888"
         id="path473" />
      <path
         d="m -3.5859375,48 h 3.24609375 V 47.183594 H -2.515625 l 1.83203125,-2.296875 q 0.34375,-0.4375 0.34375,-1 -0.007813,-0.703125 -0.47265625,-1.160157 -0.4570312,-0.460937 -1.1914063,-0.46875 -0.65625,0.0078 -1.1054687,0.460938 -0.4453125,0.464844 -0.4765625,1.175781 h 0.8125 Q -2.7304688,43.503906 -2.5,43.289062 q 0.2226562,-0.214843 0.5585938,-0.214843 0.3789062,0.0078 0.5859375,0.246093 0.1992187,0.238282 0.1992187,0.558594 0,0.121094 -0.03125,0.257813 -0.046875,0.144531 -0.1757812,0.3125 l -2.2226563,2.78125 z"
         style="font-size:8px;font-family:'DIN Alternate';text-anchor:end;fill:#888888"
         id="path475" />
    </g>
    <g
       aria-label="-18"
       id="text69"
       style="font-size:8px;font-family:'DIN Alternate';text-anchor:end;fill:#888888"
       class="led-label">
      <path
         d="m -10.511719,58.191406 h 2.4062502 V 57.375 h -2.4062502 z"
         style="font-size:8px;font-family:'DIN Alternate';text-anchor:end;fill:#888888"
         id="path478" />
      <path
         d="M -6.1367187,55.167969 V 60 h 0.8164062 v -5.695313 h -0.8164062 l -0.8085938,0.589844 v 0.867188 0 l 0.8085938,-0.59375 z"
         style="font-size:8px;font-family:'DIN Alternate';text-anchor:end;fill:#888888"
         id="path480" />
      <path
         d="m -2.7382813,55.886719 q 0.00781,-0.40625 0.2539063,-0.613282 0.2421875,-0.199218 0.5585938,-0.199218 0.328125,0 0.5703125,0.199218 0.2382812,0.207032 0.2460937,0.613282 -0.00781,0.394531 -0.2460937,0.601562 -0.2421875,0.214844 -0.5703125,0.214844 -0.3164063,0 -0.5585938,-0.214844 -0.2460938,-0.207031 -0.2539063,-0.601562 z m -0.921875,2.449218 q 0.00781,0.769532 0.5195313,1.230469 0.4882812,0.472656 1.2148438,0.480469 0.7304687,-0.0078 1.23437495,-0.480469 0.49609375,-0.460937 0.50390625,-1.230469 -0.007813,-0.824218 -0.671875,-1.28125 0.25390625,-0.222656 0.4140625,-0.511718 0.15234375,-0.269532 0.15234375,-0.640625 -0.007813,-0.710938 -0.46484375,-1.175782 -0.453125,-0.460937 -1.1679687,-0.46875 -0.7031251,0.0078 -1.1484376,0.46875 -0.4726562,0.464844 -0.4804687,1.175782 0,0.371093 0.1679687,0.640625 0.1445313,0.289062 0.3984375,0.511718 -0.6640625,0.457032 -0.671875,1.28125 z m 0.8164063,-0.0078 q 0.00781,-0.398438 0.28125,-0.648438 0.2617187,-0.246093 0.6367188,-0.253906 0.3867187,0.0078 0.6484375,0.253906 0.265625,0.25 0.2734375,0.648438 -0.00781,0.390625 -0.2734375,0.640625 -0.2617188,0.261719 -0.6484375,0.261719 -0.3750001,0 -0.6367188,-0.261719 -0.2734375,-0.25 -0.28125,-0.640625 z"
         style="font-size:8px;font-family:'DIN Alternate';text-anchor:end;fill:#888888"
         id="path482" />
    </g>
    <g
       aria-label="-24"
       id="text71"
       style="font-size:8px;font-family:'DIN Alternate';text-anchor:end;fill:#888888"
       class="led-label">
      <path
         d="m -10.511719,70.191406 h 2.4062502 V 69.375 h -2.4062502 z"
         style="font-size:8px;font-family:'DIN Alternate';text-anchor:end;fill:#888888"
         id="path485" />
      <path
         d="m -7.4296875,72 h 3.2460938 V 71.183594 H -6.359375 l 1.8320313,-2.296875 q 0.34375,-0.4375 0.34375,-1 -0.00781,-0.703125 -0.4726563,-1.160157 -0.4570312,-0.460937 -1.1914062,-0.46875 -0.65625,0.0078 -1.1054688,0.460938 -0.4453125,0.464844 -0.4765625,1.175781 h 0.8125 q 0.042969,-0.390625 0.2734375,-0.605469 0.2226563,-0.214843 0.5585938,-0.214843 0.3789062,0.0078 0.5859375,0.246093 Q -5,67.558594 -5,67.878906 -5,68 -5.03125,68.136719 q -0.046875,0.144531 -0.1757812,0.3125 l -2.2226563,2.78125 z"
         style="font-size:8px;font-family:'DIN Alternate';text-anchor:end;fill:#888888"
         id="path487" />
      <path
         d="m -3.7460938,71.152344 h 2.3750001 V 72 h 0.8164062 v -0.847656 h 0.453125 v -0.769532 h -0.453125 v -1.636718 h -0.8164062 v 1.636718 H -2.859375 l 1.92578125,-4.078125 H -1.84375 l -1.9023438,4.078125 z"
         style="font-size:8px;font-family:'DIN Alternate';text-anchor:end;fill:#888888"
         id="path489" />
    </g>
    <g
       aria-label="-36"
       id="text73"
       style="font-size:8px;font-family:'DIN Alternate';text-anchor:end;fill:#888888"
       class="led-label">
      <path
         d="m -10.511719,82.191406 h 2.4062502 V 81.375 h -2.4062502 z"
         style="font-size:8px;font-family:'DIN Alternate';text-anchor:end;fill:#888888"
         id="path492" />
      <path
         d="m -6.28125,81.425781 h 0.34375 q 0.3789063,0 0.625,0.230469 0.25,0.238281 0.2578125,0.671875 -0.00781,0.425781 -0.2578125,0.65625 -0.2460937,0.246094 -0.6054687,0.246094 -0.3359375,0 -0.5390625,-0.183594 Q -6.65625,82.871094 -6.765625,82.585937 H -7.5820312 Q -7.4492187,83.296875 -7,83.671875 q 0.4492188,0.375 1.03125,0.375 0.7539063,-0.0078 1.234375,-0.480469 0.4882813,-0.460937 0.4960938,-1.261719 0,-0.359375 -0.1523438,-0.6875 -0.1601562,-0.328125 -0.5195312,-0.5625 0.3515625,-0.238281 0.4882812,-0.542968 0.1171875,-0.304688 0.1171875,-0.632813 -0.00781,-0.648437 -0.4453125,-1.125 -0.4570312,-0.488281 -1.234375,-0.496094 -0.6132812,0.0078 -1.0546875,0.4375 -0.4492187,0.433594 -0.5117187,1.066407 h 0.8164062 q 0.078125,-0.351563 0.3046875,-0.519532 0.2148438,-0.167968 0.4765625,-0.167968 0.3632813,0.0078 0.59375,0.230468 0.2304688,0.230469 0.2382813,0.589844 0,0.355469 -0.2304688,0.578125 Q -5.5820312,80.703125 -6,80.703125 h -0.28125 z"
         style="font-size:8px;font-family:'DIN Alternate';text-anchor:end;fill:#888888"
         id="path494" />
      <path
         d="m -0.875,78.246094 q 0.003906,0 -0.0390625,0.08594 -0.0390625,0.08203 -0.109375,0.226563 -0.070312,0.144531 -0.1640625,0.332031 -0.09375,0.1875 -0.1992187,0.394531 -0.1015625,0.207031 -0.2109375,0.417969 -0.1054688,0.210937 -0.2070313,0.402344 -0.097656,0.191406 -0.1796875,0.347656 -0.082031,0.15625 -0.1367188,0.25 0.1132813,-0.06641 0.2539063,-0.07813 0.1445313,-0.01563 0.3320313,-0.0078 0.2695312,0.0078 0.46875,0.09375 0.20312495,0.08594 0.3476562,0.214844 0.14453125,0.128906 0.23828125,0.289063 0.0976563,0.15625 0.15234375,0.308593 0.0546875,0.148438 0.0742188,0.28125 0.0234375,0.128907 0.0234375,0.203125 0,0.02344 0,0.08594 0,0.0625 0,0.140625 0,0.07422 -0.003906,0.152344 0,0.07813 -0.003906,0.132812 -0.003906,0.02734 -0.0273438,0.144531 -0.0195313,0.113282 -0.078125,0.273438 -0.0546875,0.15625 -0.16015625,0.339844 -0.10546875,0.179687 -0.27734375,0.34375 -0.171875,0.160156 -0.4179687,0.277343 -0.2460938,0.117188 -0.5859375,0.144532 -0.3554688,0.03125 -0.6289063,-0.04687 Q -2.6875,83.917969 -2.8867188,83.773437 -3.0859375,83.628906 -3.21875,83.441406 -3.3515625,83.25 -3.4296875,83.050781 -3.5039063,82.851562 -3.53125,82.667969 q -0.023437,-0.183594 -0.00781,-0.3125 0.023437,-0.191407 0.050781,-0.339844 0.027344,-0.152344 0.0625,-0.289063 0.039063,-0.136718 0.085937,-0.269531 0.046875,-0.132812 0.109375,-0.289062 0.015625,-0.03906 0.085937,-0.183594 0.070312,-0.148438 0.171875,-0.363281 0.1054688,-0.214844 0.234375,-0.472657 0.1289063,-0.257812 0.2578125,-0.523437 0.3046875,-0.617188 0.6835938,-1.378906 z m -0.1640625,4.167968 q 0,-0.148437 -0.011719,-0.328125 -0.011719,-0.179687 -0.089844,-0.339843 -0.074219,-0.164063 -0.2460937,-0.28125 -0.171875,-0.117188 -0.4882813,-0.140625 -0.1484375,-0.01172 -0.2695313,0.03125 -0.1210937,0.04297 -0.2148437,0.117187 -0.09375,0.07422 -0.1640625,0.171875 -0.066406,0.09375 -0.1132813,0.1875 -0.042969,0.09375 -0.0625,0.175781 -0.019531,0.07813 -0.019531,0.121094 0,0.09766 0.00391,0.21875 0.00391,0.117188 0.023437,0.238281 0.023437,0.117188 0.074219,0.230469 0.050781,0.109375 0.1445312,0.195313 0.09375,0.08594 0.2382813,0.140625 0.1484375,0.05469 0.3671875,0.05469 0.1757813,0.0039 0.3046875,-0.04297 0.1328125,-0.05078 0.2226563,-0.125 0.09375,-0.07813 0.1523437,-0.171875 0.058594,-0.09375 0.089844,-0.183593 0.035156,-0.08984 0.046875,-0.160157 0.011719,-0.07422 0.011719,-0.109375 z"
         style="font-size:8px;font-family:'DIN Alternate';text-anchor:end;fill:#888888"
         id="path496" />
    </g>
    <g
       aria-label="-48"
       id="text75"
       style="font-size:8px;font-family:'DIN Alternate';text-anchor:end;fill:#888888"
       class="led-label">
      <path
         d="m -10.511719,94.191406 h 2.4062502 V 93.375 h -2.4062502 z"
         style="font-size:8px;font-family:'DIN Alternate';text-anchor:end;fill:#888888"
         id="path499" />
      <path
         d="m -7.5898437,95.152344 h 2.375 V 96 h 0.8164062 v -0.847656 h 0.453125 v -0.769532 h -0.453125 v -1.636718 h -0.8164062 v 1.636718 H -6.703125 l 1.9257813,-4.078125 H -5.6875 l -1.9023437,4.078125 z"
         style="font-size:8px;font-family:'DIN Alternate';text-anchor:end;fill:#888888"
         id="path501" />
      <path
         d="m -2.7382813,91.886719 q 0.00781,-0.40625 0.2539063,-0.613282 0.2421875,-0.199218 0.5585938,-0.199218 0.328125,0 0.5703125,0.199218 0.2382812,0.207032 0.2460937,0.613282 -0.00781,0.394531 -0.2460937,0.601562 -0.2421875,0.214844 -0.5703125,0.214844 -0.3164063,0 -0.5585938,-0.214844 -0.2460938,-0.207031 -0.2539063,-0.601562 z m -0.921875,2.449218 q 0.00781,0.769532 0.5195313,1.230469 0.4882812,0.472656 1.2148438,0.480469 0.7304687,-0.0078 1.23437495,-0.480469 0.49609375,-0.460937 0.50390625,-1.230469 -0.007813,-0.824218 -0.671875,-1.28125 0.25390625,-0.222656 0.4140625,-0.511718 0.15234375,-0.269532 0.15234375,-0.640625 -0.007813,-0.710938 -0.46484375,-1.175782 -0.453125,-0.460937 -1.1679687,-0.46875 -0.7031251,0.0078 -1.1484376,0.46875 -0.4726562,0.464844 -0.4804687,1.175782 0,0.371093 0.1679687,0.640625 0.1445313,0.289062 0.3984375,0.511718 -0.6640625,0.457032 -0.671875,1.28125 z m 0.8164063,-0.0078 q 0.00781,-0.398438 0.28125,-0.648438 0.2617187,-0.246093 0.6367188,-0.253906 0.3867187,0.0078 0.6484375,0.253906 0.265625,0.25 0.2734375,0.648438 -0.00781,0.390625 -0.2734375,0.640625 -0.2617188,0.261719 -0.6484375,0.261719 -0.3750001,0 -0.6367188,-0.261719 -0.2734375,-0.25 -0.28125,-0.640625 z"
         style="font-size:8px;font-family:'DIN Alternate';text-anchor:end;fill:#888888"
         id="path503" />
    </g>
  </g>
  <!-- labels -->
  <g
     transform="translate(12,168)"
     id="g83">
    <g
       aria-label="V"
       id="text81"
       style="font-size:8px;font-family:'DIN Alternate';text-anchor:middle;fill:#343434"
       class="label">
      <path
         d="m -0.33984375,2.5 h 0.671875 L 2.2148438,-3.1953125 H 1.3007812 L 0.00390625,1.140625 h -0.015625 L -1.3046875,-3.1953125 H -2.21875 Z"
         style="font-size:8px;font-family:'DIN Alternate';text-anchor:middle;fill:#343434"
         id="path551" />
    </g>
  </g>
  <g
     transform="translate(12,198)"
     id="g87">
    <g
       aria-label="V"
       id="text85"
       style="font-size:8px;font-family:'DIN Alternate';text-anchor:middle;fill:#343434"
       class="label">
      <path
         d="m -0.33984375,2.5 h 0.671875 L 2.2148438,-3.1953125 H 1.3007812 L 0.00390625,1.140625 h -0.015625 L -1.3046875,-3.1953125 H -2.21875 Z"
         style="font-size:8px;font-family:'DIN Alternate';text-anchor:middle;fill:#343434"
         id="path548" />
    </g>
  </g>
  <g
     transform="translate(12,228)"
     id="g91">
    <g
       aria-label="M"
       id="text89"
       style="font-size:8px;font-family:'DIN Alternate';text-anchor:middle;fill:#343434"
       class="label">
      <path
         d="m -2.4296875,2.5 h 0.8632813 v -3.5507812 h 0.015625 l 1.1914062,2.7343749 h 0.71875 l 1.1914062,-2.7343749 h 0.019531 V 2.5 H 2.4335938 V -3.1953125 H 1.6171875 L 0.015625,0.515625 v 0 l -1.6328125,-3.7109375 h -0.8125 z"
         style="font-size:8px;font-family:'DIN Alternate';text-anchor:middle;fill:#343434"
         id="path545" />
    </g>
  </g>
  <g
     transform="translate(12,258)"
     id="g95">
    <g
       aria-label="P"
       id="text93"
       style="font-size:8px;font-family:'DIN Alternate';text-anchor:middle;fill:#343434"
       class="label">
      <path
         d="M -0.91015625,-2.3789063 H 0.3359375 Q 0.6875,-2.3867188 0.953125,-2.21875 q 0.1757812,0.1015625 0.2734375,0.2773438 0.09375,0.1953125 0.09375,0.4804687 0,0.34375 -0.2304688,0.625 -0.24218745,0.2890625 -0.7226562,0.296875 H -0.91015625 Z M -1.7734375,2.5 h 0.86328125 V 0.27734375 h 1.3125 Q 1.28125,0.26171875 1.7382812,-0.28515625 2.1835938,-0.8046875 2.1835938,-1.4375 q 0,-0.46875 -0.1757813,-0.8125 -0.1679688,-0.3554688 -0.4375,-0.546875 Q 1.25,-3.0507813 0.9375,-3.1328125 q -0.3125,-0.0625 -0.6484375,-0.0625 h -2.0625 z"
         style="font-size:8px;font-family:'DIN Alternate';text-anchor:middle;fill:#343434"
         id="path542" />
    </g>
  </g>
  <g
     transform="translate(12,288)"
     id="g99">
    <g
       aria-label="P"
       id="text97"
       style="font-size:8px;font-family:'DIN Alternate';text-anchor:middle;fill:#343434"
       class="label">
      <path
         d="M -0.91015625,-2.3789063 H 0.3359375 Q 0.6875,-2.3867188 0.953125,-2.21875 q 0.1757812,0.1015625 0.2734375,0.2773438 0.09375,0.1953125 0.09375,0.4804687 0,0.34375 -0.2304688,0.625 -0.24218745,0.2890625 -0.7226562,0.296875 H -0.91015625 Z M -1.7734375,2.5 h 0.86328125 V 0.27734375 h 1.3125 Q 1.28125,0.26171875 1.7382812,-0.28515625 2.1835938,-0.8046875 2.1835938,-1.4375 q 0,-0.46875 -0.1757813,-0.8125 -0.1679688,-0.3554688 -0.4375,-0.546875 Q 1.25,-3.0507813 0.9375,-3.1328125 q -0.3125,-0.0625 -0.6484375,-0.0625 h -2.0625 z"
         style="font-size:8px;font-family:'DIN Alternate';text-anchor:middle;fill:#343434"
         id="path539" />
    </g>
  </g>
  <g
     transform="translate(12,318)"
     id="g103">
    <g
       aria-label="L"
       id="text101"
       style="font-size:8px;font-family:'DIN Alternate';text-anchor:middle;fill:#343434"
       class="label">
      <path
         d="M -1.625,2.5 H 2.0117188 V 1.6835937 H -0.76171875 V -3.1953125 H -1.625 Z"
         style="font-size:8px;font-family:'DIN Alternate';text-anchor:middle;fill:#343434"
         id="path536" />
    </g>
  </g>
  <g
     transform="translate(12,348)"
     id="g107">
    <g
       aria-label="R"
       id="text105"
       style="font-size:8px;font-family:'DIN Alternate';text-anchor:middle;fill:#343434"
       class="label">
      <path
         d="m -0.97265625,-2.4257813 h 1.3515625 q 0.4140625,0 0.63281245,0.1757813 0.2773438,0.1992187 0.2851563,0.6445313 0,0.3710937 -0.2382813,0.62499995 -0.24218745,0.2734375 -0.72656245,0.28125 h -1.3046875 z M -1.8359375,2.5 h 0.86328125 V 0.06640625 h 1.1015625 L 1.3046875,2.5 H 2.3320313 L 1.0117187,-0.02734375 Q 2.0976563,-0.4453125 2.1132813,-1.6054687 2.0898438,-2.3945313 1.546875,-2.8203125 q -0.4492188,-0.375 -1.16015625,-0.375 H -1.8359375 Z"
         style="font-size:8px;font-family:'DIN Alternate';text-anchor:middle;fill:#343434"
         id="path533" />
    </g>
  </g>
  <!-- ch1 -->
  <g
     aria-label="1"
     id="text111"
     style="font-size:10px;font-family:'DIN Alternate';text-anchor:middle;fill:#343434"
     class="big-label">
    <path
       d="M 30.536133,25.959961 V 32 h 1.020508 v -7.119141 h -1.020508 l -1.010742,0.737305 v 1.083984 0 l 1.010742,-0.742187 z"
       style="font-size:10px;font-family:'DIN Alternate';text-anchor:middle;fill:#343434"
       id="path530" />
  </g>
  <g
     transform="translate(25,42)"
     id="g117">
    <g
       id="use115"
       transform="translate(-5)">
      <g
         transform="translate(5,2.5)"
         id="g436" />
    </g>
  </g>
  <g
     transform="translate(37,42)"
     id="g121">
    <g
       id="use119"
       transform="translate(-5)">
      <g
         transform="translate(5,2.5)"
         id="g432" />
    </g>
  </g>
  <g
     id="use125"
     transform="translate(19,156)">
    <g
       transform="translate(12,12)"
       id="g300">
      <path
         id="circle296"
         style="fill:url(#linearGradient304)"
         transform="rotate(90)"
         d="M 11.5,0 A 11.5,11.5 0 0 1 0,11.5 11.5,11.5 0 0 1 -11.5,0 11.5,11.5 0 0 1 0,-11.5 11.5,11.5 0 0 1 11.5,0 Z" />
      <path
         id="circle298"
         style="fill:url(#linearGradient306)"
         transform="rotate(90)"
         d="M 9.5,0 A 9.5,9.5 0 0 1 0,9.5 9.5,9.5 0 0 1 -9.5,0 9.5,9.5 0 0 1 0,-9.5 9.5,9.5 0 0 1 9.5,0 Z" />
    </g>
  </g>
  <g
     id="use129"
     transform="translate(19,186)">
    <g
       transform="translate(12,12)"
       id="g308" />
  </g>
  <g
     id="use133"
     transform="translate(22,219)">
    <g
       transform="translate(9,9)"
       id="g312" />
  </g>
  <g
     id="use137"
     transform="translate(22,249)">
    <g
       transform="translate(9,9)"
       id="g322">
      <path
         id="circle316"
         style="fill:none;stroke:#222222"
         d="M 8.5,0 A 8.5,8.5 0 0 1 0,8.5 8.5,8.5 0 0 1 -8.5,0 8.5,8.5 0 0 1 0,-8.5 8.5,8.5 0 0 1 8.5,0 Z" />
      <path
         id="circle318"
         style="fill:url(#linearGradient326)"
         transform="rotate(90)"
         d="M 8,0 A 8,8 0 0 1 0,8 8,8 0 0 1 -8,0 8,8 0 0 1 0,-8 8,8 0 0 1 8,0 Z" />
      <path
         id="circle320"
         style="fill:url(#linearGradient328)"
         transform="rotate(90)"
         d="M 7,0 A 7,7 0 0 1 0,7 7,7 0 0 1 -7,0 7,7 0 0 1 0,-7 7,7 0 0 1 7,0 Z" />
    </g>
  </g>
  <g
     id="use141"
     transform="translate(19,276)">
    <g
       transform="translate(12,12)"
       id="g330" />
  </g>
  <g
     id="use145"
     transform="translate(19,306)">
    <g
       transform="translate(12,12)"
       id="g334" />
  </g>
  <g
     id="use149"
     transform="translate(19,336)">
    <g
       transform="translate(12,12)"
       id="g338" />
  </g>
  <!-- ch2 -->
  <g
     aria-label="2"
     id="text153"
     style="font-size:10px;font-family:'DIN Alternate';text-anchor:middle;fill:#343434"
     class="big-label">
    <path
       d="m 69.919922,32 h 4.057617 v -1.020508 h -2.719727 l 2.29004,-2.871094 q 0.429687,-0.546875 0.429687,-1.25 -0.0098,-0.878906 -0.59082,-1.450195 -0.571289,-0.576172 -1.489258,-0.585937 -0.820313,0.0098 -1.381836,0.576171 -0.556641,0.581055 -0.595703,1.469727 h 1.015625 q 0.05371,-0.488281 0.341797,-0.756836 0.27832,-0.268555 0.698242,-0.268555 0.473633,0.0098 0.732422,0.307618 0.249023,0.297851 0.249023,0.698242 0,0.151367 -0.03906,0.322265 -0.05859,0.180664 -0.219727,0.390625 l -2.77832,3.476563 z"
       style="font-size:10px;font-family:'DIN Alternate';text-anchor:middle;fill:#343434"
       id="path527" />
  </g>
  <g
     transform="translate(66,42)"
     id="g159">
    <g
       id="use157"
       transform="translate(-5)">
      <g
         transform="translate(5,2.5)"
         id="g428" />
    </g>
  </g>
  <g
     transform="translate(78,42)"
     id="g163">
    <g
       id="use161"
       transform="translate(-5)">
      <g
         transform="translate(5,2.5)"
         id="g424" />
    </g>
  </g>
  <g
     id="use167"
     transform="translate(60,156)">
    <g
       transform="translate(12,12)"
       id="g346">
      <path
         id="circle342"
         style="fill:url(#linearGradient350)"
         transform="rotate(90)"
         d="M 11.5,0 A 11.5,11.5 0 0 1 0,11.5 11.5,11.5 0 0 1 -11.5,0 11.5,11.5 0 0 1 0,-11.5 11.5,11.5 0 0 1 11.5,0 Z" />
      <path
         id="circle344"
         style="fill:url(#linearGradient352)"
         transform="rotate(90)"
         d="M 9.5,0 A 9.5,9.5 0 0 1 0,9.5 9.5,9.5 0 0 1 -9.5,0 9.5,9.5 0 0 1 0,-9.5 9.5,9.5 0 0 1 9.5,0 Z" />
    </g>
  </g>
  <g
     id="use171"
     transform="translate(60,186)">
    <g
       transform="translate(12,12)"
       id="g354" />
  </g>
  <g
     id="use175"
     transform="translate(63,219)">
    <g
       transform="translate(9,9)"
       id="g358" />
  </g>
  <g
     id="use179"
     transform="translate(63,249)">
    <g
       transform="translate(9,9)"
       id="g368">
      <path
         id="circle362"
         style="fill:none;stroke:#222222"
         d="M 8.5,0 A 8.5,8.5 0 0 1 0,8.5 8.5,8.5 0 0 1 -8.5,0 8.5,8.5 0 0 1 0,-8.5 8.5,8.5 0 0 1 8.5,0 Z" />
      <path
         id="circle364"
         style="fill:url(#linearGradient372)"
         transform="rotate(90)"
         d="M 8,0 A 8,8 0 0 1 0,8 8,8 0 0 1 -8,0 8,8 0 0 1 0,-8 8,8 0 0 1 8,0 Z" />
      <path
         id="circle366"
         style="fill:url(#linearGradient374)"
         transform="rotate(90)"
         d="M 7,0 A 7,7 0 0 1 0,7 7,7 0 0 1 -7,0 7,7 0 0 1 0,-7 7,7 0 0 1 7,0 Z" />
    </g>
  </g>
  <g
     id="use183"
     transform="translate(60,276)">
    <g
       transform="translate(12,12)"
       id="g376" />
  </g>
  <g
     id="use187"
     transform="translate(60,306)">
    <g
       transform="translate(12,12)"
       id="g380" />
  </g>
  <g
     id="use191"
     transform="translate(60,336)">
    <g
       transform="translate(12,12)"
       id="g384" />
  </g>
  <!-- mix -->
  <g
     aria-label="MIX"
     id="text195"
     style="font-size:10px;font-family:'DIN Alternate';text-anchor:middle;fill:#343434"
     class="big-label">
    <path
       d="m 105.98828,32 h 1.0791 v -4.438477 h 0.0195 l 1.48926,3.417969 h 0.89844 l 1.48926,-3.417969 h 0.0244 V 32 h 1.0791 v -7.119141 h -1.0205 l -2.00196,4.638672 v 0 l -2.04101,-4.638672 h -1.01563 z"
       style="font-size:10px;font-family:'DIN Alternate';text-anchor:middle;fill:#343434"
       id="path520" />
    <path
       d="m 113.56641,32 h 1.0791 v -7.119141 h -1.0791 z"
       style="font-size:10px;font-family:'DIN Alternate';text-anchor:middle;fill:#343434"
       id="path522" />
    <path
       d="M 118.07324,29.348633 119.63086,32 h 1.2207 l -2.17773,-3.647461 2.03613,-3.47168 h -1.21582 l -1.4209,2.470703 v 0 l -1.4209,-2.470703 h -1.2207 l 2.04102,3.47168 L 115.29492,32 h 1.21582 l 1.5625,-2.651367 z"
       style="font-size:10px;font-family:'DIN Alternate';text-anchor:middle;fill:#343434"
       id="path524" />
  </g>
  <g
     transform="translate(107,42)"
     id="g201">
    <g
       id="use199"
       transform="translate(-5)">
      <g
         transform="translate(5,2.5)"
         id="g420" />
    </g>
  </g>
  <g
     transform="translate(119,42)"
     id="g205">
    <g
       id="use203"
       transform="translate(-5)">
      <g
         transform="translate(5,2.5)"
         id="g416" />
    </g>
  </g>
  <g
     id="use209"
     transform="translate(101,156)">
    <g
       transform="translate(12,12)"
       id="g392">
      <path
         id="circle388"
         style="fill:url(#linearGradient396)"
         transform="rotate(90)"
         d="M 11.5,0 A 11.5,11.5 0 0 1 0,11.5 11.5,11.5 0 0 1 -11.5,0 11.5,11.5 0 0 1 0,-11.5 11.5,11.5 0 0 1 11.5,0 Z" />
      <path
         id="circle390"
         style="fill:url(#linearGradient398)"
         transform="rotate(90)"
         d="M 9.5,0 A 9.5,9.5 0 0 1 0,9.5 9.5,9.5 0 0 1 -9.5,0 9.5,9.5 0 0 1 0,-9.5 9.5,9.5 0 0 1 9.5,0 Z" />
    </g>
  </g>
  <g
     id="use213"
     transform="translate(101,186)">
    <g
       transform="translate(12,12)"
       id="g400" />
  </g>
  <g
     id="use217"
     transform="translate(104,219)">
    <g
       transform="translate(9,9)"
       id="g404" />
  </g>
  <path
     id="rect221"
     style="fill:#bbbbbb"
     d="m 101,303 h 24 c 1.662,0 3,1.338 3,3 v 54 c 0,1.662 -1.338,3 -3,3 h -24 c -1.662,0 -3,-1.338 -3,-3 v -54 c 0,-1.662 1.338,-3 3,-3 z"
     class="output" />
  <g
     id="use223"
     transform="translate(101,306)">
    <g
       transform="translate(12,12)"
       id="g408" />
  </g>
  <g
     id="use227"
     transform="translate(101,336)">
    <g
       transform="translate(12,12)"
       id="g412" />
  </g>
</svg>
