<?xml version="1.0" encoding="UTF-8" standalone="no"?>
<svg
   xmlns:dc="http://purl.org/dc/elements/1.1/"
   xmlns:cc="http://creativecommons.org/ns#"
   xmlns:rdf="http://www.w3.org/1999/02/22-rdf-syntax-ns#"
   xmlns:svg="http://www.w3.org/2000/svg"
   xmlns="http://www.w3.org/2000/svg"
   xmlns:sodipodi="http://sodipodi.sourceforge.net/DTD/sodipodi-0.dtd"
   xmlns:inkscape="http://www.inkscape.org/namespaces/inkscape"
   version="1.1"
   width="45"
   height="380"
   viewBox="0 0 45 380"
   id="svg80"
   sodipodi:docname="GAIN.svg"
   inkscape:version="1.0.2 (e86c8708, 2021-01-15)">
  <metadata
     id="metadata84">
    <rdf:RDF>
      <cc:Work
         rdf:about="">
        <dc:format>image/svg+xml</dc:format>
        <dc:type
           rdf:resource="http://purl.org/dc/dcmitype/StillImage" />
      </cc:Work>
    </rdf:RDF>
  </metadata>
  <sodipodi:namedview
     pagecolor="#ffffff"
     bordercolor="#666666"
     borderopacity="1"
     objecttolerance="10"
     gridtolerance="10"
     guidetolerance="10"
     inkscape:pageopacity="0"
     inkscape:pageshadow="2"
     inkscape:window-width="689"
     inkscape:window-height="480"
     id="namedview82"
     showgrid="false"
     inkscape:zoom="2.1763158"
     inkscape:cx="22.5"
     inkscape:cy="190"
     inkscape:window-x="0"
     inkscape:window-y="25"
     inkscape:window-maximized="0"
     inkscape:current-layer="svg80" />
  <style
     id="style2">
    text.title {
      fill: #a91913;
      font-family: 'DIN Alternate';
      font-size: 12pt;
    }
    text.logo {
      fill: #a91913;
      font-family: 'DIN Alternate';
      font-size: 10pt;
    }
    text.big-label {
      fill: #343434;
      font-family: 'DIN Alternate';
      font-size: 7.5pt;
    }
    text.label {
      fill: #343434;
      font-family: 'DIN Alternate';
      font-size: 6pt;
    }
    .background {
      fill: #e0e0e0;
    }
    .output {
      fill: #bbbbbb;
    }
    polyline.icon {
      stroke: #343434;
      stroke-width: 1.2;
      fill: none;
    }
    polyline.connect {
      stroke: #343434;
      stroke-width: 1;
      fill: none;
    }

    .blueprint {
      stroke: #08f;
      fill: none;
    }
  </style>
  <!-- ======== defs ======== -->
  <defs
     id="defs10">
    <symbol
       id="port">
      <g
         transform="translate(12 12)"
         id="g4" />
    </symbol>
    <symbol
       id="fader">
      <g
         transform="translate(9 0)"
         id="g7" />
    </symbol>
  </defs>
  <!-- ======== body ======== -->
  <path
     id="rect12"
     style="fill:#e0e0e0"
     d="M 0,0 H 45 V 380 H 0 Z"
     class="background" />
  <g
     aria-label="GAIN"
     id="text14"
     style="font-size:16px;font-family:'DIN Alternate';text-anchor:middle;fill:#a91913"
     class="title">
    <path
       d="M 10.117188,25.359375 H 12.4375 v 0.59375 q -0.01563,1.070312 -0.671875,1.726562 -0.65625,0.6875 -1.664062,0.6875 -0.6093755,0 -1.0468755,-0.257812 Q 8.609375,27.890625 8.3359375,27.539062 8,27.171875 7.890625,26.578125 q -0.125,-0.59375 -0.125,-2.273438 0,-1.679687 0.125,-2.289062 Q 8,21.4375 8.3359375,21.070312 q 0.2734375,-0.351562 0.71875,-0.585937 0.4375,-0.226563 1.0468755,-0.242188 0.828125,0.01563 1.40625,0.476563 0.554687,0.484375 0.765625,1.171875 h 1.828125 Q 13.828125,20.460937 12.789063,19.492187 11.75,18.53125 10.101563,18.515625 8.7578125,18.53125 7.859375,19.15625 6.9453125,19.773437 6.53125,20.5625 6.2734375,20.976562 6.1484375,21.648437 6.03125,22.320312 6.03125,24.304687 q 0,1.953125 0.1171875,2.640625 0.0625,0.367188 0.15625,0.609375 0.1015625,0.234375 0.2265625,0.492188 0.4140625,0.789062 1.328125,1.390625 0.8984375,0.625 2.242188,0.65625 1.742187,-0.03125 2.890625,-1.179688 1.140625,-1.15625 1.171875,-2.867187 v -2.320313 h -4.046875 z"
       style="font-size:16px;font-family:'DIN Alternate';text-anchor:middle;fill:#a91913"
       id="path204" />
    <path
       d="m 18.1875,25.921875 1.648437,-4.976563 h 0.03125 l 1.648438,4.976563 z M 22.890625,30 h 1.820312 L 20.570312,18.609375 H 19.125 L 14.984375,30 H 16.8125 l 0.875,-2.546875 h 4.320312 z"
       style="font-size:16px;font-family:'DIN Alternate';text-anchor:middle;fill:#a91913"
       id="path206" />
    <path
       d="m 25.921875,30 h 1.726562 V 18.609375 h -1.726562 z"
       style="font-size:16px;font-family:'DIN Alternate';text-anchor:middle;fill:#a91913"
       id="path208" />
    <path
       d="m 30.046875,30 h 1.726562 v -8.09375 h 0.03125 L 36.953125,30 h 1.632812 V 18.609375 h -1.726562 v 8.09375 h -0.03125 l -5.15625,-8.09375 h -1.625 z"
       style="font-size:16px;font-family:'DIN Alternate';text-anchor:middle;fill:#a91913"
       id="path210" />
  </g>
  <g
     aria-label="RM"
     id="text16"
     style="font-size:13.3333px;font-family:'DIN Alternate';text-anchor:middle;fill:#a91913"
     class="logo">
    <path
       d="m 15.826823,353.79036 h 2.252604 q 0.690104,0 1.054688,0.29297 0.462239,0.33203 0.47526,1.07422 0,0.61849 -0.397135,1.04167 -0.403646,0.45573 -1.210938,0.46875 H 15.826823 Z M 14.388021,362 h 1.438802 v -4.05599 h 1.835938 L 19.622396,362 h 1.712239 l -2.20052,-4.21224 q 1.809895,-0.69661 1.835937,-2.63021 -0.03906,-1.3151 -0.94401,-2.02474 -0.748698,-0.625 -1.933594,-0.625 h -3.704427 z"
       style="font-size:13.3333px;font-family:'DIN Alternate';text-anchor:middle;fill:#a91913"
       id="path199" />
    <path
       d="m 22.513021,362 h 1.438802 v -5.91797 h 0.02604 l 1.985677,4.55729 h 1.197916 l 1.985677,-4.55729 h 0.03255 V 362 h 1.438802 v -9.49219 h -1.360677 l -2.669271,6.1849 v 0 l -2.721354,-6.1849 h -1.354167 z"
       style="font-size:13.3333px;font-family:'DIN Alternate';text-anchor:middle;fill:#a91913"
       id="path201" />
  </g>
  <g
     id="use18"
     transform="translate(13.5,40)">
    <g
       transform="translate(9)"
       id="g112" />
  </g>
  <g
     aria-label="6"
     id="text20"
     style="font-size:8px;font-family:'DIN Alternate';fill:#343434"
     class="label">
    <path
       d="m 8.46875,36.746094 q 0.00391,0 -0.039063,0.08594 -0.039063,0.08203 -0.109375,0.226563 Q 8.25,37.203125 8.15625,37.390625 q -0.09375,0.1875 -0.1992188,0.394531 -0.1015625,0.207031 -0.2109375,0.417969 -0.1054687,0.210937 -0.2070312,0.402344 -0.097656,0.191406 -0.1796875,0.347656 -0.082031,0.15625 -0.1367188,0.25 0.1132813,-0.06641 0.2539063,-0.07813 0.1445312,-0.01563 0.3320312,-0.0078 0.2695313,0.0078 0.4687501,0.09375 0.203125,0.08594 0.3476562,0.214844 0.1445313,0.128906 0.2382813,0.289063 0.097656,0.15625 0.1523437,0.308593 0.054687,0.148438 0.074219,0.28125 0.023437,0.128907 0.023437,0.203125 0,0.02344 0,0.08594 0,0.0625 0,0.140625 0,0.07422 -0.00391,0.152344 0,0.07813 -0.00391,0.132812 -0.00391,0.02734 -0.027344,0.144531 Q 9.0585938,41.277344 9,41.4375 8.9453125,41.59375 8.8398438,41.777344 8.734375,41.957031 8.5625,42.121094 8.390625,42.28125 8.1445313,42.398437 7.8984375,42.515625 7.5585937,42.542969 7.203125,42.574219 6.9296875,42.496094 6.65625,42.417969 6.4570312,42.273437 6.2578125,42.128906 6.125,41.941406 5.9921875,41.75 5.9140625,41.550781 5.8398437,41.351562 5.8125,41.167969 q -0.023437,-0.183594 -0.00781,-0.3125 0.023437,-0.191407 0.050781,-0.339844 0.027344,-0.152344 0.0625,-0.289063 0.039063,-0.136718 0.085937,-0.269531 0.046875,-0.132812 0.109375,-0.289062 0.015625,-0.03906 0.085937,-0.183594 0.070312,-0.148438 0.171875,-0.363281 Q 6.4765625,38.90625 6.6054687,38.648437 6.734375,38.390625 6.8632812,38.125 7.1679687,37.507812 7.546875,36.746094 Z m -0.1640625,4.167968 q 0,-0.148437 -0.011719,-0.328125 Q 8.28125,40.40625 8.203125,40.246094 8.1289063,40.082031 7.9570312,39.964844 7.7851562,39.847656 7.46875,39.824219 7.3203125,39.8125 7.1992187,39.855469 7.078125,39.898437 6.984375,39.972656 q -0.09375,0.07422 -0.1640625,0.171875 -0.066406,0.09375 -0.1132813,0.1875 -0.042969,0.09375 -0.0625,0.175781 Q 6.625,40.585937 6.625,40.628906 q 0,0.09766 0.00391,0.21875 0.00391,0.117188 0.023437,0.238281 0.023437,0.117188 0.074219,0.230469 0.050781,0.109375 0.1445312,0.195313 0.09375,0.08594 0.2382813,0.140625 0.1484375,0.05469 0.3671875,0.05469 0.1757812,0.0039 0.3046875,-0.04297 0.1328125,-0.05078 0.2226563,-0.125 0.09375,-0.07813 0.1523437,-0.171875 0.058594,-0.09375 0.089844,-0.183593 0.035156,-0.08984 0.046875,-0.160157 0.011719,-0.07422 0.011719,-0.109375 z"
       style="font-size:8px;font-family:'DIN Alternate';fill:#343434"
       id="path196" />
  </g>
  <path
     id="polyline22"
     transform="translate(22.5,40)"
     style="fill:none;stroke:#343434;stroke-width:1"
     d="m -12,0 h 3"
     class="connect" />
  <g
     aria-label="3"
     id="text24"
     style="font-size:8px;font-family:'DIN Alternate';fill:#343434"
     class="label">
    <path
       d="M 6.90625,54.925781 H 7.25 q 0.3789062,0 0.625,0.230469 0.25,0.238281 0.2578125,0.671875 Q 8.125,56.253906 7.875,56.484375 q -0.2460938,0.246094 -0.6054688,0.246094 -0.3359375,0 -0.5390625,-0.183594 Q 6.53125,56.371094 6.421875,56.085937 H 5.6054687 q 0.1328125,0.710938 0.5820313,1.085938 0.4492187,0.375 1.03125,0.375 0.7539062,-0.0078 1.234375,-0.480469 0.4882813,-0.460937 0.4960938,-1.261719 0,-0.359375 -0.1523438,-0.6875 Q 8.6367188,54.789062 8.2773438,54.554687 8.6289063,54.316406 8.765625,54.011719 8.8828125,53.707031 8.8828125,53.378906 8.875,52.730469 8.4375,52.253906 7.9804687,51.765625 7.203125,51.757812 q -0.6132813,0.0078 -1.0546875,0.4375 -0.4492188,0.433594 -0.5117188,1.066407 H 6.453125 q 0.078125,-0.351563 0.3046875,-0.519532 0.2148437,-0.167968 0.4765625,-0.167968 0.3632812,0.0078 0.59375,0.230468 0.2304688,0.230469 0.2382813,0.589844 0,0.355469 -0.2304688,0.578125 Q 7.6054687,54.203125 7.1875,54.203125 H 6.90625 Z"
       style="font-size:8px;font-family:'DIN Alternate';fill:#343434"
       id="path192" />
  </g>
  <path
     id="polyline26"
     transform="translate(22.5,40)"
     style="fill:none;stroke:#343434;stroke-width:1"
     d="m -12,15 h 3"
     class="connect" />
  <g
     aria-label="0"
     id="text28"
     style="font-size:8px;font-family:'DIN Alternate';fill:#343434"
     class="label">
    <path
       d="m 8.21875,70.859375 q -0.023437,0.863281 -0.8007813,0.871094 -0.78125,-0.0078 -0.796875,-0.871094 v -2.414063 q 0.015625,-0.855468 0.796875,-0.871093 0.7773438,0.01563 0.8007813,0.871093 z m -2.4140625,0.04687 q 0.00781,0.785156 0.5039062,1.210937 0.4648438,0.421875 1.109375,0.429688 0.6640626,-0.0078 1.1289063,-0.429688 0.4726563,-0.425781 0.4882813,-1.210937 V 68.394531 Q 9.0195313,67.605469 8.546875,67.179687 8.0820313,66.757812 7.4179687,66.757812 q -0.6445312,0 -1.109375,0.421875 Q 5.8125,67.605469 5.8046875,68.394531 Z"
       style="font-size:8px;font-family:'DIN Alternate';fill:#343434"
       id="path188" />
  </g>
  <path
     id="polyline30"
     transform="translate(22.5,40)"
     style="fill:none;stroke:#343434;stroke-width:1"
     d="m -12,30 h 3"
     class="connect" />
  <g
     aria-label="3"
     id="text32"
     style="font-size:8px;font-family:'DIN Alternate';fill:#343434"
     class="label">
    <path
       d="M 6.90625,84.925781 H 7.25 q 0.3789062,0 0.625,0.230469 0.25,0.238281 0.2578125,0.671875 Q 8.125,86.253906 7.875,86.484375 q -0.2460938,0.246094 -0.6054688,0.246094 -0.3359375,0 -0.5390625,-0.183594 Q 6.53125,86.371094 6.421875,86.085937 H 5.6054687 q 0.1328125,0.710938 0.5820313,1.085938 0.4492187,0.375 1.03125,0.375 0.7539062,-0.0078 1.234375,-0.480469 0.4882813,-0.460937 0.4960938,-1.261719 0,-0.359375 -0.1523438,-0.6875 Q 8.6367188,84.789062 8.2773438,84.554687 8.6289063,84.316406 8.765625,84.011719 8.8828125,83.707031 8.8828125,83.378906 8.875,82.730469 8.4375,82.253906 7.9804687,81.765625 7.203125,81.757812 q -0.6132813,0.0078 -1.0546875,0.4375 -0.4492188,0.433594 -0.5117188,1.066407 H 6.453125 q 0.078125,-0.351563 0.3046875,-0.519532 0.2148437,-0.167968 0.4765625,-0.167968 0.3632812,0.0078 0.59375,0.230468 0.2304688,0.230469 0.2382813,0.589844 0,0.355469 -0.2304688,0.578125 Q 7.6054687,84.203125 7.1875,84.203125 H 6.90625 Z"
       style="font-size:8px;font-family:'DIN Alternate';fill:#343434"
       id="path184" />
  </g>
  <path
     id="polyline34"
     transform="translate(22.5,40)"
     style="fill:none;stroke:#343434;stroke-width:1"
     d="m -12,45 h 3"
     class="connect" />
  <g
     aria-label="6"
     id="text36"
     style="font-size:8px;font-family:'DIN Alternate';fill:#343434"
     class="label">
    <path
       d="m 8.46875,96.746094 q 0.00391,0 -0.039063,0.08594 -0.039063,0.08203 -0.109375,0.226563 Q 8.25,97.203125 8.15625,97.390625 q -0.09375,0.1875 -0.1992188,0.394531 -0.1015625,0.207031 -0.2109375,0.417969 -0.1054687,0.210937 -0.2070312,0.402344 -0.097656,0.191406 -0.1796875,0.347656 -0.082031,0.15625 -0.1367188,0.25 0.1132813,-0.06641 0.2539063,-0.07813 0.1445312,-0.01563 0.3320312,-0.0078 0.2695313,0.0078 0.4687501,0.09375 0.203125,0.08594 0.3476562,0.214844 0.1445313,0.128906 0.2382813,0.289063 0.097656,0.15625 0.1523437,0.308596 0.054687,0.14844 0.074219,0.28125 0.023437,0.1289 0.023437,0.20312 0,0.0234 0,0.0859 0,0.0625 0,0.14063 0,0.0742 -0.00391,0.15234 0,0.0781 -0.00391,0.13281 -0.00391,0.0273 -0.027344,0.14453 Q 9.0585938,101.27734 9,101.4375 q -0.054687,0.15625 -0.1601562,0.33984 -0.1054688,0.17969 -0.2773438,0.34375 -0.171875,0.16016 -0.4179687,0.27735 -0.2460938,0.11719 -0.5859376,0.14453 -0.3554687,0.0312 -0.6289062,-0.0469 Q 6.65625,102.41797 6.4570312,102.27344 6.2578125,102.12891 6.125,101.94141 5.9921875,101.75 5.9140625,101.55078 5.8398437,101.35156 5.8125,101.16797 q -0.023437,-0.18359 -0.00781,-0.3125 0.023437,-0.19141 0.050781,-0.33984 0.027344,-0.15235 0.0625,-0.28907 0.039063,-0.13672 0.085937,-0.269529 0.046875,-0.132812 0.109375,-0.289062 0.015625,-0.03906 0.085937,-0.183594 0.070312,-0.148438 0.171875,-0.363281 Q 6.4765625,98.90625 6.6054687,98.648437 6.734375,98.390625 6.8632812,98.125 7.1679687,97.507812 7.546875,96.746094 Z m -0.1640625,4.167966 q 0,-0.14843 -0.011719,-0.32812 Q 8.28125,100.40625 8.203125,100.24609 8.1289063,100.08203 7.9570312,99.964844 7.7851562,99.847656 7.46875,99.824219 7.3203125,99.8125 7.1992187,99.855469 7.078125,99.898437 6.984375,99.972656 q -0.09375,0.07422 -0.1640625,0.171874 -0.066406,0.0937 -0.1132813,0.1875 -0.042969,0.0937 -0.0625,0.17578 -0.019531,0.0781 -0.019531,0.1211 0,0.0977 0.00391,0.21875 0.00391,0.11718 0.023437,0.23828 0.023437,0.11719 0.074219,0.23047 0.050781,0.10937 0.1445312,0.19531 0.09375,0.0859 0.2382813,0.14062 0.1484375,0.0547 0.3671875,0.0547 0.1757812,0.004 0.3046875,-0.043 0.1328125,-0.0508 0.2226563,-0.125 0.09375,-0.0781 0.1523437,-0.17187 0.058594,-0.0937 0.089844,-0.1836 0.035156,-0.0898 0.046875,-0.16015 0.011719,-0.0742 0.011719,-0.10938 z"
       style="font-size:8px;font-family:'DIN Alternate';fill:#343434"
       id="path180" />
  </g>
  <path
     id="polyline38"
     transform="translate(22.5,40)"
     style="fill:none;stroke:#343434;stroke-width:1"
     d="m -12,60 h 3"
     class="connect" />
  <g
     aria-label="12"
     id="text40"
     style="font-size:8px;font-family:'DIN Alternate';fill:#343434"
     class="label">
    <path
       d="M 3.5507813,118.66797 V 123.5 h 0.8164062 v -5.69531 H 3.5507813 l -0.8085938,0.58984 v 0.86719 0 l 0.8085938,-0.59375 z"
       style="font-size:8px;font-family:'DIN Alternate';fill:#343434"
       id="path174" />
    <path
       d="m 6.1015625,123.5 h 3.2460938 v -0.81641 H 7.171875 l 1.8320313,-2.29687 q 0.34375,-0.4375 0.34375,-1 -0.00781,-0.70313 -0.4726563,-1.16016 -0.4570312,-0.46093 -1.1914063,-0.46875 -0.65625,0.008 -1.1054687,0.46094 -0.4453125,0.46484 -0.4765625,1.17578 h 0.8125 q 0.042969,-0.39062 0.2734375,-0.60547 0.2226562,-0.21484 0.5585937,-0.21484 0.3789063,0.008 0.5859376,0.24609 0.1992187,0.23828 0.1992187,0.5586 0,0.12109 -0.03125,0.25781 -0.046875,0.14453 -0.1757812,0.3125 l -2.2226563,2.78125 z"
       style="font-size:8px;font-family:'DIN Alternate';fill:#343434"
       id="path176" />
  </g>
  <path
     id="polyline42"
     transform="translate(22.5,40)"
     style="fill:none;stroke:#343434;stroke-width:1"
     d="m -12,81 h 3"
     class="connect" />
  <g
     aria-label="24"
     id="text44"
     style="font-size:8px;font-family:'DIN Alternate';fill:#343434"
     class="label">
    <path
       d="m 2.2578125,144.5 h 3.2460937 v -0.81641 H 3.328125 l 1.8320312,-2.29687 q 0.34375,-0.4375 0.34375,-1 -0.00781,-0.70313 -0.4726562,-1.16016 -0.4570313,-0.46094 -1.1914062,-0.46875 -0.65625,0.008 -1.1054688,0.46094 -0.4453125,0.46484 -0.4765625,1.17578 h 0.8125 q 0.042969,-0.39062 0.2734375,-0.60547 0.2226563,-0.21484 0.5585938,-0.21484 0.3789062,0.008 0.5859374,0.24609 0.1992188,0.23828 0.1992188,0.5586 0,0.12109 -0.03125,0.25781 -0.046875,0.14453 -0.1757813,0.3125 l -2.2226562,2.78125 z"
       style="font-size:8px;font-family:'DIN Alternate';fill:#343434"
       id="path168" />
    <path
       d="M 5.9414062,143.65234 H 8.3164063 V 144.5 h 0.8164062 v -0.84766 h 0.453125 v -0.76953 h -0.453125 v -1.63672 H 8.3164063 v 1.63672 H 6.828125 l 1.9257813,-4.07812 H 7.84375 l -1.9023438,4.07812 z"
       style="font-size:8px;font-family:'DIN Alternate';fill:#343434"
       id="path170" />
  </g>
  <path
     id="polyline46"
     transform="translate(22.5,40)"
     style="fill:none;stroke:#343434;stroke-width:1"
     d="m -12,102 h 3"
     class="connect" />
  <g
     aria-label="48"
     id="text48"
     style="font-size:8px;font-family:'DIN Alternate';fill:#343434"
     class="label">
    <path
       d="M 2.0976563,164.65234 H 4.4726562 V 165.5 h 0.8164063 v -0.84766 h 0.453125 v -0.76953 h -0.453125 v -1.63672 H 4.4726562 v 1.63672 H 2.984375 l 1.9257812,-4.07812 H 4 l -1.9023437,4.07812 z"
       style="font-size:8px;font-family:'DIN Alternate';fill:#343434"
       id="path162" />
    <path
       d="m 6.9492187,161.38672 q 0.00781,-0.40625 0.2539063,-0.61328 0.2421875,-0.19922 0.5585937,-0.19922 0.3281251,0 0.5703126,0.19922 0.2382812,0.20703 0.2460937,0.61328 -0.00781,0.39453 -0.2460937,0.60156 -0.2421875,0.21484 -0.5703126,0.21484 -0.3164062,0 -0.5585937,-0.21484 -0.2460938,-0.20703 -0.2539063,-0.60156 z m -0.921875,2.44922 q 0.00781,0.76953 0.5195313,1.23047 0.4882812,0.47265 1.2148437,0.48046 0.7304688,-0.008 1.2343751,-0.48046 0.4960937,-0.46094 0.5039062,-1.23047 -0.00781,-0.82422 -0.671875,-1.28125 0.2539063,-0.22266 0.4140625,-0.51172 0.1523438,-0.26953 0.1523438,-0.64063 -0.00781,-0.71093 -0.4648438,-1.17578 -0.453125,-0.46094 -1.1679688,-0.46875 -0.703125,0.008 -1.1484375,0.46875 -0.4726562,0.46485 -0.4804687,1.17578 0,0.3711 0.1679687,0.64063 0.1445313,0.28906 0.3984375,0.51172 -0.6640625,0.45703 -0.671875,1.28125 z m 0.8164063,-0.008 q 0.00781,-0.39843 0.28125,-0.64843 0.2617187,-0.2461 0.6367187,-0.25391 0.3867188,0.008 0.6484376,0.25391 0.265625,0.25 0.2734375,0.64843 -0.00781,0.39063 -0.2734375,0.64063 -0.2617188,0.26172 -0.6484376,0.26172 -0.375,0 -0.6367187,-0.26172 -0.2734375,-0.25 -0.28125,-0.64063 z"
       style="font-size:8px;font-family:'DIN Alternate';fill:#343434"
       id="path164" />
  </g>
  <path
     id="polyline50"
     transform="translate(22.5,40)"
     style="fill:none;stroke:#343434;stroke-width:1"
     d="m -12,123 h 3"
     class="connect" />
  <g
     id="use54"
     transform="translate(10.5,189)">
    <g
       transform="translate(12,12)"
       id="g116" />
  </g>
  <g
     aria-label="MUTE"
     id="text56"
     style="font-size:8px;font-family:'DIN Alternate';text-anchor:middle;fill:#343434"
     class="label">
    <path
       d="m 13.320313,223 h 0.863281 v -3.55078 h 0.01563 l 1.191406,2.73437 h 0.71875 l 1.191406,-2.73437 h 0.01953 V 223 h 0.863282 v -5.69531 h -0.816407 l -1.601562,3.71093 v 0 l -1.632812,-3.71093 h -0.8125 z"
       style="font-size:8px;font-family:'DIN Alternate';text-anchor:middle;fill:#343434"
       id="path152" />
    <path
       d="m 19.277344,221.07031 q 0.0078,0.89844 0.59375,1.42578 0.574218,0.54297 1.429687,0.55078 0.871094,-0.008 1.441406,-0.55078 0.566407,-0.52734 0.582032,-1.42578 v -3.76562 h -0.863282 v 3.67187 q -0.0078,0.58203 -0.328125,0.88672 -0.328125,0.32031 -0.832031,0.32031 -0.503906,0 -0.824219,-0.32031 -0.328125,-0.30469 -0.335937,-0.88672 v -3.67187 h -0.863281 z"
       style="font-size:8px;font-family:'DIN Alternate';text-anchor:middle;fill:#343434"
       id="path154" />
    <path
       d="m 25.394531,223 h 0.867188 v -4.92578 h 1.558593 v -0.76953 h -3.984375 v 0.76953 h 1.558594 z"
       style="font-size:8px;font-family:'DIN Alternate';text-anchor:middle;fill:#343434"
       id="path156" />
    <path
       d="m 28.429687,223 h 3.636719 v -0.81641 h -2.773437 v -1.67187 h 2.367187 v -0.76563 h -2.367187 v -1.625 h 2.773437 v -0.8164 h -3.636719 z"
       style="font-size:8px;font-family:'DIN Alternate';text-anchor:middle;fill:#343434"
       id="path158" />
  </g>
  <g
     id="use60"
     transform="translate(10.5,228)">
    <g
       transform="translate(12,12)"
       id="g120" />
  </g>
  <g
     aria-label="VOL"
     id="text62"
     style="font-size:8px;font-family:'DIN Alternate';text-anchor:middle;fill:#343434"
     class="label">
    <path
       d="m 17.566406,262 h 0.671875 l 1.882813,-5.69531 h -0.914063 l -1.296875,4.33593 h -0.01563 l -1.292969,-4.33593 H 15.6875 Z"
       style="font-size:8px;font-family:'DIN Alternate';text-anchor:middle;fill:#343434"
       id="path145" />
    <path
       d="m 20.398437,259.15234 q 0,0.97657 0.05859,1.32032 0.03125,0.18359 0.07813,0.30468 0.05078,0.11719 0.113281,0.2461 0.207032,0.39453 0.664063,0.69531 0.449219,0.3125 1.121094,0.32812 0.679687,-0.0156 1.132812,-0.32812 0.449219,-0.30078 0.648438,-0.69531 0.144531,-0.20703 0.199218,-0.55078 0.05078,-0.34375 0.05078,-1.32032 0,-0.99218 -0.05078,-1.32812 -0.05469,-0.33594 -0.199218,-0.54297 -0.199219,-0.39453 -0.648438,-0.70313 -0.453125,-0.3125 -1.132812,-0.32031 -0.671875,0.008 -1.121094,0.32031 -0.457031,0.3086 -0.664063,0.70313 -0.128906,0.20703 -0.191406,0.54297 -0.05859,0.33594 -0.05859,1.32812 z m 0.867188,0 q 0,-0.83984 0.0625,-1.14453 0.05469,-0.28906 0.222656,-0.47265 0.136719,-0.17579 0.359375,-0.29297 0.21875,-0.11328 0.523438,-0.1211 0.308593,0.008 0.535156,0.1211 0.214844,0.11718 0.34375,0.29297 0.167969,0.18359 0.230469,0.47265 0.05859,0.30469 0.05859,1.14453 0,0.83985 -0.05859,1.13672 -0.0625,0.29688 -0.230469,0.48047 -0.128906,0.17578 -0.34375,0.28516 -0.226563,0.1289 -0.535156,0.1289 -0.304688,0 -0.523438,-0.1289 -0.222656,-0.10938 -0.359375,-0.28516 -0.167969,-0.18359 -0.222656,-0.48047 -0.0625,-0.29687 -0.0625,-1.13672 z"
       style="font-size:8px;font-family:'DIN Alternate';text-anchor:middle;fill:#343434"
       id="path147" />
    <path
       d="m 25.46875,262 h 3.636719 v -0.81641 h -2.773438 v -4.8789 H 25.46875 Z"
       style="font-size:8px;font-family:'DIN Alternate';text-anchor:middle;fill:#343434"
       id="path149" />
  </g>
  <g
     id="use66"
     transform="translate(10.5,267)">
    <g
       transform="translate(12,12)"
       id="g124" />
  </g>
  <g
     aria-label="IN"
     id="text68"
     style="font-size:8px;font-family:'DIN Alternate';text-anchor:middle;fill:#343434"
     class="label">
    <path
       d="m 19.335937,301 h 0.863282 v -5.69531 h -0.863282 z"
       style="font-size:8px;font-family:'DIN Alternate';text-anchor:middle;fill:#343434"
       id="path140" />
    <path
       d="m 21.398437,301 h 0.863282 v -4.04688 h 0.01563 L 24.851562,301 h 0.816407 v -5.69531 h -0.863282 v 4.04687 h -0.01563 l -2.578125,-4.04687 h -0.8125 z"
       style="font-size:8px;font-family:'DIN Alternate';text-anchor:middle;fill:#343434"
       id="path142" />
  </g>
  <path
     id="rect72"
     style="fill:#bbbbbb"
     d="m 9.5,304 h 26 c 1.662,0 3,1.338 3,3 v 36 c 0,1.662 -1.338,3 -3,3 h -26 c -1.662,0 -3,-1.338 -3,-3 v -36 c 0,-1.662 1.338,-3 3,-3 z"
     class="output" />
  <g
     id="use74"
     transform="translate(10.5,308)">
    <g
       transform="translate(12,12)"
       id="g128" />
  </g>
  <g
     aria-label="OUT"
     id="text76"
     style="font-size:8px;font-family:'DIN Alternate';text-anchor:middle;fill:#343434"
     class="label">
    <path
       d="m 15.945313,339.15234 q 0,0.97657 0.05859,1.32032 0.03125,0.18359 0.07813,0.30468 0.05078,0.11719 0.113281,0.2461 0.207032,0.39453 0.664063,0.69531 0.449219,0.3125 1.121094,0.32812 0.679687,-0.0156 1.132812,-0.32812 0.449219,-0.30078 0.648438,-0.69531 0.144531,-0.20703 0.199218,-0.55078 0.05078,-0.34375 0.05078,-1.32032 0,-0.99218 -0.05078,-1.32812 -0.05469,-0.33594 -0.199218,-0.54297 -0.199219,-0.39453 -0.648438,-0.70313 -0.453125,-0.3125 -1.132812,-0.32031 -0.671875,0.008 -1.121094,0.32031 -0.457031,0.3086 -0.664063,0.70313 -0.128906,0.20703 -0.191406,0.54297 -0.05859,0.33594 -0.05859,1.32812 z m 0.867187,0 q 0,-0.83984 0.0625,-1.14453 0.05469,-0.28906 0.222656,-0.47265 0.136719,-0.17579 0.359375,-0.29297 0.21875,-0.11328 0.523438,-0.1211 0.308593,0.008 0.535156,0.1211 0.214844,0.11718 0.34375,0.29297 0.167969,0.18359 0.230469,0.47265 0.05859,0.30469 0.05859,1.14453 0,0.83985 -0.05859,1.13672 -0.0625,0.29688 -0.230469,0.48047 -0.128906,0.17578 -0.34375,0.28516 -0.226563,0.1289 -0.535156,0.1289 -0.304688,0 -0.523438,-0.1289 -0.222656,-0.10938 -0.359375,-0.28516 -0.167969,-0.18359 -0.222656,-0.48047 -0.0625,-0.29687 -0.0625,-1.13672 z"
       style="font-size:8px;font-family:'DIN Alternate';text-anchor:middle;fill:#343434"
       id="path132" />
    <path
       d="m 20.910156,340.07031 q 0.0078,0.89844 0.59375,1.42578 0.574219,0.54297 1.429688,0.55078 0.871093,-0.008 1.441406,-0.55078 0.566406,-0.52734 0.582031,-1.42578 v -3.76562 H 24.09375 v 3.67187 q -0.0078,0.58203 -0.328125,0.88672 -0.328125,0.32031 -0.832031,0.32031 -0.503907,0 -0.824219,-0.32031 -0.328125,-0.30469 -0.335938,-0.88672 v -3.67187 h -0.863281 z"
       style="font-size:8px;font-family:'DIN Alternate';text-anchor:middle;fill:#343434"
       id="path134" />
    <path
       d="m 27.027344,342 h 0.867187 v -4.92578 h 1.558594 v -0.76953 H 25.46875 v 0.76953 h 1.558594 z"
       style="font-size:8px;font-family:'DIN Alternate';text-anchor:middle;fill:#343434"
       id="path136" />
  </g>
</svg>
