<?xml version="1.0" encoding="UTF-8" standalone="no"?>
<svg
   xmlns:dc="http://purl.org/dc/elements/1.1/"
   xmlns:cc="http://creativecommons.org/ns#"
   xmlns:rdf="http://www.w3.org/1999/02/22-rdf-syntax-ns#"
   xmlns:svg="http://www.w3.org/2000/svg"
   xmlns="http://www.w3.org/2000/svg"
   xmlns:sodipodi="http://sodipodi.sourceforge.net/DTD/sodipodi-0.dtd"
   xmlns:inkscape="http://www.inkscape.org/namespaces/inkscape"
   version="1.1"
   width="45"
   height="380"
   viewBox="0 0 45 380"
   id="svg94"
   sodipodi:docname="GAIN.svg"
   inkscape:version="1.0.2 (e86c8708, 2021-01-15)">
  <metadata
     id="metadata98">
    <rdf:RDF>
      <cc:Work
         rdf:about="">
        <dc:format>image/svg+xml</dc:format>
        <dc:type
           rdf:resource="http://purl.org/dc/dcmitype/StillImage" />
      </cc:Work>
    </rdf:RDF>
  </metadata>
  <sodipodi:namedview
     pagecolor="#ffffff"
     bordercolor="#666666"
     borderopacity="1"
     objecttolerance="10"
     gridtolerance="10"
     guidetolerance="10"
     inkscape:pageopacity="0"
     inkscape:pageshadow="2"
     inkscape:window-width="689"
     inkscape:window-height="480"
     id="namedview96"
     showgrid="false"
     inkscape:zoom="2.1763158"
     inkscape:cx="22.5"
     inkscape:cy="190"
     inkscape:window-x="0"
     inkscape:window-y="25"
     inkscape:window-maximized="0"
     inkscape:current-layer="svg94" />
  <style
     id="style2">
    text.title {
      fill: #a91913;
      font-family: 'DIN Alternate';
      font-size: 12pt;
    }
    text.logo {
      fill: #a91913;
      font-family: 'DIN Alternate';
      font-size: 10pt;
    }
    text.big-label {
      fill: #343434;
      font-family: 'DIN Alternate';
      font-size: 7.5pt;
    }
    text.label {
      fill: #343434;
      font-family: 'DIN Alternate';
      font-size: 6pt;
    }
    .background {
      fill: #e0e0e0;
    }
    .output {
      fill: #bbbbbb;
    }
    polyline.icon {
      stroke: #343434;
      stroke-width: 1.2;
      fill: none;
    }
    polyline.connect {
      stroke: #343434;
      stroke-width: 1;
      fill: none;
    }

    .blueprint {
      stroke: #08f;
      fill: none;
    }
  </style>
  <!-- ======== defs ======== -->
  <defs
     id="defs60">
    <linearGradient
       id="smallKnobMediumGradient">
      <stop
         offset="5%"
         stop-color="#888"
         id="stop4" />
      <stop
         offset="95%"
         stop-color="#333"
         id="stop6" />
    </linearGradient>
    <linearGradient
       id="smallKnobDarkGradient">
      <stop
         offset="5%"
         stop-color="#444"
         id="stop9" />
      <stop
         offset="95%"
         stop-color="#222"
         id="stop11" />
    </linearGradient>
    <linearGradient
       id="bigKnobDarkGradient">
      <stop
         offset="5%"
         stop-color="#5c5c5c"
         id="stop14" />
      <stop
         offset="95%"
         stop-color="#282828"
         id="stop16" />
    </linearGradient>
    <linearGradient
       id="bigKnobMediumGradient">
      <stop
         offset="5%"
         stop-color="#888"
         id="stop19" />
      <stop
         offset="95%"
         stop-color="#333"
         id="stop21" />
    </linearGradient>
    <symbol
       id="knob18">
      <g
         transform="translate(9 9)"
         id="g30">
        <circle
           r="8.5"
           stroke="#222"
           fill="none"
           id="circle24" />
        <circle
           r="8"
           fill="url('#smallKnobMediumGradient')"
           transform="rotate(90)"
           id="circle26" />
        <circle
           r="7"
           fill="url('#smallKnobDarkGradient')"
           transform="rotate(90)"
           id="circle28" />
      </g>
    </symbol>
    <symbol
       id="knob32">
      <g
         transform="translate(16 16)"
         id="g37">
        <circle
           r="15.5"
           fill="url('#bigKnobDarkGradient')"
           transform="rotate(90)"
           id="circle33" />
        <circle
           r="13.5"
           fill="url('#bigKnobMediumGradient')"
           transform="rotate(90)"
           id="circle35" />
      </g>
    </symbol>
    <symbol
       id="knob40">
      <g
         transform="translate(20 20)"
         id="g44">
        <circle
           r="19.5"
           fill="url('#bigKnobDarkGradient')"
           transform="rotate(90)"
           id="circle40" />
        <circle
           r="17.5"
           fill="url('#bigKnobMediumGradient')"
           transform="rotate(90)"
           id="circle42" />
      </g>
    </symbol>
    <symbol
       id="knob50">
      <g
         transform="translate(25 25)"
         id="g51">
        <circle
           r="24.5"
           fill="url('#bigKnobDarkGradient')"
           transform="rotate(90)"
           id="circle47" />
        <circle
           r="22.5"
           fill="url('#bigKnobMediumGradient')"
           transform="rotate(90)"
           id="circle49" />
      </g>
    </symbol>
    <symbol
       id="port">
      <g
         transform="translate(12 12)"
         id="g54" />
    </symbol>
    <symbol
       id="hswitch14">
      <g
         transform="translate(12 7)"
         id="g57" />
    </symbol>
  </defs>
  <!-- ======== id ======== -->
  <path
     id="rect62"
     style="fill:#e0e0e0"
     d="M 0,0 H 45 V 380 H 0 Z"
     class="background" />
  <g
     aria-label="GAIN"
     id="text64"
     style="font-size:16px;font-family:'DIN Alternate';text-anchor:middle;fill:#a91913"
     class="title">
    <path
       d="M 10.117188,25.359375 H 12.4375 v 0.59375 q -0.01563,1.070312 -0.671875,1.726562 -0.65625,0.6875 -1.664062,0.6875 -0.6093755,0 -1.0468755,-0.257812 Q 8.609375,27.890625 8.3359375,27.539062 8,27.171875 7.890625,26.578125 q -0.125,-0.59375 -0.125,-2.273438 0,-1.679687 0.125,-2.289062 Q 8,21.4375 8.3359375,21.070312 q 0.2734375,-0.351562 0.71875,-0.585937 0.4375,-0.226563 1.0468755,-0.242188 0.828125,0.01563 1.40625,0.476563 0.554687,0.484375 0.765625,1.171875 h 1.828125 Q 13.828125,20.460937 12.789063,19.492187 11.75,18.53125 10.101563,18.515625 8.7578125,18.53125 7.859375,19.15625 6.9453125,19.773437 6.53125,20.5625 6.2734375,20.976562 6.1484375,21.648437 6.03125,22.320312 6.03125,24.304687 q 0,1.953125 0.1171875,2.640625 0.0625,0.367188 0.15625,0.609375 0.1015625,0.234375 0.2265625,0.492188 0.4140625,0.789062 1.328125,1.390625 0.8984375,0.625 2.242188,0.65625 1.742187,-0.03125 2.890625,-1.179688 1.140625,-1.15625 1.171875,-2.867187 v -2.320313 h -4.046875 z"
       style="font-size:16px;font-family:'DIN Alternate';text-anchor:middle;fill:#a91913"
       id="path143" />
    <path
       d="m 18.1875,25.921875 1.648437,-4.976563 h 0.03125 l 1.648438,4.976563 z M 22.890625,30 h 1.820312 L 20.570312,18.609375 H 19.125 L 14.984375,30 H 16.8125 l 0.875,-2.546875 h 4.320312 z"
       style="font-size:16px;font-family:'DIN Alternate';text-anchor:middle;fill:#a91913"
       id="path145" />
    <path
       d="m 25.921875,30 h 1.726562 V 18.609375 h -1.726562 z"
       style="font-size:16px;font-family:'DIN Alternate';text-anchor:middle;fill:#a91913"
       id="path147" />
    <path
       d="m 30.046875,30 h 1.726562 v -8.09375 h 0.03125 L 36.953125,30 h 1.632812 V 18.609375 h -1.726562 v 8.09375 h -0.03125 l -5.15625,-8.09375 h -1.625 z"
       style="font-size:16px;font-family:'DIN Alternate';text-anchor:middle;fill:#a91913"
       id="path149" />
  </g>
  <g
     aria-label="RM"
     id="text66"
     style="font-size:13.3333px;font-family:'DIN Alternate';text-anchor:middle;fill:#a91913"
     class="logo">
    <path
       d="m 15.826823,353.79036 h 2.252604 q 0.690104,0 1.054688,0.29297 0.462239,0.33203 0.47526,1.07422 0,0.61849 -0.397135,1.04167 -0.403646,0.45573 -1.210938,0.46875 H 15.826823 Z M 14.388021,362 h 1.438802 v -4.05599 h 1.835938 L 19.622396,362 h 1.712239 l -2.20052,-4.21224 q 1.809895,-0.69661 1.835937,-2.63021 -0.03906,-1.3151 -0.94401,-2.02474 -0.748698,-0.625 -1.933594,-0.625 h -3.704427 z"
       style="font-size:13.3333px;font-family:'DIN Alternate';text-anchor:middle;fill:#a91913"
       id="path138" />
    <path
       d="m 22.513021,362 h 1.438802 v -5.91797 h 0.02604 l 1.985677,4.55729 h 1.197916 l 1.985677,-4.55729 h 0.03255 V 362 h 1.438802 v -9.49219 h -1.360677 l -2.669271,6.1849 v 0 l -2.721354,-6.1849 h -1.354167 z"
       style="font-size:13.3333px;font-family:'DIN Alternate';text-anchor:middle;fill:#a91913"
       id="path140" />
  </g>
  <g
     id="use68"
     transform="translate(10.5,236)">
    <g
       transform="translate(12,12)"
       id="g109" />
  </g>
  <g
     aria-label="L"
     id="text70"
     style="font-size:8px;font-family:'DIN Alternate';text-anchor:middle;fill:#343434"
     class="label">
    <path
       d="m 2.875,250 h 3.6367187 v -0.81641 H 3.7382813 v -4.8789 H 2.875 Z"
       style="font-size:8px;font-family:'DIN Alternate';text-anchor:middle;fill:#343434"
       id="path135" />
  </g>
  <g
     id="use74"
     transform="translate(10.5,264)">
    <g
       transform="translate(12,12)"
       id="g113" />
  </g>
  <g
     aria-label="R"
     id="text76"
     style="font-size:8px;font-family:'DIN Alternate';text-anchor:middle;fill:#343434"
     class="label">
    <path
       d="m 3.5273438,273.07422 h 1.3515624 q 0.4140625,0 0.6328125,0.17578 0.2773438,0.19922 0.2851563,0.64453 0,0.37109 -0.2382813,0.625 -0.2421875,0.27344 -0.7265625,0.28125 H 3.5273438 Z M 2.6640625,278 h 0.8632813 v -2.43359 H 4.6289062 L 5.8046875,278 h 1.0273437 l -1.3203125,-2.52734 q 1.0859375,-0.41797 1.1015625,-1.57813 -0.023437,-0.78906 -0.5664062,-1.21484 -0.4492188,-0.375 -1.1601563,-0.375 H 2.6640625 Z"
       style="font-size:8px;font-family:'DIN Alternate';text-anchor:middle;fill:#343434"
       id="path132" />
  </g>
  <path
     id="rect80"
     style="fill:#bbbbbb"
     d="m 10.5,291 h 24 c 1.662,0 3,1.338 3,3 v 52 c 0,1.662 -1.338,3 -3,3 h -24 c -1.662,0 -3,-1.338 -3,-3 v -52 c 0,-1.662 1.338,-3 3,-3 z"
     class="output" />
  <g
     id="use82"
     transform="translate(10.5,294)">
    <g
       transform="translate(12,12)"
       id="g117" />
  </g>
  <g
     aria-label="L"
     id="text84"
     style="font-size:8px;font-family:'DIN Alternate';text-anchor:middle;fill:#343434"
     class="label">
    <path
       d="m 2.875,308 h 3.6367187 v -0.81641 H 3.7382813 v -4.8789 H 2.875 Z"
       style="font-size:8px;font-family:'DIN Alternate';text-anchor:middle;fill:#343434"
       id="path128" />
  </g>
  <g
     id="use88"
     transform="translate(10.5,322)">
    <g
       transform="translate(12,12)"
       id="g121" />
  </g>
  <g
     aria-label="R"
     id="text90"
     style="font-size:8px;font-family:'DIN Alternate';text-anchor:middle;fill:#343434"
     class="label">
    <path
       d="m 3.5273438,331.07422 h 1.3515624 q 0.4140625,0 0.6328125,0.17578 0.2773438,0.19922 0.2851563,0.64453 0,0.37109 -0.2382813,0.625 -0.2421875,0.27344 -0.7265625,0.28125 H 3.5273438 Z M 2.6640625,336 h 0.8632813 v -2.43359 H 4.6289062 L 5.8046875,336 h 1.0273437 l -1.3203125,-2.52734 q 1.0859375,-0.41797 1.1015625,-1.57813 -0.023437,-0.78906 -0.5664062,-1.21484 -0.4492188,-0.375 -1.1601563,-0.375 H 2.6640625 Z"
       style="font-size:8px;font-family:'DIN Alternate';text-anchor:middle;fill:#343434"
       id="path125" />
  </g>
</svg>
