<?xml version="1.0" encoding="UTF-8" standalone="no"?>
<svg
   xmlns:dc="http://purl.org/dc/elements/1.1/"
   xmlns:cc="http://creativecommons.org/ns#"
   xmlns:rdf="http://www.w3.org/1999/02/22-rdf-syntax-ns#"
   xmlns:svg="http://www.w3.org/2000/svg"
   xmlns="http://www.w3.org/2000/svg"
   xmlns:xlink="http://www.w3.org/1999/xlink"
   xmlns:sodipodi="http://sodipodi.sourceforge.net/DTD/sodipodi-0.dtd"
   xmlns:inkscape="http://www.inkscape.org/namespaces/inkscape"
   version="1.1"
   width="45"
   height="380"
   viewBox="0 0 45 380"
   id="svg207"
   sodipodi:docname="GAIN.svg"
   inkscape:version="1.0.2 (e86c8708, 2021-01-15)">
  <metadata
     id="metadata211">
    <rdf:RDF>
      <cc:Work
         rdf:about="">
        <dc:format>image/svg+xml</dc:format>
        <dc:type
           rdf:resource="http://purl.org/dc/dcmitype/StillImage" />
      </cc:Work>
    </rdf:RDF>
  </metadata>
  <sodipodi:namedview
     pagecolor="#ffffff"
     bordercolor="#666666"
     borderopacity="1"
     objecttolerance="10"
     gridtolerance="10"
     guidetolerance="10"
     inkscape:pageopacity="0"
     inkscape:pageshadow="2"
     inkscape:window-width="689"
     inkscape:window-height="480"
     id="namedview209"
     showgrid="false"
     inkscape:zoom="2.1763158"
     inkscape:cx="22.5"
     inkscape:cy="190"
     inkscape:window-x="0"
     inkscape:window-y="25"
     inkscape:window-maximized="0"
     inkscape:current-layer="svg207" />
  <!-- ================ header begin ================ -->
  <style
     id="style2">

    text.title {
      fill: #a91913;
      font-family: 'DIN Alternate';
      font-size: 11.5pt;
    }
    text.big-label {
      fill: #343434;
      font-family: 'DIN Alternate';
      font-size: 7.5pt;
    }
    text.label {
      fill: #343434;
      font-family: 'DIN Alternate';
      font-size: 6pt;
    }
    text.output-label {
      fill: #dfdfdf;
      font-family: 'DIN Alternate';
      font-size: 6pt;
    }

    .background {
      fill: #dfdfdf;
    }
    .poly-output {
      fill: #558955;
    }
    .mono-output {
      fill: #636c9d;
    }

    polyline.icon {
      stroke: #343434;
      stroke-width: 1.2;
      fill: none;
    }
    polyline.connect {
      stroke: #343434;
      stroke-width: 1;
      fill: none;
    }

    rect.lcd-bg {
      fill: #121212;
    }
    rect.lcd-bg-frame {
      fill: #888888;
    }
    rect.lcd-bg-accent {
      fill: #2a2a2a;
    }
    text.lcd-label {
      fill: #777777;
      font-family: 'Monaco';
      font-size: 5pt;
    }
    polyline.lcd-tick {
      stroke: #707070;
      stroke-width: 1;
      fill: none;
    }

    .blueprint {
      stroke: #444444;
      fill: none;
    }

  </style>
  <defs
     id="defs121">
    <linearGradient
       id="smallKnobLight"
       x1="0%"
       y1="0%"
       x2="0%"
       y2="100%">
      <stop
         offset="0%"
         stop-color="#6f6f6f"
         id="stop4" />
      <stop
         offset="100%"
         stop-color="#383838"
         id="stop6" />
    </linearGradient>
    <linearGradient
       id="smallKnobDark"
       x1="0%"
       y1="0%"
       x2="0%"
       y2="100%">
      <stop
         offset="0%"
         stop-color="#494949"
         id="stop9" />
      <stop
         offset="100%"
         stop-color="#282828"
         id="stop11" />
    </linearGradient>
    <linearGradient
       id="bigKnobLight"
       x1="0%"
       y1="0%"
       x2="0%"
       y2="100%">
      <stop
         offset="0%"
         stop-color="#888"
         id="stop14" />
      <stop
         offset="100%"
         stop-color="#333"
         id="stop16" />
    </linearGradient>
    <linearGradient
       id="bigKnobDark"
       x1="0%"
       y1="0%"
       x2="0%"
       y2="100%">
      <stop
         offset="0%"
         stop-color="#5c5c5c"
         id="stop19" />
      <stop
         offset="100%"
         stop-color="#282828"
         id="stop21" />
    </linearGradient>
    <symbol
       id="knob18">
      <g
         transform="translate(9 9)"
         id="g30">
        <circle
           r="8.5"
           stroke="#222"
           fill="none"
           id="circle24" />
        <circle
           r="8"
           fill="url('#smallKnobLight')"
           id="circle26" />
        <circle
           r="7"
           fill="url('#smallKnobDark')"
           id="circle28" />
      </g>
    </symbol>
    <symbol
       id="knob24">
      <g
         transform="translate(12 12)"
         id="g39">
        <circle
           r="11.5"
           stroke="#121212"
           fill="none"
           id="circle33" />
        <circle
           r="11"
           fill="url('#smallKnobLight')"
           id="circle35" />
        <circle
           r="10"
           fill="url('#smallKnobDark')"
           id="circle37" />
      </g>
    </symbol>
    <symbol
       id="knob45">
      <g
         transform="translate(22.5 22.5)"
         id="g46">
        <circle
           r="22"
           fill="url('#bigKnobDark')"
           id="circle42" />
        <circle
           r="20"
           fill="url('#bigKnobLight')"
           id="circle44" />
      </g>
    </symbol>
    <symbol
       id="toggleButton">
      <g
         transform="translate(9 9)"
         id="g49" />
    </symbol>
    <symbol
       id="port">
      <g
         transform="translate(12 12)"
         id="g52" />
    </symbol>
    <symbol
       id="screw">
      <g
         transform="translate(6 6)"
         id="g55" />
    </symbol>
    <symbol
       id="hswitch14">
      <g
         transform="translate(12 7)"
         id="g58" />
    </symbol>
    <symbol
       id="meter-strip">
      <g
         transform="translate(20 4)"
         id="g105">
        <rect
           x="-6"
           y="-1"
           width="5"
           height="98"
           class="lcd-bg-accent"
           id="rect61" />
        <rect
           x="1"
           y="-1"
           width="5"
           height="98"
           class="lcd-bg-accent"
           id="rect63" />
        <g
           transform="translate(-11 2.5)"
           id="g83">
          <text
             x="0"
             y="0"
             class="lcd-label"
             text-anchor="end"
             id="text65">0</text>
          <text
             x="0"
             y="12"
             class="lcd-label"
             text-anchor="end"
             id="text67">3</text>
          <text
             x="0"
             y="24"
             class="lcd-label"
             text-anchor="end"
             id="text69">6</text>
          <text
             x="0"
             y="36"
             class="lcd-label"
             text-anchor="end"
             id="text71">9</text>
          <text
             x="0"
             y="48"
             class="lcd-label"
             text-anchor="end"
             id="text73">12</text>
          <text
             x="0"
             y="60"
             class="lcd-label"
             text-anchor="end"
             id="text75">18</text>
          <text
             x="0"
             y="72"
             class="lcd-label"
             text-anchor="end"
             id="text77">24</text>
          <text
             x="0"
             y="84"
             class="lcd-label"
             text-anchor="end"
             id="text79">36</text>
          <text
             x="0"
             y="96"
             class="lcd-label"
             text-anchor="end"
             id="text81">48</text>
        </g>
        <g
           transform="translate(-10 0)"
           id="g103">
          <polyline
             points="0  0 2  0"
             class="lcd-tick"
             id="polyline85" />
          <polyline
             points="0 12 2 12"
             class="lcd-tick"
             id="polyline87" />
          <polyline
             points="0 24 2 24"
             class="lcd-tick"
             id="polyline89" />
          <polyline
             points="0 36 2 36"
             class="lcd-tick"
             id="polyline91" />
          <polyline
             points="0 48 2 48"
             class="lcd-tick"
             id="polyline93" />
          <polyline
             points="0 60 2 60"
             class="lcd-tick"
             id="polyline95" />
          <polyline
             points="0 72 2 72"
             class="lcd-tick"
             id="polyline97" />
          <polyline
             points="0 84 2 84"
             class="lcd-tick"
             id="polyline99" />
          <polyline
             points="0 96 2 96"
             class="lcd-tick"
             id="polyline101" />
        </g>
      </g>
    </symbol>
    <symbol
       id="logo">
      <g
         transform="translate(6 6)"
         id="g118">
        <rect
           x="-5"
           y="-4"
           height="12"
           width="10"
           rx="2"
           fill="#6a6a6a"
           stroke="none"
           id="rect108" />
        <rect
           x="-3"
           y="-5"
           height="4"
           width="6"
           rx="1"
           fill="#6a6a6a"
           stroke="none"
           id="rect110" />
        <path
           d="M0,-3, 0,-5"
           stroke="#6a6a6a"
           stroke-width="2"
           stroke-linecap="round"
           id="path112" />
        <circle
           cx="-2.5"
           cy="0"
           r="1.2"
           fill="#dfdfdf"
           stroke="none"
           id="circle114" />
        <circle
           cx="2.5"
           cy="0"
           r="1.2"
           fill="#dfdfdf"
           stroke="none"
           id="circle116" />
      </g>
    </symbol>
    <linearGradient
       inkscape:collect="always"
       xlink:href="#smallKnobLight"
       id="linearGradient309"
       x1="-11"
       y1="-11"
       x2="-11"
       y2="11"
       gradientUnits="userSpaceOnUse" />
    <linearGradient
       inkscape:collect="always"
       xlink:href="#smallKnobDark"
       id="linearGradient311"
       x1="-10"
       y1="-10"
       x2="-10"
       y2="10"
       gradientUnits="userSpaceOnUse" />
  </defs>
  <!-- ================ header end ================ -->
  <path
     id="rect123"
     style="fill:#dfdfdf"
     d="M 0,0 H 45 V 380 H 0 Z"
     class="background" />
  <g
     aria-label="GAIN"
     id="text125"
     style="font-size:15.3333px;font-family:'DIN Alternate';text-anchor:middle;fill:#a91913"
     class="title">
    <path
       d="m 10.633138,25.552734 h 2.223633 v 0.569011 q -0.01497,1.025716 -0.64388,1.654622 -0.628906,0.658854 -1.594727,0.658854 -0.583984,0 -1.0032549,-0.24707 Q 9.1881513,27.978516 8.9261071,27.641602 8.604167,27.289714 8.4993492,26.720703 8.3795576,26.151693 8.3795576,24.541992 q 0,-1.6097 0.1197916,-2.193685 0.1048178,-0.554036 0.4267579,-0.905924 0.2620442,-0.336914 0.688802,-0.561523 0.4192709,-0.217123 1.0032549,-0.232097 0.79362,0.01497 1.347657,0.456706 0.531575,0.464193 0.733723,1.123047 h 1.751954 q -0.262045,-1.370117 -1.257813,-2.298503 -0.995768,-0.920898 -2.575521,-0.935872 -1.2877601,0.01497 -2.1487627,0.613932 -0.8759765,0.591471 -1.2727864,1.347656 -0.2470703,0.39681 -0.366862,1.04069 -0.1123047,0.643881 -0.1123047,2.545573 0,1.871745 0.1123047,2.530599 0.059896,0.351888 0.1497396,0.583985 0.097331,0.224609 0.2171224,0.471679 0.3968099,0.756185 1.2727864,1.332683 0.8610026,0.598958 2.1487627,0.628906 1.669597,-0.02995 2.770183,-1.130534 1.093098,-1.108073 1.123046,-2.747721 v -2.223633 h -3.878255 z"
       style="font-size:15.3333px;font-family:'DIN Alternate';text-anchor:middle;fill:#a91913"
       id="path405" />
    <path
       d="m 18.367188,26.091797 1.579752,-4.769206 h 0.02995 l 1.579753,4.769206 z M 22.874349,30 h 1.744466 L 20.650716,19.083985 H 19.265625 L 15.297526,30 h 1.751953 l 0.838542,-2.440755 h 4.1403 z"
       style="font-size:15.3333px;font-family:'DIN Alternate';text-anchor:middle;fill:#a91913"
       id="path407" />
    <path
       d="M 25.779297,30 H 27.43392 V 19.083985 h -1.654623 z"
       style="font-size:15.3333px;font-family:'DIN Alternate';text-anchor:middle;fill:#a91913"
       id="path409" />
    <path
       d="m 29.732422,30 h 1.654623 v -7.75651 h 0.02995 L 36.350912,30 H 37.91569 V 19.083985 h -1.654622 v 7.75651 h -0.02995 l -4.941406,-7.75651 h -1.557292 z"
       style="font-size:15.3333px;font-family:'DIN Alternate';text-anchor:middle;fill:#a91913"
       id="path411" />
  </g>
  <g
     transform="translate(16.5,364)"
     id="g129">
    <g
       id="use127">
      <g
         transform="translate(6,6)"
         id="g343">
        <path
           id="rect333"
           style="fill:#6a6a6a;stroke:none"
           d="m -3,-4 h 6 c 1.108,0 2,0.892 2,2 V 6 C 5,7.108 4.108,8 3,8 H -3 C -4.108,8 -5,7.108 -5,6 v -8 c 0,-1.108 0.892,-2 2,-2 z" />
        <path
           id="rect335"
           style="fill:#6a6a6a;stroke:none"
           d="m -2,-5 h 4 c 0.554,0 1,0.446 1,1 v 2 c 0,0.554 -0.446,1 -1,1 h -4 c -0.554,0 -1,-0.446 -1,-1 v -2 c 0,-0.554 0.446,-1 1,-1 z" />
        <path
           d="M 0,-3 V -5"
           stroke="#6a6a6a"
           stroke-width="2"
           stroke-linecap="round"
           id="path337" />
        <path
           id="circle339"
           style="fill:#dfdfdf;stroke:none"
           d="M -1.3,0 A 1.2,1.2 0 0 1 -2.5,1.2 1.2,1.2 0 0 1 -3.7,0 1.2,1.2 0 0 1 -2.5,-1.2 1.2,1.2 0 0 1 -1.3,0 Z" />
        <path
           id="circle341"
           style="fill:#dfdfdf;stroke:none"
           d="M 3.7,0 A 1.2,1.2 0 0 1 2.5,1.2 1.2,1.2 0 0 1 1.3,0 1.2,1.2 0 0 1 2.5,-1.2 1.2,1.2 0 0 1 3.7,0 Z" />
      </g>
    </g>
  </g>
  <g
     id="use133">
    <g
       transform="translate(6,6)"
       id="g243" />
  </g>
  <g
     id="use137"
     transform="translate(33,368)">
    <g
       transform="translate(6,6)"
       id="g247" />
  </g>
  <!-- lcd -->
  <path
     id="rect141"
     style="fill:#888888"
     d="m 2,35 h 41 c 1.108,0 2,0.892 2,2 v 110 c 0,1.108 -0.892,2 -2,2 H 2 c -1.108,0 -2,-0.892 -2,-2 V 37 c 0,-1.108 0.892,-2 2,-2 z"
     class="lcd-bg-frame" />
  <path
     id="rect143"
     style="fill:#121212"
     d="m 2,36 h 41 c 1.108,0 2,0.892 2,2 v 108 c 0,1.108 -0.892,2 -2,2 H 2 c -1.108,0 -2,-0.892 -2,-2 V 38 c 0,-1.108 0.892,-2 2,-2 z"
     class="lcd-bg" />
  <!-- labels -->
  <!-- [168, 198, 228, 258, 288, 318, 348] -->
  <g
     transform="translate(5,166)"
     id="g147">
    <g
       aria-label="LV"
       id="text145"
       style="font-size:8px;font-family:'DIN Alternate';text-anchor:middle;fill:#343434"
       class="label">
      <path
         d="M -2.40625,3 H 1.2304687 V 2.1835938 H -1.5429687 V -2.6953125 H -2.40625 Z"
         style="font-size:8px;font-family:'DIN Alternate';text-anchor:middle;fill:#343434"
         id="path431" />
      <path
         d="m 2.4414063,3 h 0.671875 L 4.9960937,-2.6953125 H 4.0820312 L 2.7851563,1.640625 H 2.7695313 L 1.4765625,-2.6953125 H 0.5625 Z"
         style="font-size:8px;font-family:'DIN Alternate';text-anchor:middle;fill:#343434"
         id="path433" />
    </g>
  </g>
  <g
     transform="translate(5,226)"
     id="g151">
    <g
       aria-label="M"
       id="text149"
       style="font-size:8px;font-family:'DIN Alternate';text-anchor:middle;fill:#343434"
       class="label">
      <path
         d="m -2.4296875,3 h 0.8632813 v -3.55078125 h 0.015625 L -0.359375,2.1835938 h 0.71875 l 1.1914062,-2.73437505 h 0.019531 V 3 H 2.4335938 V -2.6953125 H 1.6171875 L 0.015625,1.015625 v 0 l -1.6328125,-3.7109375 h -0.8125 z"
         style="font-size:8px;font-family:'DIN Alternate';text-anchor:middle;fill:#343434"
         id="path428" />
    </g>
  </g>
  <g
     transform="translate(5,256)"
     id="g155">
    <g
       aria-label="L"
       id="text153"
       style="font-size:8px;font-family:'DIN Alternate';text-anchor:middle;fill:#343434"
       class="label">
      <path
         d="M -1.625,3 H 2.0117188 V 2.1835938 H -0.76171875 V -2.6953125 H -1.625 Z"
         style="font-size:8px;font-family:'DIN Alternate';text-anchor:middle;fill:#343434"
         id="path425" />
    </g>
  </g>
  <g
     transform="translate(5,286)"
     id="g159">
    <g
       aria-label="R"
       id="text157"
       style="font-size:8px;font-family:'DIN Alternate';text-anchor:middle;fill:#343434"
       class="label">
      <path
         d="m -0.97265625,-1.9257812 h 1.3515625 q 0.4140625,0 0.63281245,0.1757812 0.2773438,0.1992188 0.2851563,0.6445313 0,0.3710937 -0.2382813,0.62499995 -0.24218745,0.2734375 -0.72656245,0.28125 h -1.3046875 z M -1.8359375,3 h 0.86328125 V 0.56640625 h 1.1015625 L 1.3046875,3 H 2.3320313 L 1.0117187,0.47265625 Q 2.0976563,0.0546875 2.1132813,-1.1054687 2.0898438,-1.8945312 1.546875,-2.3203125 q -0.4492188,-0.375 -1.16015625,-0.375 H -1.8359375 Z"
         style="font-size:8px;font-family:'DIN Alternate';text-anchor:middle;fill:#343434"
         id="path422" />
    </g>
  </g>
  <g
     transform="translate(5,316)"
     id="g163">
    <g
       aria-label="L"
       id="text161"
       style="font-size:8px;font-family:'DIN Alternate';text-anchor:middle;fill:#343434"
       class="label">
      <path
         d="M -1.625,3 H 2.0117188 V 2.1835938 H -0.76171875 V -2.6953125 H -1.625 Z"
         style="font-size:8px;font-family:'DIN Alternate';text-anchor:middle;fill:#343434"
         id="path419" />
    </g>
  </g>
  <g
     transform="translate(5,346)"
     id="g167">
    <g
       aria-label="R"
       id="text165"
       style="font-size:8px;font-family:'DIN Alternate';text-anchor:middle;fill:#343434"
       class="label">
      <path
         d="m -0.97265625,-1.9257812 h 1.3515625 q 0.4140625,0 0.63281245,0.1757812 0.2773438,0.1992188 0.2851563,0.6445313 0,0.3710937 -0.2382813,0.62499995 -0.24218745,0.2734375 -0.72656245,0.28125 h -1.3046875 z M -1.8359375,3 h 0.86328125 V 0.56640625 h 1.1015625 L 1.3046875,3 H 2.3320313 L 1.0117187,0.47265625 Q 2.0976563,0.0546875 2.1132813,-1.1054687 2.0898438,-1.8945312 1.546875,-2.3203125 q -0.4492188,-0.375 -1.16015625,-0.375 H -1.8359375 Z"
         style="font-size:8px;font-family:'DIN Alternate';text-anchor:middle;fill:#343434"
         id="path416" />
    </g>
  </g>
  <g
     id="use171"
     transform="translate(4,40)">
    <g
       transform="translate(20,4)"
       id="g295">
      <path
         id="rect251"
         style="fill:#2a2a2a"
         d="m -6,-1 h 5 v 98 h -5 z"
         class="lcd-bg-accent" />
      <path
         id="rect253"
         style="fill:#2a2a2a"
         d="M 1,-1 H 6 V 97 H 1 Z"
         class="lcd-bg-accent" />
      <g
         transform="translate(-11,2.5)"
         id="g273">
        <g
           aria-label="0"
           id="text255"
           style="font-size:6.66667px;font-family:Monaco;text-anchor:end;fill:#777777"
           class="lcd-label">
          <path
             d="m -1.9986979,-5.2018228 q 0.8626302,0 1.31510417,0.7259114 0.45247394,0.7226563 0.45247394,1.9498698 0,1.2304687 -0.45247394,1.95638016 -0.45247397,0.72265623 -1.31510417,0.72265623 -0.8593749,0 -1.3151041,-0.72265623 -0.452474,-0.72591146 -0.452474,-1.95638016 0,-1.2272135 0.452474,-1.9498698 0.4557292,-0.7259114 1.3151041,-0.7259114 z m -0.9863281,3.7565103 1.7480469,-2.7376301 q -0.1660157,-0.3027344 -0.3613282,-0.406901 -0.1920572,-0.1074219 -0.4003906,-0.1074219 -0.5436197,0 -0.8268229,0.6054687 -0.2832031,0.6022135 -0.2832031,1.5299479 0,0.2115885 0.013021,0.4557292 0.013021,0.2441406 0.1106771,0.6608072 z m 1.9661458,-2.1354166 -1.735026,2.7539062 q 0.139974,0.23763021 0.3222656,0.35807291 0.1822917,0.1171875 0.4069011,0.1171875 0.6184895,0 0.8789062,-0.69010411 0.26041665,-0.6933594 0.26041665,-1.5364583 0,-0.5208334 -0.13346355,-1.0026042 z"
             style="font-size:6.66667px;font-family:Monaco;text-anchor:end;fill:#777777"
             id="path353" />
        </g>
        <g
           aria-label="3"
           id="text257"
           style="font-size:6.66667px;font-family:Monaco;text-anchor:end;fill:#777777"
           class="lcd-label">
          <path
             d="m -3.5253905,11.908854 v -0.638021 q 0.7454426,0.377605 1.2923176,0.377605 0.5013021,0 0.8268229,-0.302735 0.3287761,-0.305989 0.3287761,-0.784505 0,-0.481771 -0.3613281,-0.7845052 Q -1.796875,9.4739584 -2.6595051,9.4739584 H -2.9947916 V 8.9694011 h 0.4654948 q 0.6347656,0 0.9179687,-0.2832031 0.2832031,-0.2864583 0.2832031,-0.6347656 0,-0.3157552 -0.2311198,-0.530599 -0.2311197,-0.2180989 -0.7096354,-0.2180989 -0.5371093,0 -1.1555989,0.3027344 V 7.029297 q 0.6184896,-0.2311198 1.1328125,-0.2311198 0.9212239,0 1.2695312,0.3645833 0.3515625,0.3613281 0.3515625,0.8268229 0,0.3450521 -0.18554687,0.6477865 -0.18554683,0.3027343 -0.68359373,0.5403645 0.4394531,0.1302084 0.66406248,0.3190105 0.22460937,0.188802 0.33854166,0.4459635 0.1171875,0.2571616 0.1171875,0.5761716 0,0.709636 -0.52734374,1.171875 -0.5240885,0.46224 -1.3574218,0.46224 -0.2408855,0 -0.5273438,-0.03581 -0.2832031,-0.03581 -0.6933593,-0.208333 z"
             style="font-size:6.66667px;font-family:Monaco;text-anchor:end;fill:#777777"
             id="path356" />
        </g>
        <g
           aria-label="6"
           id="text259"
           style="font-size:6.66667px;font-family:Monaco;text-anchor:end;fill:#777777"
           class="lcd-label">
          <path
             d="m -3.0468749,21.630208 q 0.234375,-0.348307 0.579427,-0.566406 0.3483073,-0.221354 0.764974,-0.221354 0.3938802,0 0.74544267,0.192057 0.3548177,0.192058 0.54036457,0.53711 0.18554687,0.341797 0.18554687,0.797526 0,0.719401 -0.46223957,1.253255 -0.45898434,0.530599 -1.21093744,0.530599 -0.8854167,0 -1.3248698,-0.738932 -0.4361979,-0.742188 -0.4361979,-1.884766 0,-1.263021 0.5566406,-1.995443 0.5566406,-0.735677 1.5071614,-0.735677 0.5110677,0 0.99283856,0.14974 v 0.611979 q -0.54036456,-0.257162 -1.01888016,-0.257162 -0.6770833,0 -1.0481771,0.621745 Q -3.0468749,20.546224 -3.0468749,21.5 Z m 1.188151,2.01823 q 0.2441406,0 0.4915364,-0.14323 0.2473959,-0.146484 0.38736982,-0.445963 0.14322916,-0.302735 0.14322916,-0.657552 0,-0.46224 -0.24088538,-0.758464 -0.2376302,-0.296224 -0.6803386,-0.296224 -0.4589843,0 -0.7552083,0.345052 -0.2929687,0.341797 -0.2929687,0.833334 0,0.494791 0.2864583,0.810547 0.2897135,0.3125 0.6608073,0.3125 z"
             style="font-size:6.66667px;font-family:Monaco;text-anchor:end;fill:#777777"
             id="path359" />
        </g>
        <g
           aria-label="9"
           id="text261"
           style="font-size:6.66667px;font-family:Monaco;text-anchor:end;fill:#777777"
           class="lcd-label">
          <path
             d="m -0.95052081,33.317708 q -0.23437499,0.348308 -0.58268229,0.569662 -0.3450521,0.218099 -0.7617187,0.218099 -0.3938802,0 -0.7486979,-0.188802 -0.3515625,-0.192058 -0.5371094,-0.53711 -0.1855469,-0.345052 -0.1855469,-0.800781 0,-0.716146 0.4589844,-1.246745 0.4622396,-0.533854 1.2141927,-0.533854 0.8854166,0 1.32161454,0.742188 0.43945312,0.738932 0.43945312,1.88151 0,1.263021 -0.55664061,1.998698 -0.55664065,0.732422 -1.50716145,0.732422 -0.5110677,0 -0.9928385,-0.152995 v -0.608724 q 0.5403646,0.253906 1.0188802,0.253906 0.6770833,0 1.048177,-0.621744 0.37109379,-0.621745 0.37109379,-1.575521 z M -2.1386718,31.302734 q -0.2441406,0 -0.4915365,0.146485 -0.2473958,0.143229 -0.390625,0.442708 -0.1399739,0.299479 -0.1399739,0.657552 0,0.458985 0.2376302,0.755209 0.2408854,0.296224 0.6835937,0.296224 0.4589844,0 0.7519531,-0.341797 0.296224,-0.345052 0.296224,-0.833334 0,-0.494791 -0.2897136,-0.807291 -0.2864583,-0.315756 -0.657552,-0.315756 z"
             style="font-size:6.66667px;font-family:Monaco;text-anchor:end;fill:#777777"
             id="path362" />
        </g>
        <g
           aria-label="12"
           id="text263"
           style="font-size:6.66667px;font-family:Monaco;text-anchor:end;fill:#777777"
           class="lcd-label">
          <path
             d="m -6.1458332,47.495443 v -3.89974 q -0.2734375,0.218099 -0.5305989,0.371094 -0.2571615,0.152995 -0.7063802,0.3125 v -0.546875 q 0.7128906,-0.302734 1.2369791,-0.784505 h 0.6054687 v 4.547526 h 1.2141927 V 48 h -3.0566405 v -0.504557 z"
             style="font-size:6.66667px;font-family:Monaco;text-anchor:end;fill:#777777"
             id="path365" />
          <path
             d="M -0.45572914,48 H -3.5123697 v -0.556641 q 0,-0.214843 0.087891,-0.458984 0.087891,-0.247396 0.3352865,-0.553385 0.2473958,-0.30599 0.5240885,-0.589193 l 0.3450521,-0.351563 q 0.1041666,-0.107421 0.4557291,-0.498046 0.3515625,-0.390625 0.4622396,-0.598959 0.1139323,-0.208333 0.1139323,-0.410156 0,-0.325521 -0.2604167,-0.501302 -0.2604166,-0.179037 -0.5859374,-0.179037 -0.1855469,0 -0.4166667,0.04232 -0.2278646,0.04232 -0.4003906,0.100912 -0.1725261,0.05534 -0.5598958,0.231119 v -0.537109 q 0.4101562,-0.195312 0.8203124,-0.266927 0.4134115,-0.07487 0.6803386,-0.07487 0.3938802,0 0.7226562,0.130209 0.33203124,0.126953 0.49153645,0.397135 0.16276041,0.270182 0.16276041,0.576172 0,0.341797 -0.20833333,0.69987 -0.20507812,0.358072 -0.77799473,0.921224 l -0.3710938,0.367838 -0.3125,0.30599 q -0.2962239,0.299479 -0.4785156,0.579427 -0.1822916,0.279948 -0.2018229,0.667317 h 2.42838536 z"
             style="font-size:6.66667px;font-family:Monaco;text-anchor:end;fill:#777777"
             id="path367" />
        </g>
        <g
           aria-label="18"
           id="text265"
           style="font-size:6.66667px;font-family:Monaco;text-anchor:end;fill:#777777"
           class="lcd-label">
          <path
             d="m -6.1458332,59.495443 v -3.89974 q -0.2734375,0.218099 -0.5305989,0.371094 -0.2571615,0.152995 -0.7063802,0.3125 v -0.546875 q 0.7128906,-0.302734 1.2369791,-0.784505 h 0.6054687 v 4.547526 h 1.2141927 V 60 h -3.0566405 v -0.504557 z"
             style="font-size:6.66667px;font-family:Monaco;text-anchor:end;fill:#777777"
             id="path370" />
          <path
             d="m -2.5032551,57.275391 -0.1106771,-0.08138 q -0.2311198,-0.16276 -0.452474,-0.478515 -0.2213541,-0.319011 -0.2213541,-0.69987 0,-0.504557 0.3971354,-0.859375 0.3971354,-0.358073 1.0091145,-0.358073 0.374349,0 0.6738282,0.136719 0.29947911,0.133463 0.46223953,0.397135 0.16276041,0.263672 0.16276041,0.576172 0,0.214844 -0.0748698,0.416667 -0.0748698,0.198568 -0.22460937,0.397135 -0.14648438,0.195313 -0.58593748,0.553386 l 0.2734375,0.218099 q 0.4785156,0.390625 0.64453122,0.673828 0.16601562,0.283203 0.16601562,0.634765 0,0.546875 -0.39713541,0.950521 -0.39713543,0.400391 -1.19140623,0.400391 -0.797526,0 -1.1946614,-0.374349 -0.3971354,-0.377604 -0.3971354,-0.934245 0,-0.830078 1.0611979,-1.56901 z m 0.6217447,-0.309245 q 0.4589844,-0.348307 0.5729167,-0.582682 0.1171875,-0.234375 0.1171875,-0.436198 0,-0.244141 -0.2148438,-0.442709 -0.2148437,-0.201823 -0.5533854,-0.201823 -0.3645833,0 -0.5566406,0.218099 -0.188802,0.218099 -0.188802,0.452474 0,0.227865 0.1595052,0.429688 0.1595052,0.201823 0.5110677,0.452474 z m -0.1660156,0.63151 q -0.859375,0.660808 -0.859375,1.236979 0,0.341797 0.2832032,0.576172 0.2832031,0.234375 0.6705729,0.234375 0.3548177,0 0.6347656,-0.224609 0.2799479,-0.224609 0.2799479,-0.559896 0,-0.328776 -0.3417969,-0.667318 -0.3385416,-0.338541 -0.4720052,-0.442708 z"
             style="font-size:6.66667px;font-family:Monaco;text-anchor:end;fill:#777777"
             id="path372" />
        </g>
        <g
           aria-label="24"
           id="text267"
           style="font-size:6.66667px;font-family:Monaco;text-anchor:end;fill:#777777"
           class="lcd-label">
          <path
             d="m -4.4531249,72 h -3.0566405 v -0.556641 q 0,-0.214843 0.087891,-0.458984 0.087891,-0.247396 0.3352864,-0.553385 0.2473959,-0.30599 0.5240886,-0.589193 l 0.345052,-0.351563 q 0.1041667,-0.107421 0.4557292,-0.498046 0.3515625,-0.390625 0.4622396,-0.598959 0.1139322,-0.208333 0.1139322,-0.410156 0,-0.325521 -0.2604166,-0.501302 -0.2604167,-0.179037 -0.5859375,-0.179037 -0.1855469,0 -0.4166667,0.04232 -0.2278645,0.04232 -0.4003906,0.100912 -0.172526,0.05534 -0.5598958,0.231119 v -0.537109 q 0.4101563,-0.195312 0.8203125,-0.266927 0.4134114,-0.07487 0.6803385,-0.07487 0.3938802,0 0.7226562,0.130209 0.3320313,0.126953 0.4915365,0.397135 0.1627604,0.270182 0.1627604,0.576172 0,0.341797 -0.2083333,0.69987 -0.2050781,0.358072 -0.7779948,0.921224 l -0.3710937,0.367838 -0.3125,0.30599 q -0.296224,0.299479 -0.4785156,0.579427 -0.1822917,0.279948 -0.201823,0.667317 h 2.4283854 z"
             style="font-size:6.66667px;font-family:Monaco;text-anchor:end;fill:#777777"
             id="path375" />
          <path
             d="m -1.6959635,72 v -1.41276 h -2.1451822 v -0.507813 l 2.1451822,-3.13151 h 0.608724 v 3.13151 h 0.93424473 V 70.58724 H -1.0872395 V 72 Z m 0,-1.920573 v -2.213541 l -1.500651,2.213541 z"
             style="font-size:6.66667px;font-family:Monaco;text-anchor:end;fill:#777777"
             id="path377" />
        </g>
        <g
           aria-label="36"
           id="text269"
           style="font-size:6.66667px;font-family:Monaco;text-anchor:end;fill:#777777"
           class="lcd-label">
          <path
             d="m -7.5227863,83.908854 v -0.638021 q 0.7454427,0.377605 1.2923177,0.377605 0.5013021,0 0.8268229,-0.302735 0.328776,-0.305989 0.328776,-0.784505 0,-0.481771 -0.3613281,-0.784505 -0.3580729,-0.302735 -1.2207031,-0.302735 h -0.3352864 v -0.504557 h 0.4654947 q 0.6347657,0 0.9179688,-0.283203 0.2832031,-0.286458 0.2832031,-0.634766 0,-0.315755 -0.2311198,-0.530599 -0.2311198,-0.218099 -0.7096354,-0.218099 -0.5371094,0 -1.1555989,0.302735 v -0.576172 q 0.6184895,-0.23112 1.1328124,-0.23112 0.921224,0 1.2695313,0.364584 0.3515625,0.361328 0.3515625,0.826822 0,0.345053 -0.1855469,0.647787 -0.1855469,0.302734 -0.6835937,0.540364 0.4394531,0.130209 0.6640624,0.319011 0.2246094,0.188802 0.3385417,0.445963 0.1171875,0.257162 0.1171875,0.576172 0,0.709636 -0.5273437,1.171875 -0.5240886,0.46224 -1.3574219,0.46224 -0.2408854,0 -0.5273437,-0.03581 -0.2832031,-0.03581 -0.6933594,-0.208333 z"
             style="font-size:6.66667px;font-family:Monaco;text-anchor:end;fill:#777777"
             id="path380" />
          <path
             d="m -3.0468749,81.630208 q 0.234375,-0.348307 0.5794271,-0.566406 0.3483072,-0.221354 0.7649739,-0.221354 0.3938802,0 0.74544269,0.192057 0.3548177,0.192058 0.54036457,0.53711 0.18554687,0.341797 0.18554687,0.797526 0,0.719401 -0.46223957,1.253255 -0.45898436,0.530599 -1.21093746,0.530599 -0.8854167,0 -1.3248698,-0.738932 -0.4361979,-0.742188 -0.4361979,-1.884766 0,-1.263021 0.5566406,-1.995443 0.5566406,-0.735677 1.5071615,-0.735677 0.5110677,0 0.99283847,0.14974 v 0.611979 q -0.54036457,-0.257162 -1.01888017,-0.257162 -0.6770833,0 -1.0481771,0.621745 Q -3.0468749,80.546224 -3.0468749,81.5 Z m 1.188151,2.01823 q 0.2441406,0 0.4915364,-0.14323 0.2473959,-0.146484 0.38736983,-0.445963 0.14322916,-0.302735 0.14322916,-0.657552 0,-0.46224 -0.24088539,-0.758464 -0.2376302,-0.296224 -0.6803385,-0.296224 -0.4589844,0 -0.7552084,0.345052 -0.2929687,0.341797 -0.2929687,0.833334 0,0.494791 0.2864583,0.810547 0.2897136,0.3125 0.6608073,0.3125 z"
             style="font-size:6.66667px;font-family:Monaco;text-anchor:end;fill:#777777"
             id="path382" />
        </g>
        <g
           aria-label="48"
           id="text271"
           style="font-size:6.66667px;font-family:Monaco;text-anchor:end;fill:#777777"
           class="lcd-label">
          <path
             d="m -5.6933592,96 v -1.41276 h -2.1451823 v -0.507813 l 2.1451823,-3.13151 h 0.6087239 v 3.13151 h 0.9342448 V 94.58724 H -5.0846353 V 96 Z m 0,-1.920573 v -2.213541 l -1.500651,2.213541 z"
             style="font-size:6.66667px;font-family:Monaco;text-anchor:end;fill:#777777"
             id="path385" />
          <path
             d="m -2.5032551,93.275391 -0.1106771,-0.08138 q -0.2311198,-0.16276 -0.452474,-0.478515 -0.2213541,-0.319011 -0.2213541,-0.69987 0,-0.504557 0.3971354,-0.859375 0.3971354,-0.358073 1.0091145,-0.358073 0.374349,0 0.6738282,0.136719 0.29947911,0.133463 0.46223953,0.397135 0.16276041,0.263672 0.16276041,0.576172 0,0.214844 -0.0748698,0.416667 -0.0748698,0.198568 -0.22460937,0.397135 -0.14648438,0.195313 -0.58593748,0.553386 l 0.2734375,0.218099 q 0.4785156,0.390625 0.64453122,0.673828 0.16601562,0.283203 0.16601562,0.634765 0,0.546875 -0.39713541,0.950521 -0.39713543,0.400391 -1.19140623,0.400391 -0.797526,0 -1.1946614,-0.374349 -0.3971354,-0.377604 -0.3971354,-0.934245 0,-0.830078 1.0611979,-1.56901 z m 0.6217447,-0.309245 q 0.4589844,-0.348307 0.5729167,-0.582682 0.1171875,-0.234375 0.1171875,-0.436198 0,-0.244141 -0.2148438,-0.442709 -0.2148437,-0.201823 -0.5533854,-0.201823 -0.3645833,0 -0.5566406,0.218099 -0.188802,0.218099 -0.188802,0.452474 0,0.227865 0.1595052,0.429688 0.1595052,0.201823 0.5110677,0.452474 z m -0.1660156,0.63151 q -0.859375,0.660808 -0.859375,1.236979 0,0.341797 0.2832032,0.576172 0.2832031,0.234375 0.6705729,0.234375 0.3548177,0 0.6347656,-0.224609 0.2799479,-0.224609 0.2799479,-0.559896 0,-0.328776 -0.3417969,-0.667318 -0.3385416,-0.338541 -0.4720052,-0.442708 z"
             style="font-size:6.66667px;font-family:Monaco;text-anchor:end;fill:#777777"
             id="path387" />
        </g>
      </g>
      <g
         transform="translate(-10)"
         id="g293">
        <path
           id="polyline275"
           style="fill:none;stroke:#707070;stroke-width:1"
           d="M 0,0 H 2"
           class="lcd-tick" />
        <path
           id="polyline277"
           style="fill:none;stroke:#707070;stroke-width:1"
           d="M 0,12 H 2"
           class="lcd-tick" />
        <path
           id="polyline279"
           style="fill:none;stroke:#707070;stroke-width:1"
           d="M 0,24 H 2"
           class="lcd-tick" />
        <path
           id="polyline281"
           style="fill:none;stroke:#707070;stroke-width:1"
           d="M 0,36 H 2"
           class="lcd-tick" />
        <path
           id="polyline283"
           style="fill:none;stroke:#707070;stroke-width:1"
           d="M 0,48 H 2"
           class="lcd-tick" />
        <path
           id="polyline285"
           style="fill:none;stroke:#707070;stroke-width:1"
           d="M 0,60 H 2"
           class="lcd-tick" />
        <path
           id="polyline287"
           style="fill:none;stroke:#707070;stroke-width:1"
           d="M 0,72 H 2"
           class="lcd-tick" />
        <path
           id="polyline289"
           style="fill:none;stroke:#707070;stroke-width:1"
           d="M 0,84 H 2"
           class="lcd-tick" />
        <path
           id="polyline291"
           style="fill:none;stroke:#707070;stroke-width:1"
           d="M 0,96 H 2"
           class="lcd-tick" />
      </g>
    </g>
  </g>
  <path
     id="polyline175"
     transform="translate(24,166)"
     style="fill:none;stroke:#343434;stroke-width:1"
     d="M 0,0 V 29"
     class="connect" />
  <g
     id="use177"
     transform="translate(12,154)">
    <g
       transform="translate(12,12)"
       id="g305">
      <path
         id="circle299"
         style="fill:none;stroke:#121212"
         d="M 11.5,0 A 11.5,11.5 0 0 1 0,11.5 11.5,11.5 0 0 1 -11.5,0 11.5,11.5 0 0 1 0,-11.5 11.5,11.5 0 0 1 11.5,0 Z" />
      <path
         id="circle301"
         style="fill:url(#linearGradient309)"
         d="M 11,0 A 11,11 0 0 1 0,11 11,11 0 0 1 -11,0 11,11 0 0 1 0,-11 11,11 0 0 1 11,0 Z" />
      <path
         id="circle303"
         style="fill:url(#linearGradient311)"
         d="M 10,0 A 10,10 0 0 1 0,10 10,10 0 0 1 -10,0 10,10 0 0 1 0,-10 10,10 0 0 1 10,0 Z" />
    </g>
  </g>
  <g
     id="use181"
     transform="translate(12,184)">
    <g
       transform="translate(12,12)"
       id="g313" />
  </g>
  <g
     id="use185"
     transform="translate(15,217)">
    <g
       transform="translate(9,9)"
       id="g317" />
  </g>
  <g
     id="use189"
     transform="translate(12,244)">
    <g
       transform="translate(12,12)"
       id="g321" />
  </g>
  <g
     id="use193"
     transform="translate(12,274)">
    <g
       transform="translate(12,12)"
       id="g325" />
  </g>
  <!-- mix -->
  <path
     id="rect197"
     style="fill:#558955"
     d="m 12.5,301 h 23 c 1.662,0 3,1.338 3,3 v 54 c 0,1.662 -1.338,3 -3,3 h -23 c -1.662,0 -3,-1.338 -3,-3 v -54 c 0,-1.662 1.338,-3 3,-3 z"
     class="poly-output" />
  <g
     id="use199"
     transform="translate(12,304)">
    <g
       transform="translate(12,12)"
       id="g239" />
  </g>
  <g
     id="use203"
     transform="translate(12,334)">
    <g
       transform="translate(12,12)"
       id="g329" />
  </g>
</svg>
