<?xml version="1.0" encoding="UTF-8" standalone="no"?>
<svg
   xmlns:dc="http://purl.org/dc/elements/1.1/"
   xmlns:cc="http://creativecommons.org/ns#"
   xmlns:rdf="http://www.w3.org/1999/02/22-rdf-syntax-ns#"
   xmlns:svg="http://www.w3.org/2000/svg"
   xmlns="http://www.w3.org/2000/svg"
   xmlns:sodipodi="http://sodipodi.sourceforge.net/DTD/sodipodi-0.dtd"
   xmlns:inkscape="http://www.inkscape.org/namespaces/inkscape"
   version="1.1"
   width="75"
   height="380"
   viewBox="0 0 75 380"
   id="svg108"
   sodipodi:docname="GAIN.svg"
   inkscape:version="1.0.2 (e86c8708, 2021-01-15)">
  <metadata
     id="metadata112">
    <rdf:RDF>
      <cc:Work
         rdf:about="">
        <dc:format>image/svg+xml</dc:format>
        <dc:type
           rdf:resource="http://purl.org/dc/dcmitype/StillImage" />
      </cc:Work>
    </rdf:RDF>
  </metadata>
  <sodipodi:namedview
     pagecolor="#ffffff"
     bordercolor="#666666"
     borderopacity="1"
     objecttolerance="10"
     gridtolerance="10"
     guidetolerance="10"
     inkscape:pageopacity="0"
     inkscape:pageshadow="2"
     inkscape:window-width="689"
     inkscape:window-height="480"
     id="namedview110"
     showgrid="false"
     inkscape:zoom="2.1763158"
     inkscape:cx="37.5"
     inkscape:cy="190"
     inkscape:window-x="0"
     inkscape:window-y="25"
     inkscape:window-maximized="0"
     inkscape:current-layer="svg108" />
  <style
     id="style2">
    text.title {
      fill: #a91913;
      font-family: 'DIN Alternate';
      font-size: 12pt;
    }
    text.logo {
      fill: #a91913;
      font-family: 'DIN Alternate';
      font-size: 10pt;
    }
    text.big-label {
      fill: #343434;
      font-family: 'DIN Alternate';
      font-size: 7.5pt;
    }
    text.label {
      fill: #343434;
      font-family: 'DIN Alternate';
      font-size: 6pt;
    }
    .background {
      fill: #e0e0e0;
    }
    .output {
      fill: #bbbbbb;
    }
    polyline.icon {
      stroke: #343434;
      stroke-width: 1.2;
      fill: none;
    }
    polyline.connect {
      stroke: #343434;
      stroke-width: 1;
      fill: none;
    }

    .blueprint {
      stroke: #08f;
      fill: none;
    }
  </style>
  <!-- ======== defs ======== -->
  <defs
     id="defs54">
    <symbol
       id="port">
      <g
         transform="translate(12 12)"
         id="g4" />
    </symbol>
    <symbol
       id="toggleButton">
      <g
         transform="translate(9 9)"
         id="g7" />
    </symbol>
    <symbol
       id="meter">
      <g
         transform="translate(20 5)"
         id="g46">
        <text
           x="-12.5"
           y="2.5"
           class="label"
           id="text10">6</text>
        <text
           x="-12.5"
           y="17.5"
           class="label"
           id="text12">3</text>
        <text
           x="-12.5"
           y="32.5"
           class="label"
           id="text14">0</text>
        <text
           x="-12.5"
           y="47.5"
           class="label"
           id="text16">3</text>
        <text
           x="-12.5"
           y="62.5"
           class="label"
           id="text18">6</text>
        <text
           x="-16"
           y="83.5"
           class="label"
           id="text20">12</text>
        <text
           x="-16"
           y="104.5"
           class="label"
           id="text22">24</text>
        <text
           x="-16"
           y="125.5"
           class="label"
           id="text24">48</text>
        <polyline
           points="-7.5   0 8   0"
           class="connect"
           id="polyline26" />
        <polyline
           points="-7.5  15 8  15"
           class="connect"
           id="polyline28" />
        <polyline
           points="-7.5  30 8  30"
           class="connect"
           id="polyline30" />
        <polyline
           points="-7.5  45 8  45"
           class="connect"
           id="polyline32" />
        <polyline
           points="-7.5  60 8  60"
           class="connect"
           id="polyline34" />
        <polyline
           points="-7.5  81 8  81"
           class="connect"
           id="polyline36" />
        <polyline
           points="-7.5 102 8 102"
           class="connect"
           id="polyline38" />
        <polyline
           points="-7.5 123 8 123"
           class="connect"
           id="polyline40" />
        <polyline
           points="-7.5 144 8 144"
           class="connect"
           id="polyline42" />
        <rect
           x="-5"
           y="0"
           width="10"
           height="144"
           fill="#121212"
           id="rect44" />
      </g>
    </symbol>
    <symbol
       id="fader">
      <g
         transform="translate(6 8)"
         id="g51">
        <g
           transform="translate(0 144)"
           id="g49" />
      </g>
    </symbol>
  </defs>
  <!-- ======== header/footer ======== -->
  <path
     id="rect56"
     style="fill:#e0e0e0"
     d="M 0,0 H 75 V 380 H 0 Z"
     class="background" />
  <g
     aria-label="GAIN"
     id="text58"
     style="font-size:16px;font-family:'DIN Alternate';text-anchor:middle;fill:#a91913"
     class="title">
    <path
       d="M 25.117187,25.359375 H 27.4375 v 0.59375 q -0.01563,1.070312 -0.671875,1.726562 -0.65625,0.6875 -1.664063,0.6875 -0.609375,0 -1.046875,-0.257812 -0.445312,-0.21875 -0.71875,-0.570313 Q 23,27.171875 22.890625,26.578125 q -0.125,-0.59375 -0.125,-2.273438 0,-1.679687 0.125,-2.289062 Q 23,21.4375 23.335937,21.070312 q 0.273438,-0.351562 0.71875,-0.585937 0.4375,-0.226563 1.046875,-0.242188 0.828125,0.01563 1.40625,0.476563 0.554688,0.484375 0.765625,1.171875 h 1.828125 q -0.273437,-1.429688 -1.3125,-2.398438 -1.039062,-0.960937 -2.6875,-0.976562 -1.34375,0.01563 -2.242187,0.640625 -0.914063,0.617187 -1.328125,1.40625 -0.257813,0.414062 -0.382813,1.085937 -0.117187,0.671875 -0.117187,2.65625 0,1.953125 0.117187,2.640625 0.0625,0.367188 0.15625,0.609375 0.101563,0.234375 0.226563,0.492188 0.414062,0.789062 1.328125,1.390625 0.898437,0.625 2.242187,0.65625 1.742188,-0.03125 2.890625,-1.179688 1.140625,-1.15625 1.171875,-2.867187 v -2.320313 h -4.046875 z"
       style="font-size:16px;font-family:'DIN Alternate';text-anchor:middle;fill:#a91913"
       id="path218" />
    <path
       d="m 33.1875,25.921875 1.648437,-4.976563 h 0.03125 l 1.648438,4.976563 z M 37.890625,30 h 1.820312 L 35.570312,18.609375 H 34.125 L 29.984375,30 H 31.8125 l 0.875,-2.546875 h 4.320312 z"
       style="font-size:16px;font-family:'DIN Alternate';text-anchor:middle;fill:#a91913"
       id="path220" />
    <path
       d="m 40.921875,30 h 1.726562 V 18.609375 h -1.726562 z"
       style="font-size:16px;font-family:'DIN Alternate';text-anchor:middle;fill:#a91913"
       id="path222" />
    <path
       d="m 45.046875,30 h 1.726562 v -8.09375 h 0.03125 L 51.953125,30 h 1.632812 V 18.609375 h -1.726562 v 8.09375 h -0.03125 l -5.15625,-8.09375 h -1.625 z"
       style="font-size:16px;font-family:'DIN Alternate';text-anchor:middle;fill:#a91913"
       id="path224" />
  </g>
  <g
     aria-label="RM"
     id="text60"
     style="font-size:13.3333px;font-family:'DIN Alternate';text-anchor:middle;fill:#a91913"
     class="logo">
    <path
       d="m 29.326823,367.79036 h 2.252604 q 0.690104,0 1.054688,0.29297 0.462239,0.33203 0.47526,1.07422 0,0.61849 -0.397135,1.04167 -0.403646,0.45573 -1.210938,0.46875 H 29.326823 Z M 27.888021,376 h 1.438802 v -4.05599 h 1.835938 L 33.122396,376 h 1.712239 l -2.20052,-4.21224 q 1.809895,-0.69661 1.835937,-2.63021 -0.03906,-1.3151 -0.94401,-2.02474 -0.748698,-0.625 -1.933594,-0.625 h -3.704427 z"
       style="font-size:13.3333px;font-family:'DIN Alternate';text-anchor:middle;fill:#a91913"
       id="path213" />
    <path
       d="m 36.013021,376 h 1.438802 v -5.91797 h 0.02604 l 1.985677,4.55729 h 1.197916 l 1.985677,-4.55729 h 0.03255 V 376 h 1.438802 v -9.49219 h -1.360677 l -2.669271,6.1849 v 0 l -2.721354,-6.1849 h -1.354167 z"
       style="font-size:13.3333px;font-family:'DIN Alternate';text-anchor:middle;fill:#a91913"
       id="path215" />
  </g>
  <!-- ======== track ======== -->
  <g
     id="use62"
     transform="translate(13,41)">
    <g
       transform="translate(20,5)"
       id="g166">
      <g
         aria-label="6"
         id="text130"
         style="font-size:8px;font-family:'DIN Alternate';fill:#343434"
         class="label">
        <path
           d="m -9.53125,-3.2539063 q 0.00391,0 -0.039063,0.085937 -0.039063,0.082031 -0.109375,0.2265625 Q -9.75,-2.796875 -9.84375,-2.609375 q -0.09375,0.1875 -0.199219,0.3945312 -0.101562,0.2070313 -0.210937,0.4179688 -0.105469,0.2109375 -0.207032,0.4023438 -0.09766,0.1914062 -0.179687,0.3476562 -0.08203,0.15625 -0.136719,0.25 0.113281,-0.0664063 0.253906,-0.078125 0.144532,-0.015625 0.332032,-0.007813 0.269531,0.007813 0.4687497,0.09375 0.203125,0.0859375 0.3476563,0.21484375 0.1445312,0.12890625 0.2382812,0.2890625 0.097656,0.15625 0.1523438,0.30859375 0.054687,0.1484375 0.074219,0.28125 0.023437,0.12890625 0.023437,0.203125 0,0.0234375 0,0.0859375 0,0.0625 0,0.140625 0,0.0742188 -0.00391,0.15234375 0,0.078125 -0.00391,0.13281245 -0.00391,0.027344 -0.027344,0.1445313 Q -8.9414063,1.2773437 -9,1.4375 -9.0546875,1.59375 -9.1601563,1.7773437 -9.265625,1.9570312 -9.4375,2.1210938 -9.609375,2.28125 -9.8554688,2.3984375 -10.101563,2.515625 -10.441406,2.5429688 -10.796875,2.5742188 -11.070313,2.4960938 -11.34375,2.4179688 -11.542969,2.2734375 -11.742188,2.1289063 -11.875,1.9414062 -12.007813,1.75 -12.085938,1.5507812 -12.160156,1.3515625 -12.1875,1.1679687 q -0.02344,-0.1835937 -0.0078,-0.31249995 0.02344,-0.19140625 0.05078,-0.33984375 0.02734,-0.15234375 0.0625,-0.2890625 0.03906,-0.13671875 0.08594,-0.26953125 0.04687,-0.1328125 0.109375,-0.2890625 0.01563,-0.0390625 0.08594,-0.18359375 0.07031,-0.1484375 0.171875,-0.36328125 0.105468,-0.21484375 0.234375,-0.47265625 0.128906,-0.2578125 0.257812,-0.5234375 0.304688,-0.6171875 0.683594,-1.3789063 z m -0.1640625,4.1679688 q 0,-0.1484375 -0.011719,-0.328125 Q -9.71875,0.40625 -9.796875,0.24609375 q -0.074219,-0.1640625 -0.246094,-0.28125 -0.171875,-0.1171875 -0.488281,-0.140625 -0.148438,-0.0117188 -0.269531,0.03125 -0.121094,0.0429687 -0.214844,0.1171875 -0.09375,0.07421875 -0.164063,0.171875 -0.06641,0.09375 -0.113281,0.1875 -0.04297,0.09375 -0.0625,0.17578125 -0.01953,0.078125 -0.01953,0.12109375 0,0.0976563 0.0039,0.21875 0.0039,0.1171875 0.02344,0.23828125 0.02344,0.1171875 0.07422,0.2304687 0.05078,0.109375 0.144532,0.1953125 0.09375,0.085937 0.238281,0.140625 0.148437,0.054687 0.367187,0.054687 0.175782,0.00391 0.304688,-0.042969 0.132812,-0.050781 0.2226562,-0.125 0.09375,-0.078125 0.1523438,-0.171875 0.058594,-0.09375 0.089844,-0.1835938 0.035156,-0.089844 0.046875,-0.1601562 0.011719,-0.0742188 0.011719,-0.109375 z"
           style="font-size:8px;font-family:'DIN Alternate';fill:#343434"
           id="path244" />
      </g>
      <g
         aria-label="3"
         id="text132"
         style="font-size:8px;font-family:'DIN Alternate';fill:#343434"
         class="label">
        <path
           d="M -11.09375,14.925781 H -10.75 q 0.378906,0 0.625,0.230469 0.25,0.238281 0.2578125,0.671875 -0.00781,0.425781 -0.2578125,0.65625 -0.246094,0.246094 -0.605469,0.246094 -0.335937,0 -0.539062,-0.183594 -0.199219,-0.175781 -0.308594,-0.460938 h -0.816406 q 0.132812,0.710938 0.582031,1.085938 0.449219,0.375 1.03125,0.375 0.753906,-0.0078 1.234375,-0.480469 0.4882812,-0.460937 0.4960937,-1.261718 0,-0.359375 -0.1523437,-0.6875 -0.1601563,-0.328125 -0.5195313,-0.5625 0.3515625,-0.238282 0.4882813,-0.542969 0.1171875,-0.304688 0.1171875,-0.632813 -0.00781,-0.648437 -0.4453125,-1.125 -0.457031,-0.488281 -1.234375,-0.496093 -0.613281,0.0078 -1.054688,0.4375 -0.449218,0.433593 -0.511718,1.066406 h 0.816406 q 0.07813,-0.351563 0.304687,-0.519531 0.214844,-0.167969 0.476563,-0.167969 0.363281,0.0078 0.59375,0.230469 0.2304687,0.230468 0.2382812,0.589843 0,0.355469 -0.2304692,0.578125 -0.230468,0.230469 -0.648437,0.230469 h -0.28125 z"
           style="font-size:8px;font-family:'DIN Alternate';fill:#343434"
           id="path247" />
      </g>
      <g
         aria-label="0"
         id="text134"
         style="font-size:8px;font-family:'DIN Alternate';fill:#343434"
         class="label">
        <path
           d="m -9.78125,30.859375 q -0.023437,0.863281 -0.800781,0.871094 -0.78125,-0.0078 -0.796875,-0.871094 v -2.414063 q 0.01563,-0.855468 0.796875,-0.871093 0.7773435,0.01563 0.800781,0.871093 z m -2.414063,0.04687 q 0.0078,0.785156 0.503907,1.210937 0.464843,0.421875 1.109375,0.429688 0.6640622,-0.0078 1.128906,-0.429688 0.4726562,-0.425781 0.4882812,-1.210937 v -2.511719 q -0.015625,-0.789062 -0.4882812,-1.214844 -0.4648438,-0.421875 -1.128906,-0.421875 -0.644532,0 -1.109375,0.421875 -0.496094,0.425782 -0.503907,1.214844 z"
           style="font-size:8px;font-family:'DIN Alternate';fill:#343434"
           id="path250" />
      </g>
      <g
         aria-label="3"
         id="text136"
         style="font-size:8px;font-family:'DIN Alternate';fill:#343434"
         class="label">
        <path
           d="M -11.09375,44.925781 H -10.75 q 0.378906,0 0.625,0.230469 0.25,0.238281 0.2578125,0.671875 -0.00781,0.425781 -0.2578125,0.65625 -0.246094,0.246094 -0.605469,0.246094 -0.335937,0 -0.539062,-0.183594 -0.199219,-0.175781 -0.308594,-0.460938 h -0.816406 q 0.132812,0.710938 0.582031,1.085938 0.449219,0.375 1.03125,0.375 0.753906,-0.0078 1.234375,-0.480469 0.4882812,-0.460937 0.4960937,-1.261719 0,-0.359375 -0.1523437,-0.6875 -0.1601563,-0.328125 -0.5195313,-0.5625 0.3515625,-0.238281 0.4882813,-0.542968 0.1171875,-0.304688 0.1171875,-0.632813 -0.00781,-0.648437 -0.4453125,-1.125 -0.457031,-0.488281 -1.234375,-0.496094 -0.613281,0.0078 -1.054688,0.4375 -0.449218,0.433594 -0.511718,1.066407 h 0.816406 q 0.07813,-0.351563 0.304687,-0.519532 0.214844,-0.167968 0.476563,-0.167968 0.363281,0.0078 0.59375,0.230468 0.2304687,0.230469 0.2382812,0.589844 0,0.355469 -0.2304692,0.578125 -0.230468,0.230469 -0.648437,0.230469 h -0.28125 z"
           style="font-size:8px;font-family:'DIN Alternate';fill:#343434"
           id="path253" />
      </g>
      <g
         aria-label="6"
         id="text138"
         style="font-size:8px;font-family:'DIN Alternate';fill:#343434"
         class="label">
        <path
           d="m -9.53125,56.746094 q 0.00391,0 -0.039063,0.08594 -0.039063,0.08203 -0.109375,0.226563 -0.070312,0.144531 -0.1640625,0.332031 -0.09375,0.1875 -0.199219,0.394531 -0.101562,0.207031 -0.210937,0.417969 -0.105469,0.210937 -0.207032,0.402344 -0.09766,0.191406 -0.179687,0.347656 -0.08203,0.15625 -0.136719,0.25 0.113281,-0.06641 0.253906,-0.07813 0.144532,-0.01563 0.332032,-0.0078 0.269531,0.0078 0.4687497,0.09375 0.203125,0.08594 0.3476563,0.214844 0.1445312,0.128906 0.2382812,0.289063 0.097656,0.15625 0.1523438,0.308593 0.054687,0.148438 0.074219,0.28125 0.023437,0.128907 0.023437,0.203125 0,0.02344 0,0.08594 0,0.0625 0,0.140625 0,0.07422 -0.00391,0.152344 0,0.07813 -0.00391,0.132812 -0.00391,0.02734 -0.027344,0.144531 Q -8.9414063,61.277344 -9,61.4375 q -0.054687,0.15625 -0.1601563,0.339844 -0.1054687,0.179687 -0.2773437,0.34375 -0.171875,0.160156 -0.4179688,0.277343 -0.2460942,0.117188 -0.5859372,0.144532 -0.355469,0.03125 -0.628907,-0.04687 -0.273437,-0.07813 -0.472656,-0.222657 -0.199219,-0.144531 -0.332031,-0.332031 -0.132813,-0.191406 -0.210938,-0.390625 -0.07422,-0.199219 -0.101562,-0.382812 -0.02344,-0.183594 -0.0078,-0.3125 0.02344,-0.191407 0.05078,-0.339844 0.02734,-0.152344 0.0625,-0.289063 0.03906,-0.136718 0.08594,-0.269531 0.04687,-0.132812 0.109375,-0.289062 0.01563,-0.03906 0.08594,-0.183594 0.07031,-0.148438 0.171875,-0.363281 0.105468,-0.214844 0.234375,-0.472657 0.128906,-0.257812 0.257812,-0.523437 0.304688,-0.617188 0.683594,-1.378906 z m -0.1640625,4.167968 q 0,-0.148437 -0.011719,-0.328125 -0.011719,-0.179687 -0.089844,-0.339843 -0.074219,-0.164063 -0.246094,-0.28125 -0.171875,-0.117188 -0.488281,-0.140625 -0.148438,-0.01172 -0.269531,0.03125 -0.121094,0.04297 -0.214844,0.117187 -0.09375,0.07422 -0.164063,0.171875 -0.06641,0.09375 -0.113281,0.1875 -0.04297,0.09375 -0.0625,0.175781 -0.01953,0.07813 -0.01953,0.121094 0,0.09766 0.0039,0.21875 0.0039,0.117188 0.02344,0.238281 0.02344,0.117188 0.07422,0.230469 0.05078,0.109375 0.144532,0.195313 0.09375,0.08594 0.238281,0.140625 0.148437,0.05469 0.367187,0.05469 0.175782,0.0039 0.304688,-0.04297 0.132812,-0.05078 0.2226562,-0.125 0.09375,-0.07813 0.1523438,-0.171875 0.058594,-0.09375 0.089844,-0.183593 0.035156,-0.08984 0.046875,-0.160157 0.011719,-0.07422 0.011719,-0.109375 z"
           style="font-size:8px;font-family:'DIN Alternate';fill:#343434"
           id="path256" />
      </g>
      <g
         aria-label="12"
         id="text140"
         style="font-size:8px;font-family:'DIN Alternate';fill:#343434"
         class="label">
        <path
           d="M -14.449219,78.667969 V 83.5 h 0.816406 v -5.695313 h -0.816406 l -0.808594,0.589844 v 0.867188 0 l 0.808594,-0.59375 z"
           style="font-size:8px;font-family:'DIN Alternate';fill:#343434"
           id="path259" />
        <path
           d="m -11.898438,83.5 h 3.2460942 v -0.816406 h -2.1757812 l 1.8320312,-2.296875 q 0.34375,-0.4375 0.34375,-1 -0.00781,-0.703125 -0.4726562,-1.160157 -0.4570313,-0.460937 -1.191406,-0.46875 -0.65625,0.0078 -1.105469,0.460938 -0.445313,0.464844 -0.476563,1.175781 h 0.8125 q 0.04297,-0.390625 0.273438,-0.605469 0.222656,-0.214843 0.558594,-0.214843 0.378906,0.0078 0.5859372,0.246093 0.1992188,0.238282 0.1992188,0.558594 0,0.121094 -0.03125,0.257813 -0.046875,0.144531 -0.1757813,0.3125 l -2.2226567,2.78125 z"
           style="font-size:8px;font-family:'DIN Alternate';fill:#343434"
           id="path261" />
      </g>
      <g
         aria-label="24"
         id="text142"
         style="font-size:8px;font-family:'DIN Alternate';fill:#343434"
         class="label">
        <path
           d="m -15.742188,104.5 h 3.246094 v -0.81641 h -2.175781 l 1.832031,-2.29687 q 0.34375,-0.4375 0.34375,-1 -0.0078,-0.703126 -0.472656,-1.160158 -0.457031,-0.460937 -1.191406,-0.46875 -0.65625,0.0078 -1.105469,0.460938 -0.445313,0.464844 -0.476563,1.17578 h 0.8125 q 0.04297,-0.39062 0.273438,-0.605468 0.222656,-0.214843 0.558594,-0.214843 0.378906,0.0078 0.585937,0.246093 0.199219,0.238278 0.199219,0.558598 0,0.12109 -0.03125,0.25781 -0.04687,0.14453 -0.175781,0.3125 l -2.222657,2.78125 z"
           style="font-size:8px;font-family:'DIN Alternate';fill:#343434"
           id="path264" />
        <path
           d="m -12.058594,103.65234 h 2.3750002 V 104.5 h 0.8164063 v -0.84766 h 0.453125 v -0.76953 h -0.453125 v -1.63672 h -0.8164063 v 1.63672 h -1.4882812 l 1.9257812,-4.078123 H -10.15625 l -1.902344,4.078123 z"
           style="font-size:8px;font-family:'DIN Alternate';fill:#343434"
           id="path266" />
      </g>
      <g
         aria-label="48"
         id="text144"
         style="font-size:8px;font-family:'DIN Alternate';fill:#343434"
         class="label">
        <path
           d="m -15.902344,124.65234 h 2.375 V 125.5 h 0.816406 v -0.84766 h 0.453125 v -0.76953 h -0.453125 v -1.63672 h -0.816406 v 1.63672 h -1.488281 l 1.925781,-4.07812 H -14 l -1.902344,4.07812 z"
           style="font-size:8px;font-family:'DIN Alternate';fill:#343434"
           id="path269" />
        <path
           d="m -11.050781,121.38672 q 0.0078,-0.40625 0.253906,-0.61328 0.242187,-0.19922 0.558594,-0.19922 0.3281247,0 0.5703122,0.19922 0.2382813,0.20703 0.2460938,0.61328 -0.00781,0.39453 -0.2460938,0.60156 -0.2421875,0.21485 -0.5703122,0.21485 -0.316407,0 -0.558594,-0.21485 -0.246094,-0.20703 -0.253906,-0.60156 z m -0.921875,2.44922 q 0.0078,0.76953 0.519531,1.23047 0.488281,0.47265 1.214844,0.48047 0.7304685,-0.008 1.2343747,-0.48047 0.4960938,-0.46094 0.5039063,-1.23047 -0.00781,-0.82422 -0.671875,-1.28125 0.2539062,-0.22266 0.4140625,-0.51172 0.1523437,-0.26953 0.1523437,-0.64063 -0.00781,-0.71093 -0.4648437,-1.17578 -0.453125,-0.46093 -1.1679685,-0.46875 -0.703125,0.008 -1.148438,0.46875 -0.472656,0.46485 -0.480469,1.17578 0,0.3711 0.167969,0.64063 0.144531,0.28906 0.398438,0.51172 -0.664063,0.45703 -0.671875,1.28125 z m 0.816406,-0.008 q 0.0078,-0.39844 0.28125,-0.64844 0.261719,-0.2461 0.636719,-0.25391 0.3867185,0.008 0.6484372,0.25391 0.265625,0.25 0.2734375,0.64844 -0.00781,0.39062 -0.2734375,0.64062 -0.2617187,0.26172 -0.6484372,0.26172 -0.375,0 -0.636719,-0.26172 -0.273438,-0.25 -0.28125,-0.64062 z"
           style="font-size:8px;font-family:'DIN Alternate';fill:#343434"
           id="path271" />
      </g>
      <path
         id="polyline146"
         style="fill:none;stroke:#343434;stroke-width:1"
         d="M -7.5,0 H 8"
         class="connect" />
      <path
         id="polyline148"
         style="fill:none;stroke:#343434;stroke-width:1"
         d="M -7.5,15 H 8"
         class="connect" />
      <path
         id="polyline150"
         style="fill:none;stroke:#343434;stroke-width:1"
         d="M -7.5,30 H 8"
         class="connect" />
      <path
         id="polyline152"
         style="fill:none;stroke:#343434;stroke-width:1"
         d="M -7.5,45 H 8"
         class="connect" />
      <path
         id="polyline154"
         style="fill:none;stroke:#343434;stroke-width:1"
         d="M -7.5,60 H 8"
         class="connect" />
      <path
         id="polyline156"
         style="fill:none;stroke:#343434;stroke-width:1"
         d="M -7.5,81 H 8"
         class="connect" />
      <path
         id="polyline158"
         style="fill:none;stroke:#343434;stroke-width:1"
         d="M -7.5,102 H 8"
         class="connect" />
      <path
         id="polyline160"
         style="fill:none;stroke:#343434;stroke-width:1"
         d="M -7.5,123 H 8"
         class="connect" />
      <path
         id="polyline162"
         style="fill:none;stroke:#343434;stroke-width:1"
         d="M -7.5,144 H 8"
         class="connect" />
      <path
         id="rect164"
         style="fill:#121212"
         d="M -5,0 H 5 V 144 H -5 Z" />
    </g>
  </g>
  <g
     transform="translate(45,46)"
     id="g66">
    <g
       id="use64"
       transform="translate(-6,-8)">
      <g
         transform="translate(6,8)"
         id="g196">
        <g
           transform="translate(0,144)"
           id="g194" />
      </g>
    </g>
  </g>
  <!-- ======== params and ports ======== -->
  <g
     id="use70"
     transform="translate(28.5,208)">
    <g
       transform="translate(9,9)"
       id="g170" />
  </g>
  <g
     aria-label="MUTE"
     id="text72"
     style="font-size:8px;font-family:'DIN Alternate';text-anchor:middle;fill:#343434"
     class="label">
    <path
       d="m 28.320312,236 h 0.863282 v -3.55078 h 0.01563 l 1.191406,2.73437 h 0.71875 l 1.191406,-2.73437 h 0.01953 V 236 h 0.863282 v -5.69531 h -0.816407 l -1.601562,3.71093 v 0 l -1.632813,-3.71093 h -0.8125 z"
       style="font-size:8px;font-family:'DIN Alternate';text-anchor:middle;fill:#343434"
       id="path235" />
    <path
       d="m 34.277344,234.07031 q 0.0078,0.89844 0.59375,1.42578 0.574218,0.54297 1.429687,0.55078 0.871094,-0.008 1.441406,-0.55078 0.566407,-0.52734 0.582032,-1.42578 v -3.76562 h -0.863282 v 3.67187 q -0.0078,0.58203 -0.328125,0.88672 -0.328125,0.32031 -0.832031,0.32031 -0.503906,0 -0.824219,-0.32031 -0.328125,-0.30469 -0.335937,-0.88672 v -3.67187 h -0.863281 z"
       style="font-size:8px;font-family:'DIN Alternate';text-anchor:middle;fill:#343434"
       id="path237" />
    <path
       d="m 40.394531,236 h 0.867188 v -4.92578 h 1.558593 v -0.76953 h -3.984375 v 0.76953 h 1.558594 z"
       style="font-size:8px;font-family:'DIN Alternate';text-anchor:middle;fill:#343434"
       id="path239" />
    <path
       d="m 43.429687,236 h 3.636719 v -0.81641 h -2.773437 v -1.67187 h 2.367187 v -0.76563 h -2.367187 v -1.625 h 2.773437 v -0.8164 h -3.636719 z"
       style="font-size:8px;font-family:'DIN Alternate';text-anchor:middle;fill:#343434"
       id="path241" />
  </g>
  <g
     id="use76"
     transform="translate(25.5,242)">
    <g
       transform="translate(12,12)"
       id="g182" />
  </g>
  <g
     aria-label="LVL"
     id="text78"
     style="font-size:8px;font-family:'DIN Alternate';text-anchor:middle;fill:#343434"
     class="label">
    <path
       d="m 31.867187,276 h 3.636719 v -0.81641 h -2.773437 v -4.8789 h -0.863282 z"
       style="font-size:8px;font-family:'DIN Alternate';text-anchor:middle;fill:#343434"
       id="path206" />
    <path
       d="m 36.714844,276 h 0.671875 l 1.882812,-5.69531 h -0.914062 l -1.296875,4.33593 h -0.01563 L 35.75,270.30469 h -0.914063 z"
       style="font-size:8px;font-family:'DIN Alternate';text-anchor:middle;fill:#343434"
       id="path208" />
    <path
       d="m 39.882812,276 h 3.636719 v -0.81641 h -2.773437 v -4.8789 h -0.863282 z"
       style="font-size:8px;font-family:'DIN Alternate';text-anchor:middle;fill:#343434"
       id="path210" />
  </g>
  <!-- ======== inputs ======== -->
  <g
     id="use82"
     transform="translate(7.5,280)">
    <g
       transform="translate(12,12)"
       id="g174" />
  </g>
  <g
     aria-label="L"
     id="text84"
     style="font-size:8px;font-family:'DIN Alternate';text-anchor:middle;fill:#343434"
     class="label">
    <path
       d="m 17.875,314 h 3.636719 v -0.81641 h -2.773438 v -4.8789 H 17.875 Z"
       style="font-size:8px;font-family:'DIN Alternate';text-anchor:middle;fill:#343434"
       id="path232" />
  </g>
  <g
     id="use88"
     transform="translate(43.5,280)">
    <g
       transform="translate(12,12)"
       id="g186" />
  </g>
  <g
     aria-label="R"
     id="text90"
     style="font-size:8px;font-family:'DIN Alternate';text-anchor:middle;fill:#343434"
     class="label">
    <path
       d="m 54.527344,309.07422 h 1.351562 q 0.414063,0 0.632813,0.17578 0.277343,0.19922 0.285156,0.64453 0,0.37109 -0.238281,0.625 -0.242188,0.27344 -0.726563,0.28125 H 54.527344 Z M 53.664062,314 h 0.863282 v -2.43359 h 1.101562 L 56.804687,314 h 1.027344 l -1.320312,-2.52734 q 1.085937,-0.41797 1.101562,-1.57813 -0.02344,-0.78906 -0.566406,-1.21484 -0.449219,-0.375 -1.160156,-0.375 h -2.222657 z"
       style="font-size:8px;font-family:'DIN Alternate';text-anchor:middle;fill:#343434"
       id="path203" />
  </g>
  <!-- ======== outputs ======== -->
  <path
     id="rect94"
     style="fill:#bbbbbb"
     d="m 7.5,318 h 60 c 1.662,0 3,1.338 3,3 v 36 c 0,1.662 -1.338,3 -3,3 h -60 c -1.662,0 -3,-1.338 -3,-3 v -36 c 0,-1.662 1.338,-3 3,-3 z"
     class="output" />
  <g
     id="use96"
     transform="translate(7.5,322)">
    <g
       transform="translate(12,12)"
       id="g178" />
  </g>
  <g
     aria-label="L"
     id="text98"
     style="font-size:8px;font-family:'DIN Alternate';text-anchor:middle;fill:#343434"
     class="label">
    <path
       d="m 17.875,356 h 3.636719 v -0.81641 h -2.773438 v -4.8789 H 17.875 Z"
       style="font-size:8px;font-family:'DIN Alternate';text-anchor:middle;fill:#343434"
       id="path228" />
  </g>
  <g
     id="use102"
     transform="translate(43.5,322)">
    <g
       transform="translate(12,12)"
       id="g190" />
  </g>
  <g
     aria-label="R"
     id="text104"
     style="font-size:8px;font-family:'DIN Alternate';text-anchor:middle;fill:#343434"
     class="label">
    <path
       d="m 54.527344,351.07422 h 1.351562 q 0.414063,0 0.632813,0.17578 0.277343,0.19922 0.285156,0.64453 0,0.37109 -0.238281,0.625 -0.242188,0.27344 -0.726563,0.28125 H 54.527344 Z M 53.664062,356 h 0.863282 v -2.43359 h 1.101562 L 56.804687,356 h 1.027344 l -1.320312,-2.52734 q 1.085937,-0.41797 1.101562,-1.57813 -0.02344,-0.78906 -0.566406,-1.21484 -0.449219,-0.375 -1.160156,-0.375 h -2.222657 z"
       style="font-size:8px;font-family:'DIN Alternate';text-anchor:middle;fill:#343434"
       id="path200" />
  </g>
</svg>
