<?xml version="1.0" encoding="UTF-8" standalone="no"?>
<svg
   xmlns:dc="http://purl.org/dc/elements/1.1/"
   xmlns:cc="http://creativecommons.org/ns#"
   xmlns:rdf="http://www.w3.org/1999/02/22-rdf-syntax-ns#"
   xmlns:svg="http://www.w3.org/2000/svg"
   xmlns="http://www.w3.org/2000/svg"
   xmlns:sodipodi="http://sodipodi.sourceforge.net/DTD/sodipodi-0.dtd"
   xmlns:inkscape="http://www.inkscape.org/namespaces/inkscape"
   version="1.1"
   width="60"
   height="380"
   viewBox="0 0 60 380"
   id="svg165"
   sodipodi:docname="MIX1.svg"
   inkscape:version="1.0.2 (e86c8708, 2021-01-15)">
  <metadata
     id="metadata169">
    <rdf:RDF>
      <cc:Work
         rdf:about="">
        <dc:format>image/svg+xml</dc:format>
        <dc:type
           rdf:resource="http://purl.org/dc/dcmitype/StillImage" />
      </cc:Work>
    </rdf:RDF>
  </metadata>
  <sodipodi:namedview
     pagecolor="#ffffff"
     bordercolor="#666666"
     borderopacity="1"
     objecttolerance="10"
     gridtolerance="10"
     guidetolerance="10"
     inkscape:pageopacity="0"
     inkscape:pageshadow="2"
     inkscape:window-width="689"
     inkscape:window-height="480"
     id="namedview167"
     showgrid="false"
     inkscape:zoom="2.1763158"
     inkscape:cx="30"
     inkscape:cy="190"
     inkscape:window-x="0"
     inkscape:window-y="25"
     inkscape:window-maximized="0"
     inkscape:current-layer="svg165" />
  <style
     id="style2">
    text.title {
      fill: #a91913;
      font-family: 'DIN Alternate';
      font-size: 12pt;
    }
    text.logo {
      fill: #a91913;
      font-family: 'DIN Alternate';
      font-size: 10pt;
    }
    text.big-label {
      fill: #343434;
      font-family: 'DIN Alternate';
      font-size: 7.5pt;
    }
    text.label {
      fill: #343434;
      font-family: 'DIN Alternate';
      font-size: 6pt;
    }
    .background {
      fill: #e0e0e0;
    }
    .output {
      fill: #bbbbbb;
    }
    polyline.icon {
      stroke: #343434;
      stroke-width: 1.2;
      fill: none;
    }
    polyline.connect {
      stroke: #343434;
      stroke-width: 1;
      fill: none;
    }

    .blueprint {
      stroke: #08f;
      fill: none;
    }
  </style>
  <!-- ======== defs ======== -->
  <defs
     id="defs93">
    <linearGradient
       id="smallKnobMediumGradient">
      <stop
         offset="5%"
         stop-color="#888"
         id="stop4" />
      <stop
         offset="95%"
         stop-color="#333"
         id="stop6" />
    </linearGradient>
    <linearGradient
       id="smallKnobDarkGradient">
      <stop
         offset="5%"
         stop-color="#444"
         id="stop9" />
      <stop
         offset="95%"
         stop-color="#222"
         id="stop11" />
    </linearGradient>
    <symbol
       id="knob18">
      <g
         transform="translate(9 9)"
         id="g20">
        <circle
           r="8.5"
           stroke="#222"
           fill="none"
           id="circle14" />
        <circle
           r="8"
           fill="url('#smallKnobMediumGradient')"
           transform="rotate(90)"
           id="circle16" />
        <circle
           r="7"
           fill="url('#smallKnobDarkGradient')"
           transform="rotate(90)"
           id="circle18" />
      </g>
    </symbol>
    <symbol
       id="toggleButton">
      <g
         transform="translate(9 9)"
         id="g23" />
    </symbol>
    <symbol
       id="port">
      <g
         transform="translate(12 12)"
         id="g26" />
    </symbol>
    <symbol
       id="meter">
      <g
         transform="translate(20 6)"
         id="g85">
        <text
           x="-14.5"
           y="3"
           class="label"
           id="text29">6</text>
        <text
           x="-14.5"
           y="18"
           class="label"
           id="text31">3</text>
        <text
           x="-14.5"
           y="33"
           class="label"
           id="text33">0</text>
        <text
           x="-14.5"
           y="48"
           class="label"
           id="text35">3</text>
        <text
           x="-14.5"
           y="63"
           class="label"
           id="text37">6</text>
        <text
           x="-18"
           y="84"
           class="label"
           id="text39">12</text>
        <text
           x="-18"
           y="105"
           class="label"
           id="text41">24</text>
        <text
           x="-18"
           y="126"
           class="label"
           id="text43">48</text>
        <text
           x="-18"
           y="145"
           class="label"
           id="text45">72</text>
        <polyline
           points="-9   0   -6   0"
           class="connect"
           id="polyline47" />
        <polyline
           points="-9  15   -6  15"
           class="connect"
           id="polyline49" />
        <polyline
           points="-9  30   -6  30"
           class="connect"
           id="polyline51" />
        <polyline
           points="-9  45   -6  45"
           class="connect"
           id="polyline53" />
        <polyline
           points="-9  60   -6  60"
           class="connect"
           id="polyline55" />
        <polyline
           points="-9  81   -6  81"
           class="connect"
           id="polyline57" />
        <polyline
           points="-9 102   -6 102"
           class="connect"
           id="polyline59" />
        <polyline
           points="-9 123   -6 123"
           class="connect"
           id="polyline61" />
        <polyline
           points="-9 142.5 -6 142.5"
           class="connect"
           id="polyline63" />
        <polyline
           points="6   0   9   0"
           class="connect"
           id="polyline65" />
        <polyline
           points="6  15   9  15"
           class="connect"
           id="polyline67" />
        <polyline
           points="6  30   9  30"
           class="connect"
           id="polyline69" />
        <polyline
           points="6  45   9  45"
           class="connect"
           id="polyline71" />
        <polyline
           points="6  60   9  60"
           class="connect"
           id="polyline73" />
        <polyline
           points="6  81   9  81"
           class="connect"
           id="polyline75" />
        <polyline
           points="6 102   9 102"
           class="connect"
           id="polyline77" />
        <polyline
           points="6 123   9 123"
           class="connect"
           id="polyline79" />
        <polyline
           points="6 142.5 9 142.5"
           class="connect"
           id="polyline81" />
        <rect
           x="-5"
           y="-2"
           width="10"
           height="146"
           rx="2"
           fill="#121212"
           id="rect83" />
      </g>
    </symbol>
    <symbol
       id="fader">
      <g
         transform="translate(6 8)"
         id="g90">
        <g
           transform="translate(0 144)"
           id="g88" />
      </g>
    </symbol>
  </defs>
  <!-- ======== body ======== -->
  <path
     id="rect95"
     style="fill:#e0e0e0"
     d="M 0,0 H 60 V 380 H 0 Z"
     class="background" />
  <g
     aria-label="MIX-1"
     id="text97"
     style="font-size:16px;font-family:'DIN Alternate';text-anchor:middle;fill:#a91913"
     class="title">
    <path
       d="m 11.6875,30 h 1.726563 v -7.101563 h 0.03125 l 2.382812,5.46875 h 1.4375 l 2.382812,-5.46875 H 19.6875 V 30 h 1.726562 V 18.609375 H 19.78125 l -3.203125,7.421875 v 0 L 13.3125,18.609375 h -1.625 z"
       style="font-size:16px;font-family:'DIN Alternate';text-anchor:middle;fill:#a91913"
       id="path290" />
    <path
       d="m 23.8125,30 h 1.726562 V 18.609375 H 23.8125 Z"
       style="font-size:16px;font-family:'DIN Alternate';text-anchor:middle;fill:#a91913"
       id="path292" />
    <path
       d="M 31.023437,25.757812 33.515625,30 h 1.953125 l -3.484375,-5.835938 3.257812,-5.554687 H 33.296875 L 31.023437,22.5625 v 0 L 28.75,18.609375 H 26.796875 L 30.0625,24.164062 26.578125,30 h 1.945312 l 2.5,-4.242188 z"
       style="font-size:16px;font-family:'DIN Alternate';text-anchor:middle;fill:#a91913"
       id="path294" />
    <path
       d="m 36.179687,26.382812 h 4.8125 V 24.75 h -4.8125 z"
       style="font-size:16px;font-family:'DIN Alternate';text-anchor:middle;fill:#a91913"
       id="path296" />
    <path
       d="M 44.929687,20.335937 V 30 H 46.5625 V 18.609375 H 44.929687 L 43.3125,19.789062 v 1.734375 0 l 1.617187,-1.1875 z"
       style="font-size:16px;font-family:'DIN Alternate';text-anchor:middle;fill:#a91913"
       id="path298" />
  </g>
  <g
     aria-label="RM"
     id="text99"
     style="font-size:13.3333px;font-family:'DIN Alternate';text-anchor:middle;fill:#a91913"
     class="logo">
    <path
       d="m 23.326823,367.79036 h 2.252604 q 0.690104,0 1.054688,0.29297 0.462239,0.33203 0.47526,1.07422 0,0.61849 -0.397135,1.04167 -0.403646,0.45573 -1.210938,0.46875 H 23.326823 Z M 21.888021,376 h 1.438802 v -4.05599 h 1.835938 L 27.122396,376 h 1.712239 l -2.20052,-4.21224 q 1.809895,-0.69661 1.835937,-2.63021 -0.03906,-1.3151 -0.94401,-2.02474 -0.748698,-0.625 -1.933594,-0.625 h -3.704427 z"
       style="font-size:13.3333px;font-family:'DIN Alternate';text-anchor:middle;fill:#a91913"
       id="path285" />
    <path
       d="m 30.013021,376 h 1.438802 v -5.91797 h 0.02604 l 1.985677,4.55729 h 1.197916 l 1.985677,-4.55729 h 0.03255 V 376 h 1.438802 v -9.49219 h -1.360677 l -2.669271,6.1849 v 0 l -2.721354,-6.1849 h -1.354167 z"
       style="font-size:13.3333px;font-family:'DIN Alternate';text-anchor:middle;fill:#a91913"
       id="path287" />
  </g>
  <!-- labels -->
  <g
     transform="translate(11,203)"
     id="g103">
    <g
       aria-label="M"
       id="text101"
       style="font-size:8px;font-family:'DIN Alternate';text-anchor:middle;fill:#343434"
       class="label">
      <path
         d="m -2.4296875,2.5 h 0.8632813 v -3.5507812 h 0.015625 l 1.1914062,2.7343749 h 0.71875 l 1.1914062,-2.7343749 h 0.019531 V 2.5 H 2.4335938 V -3.1953125 H 1.6171875 L 0.015625,0.515625 v 0 l -1.6328125,-3.7109375 h -0.8125 z"
         style="font-size:8px;font-family:'DIN Alternate';text-anchor:middle;fill:#343434"
         id="path376" />
    </g>
  </g>
  <g
     transform="translate(11,232)"
     id="g107">
    <g
       aria-label="LVL"
       id="text105"
       style="font-size:8px;font-family:'DIN Alternate';text-anchor:middle;fill:#343434"
       class="label">
      <path
         d="m -5.6328125,2.5 h 3.6367188 V 1.6835937 h -2.7734375 v -4.8789062 h -0.8632813 z"
         style="font-size:8px;font-family:'DIN Alternate';text-anchor:middle;fill:#343434"
         id="path369" />
      <path
         d="m -0.78515625,2.5 h 0.671875 L 1.7695312,-3.1953125 H 0.85546875 l -1.296875,4.3359375 h -0.015625 L -1.75,-3.1953125 h -0.9140625 z"
         style="font-size:8px;font-family:'DIN Alternate';text-anchor:middle;fill:#343434"
         id="path371" />
      <path
         d="M 2.3828125,2.5 H 6.0195312 V 1.6835937 H 3.2460938 V -3.1953125 H 2.3828125 Z"
         style="font-size:8px;font-family:'DIN Alternate';text-anchor:middle;fill:#343434"
         id="path373" />
    </g>
  </g>
  <g
     transform="translate(11,261)"
     id="g111">
    <g
       aria-label="L"
       id="text109"
       style="font-size:8px;font-family:'DIN Alternate';text-anchor:middle;fill:#343434"
       class="label">
      <path
         d="M -1.625,2.5 H 2.0117188 V 1.6835937 H -0.76171875 V -3.1953125 H -1.625 Z"
         style="font-size:8px;font-family:'DIN Alternate';text-anchor:middle;fill:#343434"
         id="path366" />
    </g>
  </g>
  <g
     transform="translate(11,290)"
     id="g115">
    <g
       aria-label="R"
       id="text113"
       style="font-size:8px;font-family:'DIN Alternate';text-anchor:middle;fill:#343434"
       class="label">
      <path
         d="m -0.97265625,-2.4257813 h 1.3515625 q 0.4140625,0 0.63281245,0.1757813 0.2773438,0.1992187 0.2851563,0.6445313 0,0.3710937 -0.2382813,0.62499995 -0.24218745,0.2734375 -0.72656245,0.28125 h -1.3046875 z M -1.8359375,2.5 h 0.86328125 V 0.06640625 h 1.1015625 L 1.3046875,2.5 H 2.3320313 L 1.0117187,-0.02734375 Q 2.0976563,-0.4453125 2.1132813,-1.6054687 2.0898438,-2.3945313 1.546875,-2.8203125 q -0.4492188,-0.375 -1.16015625,-0.375 H -1.8359375 Z"
         style="font-size:8px;font-family:'DIN Alternate';text-anchor:middle;fill:#343434"
         id="path363" />
    </g>
  </g>
  <g
     transform="translate(30,319)"
     id="g119">
    <path
       id="rect117"
       style="fill:#bbbbbb"
       d="m -23,-15 h 37 c 1.662,0 3,1.338 3,3 v 54 c 0,1.662 -1.338,3 -3,3 h -37 c -1.662,0 -3,-1.338 -3,-3 v -54 c 0,-1.662 1.338,-3 3,-3 z"
       class="output" />
  </g>
  <g
     transform="translate(11,319)"
     id="g123">
    <g
       aria-label="L"
       id="text121"
       style="font-size:8px;font-family:'DIN Alternate';text-anchor:middle;fill:#343434"
       class="label">
      <path
         d="M -1.625,2.5 H 2.0117188 V 1.6835937 H -0.76171875 V -3.1953125 H -1.625 Z"
         style="font-size:8px;font-family:'DIN Alternate';text-anchor:middle;fill:#343434"
         id="path359" />
    </g>
  </g>
  <g
     transform="translate(11,348)"
     id="g127">
    <g
       aria-label="R"
       id="text125"
       style="font-size:8px;font-family:'DIN Alternate';text-anchor:middle;fill:#343434"
       class="label">
      <path
         d="m -0.97265625,-2.4257813 h 1.3515625 q 0.4140625,0 0.63281245,0.1757813 0.2773438,0.1992187 0.2851563,0.6445313 0,0.3710937 -0.2382813,0.62499995 -0.24218745,0.2734375 -0.72656245,0.28125 h -1.3046875 z M -1.8359375,2.5 h 0.86328125 V 0.06640625 h 1.1015625 L 1.3046875,2.5 H 2.3320313 L 1.0117187,-0.02734375 Q 2.0976563,-0.4453125 2.1132813,-1.6054687 2.0898438,-2.3945313 1.546875,-2.8203125 q -0.4492188,-0.375 -1.16015625,-0.375 H -1.8359375 Z"
         style="font-size:8px;font-family:'DIN Alternate';text-anchor:middle;fill:#343434"
         id="path356" />
    </g>
  </g>
  <!-- ch1 -->
  <g
     transform="translate(27.5,39)"
     id="g133">
    <g
       id="use131"
       transform="translate(-20,-5)">
      <g
         transform="translate(20,6)"
         id="g281">
        <g
           aria-label="6"
           id="text225"
           style="font-size:8px;font-family:'DIN Alternate';fill:#343434"
           class="label">
          <path
             d="m -11.53125,-2.7539063 q 0.0039,0 -0.03906,0.085937 -0.03906,0.082031 -0.109375,0.2265625 -0.07031,0.1445313 -0.164062,0.3320313 -0.09375,0.1875 -0.199219,0.3945313 -0.101562,0.2070312 -0.210937,0.4179687 -0.105469,0.2109375 -0.207032,0.40234375 -0.09766,0.19140625 -0.179687,0.34765625 -0.08203,0.15625 -0.136719,0.25 0.113281,-0.0664063 0.253906,-0.078125 0.144532,-0.015625 0.332032,-0.007813 0.269531,0.007813 0.46875,0.09375 0.203125,0.0859375 0.347656,0.21484375 0.144531,0.12890625 0.238281,0.2890625 0.09766,0.15625 0.152344,0.30859375 0.05469,0.1484375 0.07422,0.28125 0.02344,0.12890625 0.02344,0.203125 0,0.023437 0,0.085937 0,0.0625 0,0.140625 0,0.074219 -0.0039,0.1523437 0,0.078125 -0.0039,0.1328125 -0.0039,0.027344 -0.02734,0.1445313 Q -10.941406,1.7773437 -11,1.9375 q -0.05469,0.15625 -0.160156,0.3398438 -0.105469,0.1796875 -0.277344,0.34375 -0.171875,0.1601562 -0.417969,0.2773437 -0.246094,0.1171875 -0.585937,0.1445313 -0.355469,0.03125 -0.628907,-0.046875 Q -13.34375,2.9179688 -13.542969,2.7734375 -13.742188,2.6289063 -13.875,2.4414063 -14.007813,2.25 -14.085938,2.0507813 -14.160156,1.8515625 -14.1875,1.6679687 q -0.02344,-0.1835937 -0.0078,-0.3125 0.02344,-0.1914062 0.05078,-0.3398437 0.02734,-0.15234375 0.0625,-0.2890625 0.03906,-0.13671875 0.08594,-0.26953125 0.04687,-0.1328125 0.109375,-0.2890625 0.01563,-0.0390625 0.08594,-0.18359375 0.07031,-0.1484375 0.171875,-0.36328125 0.105468,-0.21484375 0.234375,-0.47265625 0.128906,-0.2578125 0.257812,-0.5234375 0.304688,-0.6171875 0.683594,-1.3789063 z m -0.164063,4.1679688 q 0,-0.1484375 -0.01172,-0.328125 -0.01172,-0.1796875 -0.08984,-0.33984375 -0.07422,-0.1640625 -0.246094,-0.28125 -0.171875,-0.1171875 -0.488281,-0.140625 -0.148438,-0.0117188 -0.269531,0.03125 -0.121094,0.0429687 -0.214844,0.1171875 -0.09375,0.0742188 -0.164063,0.171875 -0.06641,0.09375 -0.113281,0.1875 -0.04297,0.09375 -0.0625,0.17578125 -0.01953,0.078125 -0.01953,0.1210937 0,0.097656 0.0039,0.21875 0.0039,0.1171875 0.02344,0.2382813 0.02344,0.1171875 0.07422,0.2304687 0.05078,0.109375 0.144532,0.1953126 0.09375,0.085937 0.238281,0.140625 0.148437,0.054687 0.367187,0.054687 0.175782,0.00391 0.304688,-0.042969 0.132812,-0.050781 0.222656,-0.125 0.09375,-0.078125 0.152344,-0.171875 0.05859,-0.09375 0.08984,-0.1835938 0.03516,-0.089844 0.04687,-0.1601562 0.01172,-0.074219 0.01172,-0.109375 z"
             style="font-size:8px;font-family:'DIN Alternate';fill:#343434"
             id="path302" />
        </g>
        <g
           aria-label="3"
           id="text227"
           style="font-size:8px;font-family:'DIN Alternate';fill:#343434"
           class="label">
          <path
             d="M -13.09375,15.425781 H -12.75 q 0.378906,0 0.625,0.230469 0.25,0.238281 0.257812,0.671875 -0.0078,0.425781 -0.257812,0.65625 -0.246094,0.246094 -0.605469,0.246094 -0.335937,0 -0.539062,-0.183594 -0.199219,-0.175781 -0.308594,-0.460938 h -0.816406 q 0.132812,0.710938 0.582031,1.085938 0.449219,0.375 1.03125,0.375 0.753906,-0.0078 1.234375,-0.480469 0.488281,-0.460937 0.496094,-1.261719 0,-0.359374 -0.152344,-0.687499 -0.160156,-0.328125 -0.519531,-0.5625 0.351562,-0.238282 0.488281,-0.542969 0.117187,-0.304688 0.117187,-0.632813 -0.0078,-0.648437 -0.445312,-1.125 -0.457031,-0.488281 -1.234375,-0.496093 -0.613281,0.0078 -1.054688,0.4375 -0.449218,0.433593 -0.511718,1.066406 h 0.816406 q 0.07813,-0.351563 0.304687,-0.519531 0.214844,-0.167969 0.476563,-0.167969 0.363281,0.0078 0.59375,0.230469 0.230469,0.230468 0.238281,0.589843 0,0.355469 -0.230469,0.578125 -0.230468,0.230469 -0.648437,0.230469 h -0.28125 z"
             style="font-size:8px;font-family:'DIN Alternate';fill:#343434"
             id="path305" />
        </g>
        <g
           aria-label="0"
           id="text229"
           style="font-size:8px;font-family:'DIN Alternate';fill:#343434"
           class="label">
          <path
             d="m -11.78125,31.359375 q -0.02344,0.863281 -0.800781,0.871094 -0.78125,-0.0078 -0.796875,-0.871094 v -2.414063 q 0.01563,-0.855468 0.796875,-0.871093 0.777343,0.01563 0.800781,0.871093 z m -2.414063,0.04687 q 0.0078,0.785156 0.503907,1.210937 0.464843,0.421875 1.109375,0.429688 0.664062,-0.0078 1.128906,-0.429688 0.472656,-0.425781 0.488281,-1.210937 v -2.511719 q -0.01563,-0.789062 -0.488281,-1.214844 -0.464844,-0.421875 -1.128906,-0.421875 -0.644532,0 -1.109375,0.421875 -0.496094,0.425782 -0.503907,1.214844 z"
             style="font-size:8px;font-family:'DIN Alternate';fill:#343434"
             id="path308" />
        </g>
        <g
           aria-label="3"
           id="text231"
           style="font-size:8px;font-family:'DIN Alternate';fill:#343434"
           class="label">
          <path
             d="M -13.09375,45.425781 H -12.75 q 0.378906,0 0.625,0.230469 0.25,0.238281 0.257812,0.671875 -0.0078,0.425781 -0.257812,0.65625 -0.246094,0.246094 -0.605469,0.246094 -0.335937,0 -0.539062,-0.183594 -0.199219,-0.175781 -0.308594,-0.460938 h -0.816406 q 0.132812,0.710938 0.582031,1.085938 0.449219,0.375 1.03125,0.375 0.753906,-0.0078 1.234375,-0.480469 0.488281,-0.460937 0.496094,-1.261719 0,-0.359375 -0.152344,-0.6875 -0.160156,-0.328125 -0.519531,-0.5625 0.351562,-0.238281 0.488281,-0.542968 0.117187,-0.304688 0.117187,-0.632813 -0.0078,-0.648437 -0.445312,-1.125 -0.457031,-0.488281 -1.234375,-0.496094 -0.613281,0.0078 -1.054688,0.4375 -0.449218,0.433594 -0.511718,1.066407 h 0.816406 q 0.07813,-0.351563 0.304687,-0.519532 0.214844,-0.167968 0.476563,-0.167968 0.363281,0.0078 0.59375,0.230468 0.230469,0.230469 0.238281,0.589844 0,0.355469 -0.230469,0.578125 -0.230468,0.230469 -0.648437,0.230469 h -0.28125 z"
             style="font-size:8px;font-family:'DIN Alternate';fill:#343434"
             id="path311" />
        </g>
        <g
           aria-label="6"
           id="text233"
           style="font-size:8px;font-family:'DIN Alternate';fill:#343434"
           class="label">
          <path
             d="m -11.53125,57.246094 q 0.0039,0 -0.03906,0.08594 -0.03906,0.08203 -0.109375,0.226563 -0.07031,0.144531 -0.164062,0.332031 -0.09375,0.1875 -0.199219,0.394531 -0.101562,0.207031 -0.210937,0.417969 -0.105469,0.210937 -0.207032,0.402344 -0.09766,0.191406 -0.179687,0.347656 -0.08203,0.15625 -0.136719,0.25 0.113281,-0.06641 0.253906,-0.07813 0.144532,-0.01563 0.332032,-0.0078 0.269531,0.0078 0.46875,0.09375 0.203125,0.08594 0.347656,0.214844 0.144531,0.128906 0.238281,0.289063 0.09766,0.15625 0.152344,0.308593 0.05469,0.148438 0.07422,0.28125 0.02344,0.128907 0.02344,0.203125 0,0.02344 0,0.08594 0,0.0625 0,0.140625 0,0.07422 -0.0039,0.152344 0,0.07813 -0.0039,0.132812 -0.0039,0.02734 -0.02734,0.144531 -0.01953,0.113282 -0.07813,0.273438 -0.05469,0.15625 -0.160156,0.339844 -0.105469,0.179687 -0.277344,0.34375 -0.171875,0.160156 -0.417969,0.277343 -0.246094,0.117188 -0.585937,0.144532 -0.355469,0.03125 -0.628907,-0.04687 -0.273437,-0.07813 -0.472656,-0.222657 -0.199219,-0.144531 -0.332031,-0.332031 -0.132813,-0.191406 -0.210938,-0.390625 -0.07422,-0.199219 -0.101562,-0.382812 -0.02344,-0.183594 -0.0078,-0.3125 0.02344,-0.191407 0.05078,-0.339844 0.02734,-0.152344 0.0625,-0.289063 0.03906,-0.136718 0.08594,-0.269531 0.04687,-0.132812 0.109375,-0.289062 0.01563,-0.03906 0.08594,-0.183594 0.07031,-0.148438 0.171875,-0.363281 0.105468,-0.214844 0.234375,-0.472657 0.128906,-0.257812 0.257812,-0.523437 0.304688,-0.617188 0.683594,-1.378906 z m -0.164063,4.167968 q 0,-0.148437 -0.01172,-0.328125 -0.01172,-0.179687 -0.08984,-0.339843 -0.07422,-0.164063 -0.246094,-0.28125 -0.171875,-0.117188 -0.488281,-0.140625 -0.148438,-0.01172 -0.269531,0.03125 -0.121094,0.04297 -0.214844,0.117187 -0.09375,0.07422 -0.164063,0.171875 -0.06641,0.09375 -0.113281,0.1875 -0.04297,0.09375 -0.0625,0.175781 -0.01953,0.07813 -0.01953,0.121094 0,0.09766 0.0039,0.21875 0.0039,0.117188 0.02344,0.238281 0.02344,0.117188 0.07422,0.230469 0.05078,0.109375 0.144532,0.195313 0.09375,0.08594 0.238281,0.140625 0.148437,0.05469 0.367187,0.05469 0.175782,0.0039 0.304688,-0.04297 0.132812,-0.05078 0.222656,-0.125 0.09375,-0.07813 0.152344,-0.171875 0.05859,-0.09375 0.08984,-0.183593 0.03516,-0.08984 0.04687,-0.160157 0.01172,-0.07422 0.01172,-0.109375 z"
             style="font-size:8px;font-family:'DIN Alternate';fill:#343434"
             id="path314" />
        </g>
        <g
           aria-label="12"
           id="text235"
           style="font-size:8px;font-family:'DIN Alternate';fill:#343434"
           class="label">
          <path
             d="M -16.449219,79.167969 V 84 h 0.816406 v -5.695313 h -0.816406 l -0.808593,0.589844 v 0.867188 0 l 0.808593,-0.59375 z"
             style="font-size:8px;font-family:'DIN Alternate';fill:#343434"
             id="path317" />
          <path
             d="m -13.898438,84 h 3.246094 v -0.816406 h -2.175781 l 1.832031,-2.296875 q 0.34375,-0.4375 0.34375,-1 -0.0078,-0.703125 -0.472656,-1.160157 -0.457031,-0.460937 -1.191406,-0.46875 -0.65625,0.0078 -1.105469,0.460938 -0.445313,0.464844 -0.476563,1.175781 h 0.8125 q 0.04297,-0.390625 0.273438,-0.605469 0.222656,-0.214843 0.558594,-0.214843 0.378906,0.0078 0.585937,0.246093 0.199219,0.238282 0.199219,0.558594 0,0.121094 -0.03125,0.257813 -0.04687,0.144531 -0.175781,0.3125 l -2.222657,2.78125 z"
             style="font-size:8px;font-family:'DIN Alternate';fill:#343434"
             id="path319" />
        </g>
        <g
           aria-label="24"
           id="text237"
           style="font-size:8px;font-family:'DIN Alternate';fill:#343434"
           class="label">
          <path
             d="m -17.742187,105 h 3.246093 v -0.81641 h -2.175781 l 1.832031,-2.29687 q 0.34375,-0.4375 0.34375,-1 -0.0078,-0.70313 -0.472656,-1.160158 -0.457031,-0.460937 -1.191406,-0.46875 -0.65625,0.0078 -1.105469,0.460938 -0.445312,0.46484 -0.476562,1.17578 h 0.8125 q 0.04297,-0.39062 0.273437,-0.60547 0.222656,-0.21484 0.558594,-0.21484 0.378906,0.008 0.585937,0.24609 0.199219,0.23828 0.199219,0.5586 0,0.12109 -0.03125,0.25781 -0.04687,0.14453 -0.175781,0.3125 l -2.222656,2.78125 z"
             style="font-size:8px;font-family:'DIN Alternate';fill:#343434"
             id="path322" />
          <path
             d="m -14.058594,104.15234 h 2.375 V 105 h 0.816406 v -0.84766 h 0.453125 v -0.76953 h -0.453125 v -1.63672 h -0.816406 v 1.63672 h -1.488281 l 1.925781,-4.078123 h -0.910156 l -1.902344,4.078123 z"
             style="font-size:8px;font-family:'DIN Alternate';fill:#343434"
             id="path324" />
        </g>
        <g
           aria-label="48"
           id="text239"
           style="font-size:8px;font-family:'DIN Alternate';fill:#343434"
           class="label">
          <path
             d="m -17.902344,125.15234 h 2.375 V 126 h 0.816406 v -0.84766 h 0.453125 v -0.76953 h -0.453125 v -1.63672 h -0.816406 v 1.63672 h -1.488281 l 1.925781,-4.07812 H -16 l -1.902344,4.07812 z"
             style="font-size:8px;font-family:'DIN Alternate';fill:#343434"
             id="path327" />
          <path
             d="m -13.050781,121.88672 q 0.0078,-0.40625 0.253906,-0.61328 0.242187,-0.19922 0.558594,-0.19922 0.328125,0 0.570312,0.19922 0.238281,0.20703 0.246094,0.61328 -0.0078,0.39453 -0.246094,0.60156 -0.242187,0.21485 -0.570312,0.21485 -0.316407,0 -0.558594,-0.21485 -0.246094,-0.20703 -0.253906,-0.60156 z m -0.921875,2.44922 q 0.0078,0.76953 0.519531,1.23047 0.488281,0.47265 1.214844,0.48047 0.730468,-0.008 1.234375,-0.48047 0.496093,-0.46094 0.503906,-1.23047 -0.0078,-0.82422 -0.671875,-1.28125 0.253906,-0.22266 0.414062,-0.51172 0.152344,-0.26953 0.152344,-0.64063 -0.0078,-0.71093 -0.464844,-1.17578 -0.453125,-0.46093 -1.167968,-0.46875 -0.703125,0.008 -1.148438,0.46875 -0.472656,0.46485 -0.480469,1.17578 0,0.3711 0.167969,0.64063 0.144531,0.28906 0.398438,0.51172 -0.664063,0.45703 -0.671875,1.28125 z m 0.816406,-0.008 q 0.0078,-0.39844 0.28125,-0.64844 0.261719,-0.2461 0.636719,-0.25391 0.386718,0.008 0.648437,0.25391 0.265625,0.25 0.273438,0.64844 -0.0078,0.39062 -0.273438,0.64062 -0.261719,0.26172 -0.648437,0.26172 -0.375,0 -0.636719,-0.26172 -0.273438,-0.25 -0.28125,-0.64062 z"
             style="font-size:8px;font-family:'DIN Alternate';fill:#343434"
             id="path329" />
        </g>
        <g
           aria-label="72"
           id="text241"
           style="font-size:8px;font-family:'DIN Alternate';fill:#343434"
           class="label">
          <path
             d="m -17.59375,140.94531 h 0.816406 v -0.82422 h 1.511719 L -17.191406,145 h 0.910156 l 1.929687,-4.87891 v -0.8164 h -3.242187 z"
             style="font-size:8px;font-family:'DIN Alternate';fill:#343434"
             id="path332" />
          <path
             d="m -13.898438,145 h 3.246094 v -0.81641 h -2.175781 l 1.832031,-2.29687 q 0.34375,-0.4375 0.34375,-1 -0.0078,-0.70313 -0.472656,-1.16016 -0.457031,-0.46094 -1.191406,-0.46875 -0.65625,0.008 -1.105469,0.46094 -0.445313,0.46484 -0.476563,1.17578 h 0.8125 q 0.04297,-0.39062 0.273438,-0.60547 0.222656,-0.21484 0.558594,-0.21484 0.378906,0.008 0.585937,0.24609 0.199219,0.23828 0.199219,0.5586 0,0.12109 -0.03125,0.25781 -0.04687,0.14453 -0.175781,0.3125 l -2.222657,2.78125 z"
             style="font-size:8px;font-family:'DIN Alternate';fill:#343434"
             id="path334" />
        </g>
        <path
           id="polyline243"
           style="fill:none;stroke:#343434;stroke-width:1"
           d="m -9,0 h 3"
           class="connect" />
        <path
           id="polyline245"
           style="fill:none;stroke:#343434;stroke-width:1"
           d="m -9,15 h 3"
           class="connect" />
        <path
           id="polyline247"
           style="fill:none;stroke:#343434;stroke-width:1"
           d="m -9,30 h 3"
           class="connect" />
        <path
           id="polyline249"
           style="fill:none;stroke:#343434;stroke-width:1"
           d="m -9,45 h 3"
           class="connect" />
        <path
           id="polyline251"
           style="fill:none;stroke:#343434;stroke-width:1"
           d="m -9,60 h 3"
           class="connect" />
        <path
           id="polyline253"
           style="fill:none;stroke:#343434;stroke-width:1"
           d="m -9,81 h 3"
           class="connect" />
        <path
           id="polyline255"
           style="fill:none;stroke:#343434;stroke-width:1"
           d="m -9,102 h 3"
           class="connect" />
        <path
           id="polyline257"
           style="fill:none;stroke:#343434;stroke-width:1"
           d="m -9,123 h 3"
           class="connect" />
        <path
           id="polyline259"
           style="fill:none;stroke:#343434;stroke-width:1"
           d="m -9,142.5 h 3"
           class="connect" />
        <path
           id="polyline261"
           style="fill:none;stroke:#343434;stroke-width:1"
           d="M 6,0 H 9"
           class="connect" />
        <path
           id="polyline263"
           style="fill:none;stroke:#343434;stroke-width:1"
           d="M 6,15 H 9"
           class="connect" />
        <path
           id="polyline265"
           style="fill:none;stroke:#343434;stroke-width:1"
           d="M 6,30 H 9"
           class="connect" />
        <path
           id="polyline267"
           style="fill:none;stroke:#343434;stroke-width:1"
           d="M 6,45 H 9"
           class="connect" />
        <path
           id="polyline269"
           style="fill:none;stroke:#343434;stroke-width:1"
           d="M 6,60 H 9"
           class="connect" />
        <path
           id="polyline271"
           style="fill:none;stroke:#343434;stroke-width:1"
           d="M 6,81 H 9"
           class="connect" />
        <path
           id="polyline273"
           style="fill:none;stroke:#343434;stroke-width:1"
           d="M 6,102 H 9"
           class="connect" />
        <path
           id="polyline275"
           style="fill:none;stroke:#343434;stroke-width:1"
           d="M 6,123 H 9"
           class="connect" />
        <path
           id="polyline277"
           style="fill:none;stroke:#343434;stroke-width:1"
           d="M 6,142.5 H 9"
           class="connect" />
        <path
           id="rect279"
           style="fill:#121212"
           d="m -3,-2 h 6 c 1.108,0 2,0.892 2,2 v 142 c 0,1.108 -0.892,2 -2,2 h -6 c -1.108,0 -2,-0.892 -2,-2 V 0 c 0,-1.108 0.892,-2 2,-2 z" />
      </g>
    </g>
  </g>
  <g
     transform="translate(41,39)"
     id="g137">
    <g
       id="use135"
       transform="translate(-6,-8)">
      <g
         transform="translate(6,8)"
         id="g221">
        <g
           transform="translate(0,144)"
           id="g219" />
      </g>
    </g>
  </g>
  <g
     id="use141"
     transform="translate(21,194)">
    <g
       transform="translate(9,9)"
       id="g195" />
  </g>
  <g
     id="use145"
     transform="translate(18,220)">
    <g
       transform="translate(12,12)"
       id="g199" />
  </g>
  <g
     id="use149"
     transform="translate(18,249)">
    <g
       transform="translate(12,12)"
       id="g203" />
  </g>
  <g
     id="use153"
     transform="translate(18,278)">
    <g
       transform="translate(12,12)"
       id="g207" />
  </g>
  <g
     id="use157"
     transform="translate(18,307)">
    <g
       transform="translate(12,12)"
       id="g211" />
  </g>
  <g
     id="use161"
     transform="translate(18,336)">
    <g
       transform="translate(12,12)"
       id="g215" />
  </g>
</svg>
