<?xml version="1.0" encoding="UTF-8" standalone="no"?>
<svg
   xmlns:dc="http://purl.org/dc/elements/1.1/"
   xmlns:cc="http://creativecommons.org/ns#"
   xmlns:rdf="http://www.w3.org/1999/02/22-rdf-syntax-ns#"
   xmlns:svg="http://www.w3.org/2000/svg"
   xmlns="http://www.w3.org/2000/svg"
   xmlns:xlink="http://www.w3.org/1999/xlink"
   xmlns:sodipodi="http://sodipodi.sourceforge.net/DTD/sodipodi-0.dtd"
   xmlns:inkscape="http://www.inkscape.org/namespaces/inkscape"
   version="1.1"
   width="135"
   height="380"
   viewBox="0 0 135 380"
   id="svg192"
   sodipodi:docname="MIX2.svg"
   inkscape:version="1.0.2 (e86c8708, 2021-01-15)">
  <metadata
     id="metadata196">
    <rdf:RDF>
      <cc:Work
         rdf:about="">
        <dc:format>image/svg+xml</dc:format>
        <dc:type
           rdf:resource="http://purl.org/dc/dcmitype/StillImage" />
      </cc:Work>
    </rdf:RDF>
  </metadata>
  <sodipodi:namedview
     pagecolor="#ffffff"
     bordercolor="#666666"
     borderopacity="1"
     objecttolerance="10"
     gridtolerance="10"
     guidetolerance="10"
     inkscape:pageopacity="0"
     inkscape:pageshadow="2"
     inkscape:window-width="689"
     inkscape:window-height="480"
     id="namedview194"
     showgrid="false"
     inkscape:zoom="2.1763158"
     inkscape:cx="67.5"
     inkscape:cy="190"
     inkscape:window-x="0"
     inkscape:window-y="25"
     inkscape:window-maximized="0"
     inkscape:current-layer="svg192" />
  <style
     id="style2">
    text.title {
      fill: #a91913;
      font-family: 'DIN Alternate';
      font-size: 12pt;
    }
    text.logo {
      fill: #a91913;
      font-family: 'DIN Alternate';
      font-size: 10pt;
    }
    text.big-label {
      fill: #343434;
      font-family: 'DIN Alternate';
      font-size: 7.5pt;
    }
    text.label {
      fill: #343434;
      font-family: 'DIN Alternate';
      font-size: 6pt;
    }
    .background {
      fill: #e0e0e0;
    }
    .output {
      fill: #bbbbbb;
    }
    polyline.icon {
      stroke: #343434;
      stroke-width: 1.2;
      fill: none;
    }
    polyline.connect {
      stroke: #343434;
      stroke-width: 1;
      fill: none;
    }

    .blueprint {
      stroke: #08f;
      fill: none;
    }
  </style>
  <!-- ======== defs ======== -->
  <defs
     id="defs70">
    <linearGradient
       id="smallKnobMediumGradient">
      <stop
         offset="5%"
         stop-color="#888"
         id="stop4" />
      <stop
         offset="95%"
         stop-color="#333"
         id="stop6" />
    </linearGradient>
    <linearGradient
       id="smallKnobDarkGradient">
      <stop
         offset="5%"
         stop-color="#444"
         id="stop9" />
      <stop
         offset="95%"
         stop-color="#222"
         id="stop11" />
    </linearGradient>
    <symbol
       id="knob24">
      <g
         transform="translate(12 12)"
         id="g20">
        <circle
           r="11.5"
           stroke="#222"
           fill="none"
           id="circle14" />
        <circle
           r="11"
           fill="url('#smallKnobMediumGradient')"
           transform="rotate(90)"
           id="circle16" />
        <circle
           r="10"
           fill="url('#smallKnobDarkGradient')"
           transform="rotate(90)"
           id="circle18" />
      </g>
    </symbol>
    <symbol
       id="port">
      <g
         transform="translate(12 12)"
         id="g23" />
    </symbol>
    <symbol
       id="meter">
      <g
         transform="translate(20 5)"
         id="g62">
        <text
           x="-12.5"
           y="2.5"
           class="label"
           id="text26">6</text>
        <text
           x="-12.5"
           y="17.5"
           class="label"
           id="text28">3</text>
        <text
           x="-12.5"
           y="32.5"
           class="label"
           id="text30">0</text>
        <text
           x="-12.5"
           y="47.5"
           class="label"
           id="text32">3</text>
        <text
           x="-12.5"
           y="62.5"
           class="label"
           id="text34">6</text>
        <text
           x="-16"
           y="83.5"
           class="label"
           id="text36">12</text>
        <text
           x="-16"
           y="104.5"
           class="label"
           id="text38">24</text>
        <text
           x="-16"
           y="125.5"
           class="label"
           id="text40">48</text>
        <polyline
           points="-7.5   0 8   0"
           class="connect"
           id="polyline42" />
        <polyline
           points="-7.5  15 8  15"
           class="connect"
           id="polyline44" />
        <polyline
           points="-7.5  30 8  30"
           class="connect"
           id="polyline46" />
        <polyline
           points="-7.5  45 8  45"
           class="connect"
           id="polyline48" />
        <polyline
           points="-7.5  60 8  60"
           class="connect"
           id="polyline50" />
        <polyline
           points="-7.5  81 8  81"
           class="connect"
           id="polyline52" />
        <polyline
           points="-7.5 102 8 102"
           class="connect"
           id="polyline54" />
        <polyline
           points="-7.5 123 8 123"
           class="connect"
           id="polyline56" />
        <polyline
           points="-7.5 144 8 144"
           class="connect"
           id="polyline58" />
        <rect
           x="-5"
           y="-1"
           width="10"
           height="146"
           rx="2"
           fill="#121212"
           id="rect60" />
      </g>
    </symbol>
    <symbol
       id="fader">
      <g
         transform="translate(6 8)"
         id="g67">
        <g
           transform="translate(0 144)"
           id="g65" />
      </g>
    </symbol>
    <linearGradient
       inkscape:collect="always"
       xlink:href="#smallKnobMediumGradient"
       id="linearGradient368"
       x1="-11"
       y1="-11"
       x2="11"
       y2="-11"
       gradientUnits="userSpaceOnUse" />
    <linearGradient
       inkscape:collect="always"
       xlink:href="#smallKnobDarkGradient"
       id="linearGradient370"
       x1="-10"
       y1="-10"
       x2="10"
       y2="-10"
       gradientUnits="userSpaceOnUse" />
    <linearGradient
       inkscape:collect="always"
       xlink:href="#smallKnobMediumGradient"
       id="linearGradient402"
       x1="-11"
       y1="-11"
       x2="11"
       y2="-11"
       gradientUnits="userSpaceOnUse" />
    <linearGradient
       inkscape:collect="always"
       xlink:href="#smallKnobDarkGradient"
       id="linearGradient404"
       x1="-10"
       y1="-10"
       x2="10"
       y2="-10"
       gradientUnits="userSpaceOnUse" />
  </defs>
  <!-- ======== body ======== -->
  <path
     id="rect72"
     style="fill:#e0e0e0"
     d="M 0,0 H 135 V 380 H 0 Z"
     class="background" />
  <g
     aria-label="MIX2"
     id="text74"
     style="font-size:16px;font-family:'DIN Alternate';text-anchor:middle;fill:#a91913"
     class="title">
    <path
       d="m 52.4375,16 h 1.726562 V 8.8984375 h 0.03125 l 2.382813,5.4687505 h 1.4375 L 60.398437,8.8984375 H 60.4375 V 16 h 1.726562 V 4.609375 H 60.53125 l -3.203125,7.421875 v 0 L 54.0625,4.609375 h -1.625 z"
       style="font-size:16px;font-family:'DIN Alternate';text-anchor:middle;fill:#a91913"
       id="path479" />
    <path
       d="m 64.5625,16 h 1.726562 V 4.609375 H 64.5625 Z"
       style="font-size:16px;font-family:'DIN Alternate';text-anchor:middle;fill:#a91913"
       id="path481" />
    <path
       d="M 71.773437,11.757813 74.265625,16 H 76.21875 L 72.734375,10.164063 75.992187,4.609375 H 74.046875 L 71.773437,8.5625 v 0 L 69.5,4.609375 H 67.546875 L 70.8125,10.164063 67.328125,16 h 1.945312 l 2.5,-4.242187 z"
       style="font-size:16px;font-family:'DIN Alternate';text-anchor:middle;fill:#a91913"
       id="path483" />
    <path
       d="m 76.59375,16 h 6.492187 v -1.632812 h -4.351562 l 3.664062,-4.5937505 q 0.6875,-0.875 0.6875,-2 Q 83.070312,6.3671875 82.140625,5.453125 81.226562,4.53125 79.757812,4.515625 78.445312,4.53125 77.546875,5.4375 76.65625,6.3671875 76.59375,7.7890625 h 1.625 q 0.08594,-0.78125 0.546875,-1.2109375 0.445312,-0.4296875 1.117187,-0.4296875 0.757813,0.015625 1.171875,0.4921875 0.398438,0.4765625 0.398438,1.1171875 0,0.2421875 -0.0625,0.515625 -0.09375,0.2890625 -0.351563,0.625 L 76.59375,14.460938 Z"
       style="font-size:16px;font-family:'DIN Alternate';text-anchor:middle;fill:#a91913"
       id="path485" />
  </g>
  <g
     aria-label="RM"
     id="text76"
     style="font-size:13.3333px;font-family:'DIN Alternate';text-anchor:middle;fill:#a91913"
     class="logo">
    <path
       d="m 60.826823,367.79036 h 2.252604 q 0.690104,0 1.054688,0.29297 0.462239,0.33203 0.47526,1.07422 0,0.61849 -0.397135,1.04167 -0.403646,0.45573 -1.210938,0.46875 H 60.826823 Z M 59.388021,376 h 1.438802 v -4.05599 h 1.835938 L 64.622396,376 h 1.712239 l -2.20052,-4.21224 q 1.809895,-0.69661 1.835937,-2.63021 -0.03906,-1.3151 -0.94401,-2.02474 -0.748698,-0.625 -1.933594,-0.625 h -3.704427 z"
       style="font-size:13.3333px;font-family:'DIN Alternate';text-anchor:middle;fill:#a91913"
       id="path474" />
    <path
       d="m 67.513021,376 h 1.438802 v -5.91797 h 0.02604 l 1.985677,4.55729 h 1.197916 l 1.985677,-4.55729 h 0.03255 V 376 h 1.438802 v -9.49219 h -1.360677 l -2.669271,6.1849 v 0 l -2.721354,-6.1849 h -1.354167 z"
       style="font-size:13.3333px;font-family:'DIN Alternate';text-anchor:middle;fill:#a91913"
       id="path476" />
  </g>
  <!-- labels -->
  <g
     aria-label="M"
     id="text78"
     style="font-size:8px;font-family:'DIN Alternate';text-anchor:middle;fill:#343434"
     class="label">
    <path
       d="m 5.5703125,200.5 h 0.8632812 v -3.55078 h 0.015625 l 1.1914063,2.73437 h 0.71875 l 1.1914063,-2.73437 h 0.019531 V 200.5 h 0.8632815 v -5.69531 H 9.6171875 l -1.6015625,3.71093 v 0 l -1.6328125,-3.71093 h -0.8125 z"
       style="font-size:8px;font-family:'DIN Alternate';text-anchor:middle;fill:#343434"
       id="path609" />
  </g>
  <g
     aria-label="P"
     id="text82"
     style="font-size:8px;font-family:'DIN Alternate';text-anchor:middle;fill:#343434"
     class="label">
    <path
       d="m 7.0898437,225.62109 h 1.2460938 q 0.3515625,-0.008 0.6171875,0.16016 0.1757813,0.10156 0.2734375,0.27734 0.09375,0.19532 0.09375,0.48047 0,0.34375 -0.2304687,0.625 -0.2421875,0.28906 -0.7226563,0.29688 H 7.0898437 Z M 6.2265625,230.5 h 0.8632812 v -2.22266 h 1.3125001 q 0.8789062,-0.0156 1.3359375,-0.5625 0.4453127,-0.51953 0.4453127,-1.15234 0,-0.46875 -0.175781,-0.8125 Q 9.8398438,225.39453 9.5703125,225.20312 9.25,224.94922 8.9375,224.86719 8.625,224.80469 8.2890625,224.80469 h -2.0625 z"
       style="font-size:8px;font-family:'DIN Alternate';text-anchor:middle;fill:#343434"
       id="path471" />
  </g>
  <g
     aria-label="P"
     id="text86"
     style="font-size:8px;font-family:'DIN Alternate';text-anchor:middle;fill:#343434"
     class="label">
    <path
       d="m 7.0898437,255.62109 h 1.2460938 q 0.3515625,-0.008 0.6171875,0.16016 0.1757813,0.10156 0.2734375,0.27734 0.09375,0.19532 0.09375,0.48047 0,0.34375 -0.2304687,0.625 -0.2421875,0.28906 -0.7226563,0.29688 H 7.0898437 Z M 6.2265625,260.5 h 0.8632812 v -2.22266 h 1.3125001 q 0.8789062,-0.0156 1.3359375,-0.5625 0.4453127,-0.51953 0.4453127,-1.15234 0,-0.46875 -0.175781,-0.8125 Q 9.8398438,255.39453 9.5703125,255.20312 9.25,254.94922 8.9375,254.86719 8.625,254.80469 8.2890625,254.80469 h -2.0625 z"
       style="font-size:8px;font-family:'DIN Alternate';text-anchor:middle;fill:#343434"
       id="path468" />
  </g>
  <g
     aria-label="V"
     id="text90"
     style="font-size:8px;font-family:'DIN Alternate';text-anchor:middle;fill:#343434"
     class="label">
    <path
       d="m 7.6601562,290.5 h 0.6718751 l 1.8828127,-5.69531 H 9.3007813 l -1.296875,4.33593 H 7.9882812 L 6.6953125,284.80469 H 5.78125 Z"
       style="font-size:8px;font-family:'DIN Alternate';text-anchor:middle;fill:#343434"
       id="path465" />
  </g>
  <g
     aria-label="L"
     id="text94"
     style="font-size:8px;font-family:'DIN Alternate';text-anchor:middle;fill:#343434"
     class="label">
    <path
       d="m 6.375,320.5 h 3.636719 v -0.81641 H 7.2382812 v -4.8789 H 6.375 Z"
       style="font-size:8px;font-family:'DIN Alternate';text-anchor:middle;fill:#343434"
       id="path462" />
  </g>
  <g
     aria-label="R"
     id="text98"
     style="font-size:8px;font-family:'DIN Alternate';text-anchor:middle;fill:#343434"
     class="label">
    <path
       d="m 7.0273437,345.57422 h 1.3515626 q 0.4140625,0 0.6328125,0.17578 0.2773437,0.19922 0.2851562,0.64453 0,0.37109 -0.2382812,0.625 -0.2421875,0.27344 -0.7265625,0.28125 H 7.0273437 Z M 6.1640625,350.5 h 0.8632812 v -2.43359 H 8.1289063 L 9.3046875,350.5 h 1.0273435 l -1.3203122,-2.52734 q 1.0859372,-0.41797 1.1015622,-1.57813 -0.02344,-0.78906 -0.566406,-1.21484 -0.4492187,-0.375 -1.1601562,-0.375 H 6.1640625 Z"
       style="font-size:8px;font-family:'DIN Alternate';text-anchor:middle;fill:#343434"
       id="path459" />
  </g>
  <!-- ch1 -->
  <g
     id="use102"
     transform="translate(8,24)">
    <g
       transform="translate(20,5)"
       id="g266">
      <g
         aria-label="6"
         id="text230"
         style="font-size:8px;font-family:'DIN Alternate';fill:#343434"
         class="label">
        <path
           d="m -9.53125,-3.2539063 q 0.00391,0 -0.039063,0.085937 -0.039063,0.082031 -0.109375,0.2265625 Q -9.75,-2.796875 -9.84375,-2.609375 q -0.09375,0.1875 -0.199219,0.3945312 -0.101562,0.2070313 -0.210937,0.4179688 -0.105469,0.2109375 -0.207032,0.4023438 -0.09766,0.1914062 -0.179687,0.3476562 -0.08203,0.15625 -0.136719,0.25 0.113281,-0.0664063 0.253906,-0.078125 0.144532,-0.015625 0.332032,-0.007813 0.269531,0.007813 0.4687497,0.09375 0.203125,0.0859375 0.3476563,0.21484375 0.1445312,0.12890625 0.2382812,0.2890625 0.097656,0.15625 0.1523438,0.30859375 0.054687,0.1484375 0.074219,0.28125 0.023437,0.12890625 0.023437,0.203125 0,0.0234375 0,0.0859375 0,0.0625 0,0.140625 0,0.0742188 -0.00391,0.15234375 0,0.078125 -0.00391,0.13281245 -0.00391,0.027344 -0.027344,0.1445313 Q -8.9414063,1.2773437 -9,1.4375 -9.0546875,1.59375 -9.1601563,1.7773437 -9.265625,1.9570312 -9.4375,2.1210938 -9.609375,2.28125 -9.8554688,2.3984375 -10.101563,2.515625 -10.441406,2.5429688 -10.796875,2.5742188 -11.070313,2.4960938 -11.34375,2.4179688 -11.542969,2.2734375 -11.742188,2.1289063 -11.875,1.9414062 -12.007813,1.75 -12.085938,1.5507812 -12.160156,1.3515625 -12.1875,1.1679687 q -0.02344,-0.1835937 -0.0078,-0.31249995 0.02344,-0.19140625 0.05078,-0.33984375 0.02734,-0.15234375 0.0625,-0.2890625 0.03906,-0.13671875 0.08594,-0.26953125 0.04687,-0.1328125 0.109375,-0.2890625 0.01563,-0.0390625 0.08594,-0.18359375 0.07031,-0.1484375 0.171875,-0.36328125 0.105468,-0.21484375 0.234375,-0.47265625 0.128906,-0.2578125 0.257812,-0.5234375 0.304688,-0.6171875 0.683594,-1.3789063 z m -0.1640625,4.1679688 q 0,-0.1484375 -0.011719,-0.328125 Q -9.71875,0.40625 -9.796875,0.24609375 q -0.074219,-0.1640625 -0.246094,-0.28125 -0.171875,-0.1171875 -0.488281,-0.140625 -0.148438,-0.0117188 -0.269531,0.03125 -0.121094,0.0429687 -0.214844,0.1171875 -0.09375,0.07421875 -0.164063,0.171875 -0.06641,0.09375 -0.113281,0.1875 -0.04297,0.09375 -0.0625,0.17578125 -0.01953,0.078125 -0.01953,0.12109375 0,0.0976563 0.0039,0.21875 0.0039,0.1171875 0.02344,0.23828125 0.02344,0.1171875 0.07422,0.2304687 0.05078,0.109375 0.144532,0.1953125 0.09375,0.085937 0.238281,0.140625 0.148437,0.054687 0.367187,0.054687 0.175782,0.00391 0.304688,-0.042969 0.132812,-0.050781 0.2226562,-0.125 0.09375,-0.078125 0.1523438,-0.171875 0.058594,-0.09375 0.089844,-0.1835938 0.035156,-0.089844 0.046875,-0.1601562 0.011719,-0.0742188 0.011719,-0.109375 z"
           style="font-size:8px;font-family:'DIN Alternate';fill:#343434"
           id="path569" />
      </g>
      <g
         aria-label="3"
         id="text232"
         style="font-size:8px;font-family:'DIN Alternate';fill:#343434"
         class="label">
        <path
           d="M -11.09375,14.925781 H -10.75 q 0.378906,0 0.625,0.230469 0.25,0.238281 0.2578125,0.671875 -0.00781,0.425781 -0.2578125,0.65625 -0.246094,0.246094 -0.605469,0.246094 -0.335937,0 -0.539062,-0.183594 -0.199219,-0.175781 -0.308594,-0.460938 h -0.816406 q 0.132812,0.710938 0.582031,1.085938 0.449219,0.375 1.03125,0.375 0.753906,-0.0078 1.234375,-0.480469 0.4882812,-0.460937 0.4960937,-1.261718 0,-0.359375 -0.1523437,-0.6875 -0.1601563,-0.328125 -0.5195313,-0.5625 0.3515625,-0.238282 0.4882813,-0.542969 0.1171875,-0.304688 0.1171875,-0.632813 -0.00781,-0.648437 -0.4453125,-1.125 -0.457031,-0.488281 -1.234375,-0.496093 -0.613281,0.0078 -1.054688,0.4375 -0.449218,0.433593 -0.511718,1.066406 h 0.816406 q 0.07813,-0.351563 0.304687,-0.519531 0.214844,-0.167969 0.476563,-0.167969 0.363281,0.0078 0.59375,0.230469 0.2304687,0.230468 0.2382812,0.589843 0,0.355469 -0.2304692,0.578125 -0.230468,0.230469 -0.648437,0.230469 h -0.28125 z"
           style="font-size:8px;font-family:'DIN Alternate';fill:#343434"
           id="path572" />
      </g>
      <g
         aria-label="0"
         id="text234"
         style="font-size:8px;font-family:'DIN Alternate';fill:#343434"
         class="label">
        <path
           d="m -9.78125,30.859375 q -0.023437,0.863281 -0.800781,0.871094 -0.78125,-0.0078 -0.796875,-0.871094 v -2.414063 q 0.01563,-0.855468 0.796875,-0.871093 0.7773435,0.01563 0.800781,0.871093 z m -2.414063,0.04687 q 0.0078,0.785156 0.503907,1.210937 0.464843,0.421875 1.109375,0.429688 0.6640622,-0.0078 1.128906,-0.429688 0.4726562,-0.425781 0.4882812,-1.210937 v -2.511719 q -0.015625,-0.789062 -0.4882812,-1.214844 -0.4648438,-0.421875 -1.128906,-0.421875 -0.644532,0 -1.109375,0.421875 -0.496094,0.425782 -0.503907,1.214844 z"
           style="font-size:8px;font-family:'DIN Alternate';fill:#343434"
           id="path575" />
      </g>
      <g
         aria-label="3"
         id="text236"
         style="font-size:8px;font-family:'DIN Alternate';fill:#343434"
         class="label">
        <path
           d="M -11.09375,44.925781 H -10.75 q 0.378906,0 0.625,0.230469 0.25,0.238281 0.2578125,0.671875 -0.00781,0.425781 -0.2578125,0.65625 -0.246094,0.246094 -0.605469,0.246094 -0.335937,0 -0.539062,-0.183594 -0.199219,-0.175781 -0.308594,-0.460938 h -0.816406 q 0.132812,0.710938 0.582031,1.085938 0.449219,0.375 1.03125,0.375 0.753906,-0.0078 1.234375,-0.480469 0.4882812,-0.460937 0.4960937,-1.261719 0,-0.359375 -0.1523437,-0.6875 -0.1601563,-0.328125 -0.5195313,-0.5625 0.3515625,-0.238281 0.4882813,-0.542968 0.1171875,-0.304688 0.1171875,-0.632813 -0.00781,-0.648437 -0.4453125,-1.125 -0.457031,-0.488281 -1.234375,-0.496094 -0.613281,0.0078 -1.054688,0.4375 -0.449218,0.433594 -0.511718,1.066407 h 0.816406 q 0.07813,-0.351563 0.304687,-0.519532 0.214844,-0.167968 0.476563,-0.167968 0.363281,0.0078 0.59375,0.230468 0.2304687,0.230469 0.2382812,0.589844 0,0.355469 -0.2304692,0.578125 -0.230468,0.230469 -0.648437,0.230469 h -0.28125 z"
           style="font-size:8px;font-family:'DIN Alternate';fill:#343434"
           id="path578" />
      </g>
      <g
         aria-label="6"
         id="text238"
         style="font-size:8px;font-family:'DIN Alternate';fill:#343434"
         class="label">
        <path
           d="m -9.53125,56.746094 q 0.00391,0 -0.039063,0.08594 -0.039063,0.08203 -0.109375,0.226563 -0.070312,0.144531 -0.1640625,0.332031 -0.09375,0.1875 -0.199219,0.394531 -0.101562,0.207031 -0.210937,0.417969 -0.105469,0.210937 -0.207032,0.402344 -0.09766,0.191406 -0.179687,0.347656 -0.08203,0.15625 -0.136719,0.25 0.113281,-0.06641 0.253906,-0.07813 0.144532,-0.01563 0.332032,-0.0078 0.269531,0.0078 0.4687497,0.09375 0.203125,0.08594 0.3476563,0.214844 0.1445312,0.128906 0.2382812,0.289063 0.097656,0.15625 0.1523438,0.308593 0.054687,0.148438 0.074219,0.28125 0.023437,0.128907 0.023437,0.203125 0,0.02344 0,0.08594 0,0.0625 0,0.140625 0,0.07422 -0.00391,0.152344 0,0.07813 -0.00391,0.132812 -0.00391,0.02734 -0.027344,0.144531 Q -8.9414063,61.277344 -9,61.4375 q -0.054687,0.15625 -0.1601563,0.339844 -0.1054687,0.179687 -0.2773437,0.34375 -0.171875,0.160156 -0.4179688,0.277343 -0.2460942,0.117188 -0.5859372,0.144532 -0.355469,0.03125 -0.628907,-0.04687 -0.273437,-0.07813 -0.472656,-0.222657 -0.199219,-0.144531 -0.332031,-0.332031 -0.132813,-0.191406 -0.210938,-0.390625 -0.07422,-0.199219 -0.101562,-0.382812 -0.02344,-0.183594 -0.0078,-0.3125 0.02344,-0.191407 0.05078,-0.339844 0.02734,-0.152344 0.0625,-0.289063 0.03906,-0.136718 0.08594,-0.269531 0.04687,-0.132812 0.109375,-0.289062 0.01563,-0.03906 0.08594,-0.183594 0.07031,-0.148438 0.171875,-0.363281 0.105468,-0.214844 0.234375,-0.472657 0.128906,-0.257812 0.257812,-0.523437 0.304688,-0.617188 0.683594,-1.378906 z m -0.1640625,4.167968 q 0,-0.148437 -0.011719,-0.328125 -0.011719,-0.179687 -0.089844,-0.339843 -0.074219,-0.164063 -0.246094,-0.28125 -0.171875,-0.117188 -0.488281,-0.140625 -0.148438,-0.01172 -0.269531,0.03125 -0.121094,0.04297 -0.214844,0.117187 -0.09375,0.07422 -0.164063,0.171875 -0.06641,0.09375 -0.113281,0.1875 -0.04297,0.09375 -0.0625,0.175781 -0.01953,0.07813 -0.01953,0.121094 0,0.09766 0.0039,0.21875 0.0039,0.117188 0.02344,0.238281 0.02344,0.117188 0.07422,0.230469 0.05078,0.109375 0.144532,0.195313 0.09375,0.08594 0.238281,0.140625 0.148437,0.05469 0.367187,0.05469 0.175782,0.0039 0.304688,-0.04297 0.132812,-0.05078 0.2226562,-0.125 0.09375,-0.07813 0.1523438,-0.171875 0.058594,-0.09375 0.089844,-0.183593 0.035156,-0.08984 0.046875,-0.160157 0.011719,-0.07422 0.011719,-0.109375 z"
           style="font-size:8px;font-family:'DIN Alternate';fill:#343434"
           id="path581" />
      </g>
      <g
         aria-label="12"
         id="text240"
         style="font-size:8px;font-family:'DIN Alternate';fill:#343434"
         class="label">
        <path
           d="M -14.449219,78.667969 V 83.5 h 0.816406 v -5.695313 h -0.816406 l -0.808594,0.589844 v 0.867188 0 l 0.808594,-0.59375 z"
           style="font-size:8px;font-family:'DIN Alternate';fill:#343434"
           id="path584" />
        <path
           d="m -11.898438,83.5 h 3.2460942 v -0.816406 h -2.1757812 l 1.8320312,-2.296875 q 0.34375,-0.4375 0.34375,-1 -0.00781,-0.703125 -0.4726562,-1.160157 -0.4570313,-0.460937 -1.191406,-0.46875 -0.65625,0.0078 -1.105469,0.460938 -0.445313,0.464844 -0.476563,1.175781 h 0.8125 q 0.04297,-0.390625 0.273438,-0.605469 0.222656,-0.214843 0.558594,-0.214843 0.378906,0.0078 0.5859372,0.246093 0.1992188,0.238282 0.1992188,0.558594 0,0.121094 -0.03125,0.257813 -0.046875,0.144531 -0.1757813,0.3125 l -2.2226567,2.78125 z"
           style="font-size:8px;font-family:'DIN Alternate';fill:#343434"
           id="path586" />
      </g>
      <g
         aria-label="24"
         id="text242"
         style="font-size:8px;font-family:'DIN Alternate';fill:#343434"
         class="label">
        <path
           d="m -15.742188,104.5 h 3.246094 v -0.81641 h -2.175781 l 1.832031,-2.29687 q 0.34375,-0.4375 0.34375,-1 -0.0078,-0.703126 -0.472656,-1.160158 -0.457031,-0.460937 -1.191406,-0.46875 -0.65625,0.0078 -1.105469,0.460938 -0.445313,0.464844 -0.476563,1.17578 h 0.8125 q 0.04297,-0.39062 0.273438,-0.605468 0.222656,-0.214843 0.558594,-0.214843 0.378906,0.0078 0.585937,0.246093 0.199219,0.238278 0.199219,0.558598 0,0.12109 -0.03125,0.25781 -0.04687,0.14453 -0.175781,0.3125 l -2.222657,2.78125 z"
           style="font-size:8px;font-family:'DIN Alternate';fill:#343434"
           id="path589" />
        <path
           d="m -12.058594,103.65234 h 2.3750002 V 104.5 h 0.8164063 v -0.84766 h 0.453125 v -0.76953 h -0.453125 v -1.63672 h -0.8164063 v 1.63672 h -1.4882812 l 1.9257812,-4.078123 H -10.15625 l -1.902344,4.078123 z"
           style="font-size:8px;font-family:'DIN Alternate';fill:#343434"
           id="path591" />
      </g>
      <g
         aria-label="48"
         id="text244"
         style="font-size:8px;font-family:'DIN Alternate';fill:#343434"
         class="label">
        <path
           d="m -15.902344,124.65234 h 2.375 V 125.5 h 0.816406 v -0.84766 h 0.453125 v -0.76953 h -0.453125 v -1.63672 h -0.816406 v 1.63672 h -1.488281 l 1.925781,-4.07812 H -14 l -1.902344,4.07812 z"
           style="font-size:8px;font-family:'DIN Alternate';fill:#343434"
           id="path594" />
        <path
           d="m -11.050781,121.38672 q 0.0078,-0.40625 0.253906,-0.61328 0.242187,-0.19922 0.558594,-0.19922 0.3281247,0 0.5703122,0.19922 0.2382813,0.20703 0.2460938,0.61328 -0.00781,0.39453 -0.2460938,0.60156 -0.2421875,0.21485 -0.5703122,0.21485 -0.316407,0 -0.558594,-0.21485 -0.246094,-0.20703 -0.253906,-0.60156 z m -0.921875,2.44922 q 0.0078,0.76953 0.519531,1.23047 0.488281,0.47265 1.214844,0.48047 0.7304685,-0.008 1.2343747,-0.48047 0.4960938,-0.46094 0.5039063,-1.23047 -0.00781,-0.82422 -0.671875,-1.28125 0.2539062,-0.22266 0.4140625,-0.51172 0.1523437,-0.26953 0.1523437,-0.64063 -0.00781,-0.71093 -0.4648437,-1.17578 -0.453125,-0.46093 -1.1679685,-0.46875 -0.703125,0.008 -1.148438,0.46875 -0.472656,0.46485 -0.480469,1.17578 0,0.3711 0.167969,0.64063 0.144531,0.28906 0.398438,0.51172 -0.664063,0.45703 -0.671875,1.28125 z m 0.816406,-0.008 q 0.0078,-0.39844 0.28125,-0.64844 0.261719,-0.2461 0.636719,-0.25391 0.3867185,0.008 0.6484372,0.25391 0.265625,0.25 0.2734375,0.64844 -0.00781,0.39062 -0.2734375,0.64062 -0.2617187,0.26172 -0.6484372,0.26172 -0.375,0 -0.636719,-0.26172 -0.273438,-0.25 -0.28125,-0.64062 z"
           style="font-size:8px;font-family:'DIN Alternate';fill:#343434"
           id="path596" />
      </g>
      <path
         id="polyline246"
         style="fill:none;stroke:#343434;stroke-width:1"
         d="M -7.5,0 H 8"
         class="connect" />
      <path
         id="polyline248"
         style="fill:none;stroke:#343434;stroke-width:1"
         d="M -7.5,15 H 8"
         class="connect" />
      <path
         id="polyline250"
         style="fill:none;stroke:#343434;stroke-width:1"
         d="M -7.5,30 H 8"
         class="connect" />
      <path
         id="polyline252"
         style="fill:none;stroke:#343434;stroke-width:1"
         d="M -7.5,45 H 8"
         class="connect" />
      <path
         id="polyline254"
         style="fill:none;stroke:#343434;stroke-width:1"
         d="M -7.5,60 H 8"
         class="connect" />
      <path
         id="polyline256"
         style="fill:none;stroke:#343434;stroke-width:1"
         d="M -7.5,81 H 8"
         class="connect" />
      <path
         id="polyline258"
         style="fill:none;stroke:#343434;stroke-width:1"
         d="M -7.5,102 H 8"
         class="connect" />
      <path
         id="polyline260"
         style="fill:none;stroke:#343434;stroke-width:1"
         d="M -7.5,123 H 8"
         class="connect" />
      <path
         id="polyline262"
         style="fill:none;stroke:#343434;stroke-width:1"
         d="M -7.5,144 H 8"
         class="connect" />
      <path
         id="rect264"
         style="fill:#121212"
         d="m -3,-1 h 6 c 1.108,0 2,0.892 2,2 v 142 c 0,1.108 -0.892,2 -2,2 h -6 c -1.108,0 -2,-0.892 -2,-2 V 1 c 0,-1.108 0.892,-2 2,-2 z" />
    </g>
  </g>
  <g
     transform="translate(39,29)"
     id="g106">
    <g
       id="use104"
       transform="translate(-6,-8)">
      <g
         transform="translate(6,8)"
         id="g448">
        <g
           transform="translate(0,144)"
           id="g446" />
      </g>
    </g>
  </g>
  <g
     id="use110"
     transform="translate(16,186)">
    <g
       transform="translate(12,12)"
       id="g354" />
  </g>
  <g
     id="use114"
     transform="translate(16,216)">
    <g
       transform="translate(12,12)"
       id="g364">
      <path
         id="circle358"
         style="fill:none;stroke:#222222"
         d="M 11.5,0 A 11.5,11.5 0 0 1 0,11.5 11.5,11.5 0 0 1 -11.5,0 11.5,11.5 0 0 1 0,-11.5 11.5,11.5 0 0 1 11.5,0 Z" />
      <path
         id="circle360"
         style="fill:url(#linearGradient368)"
         transform="rotate(90)"
         d="M 11,0 A 11,11 0 0 1 0,11 11,11 0 0 1 -11,0 11,11 0 0 1 0,-11 11,11 0 0 1 11,0 Z" />
      <path
         id="circle362"
         style="fill:url(#linearGradient370)"
         transform="rotate(90)"
         d="M 10,0 A 10,10 0 0 1 0,10 10,10 0 0 1 -10,0 10,10 0 0 1 0,-10 10,10 0 0 1 10,0 Z" />
    </g>
  </g>
  <g
     id="use118"
     transform="translate(16,246)">
    <g
       transform="translate(12,12)"
       id="g372" />
  </g>
  <g
     id="use122"
     transform="translate(16,276)">
    <g
       transform="translate(12,12)"
       id="g376" />
  </g>
  <g
     id="use126"
     transform="translate(16,306)">
    <g
       transform="translate(12,12)"
       id="g380" />
  </g>
  <g
     id="use130"
     transform="translate(16,336)">
    <g
       transform="translate(12,12)"
       id="g384" />
  </g>
  <!-- ch2 -->
  <g
     id="use134"
     transform="translate(50,24)">
    <g
       transform="translate(20,5)"
       id="g306">
      <g
         aria-label="6"
         id="text270"
         style="font-size:8px;font-family:'DIN Alternate';fill:#343434"
         class="label">
        <path
           d="m -9.53125,-3.2539063 q 0.00391,0 -0.039063,0.085937 -0.039063,0.082031 -0.109375,0.2265625 Q -9.75,-2.796875 -9.84375,-2.609375 q -0.09375,0.1875 -0.199219,0.3945312 -0.101562,0.2070313 -0.210937,0.4179688 -0.105469,0.2109375 -0.207032,0.4023438 -0.09766,0.1914062 -0.179687,0.3476562 -0.08203,0.15625 -0.136719,0.25 0.113281,-0.0664063 0.253906,-0.078125 0.144532,-0.015625 0.332032,-0.007813 0.269531,0.007813 0.4687497,0.09375 0.203125,0.0859375 0.3476563,0.21484375 0.1445312,0.12890625 0.2382812,0.2890625 0.097656,0.15625 0.1523438,0.30859375 0.054687,0.1484375 0.074219,0.28125 0.023437,0.12890625 0.023437,0.203125 0,0.0234375 0,0.0859375 0,0.0625 0,0.140625 0,0.0742188 -0.00391,0.15234375 0,0.078125 -0.00391,0.13281245 -0.00391,0.027344 -0.027344,0.1445313 Q -8.9414063,1.2773437 -9,1.4375 -9.0546875,1.59375 -9.1601563,1.7773437 -9.265625,1.9570312 -9.4375,2.1210938 -9.609375,2.28125 -9.8554688,2.3984375 -10.101563,2.515625 -10.441406,2.5429688 -10.796875,2.5742188 -11.070313,2.4960938 -11.34375,2.4179688 -11.542969,2.2734375 -11.742188,2.1289063 -11.875,1.9414062 -12.007813,1.75 -12.085938,1.5507812 -12.160156,1.3515625 -12.1875,1.1679687 q -0.02344,-0.1835937 -0.0078,-0.31249995 0.02344,-0.19140625 0.05078,-0.33984375 0.02734,-0.15234375 0.0625,-0.2890625 0.03906,-0.13671875 0.08594,-0.26953125 0.04687,-0.1328125 0.109375,-0.2890625 0.01563,-0.0390625 0.08594,-0.18359375 0.07031,-0.1484375 0.171875,-0.36328125 0.105468,-0.21484375 0.234375,-0.47265625 0.128906,-0.2578125 0.257812,-0.5234375 0.304688,-0.6171875 0.683594,-1.3789063 z m -0.1640625,4.1679688 q 0,-0.1484375 -0.011719,-0.328125 Q -9.71875,0.40625 -9.796875,0.24609375 q -0.074219,-0.1640625 -0.246094,-0.28125 -0.171875,-0.1171875 -0.488281,-0.140625 -0.148438,-0.0117188 -0.269531,0.03125 -0.121094,0.0429687 -0.214844,0.1171875 -0.09375,0.07421875 -0.164063,0.171875 -0.06641,0.09375 -0.113281,0.1875 -0.04297,0.09375 -0.0625,0.17578125 -0.01953,0.078125 -0.01953,0.12109375 0,0.0976563 0.0039,0.21875 0.0039,0.1171875 0.02344,0.23828125 0.02344,0.1171875 0.07422,0.2304687 0.05078,0.109375 0.144532,0.1953125 0.09375,0.085937 0.238281,0.140625 0.148437,0.054687 0.367187,0.054687 0.175782,0.00391 0.304688,-0.042969 0.132812,-0.050781 0.2226562,-0.125 0.09375,-0.078125 0.1523438,-0.171875 0.058594,-0.09375 0.089844,-0.1835938 0.035156,-0.089844 0.046875,-0.1601562 0.011719,-0.0742188 0.011719,-0.109375 z"
           style="font-size:8px;font-family:'DIN Alternate';fill:#343434"
           id="path529" />
      </g>
      <g
         aria-label="3"
         id="text272"
         style="font-size:8px;font-family:'DIN Alternate';fill:#343434"
         class="label">
        <path
           d="M -11.09375,14.925781 H -10.75 q 0.378906,0 0.625,0.230469 0.25,0.238281 0.2578125,0.671875 -0.00781,0.425781 -0.2578125,0.65625 -0.246094,0.246094 -0.605469,0.246094 -0.335937,0 -0.539062,-0.183594 -0.199219,-0.175781 -0.308594,-0.460938 h -0.816406 q 0.132812,0.710938 0.582031,1.085938 0.449219,0.375 1.03125,0.375 0.753906,-0.0078 1.234375,-0.480469 0.4882812,-0.460937 0.4960937,-1.261718 0,-0.359375 -0.1523437,-0.6875 -0.1601563,-0.328125 -0.5195313,-0.5625 0.3515625,-0.238282 0.4882813,-0.542969 0.1171875,-0.304688 0.1171875,-0.632813 -0.00781,-0.648437 -0.4453125,-1.125 -0.457031,-0.488281 -1.234375,-0.496093 -0.613281,0.0078 -1.054688,0.4375 -0.449218,0.433593 -0.511718,1.066406 h 0.816406 q 0.07813,-0.351563 0.304687,-0.519531 0.214844,-0.167969 0.476563,-0.167969 0.363281,0.0078 0.59375,0.230469 0.2304687,0.230468 0.2382812,0.589843 0,0.355469 -0.2304692,0.578125 -0.230468,0.230469 -0.648437,0.230469 h -0.28125 z"
           style="font-size:8px;font-family:'DIN Alternate';fill:#343434"
           id="path532" />
      </g>
      <g
         aria-label="0"
         id="text274"
         style="font-size:8px;font-family:'DIN Alternate';fill:#343434"
         class="label">
        <path
           d="m -9.78125,30.859375 q -0.023437,0.863281 -0.800781,0.871094 -0.78125,-0.0078 -0.796875,-0.871094 v -2.414063 q 0.01563,-0.855468 0.796875,-0.871093 0.7773435,0.01563 0.800781,0.871093 z m -2.414063,0.04687 q 0.0078,0.785156 0.503907,1.210937 0.464843,0.421875 1.109375,0.429688 0.6640622,-0.0078 1.128906,-0.429688 0.4726562,-0.425781 0.4882812,-1.210937 v -2.511719 q -0.015625,-0.789062 -0.4882812,-1.214844 -0.4648438,-0.421875 -1.128906,-0.421875 -0.644532,0 -1.109375,0.421875 -0.496094,0.425782 -0.503907,1.214844 z"
           style="font-size:8px;font-family:'DIN Alternate';fill:#343434"
           id="path535" />
      </g>
      <g
         aria-label="3"
         id="text276"
         style="font-size:8px;font-family:'DIN Alternate';fill:#343434"
         class="label">
        <path
           d="M -11.09375,44.925781 H -10.75 q 0.378906,0 0.625,0.230469 0.25,0.238281 0.2578125,0.671875 -0.00781,0.425781 -0.2578125,0.65625 -0.246094,0.246094 -0.605469,0.246094 -0.335937,0 -0.539062,-0.183594 -0.199219,-0.175781 -0.308594,-0.460938 h -0.816406 q 0.132812,0.710938 0.582031,1.085938 0.449219,0.375 1.03125,0.375 0.753906,-0.0078 1.234375,-0.480469 0.4882812,-0.460937 0.4960937,-1.261719 0,-0.359375 -0.1523437,-0.6875 -0.1601563,-0.328125 -0.5195313,-0.5625 0.3515625,-0.238281 0.4882813,-0.542968 0.1171875,-0.304688 0.1171875,-0.632813 -0.00781,-0.648437 -0.4453125,-1.125 -0.457031,-0.488281 -1.234375,-0.496094 -0.613281,0.0078 -1.054688,0.4375 -0.449218,0.433594 -0.511718,1.066407 h 0.816406 q 0.07813,-0.351563 0.304687,-0.519532 0.214844,-0.167968 0.476563,-0.167968 0.363281,0.0078 0.59375,0.230468 0.2304687,0.230469 0.2382812,0.589844 0,0.355469 -0.2304692,0.578125 -0.230468,0.230469 -0.648437,0.230469 h -0.28125 z"
           style="font-size:8px;font-family:'DIN Alternate';fill:#343434"
           id="path538" />
      </g>
      <g
         aria-label="6"
         id="text278"
         style="font-size:8px;font-family:'DIN Alternate';fill:#343434"
         class="label">
        <path
           d="m -9.53125,56.746094 q 0.00391,0 -0.039063,0.08594 -0.039063,0.08203 -0.109375,0.226563 -0.070312,0.144531 -0.1640625,0.332031 -0.09375,0.1875 -0.199219,0.394531 -0.101562,0.207031 -0.210937,0.417969 -0.105469,0.210937 -0.207032,0.402344 -0.09766,0.191406 -0.179687,0.347656 -0.08203,0.15625 -0.136719,0.25 0.113281,-0.06641 0.253906,-0.07813 0.144532,-0.01563 0.332032,-0.0078 0.269531,0.0078 0.4687497,0.09375 0.203125,0.08594 0.3476563,0.214844 0.1445312,0.128906 0.2382812,0.289063 0.097656,0.15625 0.1523438,0.308593 0.054687,0.148438 0.074219,0.28125 0.023437,0.128907 0.023437,0.203125 0,0.02344 0,0.08594 0,0.0625 0,0.140625 0,0.07422 -0.00391,0.152344 0,0.07813 -0.00391,0.132812 -0.00391,0.02734 -0.027344,0.144531 Q -8.9414063,61.277344 -9,61.4375 q -0.054687,0.15625 -0.1601563,0.339844 -0.1054687,0.179687 -0.2773437,0.34375 -0.171875,0.160156 -0.4179688,0.277343 -0.2460942,0.117188 -0.5859372,0.144532 -0.355469,0.03125 -0.628907,-0.04687 -0.273437,-0.07813 -0.472656,-0.222657 -0.199219,-0.144531 -0.332031,-0.332031 -0.132813,-0.191406 -0.210938,-0.390625 -0.07422,-0.199219 -0.101562,-0.382812 -0.02344,-0.183594 -0.0078,-0.3125 0.02344,-0.191407 0.05078,-0.339844 0.02734,-0.152344 0.0625,-0.289063 0.03906,-0.136718 0.08594,-0.269531 0.04687,-0.132812 0.109375,-0.289062 0.01563,-0.03906 0.08594,-0.183594 0.07031,-0.148438 0.171875,-0.363281 0.105468,-0.214844 0.234375,-0.472657 0.128906,-0.257812 0.257812,-0.523437 0.304688,-0.617188 0.683594,-1.378906 z m -0.1640625,4.167968 q 0,-0.148437 -0.011719,-0.328125 -0.011719,-0.179687 -0.089844,-0.339843 -0.074219,-0.164063 -0.246094,-0.28125 -0.171875,-0.117188 -0.488281,-0.140625 -0.148438,-0.01172 -0.269531,0.03125 -0.121094,0.04297 -0.214844,0.117187 -0.09375,0.07422 -0.164063,0.171875 -0.06641,0.09375 -0.113281,0.1875 -0.04297,0.09375 -0.0625,0.175781 -0.01953,0.07813 -0.01953,0.121094 0,0.09766 0.0039,0.21875 0.0039,0.117188 0.02344,0.238281 0.02344,0.117188 0.07422,0.230469 0.05078,0.109375 0.144532,0.195313 0.09375,0.08594 0.238281,0.140625 0.148437,0.05469 0.367187,0.05469 0.175782,0.0039 0.304688,-0.04297 0.132812,-0.05078 0.2226562,-0.125 0.09375,-0.07813 0.1523438,-0.171875 0.058594,-0.09375 0.089844,-0.183593 0.035156,-0.08984 0.046875,-0.160157 0.011719,-0.07422 0.011719,-0.109375 z"
           style="font-size:8px;font-family:'DIN Alternate';fill:#343434"
           id="path541" />
      </g>
      <g
         aria-label="12"
         id="text280"
         style="font-size:8px;font-family:'DIN Alternate';fill:#343434"
         class="label">
        <path
           d="M -14.449219,78.667969 V 83.5 h 0.816406 v -5.695313 h -0.816406 l -0.808594,0.589844 v 0.867188 0 l 0.808594,-0.59375 z"
           style="font-size:8px;font-family:'DIN Alternate';fill:#343434"
           id="path544" />
        <path
           d="m -11.898438,83.5 h 3.2460942 v -0.816406 h -2.1757812 l 1.8320312,-2.296875 q 0.34375,-0.4375 0.34375,-1 -0.00781,-0.703125 -0.4726562,-1.160157 -0.4570313,-0.460937 -1.191406,-0.46875 -0.65625,0.0078 -1.105469,0.460938 -0.445313,0.464844 -0.476563,1.175781 h 0.8125 q 0.04297,-0.390625 0.273438,-0.605469 0.222656,-0.214843 0.558594,-0.214843 0.378906,0.0078 0.5859372,0.246093 0.1992188,0.238282 0.1992188,0.558594 0,0.121094 -0.03125,0.257813 -0.046875,0.144531 -0.1757813,0.3125 l -2.2226567,2.78125 z"
           style="font-size:8px;font-family:'DIN Alternate';fill:#343434"
           id="path546" />
      </g>
      <g
         aria-label="24"
         id="text282"
         style="font-size:8px;font-family:'DIN Alternate';fill:#343434"
         class="label">
        <path
           d="m -15.742188,104.5 h 3.246094 v -0.81641 h -2.175781 l 1.832031,-2.29687 q 0.34375,-0.4375 0.34375,-1 -0.0078,-0.703126 -0.472656,-1.160158 -0.457031,-0.460937 -1.191406,-0.46875 -0.65625,0.0078 -1.105469,0.460938 -0.445313,0.464844 -0.476563,1.17578 h 0.8125 q 0.04297,-0.39062 0.273438,-0.605468 0.222656,-0.214843 0.558594,-0.214843 0.378906,0.0078 0.585937,0.246093 0.199219,0.238278 0.199219,0.558598 0,0.12109 -0.03125,0.25781 -0.04687,0.14453 -0.175781,0.3125 l -2.222657,2.78125 z"
           style="font-size:8px;font-family:'DIN Alternate';fill:#343434"
           id="path549" />
        <path
           d="m -12.058594,103.65234 h 2.3750002 V 104.5 h 0.8164063 v -0.84766 h 0.453125 v -0.76953 h -0.453125 v -1.63672 h -0.8164063 v 1.63672 h -1.4882812 l 1.9257812,-4.078123 H -10.15625 l -1.902344,4.078123 z"
           style="font-size:8px;font-family:'DIN Alternate';fill:#343434"
           id="path551" />
      </g>
      <g
         aria-label="48"
         id="text284"
         style="font-size:8px;font-family:'DIN Alternate';fill:#343434"
         class="label">
        <path
           d="m -15.902344,124.65234 h 2.375 V 125.5 h 0.816406 v -0.84766 h 0.453125 v -0.76953 h -0.453125 v -1.63672 h -0.816406 v 1.63672 h -1.488281 l 1.925781,-4.07812 H -14 l -1.902344,4.07812 z"
           style="font-size:8px;font-family:'DIN Alternate';fill:#343434"
           id="path554" />
        <path
           d="m -11.050781,121.38672 q 0.0078,-0.40625 0.253906,-0.61328 0.242187,-0.19922 0.558594,-0.19922 0.3281247,0 0.5703122,0.19922 0.2382813,0.20703 0.2460938,0.61328 -0.00781,0.39453 -0.2460938,0.60156 -0.2421875,0.21485 -0.5703122,0.21485 -0.316407,0 -0.558594,-0.21485 -0.246094,-0.20703 -0.253906,-0.60156 z m -0.921875,2.44922 q 0.0078,0.76953 0.519531,1.23047 0.488281,0.47265 1.214844,0.48047 0.7304685,-0.008 1.2343747,-0.48047 0.4960938,-0.46094 0.5039063,-1.23047 -0.00781,-0.82422 -0.671875,-1.28125 0.2539062,-0.22266 0.4140625,-0.51172 0.1523437,-0.26953 0.1523437,-0.64063 -0.00781,-0.71093 -0.4648437,-1.17578 -0.453125,-0.46093 -1.1679685,-0.46875 -0.703125,0.008 -1.148438,0.46875 -0.472656,0.46485 -0.480469,1.17578 0,0.3711 0.167969,0.64063 0.144531,0.28906 0.398438,0.51172 -0.664063,0.45703 -0.671875,1.28125 z m 0.816406,-0.008 q 0.0078,-0.39844 0.28125,-0.64844 0.261719,-0.2461 0.636719,-0.25391 0.3867185,0.008 0.6484372,0.25391 0.265625,0.25 0.2734375,0.64844 -0.00781,0.39062 -0.2734375,0.64062 -0.2617187,0.26172 -0.6484372,0.26172 -0.375,0 -0.636719,-0.26172 -0.273438,-0.25 -0.28125,-0.64062 z"
           style="font-size:8px;font-family:'DIN Alternate';fill:#343434"
           id="path556" />
      </g>
      <path
         id="polyline286"
         style="fill:none;stroke:#343434;stroke-width:1"
         d="M -7.5,0 H 8"
         class="connect" />
      <path
         id="polyline288"
         style="fill:none;stroke:#343434;stroke-width:1"
         d="M -7.5,15 H 8"
         class="connect" />
      <path
         id="polyline290"
         style="fill:none;stroke:#343434;stroke-width:1"
         d="M -7.5,30 H 8"
         class="connect" />
      <path
         id="polyline292"
         style="fill:none;stroke:#343434;stroke-width:1"
         d="M -7.5,45 H 8"
         class="connect" />
      <path
         id="polyline294"
         style="fill:none;stroke:#343434;stroke-width:1"
         d="M -7.5,60 H 8"
         class="connect" />
      <path
         id="polyline296"
         style="fill:none;stroke:#343434;stroke-width:1"
         d="M -7.5,81 H 8"
         class="connect" />
      <path
         id="polyline298"
         style="fill:none;stroke:#343434;stroke-width:1"
         d="M -7.5,102 H 8"
         class="connect" />
      <path
         id="polyline300"
         style="fill:none;stroke:#343434;stroke-width:1"
         d="M -7.5,123 H 8"
         class="connect" />
      <path
         id="polyline302"
         style="fill:none;stroke:#343434;stroke-width:1"
         d="M -7.5,144 H 8"
         class="connect" />
      <path
         id="rect304"
         style="fill:#121212"
         d="m -3,-1 h 6 c 1.108,0 2,0.892 2,2 v 142 c 0,1.108 -0.892,2 -2,2 h -6 c -1.108,0 -2,-0.892 -2,-2 V 1 c 0,-1.108 0.892,-2 2,-2 z" />
    </g>
  </g>
  <g
     transform="translate(81,29)"
     id="g138">
    <g
       id="use136"
       transform="translate(-6,-8)">
      <g
         transform="translate(6,8)"
         id="g442">
        <g
           transform="translate(0,144)"
           id="g440" />
      </g>
    </g>
  </g>
  <g
     id="use142"
     transform="translate(58,186)">
    <g
       transform="translate(12,12)"
       id="g388" />
  </g>
  <g
     id="use146"
     transform="translate(58,216)">
    <g
       transform="translate(12,12)"
       id="g398">
      <path
         id="circle392"
         style="fill:none;stroke:#222222"
         d="M 11.5,0 A 11.5,11.5 0 0 1 0,11.5 11.5,11.5 0 0 1 -11.5,0 11.5,11.5 0 0 1 0,-11.5 11.5,11.5 0 0 1 11.5,0 Z" />
      <path
         id="circle394"
         style="fill:url(#linearGradient402)"
         transform="rotate(90)"
         d="M 11,0 A 11,11 0 0 1 0,11 11,11 0 0 1 -11,0 11,11 0 0 1 0,-11 11,11 0 0 1 11,0 Z" />
      <path
         id="circle396"
         style="fill:url(#linearGradient404)"
         transform="rotate(90)"
         d="M 10,0 A 10,10 0 0 1 0,10 10,10 0 0 1 -10,0 10,10 0 0 1 0,-10 10,10 0 0 1 10,0 Z" />
    </g>
  </g>
  <g
     id="use150"
     transform="translate(58,246)">
    <g
       transform="translate(12,12)"
       id="g406" />
  </g>
  <g
     id="use154"
     transform="translate(58,276)">
    <g
       transform="translate(12,12)"
       id="g410" />
  </g>
  <g
     id="use158"
     transform="translate(58,306)">
    <g
       transform="translate(12,12)"
       id="g414" />
  </g>
  <g
     id="use162"
     transform="translate(58,336)">
    <g
       transform="translate(12,12)"
       id="g418" />
  </g>
  <!-- mix -->
  <!--g transform="translate(112 26)">
    <text x="0" y="0" class="label" text-anchor="middle">MX</text>
  </g-->
  <g
     id="use166"
     transform="translate(92,24)">
    <g
       transform="translate(20,5)"
       id="g346">
      <g
         aria-label="6"
         id="text310"
         style="font-size:8px;font-family:'DIN Alternate';fill:#343434"
         class="label">
        <path
           d="m -9.53125,-3.2539063 q 0.00391,0 -0.039063,0.085937 -0.039063,0.082031 -0.109375,0.2265625 Q -9.75,-2.796875 -9.84375,-2.609375 q -0.09375,0.1875 -0.199219,0.3945312 -0.101562,0.2070313 -0.210937,0.4179688 -0.105469,0.2109375 -0.207032,0.4023438 -0.09766,0.1914062 -0.179687,0.3476562 -0.08203,0.15625 -0.136719,0.25 0.113281,-0.0664063 0.253906,-0.078125 0.144532,-0.015625 0.332032,-0.007813 0.269531,0.007813 0.4687497,0.09375 0.203125,0.0859375 0.3476563,0.21484375 0.1445312,0.12890625 0.2382812,0.2890625 0.097656,0.15625 0.1523438,0.30859375 0.054687,0.1484375 0.074219,0.28125 0.023437,0.12890625 0.023437,0.203125 0,0.0234375 0,0.0859375 0,0.0625 0,0.140625 0,0.0742188 -0.00391,0.15234375 0,0.078125 -0.00391,0.13281245 -0.00391,0.027344 -0.027344,0.1445313 Q -8.9414063,1.2773437 -9,1.4375 -9.0546875,1.59375 -9.1601563,1.7773437 -9.265625,1.9570312 -9.4375,2.1210938 -9.609375,2.28125 -9.8554688,2.3984375 -10.101563,2.515625 -10.441406,2.5429688 -10.796875,2.5742188 -11.070313,2.4960938 -11.34375,2.4179688 -11.542969,2.2734375 -11.742188,2.1289063 -11.875,1.9414062 -12.007813,1.75 -12.085938,1.5507812 -12.160156,1.3515625 -12.1875,1.1679687 q -0.02344,-0.1835937 -0.0078,-0.31249995 0.02344,-0.19140625 0.05078,-0.33984375 0.02734,-0.15234375 0.0625,-0.2890625 0.03906,-0.13671875 0.08594,-0.26953125 0.04687,-0.1328125 0.109375,-0.2890625 0.01563,-0.0390625 0.08594,-0.18359375 0.07031,-0.1484375 0.171875,-0.36328125 0.105468,-0.21484375 0.234375,-0.47265625 0.128906,-0.2578125 0.257812,-0.5234375 0.304688,-0.6171875 0.683594,-1.3789063 z m -0.1640625,4.1679688 q 0,-0.1484375 -0.011719,-0.328125 Q -9.71875,0.40625 -9.796875,0.24609375 q -0.074219,-0.1640625 -0.246094,-0.28125 -0.171875,-0.1171875 -0.488281,-0.140625 -0.148438,-0.0117188 -0.269531,0.03125 -0.121094,0.0429687 -0.214844,0.1171875 -0.09375,0.07421875 -0.164063,0.171875 -0.06641,0.09375 -0.113281,0.1875 -0.04297,0.09375 -0.0625,0.17578125 -0.01953,0.078125 -0.01953,0.12109375 0,0.0976563 0.0039,0.21875 0.0039,0.1171875 0.02344,0.23828125 0.02344,0.1171875 0.07422,0.2304687 0.05078,0.109375 0.144532,0.1953125 0.09375,0.085937 0.238281,0.140625 0.148437,0.054687 0.367187,0.054687 0.175782,0.00391 0.304688,-0.042969 0.132812,-0.050781 0.2226562,-0.125 0.09375,-0.078125 0.1523438,-0.171875 0.058594,-0.09375 0.089844,-0.1835938 0.035156,-0.089844 0.046875,-0.1601562 0.011719,-0.0742188 0.011719,-0.109375 z"
           style="font-size:8px;font-family:'DIN Alternate';fill:#343434"
           id="path489" />
      </g>
      <g
         aria-label="3"
         id="text312"
         style="font-size:8px;font-family:'DIN Alternate';fill:#343434"
         class="label">
        <path
           d="M -11.09375,14.925781 H -10.75 q 0.378906,0 0.625,0.230469 0.25,0.238281 0.2578125,0.671875 -0.00781,0.425781 -0.2578125,0.65625 -0.246094,0.246094 -0.605469,0.246094 -0.335937,0 -0.539062,-0.183594 -0.199219,-0.175781 -0.308594,-0.460938 h -0.816406 q 0.132812,0.710938 0.582031,1.085938 0.449219,0.375 1.03125,0.375 0.753906,-0.0078 1.234375,-0.480469 0.4882812,-0.460937 0.4960937,-1.261718 0,-0.359375 -0.1523437,-0.6875 -0.1601563,-0.328125 -0.5195313,-0.5625 0.3515625,-0.238282 0.4882813,-0.542969 0.1171875,-0.304688 0.1171875,-0.632813 -0.00781,-0.648437 -0.4453125,-1.125 -0.457031,-0.488281 -1.234375,-0.496093 -0.613281,0.0078 -1.054688,0.4375 -0.449218,0.433593 -0.511718,1.066406 h 0.816406 q 0.07813,-0.351563 0.304687,-0.519531 0.214844,-0.167969 0.476563,-0.167969 0.363281,0.0078 0.59375,0.230469 0.2304687,0.230468 0.2382812,0.589843 0,0.355469 -0.2304692,0.578125 -0.230468,0.230469 -0.648437,0.230469 h -0.28125 z"
           style="font-size:8px;font-family:'DIN Alternate';fill:#343434"
           id="path492" />
      </g>
      <g
         aria-label="0"
         id="text314"
         style="font-size:8px;font-family:'DIN Alternate';fill:#343434"
         class="label">
        <path
           d="m -9.78125,30.859375 q -0.023437,0.863281 -0.800781,0.871094 -0.78125,-0.0078 -0.796875,-0.871094 v -2.414063 q 0.01563,-0.855468 0.796875,-0.871093 0.7773435,0.01563 0.800781,0.871093 z m -2.414063,0.04687 q 0.0078,0.785156 0.503907,1.210937 0.464843,0.421875 1.109375,0.429688 0.6640622,-0.0078 1.128906,-0.429688 0.4726562,-0.425781 0.4882812,-1.210937 v -2.511719 q -0.015625,-0.789062 -0.4882812,-1.214844 -0.4648438,-0.421875 -1.128906,-0.421875 -0.644532,0 -1.109375,0.421875 -0.496094,0.425782 -0.503907,1.214844 z"
           style="font-size:8px;font-family:'DIN Alternate';fill:#343434"
           id="path495" />
      </g>
      <g
         aria-label="3"
         id="text316"
         style="font-size:8px;font-family:'DIN Alternate';fill:#343434"
         class="label">
        <path
           d="M -11.09375,44.925781 H -10.75 q 0.378906,0 0.625,0.230469 0.25,0.238281 0.2578125,0.671875 -0.00781,0.425781 -0.2578125,0.65625 -0.246094,0.246094 -0.605469,0.246094 -0.335937,0 -0.539062,-0.183594 -0.199219,-0.175781 -0.308594,-0.460938 h -0.816406 q 0.132812,0.710938 0.582031,1.085938 0.449219,0.375 1.03125,0.375 0.753906,-0.0078 1.234375,-0.480469 0.4882812,-0.460937 0.4960937,-1.261719 0,-0.359375 -0.1523437,-0.6875 -0.1601563,-0.328125 -0.5195313,-0.5625 0.3515625,-0.238281 0.4882813,-0.542968 0.1171875,-0.304688 0.1171875,-0.632813 -0.00781,-0.648437 -0.4453125,-1.125 -0.457031,-0.488281 -1.234375,-0.496094 -0.613281,0.0078 -1.054688,0.4375 -0.449218,0.433594 -0.511718,1.066407 h 0.816406 q 0.07813,-0.351563 0.304687,-0.519532 0.214844,-0.167968 0.476563,-0.167968 0.363281,0.0078 0.59375,0.230468 0.2304687,0.230469 0.2382812,0.589844 0,0.355469 -0.2304692,0.578125 -0.230468,0.230469 -0.648437,0.230469 h -0.28125 z"
           style="font-size:8px;font-family:'DIN Alternate';fill:#343434"
           id="path498" />
      </g>
      <g
         aria-label="6"
         id="text318"
         style="font-size:8px;font-family:'DIN Alternate';fill:#343434"
         class="label">
        <path
           d="m -9.53125,56.746094 q 0.00391,0 -0.039063,0.08594 -0.039063,0.08203 -0.109375,0.226563 -0.070312,0.144531 -0.1640625,0.332031 -0.09375,0.1875 -0.199219,0.394531 -0.101562,0.207031 -0.210937,0.417969 -0.105469,0.210937 -0.207032,0.402344 -0.09766,0.191406 -0.179687,0.347656 -0.08203,0.15625 -0.136719,0.25 0.113281,-0.06641 0.253906,-0.07813 0.144532,-0.01563 0.332032,-0.0078 0.269531,0.0078 0.4687497,0.09375 0.203125,0.08594 0.3476563,0.214844 0.1445312,0.128906 0.2382812,0.289063 0.097656,0.15625 0.1523438,0.308593 0.054687,0.148438 0.074219,0.28125 0.023437,0.128907 0.023437,0.203125 0,0.02344 0,0.08594 0,0.0625 0,0.140625 0,0.07422 -0.00391,0.152344 0,0.07813 -0.00391,0.132812 -0.00391,0.02734 -0.027344,0.144531 Q -8.9414063,61.277344 -9,61.4375 q -0.054687,0.15625 -0.1601563,0.339844 -0.1054687,0.179687 -0.2773437,0.34375 -0.171875,0.160156 -0.4179688,0.277343 -0.2460942,0.117188 -0.5859372,0.144532 -0.355469,0.03125 -0.628907,-0.04687 -0.273437,-0.07813 -0.472656,-0.222657 -0.199219,-0.144531 -0.332031,-0.332031 -0.132813,-0.191406 -0.210938,-0.390625 -0.07422,-0.199219 -0.101562,-0.382812 -0.02344,-0.183594 -0.0078,-0.3125 0.02344,-0.191407 0.05078,-0.339844 0.02734,-0.152344 0.0625,-0.289063 0.03906,-0.136718 0.08594,-0.269531 0.04687,-0.132812 0.109375,-0.289062 0.01563,-0.03906 0.08594,-0.183594 0.07031,-0.148438 0.171875,-0.363281 0.105468,-0.214844 0.234375,-0.472657 0.128906,-0.257812 0.257812,-0.523437 0.304688,-0.617188 0.683594,-1.378906 z m -0.1640625,4.167968 q 0,-0.148437 -0.011719,-0.328125 -0.011719,-0.179687 -0.089844,-0.339843 -0.074219,-0.164063 -0.246094,-0.28125 -0.171875,-0.117188 -0.488281,-0.140625 -0.148438,-0.01172 -0.269531,0.03125 -0.121094,0.04297 -0.214844,0.117187 -0.09375,0.07422 -0.164063,0.171875 -0.06641,0.09375 -0.113281,0.1875 -0.04297,0.09375 -0.0625,0.175781 -0.01953,0.07813 -0.01953,0.121094 0,0.09766 0.0039,0.21875 0.0039,0.117188 0.02344,0.238281 0.02344,0.117188 0.07422,0.230469 0.05078,0.109375 0.144532,0.195313 0.09375,0.08594 0.238281,0.140625 0.148437,0.05469 0.367187,0.05469 0.175782,0.0039 0.304688,-0.04297 0.132812,-0.05078 0.2226562,-0.125 0.09375,-0.07813 0.1523438,-0.171875 0.058594,-0.09375 0.089844,-0.183593 0.035156,-0.08984 0.046875,-0.160157 0.011719,-0.07422 0.011719,-0.109375 z"
           style="font-size:8px;font-family:'DIN Alternate';fill:#343434"
           id="path501" />
      </g>
      <g
         aria-label="12"
         id="text320"
         style="font-size:8px;font-family:'DIN Alternate';fill:#343434"
         class="label">
        <path
           d="M -14.449219,78.667969 V 83.5 h 0.816406 v -5.695313 h -0.816406 l -0.808594,0.589844 v 0.867188 0 l 0.808594,-0.59375 z"
           style="font-size:8px;font-family:'DIN Alternate';fill:#343434"
           id="path504" />
        <path
           d="m -11.898438,83.5 h 3.2460942 v -0.816406 h -2.1757812 l 1.8320312,-2.296875 q 0.34375,-0.4375 0.34375,-1 -0.00781,-0.703125 -0.4726562,-1.160157 -0.4570313,-0.460937 -1.191406,-0.46875 -0.65625,0.0078 -1.105469,0.460938 -0.445313,0.464844 -0.476563,1.175781 h 0.8125 q 0.04297,-0.390625 0.273438,-0.605469 0.222656,-0.214843 0.558594,-0.214843 0.378906,0.0078 0.5859372,0.246093 0.1992188,0.238282 0.1992188,0.558594 0,0.121094 -0.03125,0.257813 -0.046875,0.144531 -0.1757813,0.3125 l -2.2226567,2.78125 z"
           style="font-size:8px;font-family:'DIN Alternate';fill:#343434"
           id="path506" />
      </g>
      <g
         aria-label="24"
         id="text322"
         style="font-size:8px;font-family:'DIN Alternate';fill:#343434"
         class="label">
        <path
           d="m -15.742188,104.5 h 3.246094 v -0.81641 h -2.175781 l 1.832031,-2.29687 q 0.34375,-0.4375 0.34375,-1 -0.0078,-0.703126 -0.472656,-1.160158 -0.457031,-0.460937 -1.191406,-0.46875 -0.65625,0.0078 -1.105469,0.460938 -0.445313,0.464844 -0.476563,1.17578 h 0.8125 q 0.04297,-0.39062 0.273438,-0.605468 0.222656,-0.214843 0.558594,-0.214843 0.378906,0.0078 0.585937,0.246093 0.199219,0.238278 0.199219,0.558598 0,0.12109 -0.03125,0.25781 -0.04687,0.14453 -0.175781,0.3125 l -2.222657,2.78125 z"
           style="font-size:8px;font-family:'DIN Alternate';fill:#343434"
           id="path509" />
        <path
           d="m -12.058594,103.65234 h 2.3750002 V 104.5 h 0.8164063 v -0.84766 h 0.453125 v -0.76953 h -0.453125 v -1.63672 h -0.8164063 v 1.63672 h -1.4882812 l 1.9257812,-4.078123 H -10.15625 l -1.902344,4.078123 z"
           style="font-size:8px;font-family:'DIN Alternate';fill:#343434"
           id="path511" />
      </g>
      <g
         aria-label="48"
         id="text324"
         style="font-size:8px;font-family:'DIN Alternate';fill:#343434"
         class="label">
        <path
           d="m -15.902344,124.65234 h 2.375 V 125.5 h 0.816406 v -0.84766 h 0.453125 v -0.76953 h -0.453125 v -1.63672 h -0.816406 v 1.63672 h -1.488281 l 1.925781,-4.07812 H -14 l -1.902344,4.07812 z"
           style="font-size:8px;font-family:'DIN Alternate';fill:#343434"
           id="path514" />
        <path
           d="m -11.050781,121.38672 q 0.0078,-0.40625 0.253906,-0.61328 0.242187,-0.19922 0.558594,-0.19922 0.3281247,0 0.5703122,0.19922 0.2382813,0.20703 0.2460938,0.61328 -0.00781,0.39453 -0.2460938,0.60156 -0.2421875,0.21485 -0.5703122,0.21485 -0.316407,0 -0.558594,-0.21485 -0.246094,-0.20703 -0.253906,-0.60156 z m -0.921875,2.44922 q 0.0078,0.76953 0.519531,1.23047 0.488281,0.47265 1.214844,0.48047 0.7304685,-0.008 1.2343747,-0.48047 0.4960938,-0.46094 0.5039063,-1.23047 -0.00781,-0.82422 -0.671875,-1.28125 0.2539062,-0.22266 0.4140625,-0.51172 0.1523437,-0.26953 0.1523437,-0.64063 -0.00781,-0.71093 -0.4648437,-1.17578 -0.453125,-0.46093 -1.1679685,-0.46875 -0.703125,0.008 -1.148438,0.46875 -0.472656,0.46485 -0.480469,1.17578 0,0.3711 0.167969,0.64063 0.144531,0.28906 0.398438,0.51172 -0.664063,0.45703 -0.671875,1.28125 z m 0.816406,-0.008 q 0.0078,-0.39844 0.28125,-0.64844 0.261719,-0.2461 0.636719,-0.25391 0.3867185,0.008 0.6484372,0.25391 0.265625,0.25 0.2734375,0.64844 -0.00781,0.39062 -0.2734375,0.64062 -0.2617187,0.26172 -0.6484372,0.26172 -0.375,0 -0.636719,-0.26172 -0.273438,-0.25 -0.28125,-0.64062 z"
           style="font-size:8px;font-family:'DIN Alternate';fill:#343434"
           id="path516" />
      </g>
      <path
         id="polyline326"
         style="fill:none;stroke:#343434;stroke-width:1"
         d="M -7.5,0 H 8"
         class="connect" />
      <path
         id="polyline328"
         style="fill:none;stroke:#343434;stroke-width:1"
         d="M -7.5,15 H 8"
         class="connect" />
      <path
         id="polyline330"
         style="fill:none;stroke:#343434;stroke-width:1"
         d="M -7.5,30 H 8"
         class="connect" />
      <path
         id="polyline332"
         style="fill:none;stroke:#343434;stroke-width:1"
         d="M -7.5,45 H 8"
         class="connect" />
      <path
         id="polyline334"
         style="fill:none;stroke:#343434;stroke-width:1"
         d="M -7.5,60 H 8"
         class="connect" />
      <path
         id="polyline336"
         style="fill:none;stroke:#343434;stroke-width:1"
         d="M -7.5,81 H 8"
         class="connect" />
      <path
         id="polyline338"
         style="fill:none;stroke:#343434;stroke-width:1"
         d="M -7.5,102 H 8"
         class="connect" />
      <path
         id="polyline340"
         style="fill:none;stroke:#343434;stroke-width:1"
         d="M -7.5,123 H 8"
         class="connect" />
      <path
         id="polyline342"
         style="fill:none;stroke:#343434;stroke-width:1"
         d="M -7.5,144 H 8"
         class="connect" />
      <path
         id="rect344"
         style="fill:#121212"
         d="m -3,-1 h 6 c 1.108,0 2,0.892 2,2 v 142 c 0,1.108 -0.892,2 -2,2 h -6 c -1.108,0 -2,-0.892 -2,-2 V 1 c 0,-1.108 0.892,-2 2,-2 z" />
    </g>
  </g>
  <g
     transform="translate(123,29)"
     id="g170">
    <g
       id="use168"
       transform="translate(-6,-8)">
      <g
         transform="translate(6,8)"
         id="g436">
        <g
           transform="translate(0,144)"
           id="g434" />
      </g>
    </g>
  </g>
  <g
     id="use174"
     transform="translate(100,186)">
    <g
       transform="translate(12,12)"
       id="g422" />
  </g>
  <!--g transform="translate(112 228)">
    <use xlink:href="#knob24" transform="translate(-12 -12)"/>
  </g>
  <g transform="translate(112 258)">
    <use xlink:href="#port" transform="translate(-12 -12)"/>
  </g-->
  <g
     id="use178"
     transform="translate(100,276)">
    <g
       transform="translate(12,12)"
       id="g350" />
  </g>
  <path
     id="rect182"
     style="fill:#bbbbbb"
     d="m 100,303 h 24 c 1.662,0 3,1.338 3,3 v 54 c 0,1.662 -1.338,3 -3,3 h -24 c -1.662,0 -3,-1.338 -3,-3 v -54 c 0,-1.662 1.338,-3 3,-3 z"
     class="output" />
  <g
     id="use184"
     transform="translate(100,306)">
    <g
       transform="translate(12,12)"
       id="g426" />
  </g>
  <g
     id="use188"
     transform="translate(100,336)">
    <g
       transform="translate(12,12)"
       id="g430" />
  </g>
</svg>
