<?xml version="1.0" encoding="UTF-8" standalone="no"?>
<svg
   xmlns:dc="http://purl.org/dc/elements/1.1/"
   xmlns:cc="http://creativecommons.org/ns#"
   xmlns:rdf="http://www.w3.org/1999/02/22-rdf-syntax-ns#"
   xmlns:svg="http://www.w3.org/2000/svg"
   xmlns="http://www.w3.org/2000/svg"
   xmlns:xlink="http://www.w3.org/1999/xlink"
   xmlns:sodipodi="http://sodipodi.sourceforge.net/DTD/sodipodi-0.dtd"
   xmlns:inkscape="http://www.inkscape.org/namespaces/inkscape"
   version="1.1"
   width="120"
   height="380"
   viewBox="0 0 120 380"
   id="svg249"
   sodipodi:docname="MIX2.svg"
   inkscape:version="1.0.2 (e86c8708, 2021-01-15)">
  <metadata
     id="metadata253">
    <rdf:RDF>
      <cc:Work
         rdf:about="">
        <dc:format>image/svg+xml</dc:format>
        <dc:type
           rdf:resource="http://purl.org/dc/dcmitype/StillImage" />
      </cc:Work>
    </rdf:RDF>
  </metadata>
  <sodipodi:namedview
     pagecolor="#ffffff"
     bordercolor="#666666"
     borderopacity="1"
     objecttolerance="10"
     gridtolerance="10"
     guidetolerance="10"
     inkscape:pageopacity="0"
     inkscape:pageshadow="2"
     inkscape:window-width="689"
     inkscape:window-height="480"
     id="namedview251"
     showgrid="false"
     inkscape:zoom="2.1763158"
     inkscape:cx="60"
     inkscape:cy="190"
     inkscape:window-x="0"
     inkscape:window-y="25"
     inkscape:window-maximized="0"
     inkscape:current-layer="svg249" />
  <style
     id="style2">
    text.title {
      fill: #a91913;
      font-family: 'DIN Alternate';
      font-size: 12pt;
    }
    text.logo {
      fill: #a91913;
      font-family: 'DIN Alternate';
      font-size: 10pt;
    }
    text.big-label {
      fill: #343434;
      font-family: 'DIN Alternate';
      font-size: 7.5pt;
    }
    text.label {
      fill: #343434;
      font-family: 'DIN Alternate';
      font-size: 6pt;
    }
    .background {
      fill: #e0e0e0;
    }
    .output {
      fill: #bbbbbb;
    }
    polyline.icon {
      stroke: #343434;
      stroke-width: 1.2;
      fill: none;
    }
    polyline.connect {
      stroke: #343434;
      stroke-width: 1;
      fill: none;
    }

    .blueprint {
      stroke: #08f;
      fill: none;
    }
  </style>
  <!-- ======== defs ======== -->
  <defs
     id="defs29">
    <linearGradient
       id="smallKnobMediumGradient">
      <stop
         offset="5%"
         stop-color="#888"
         id="stop4" />
      <stop
         offset="95%"
         stop-color="#333"
         id="stop6" />
    </linearGradient>
    <linearGradient
       id="smallKnobDarkGradient">
      <stop
         offset="5%"
         stop-color="#444"
         id="stop9" />
      <stop
         offset="95%"
         stop-color="#222"
         id="stop11" />
    </linearGradient>
    <symbol
       id="knob24">
      <g
         transform="translate(12 12)"
         id="g20">
        <circle
           r="11.5"
           stroke="#222"
           fill="none"
           id="circle14" />
        <circle
           r="11"
           fill="url('#smallKnobMediumGradient')"
           transform="rotate(90)"
           id="circle16" />
        <circle
           r="10"
           fill="url('#smallKnobDarkGradient')"
           transform="rotate(90)"
           id="circle18" />
      </g>
    </symbol>
    <symbol
       id="port">
      <g
         transform="translate(12 12)"
         id="g23" />
    </symbol>
    <symbol
       id="fader">
      <g
         transform="translate(9 0)"
         id="g26" />
    </symbol>
    <linearGradient
       inkscape:collect="always"
       xlink:href="#smallKnobMediumGradient"
       id="linearGradient355"
       x1="-11"
       y1="-11"
       x2="11"
       y2="-11"
       gradientUnits="userSpaceOnUse" />
    <linearGradient
       inkscape:collect="always"
       xlink:href="#smallKnobDarkGradient"
       id="linearGradient357"
       x1="-10"
       y1="-10"
       x2="10"
       y2="-10"
       gradientUnits="userSpaceOnUse" />
    <linearGradient
       inkscape:collect="always"
       xlink:href="#smallKnobMediumGradient"
       id="linearGradient393"
       x1="-11"
       y1="-11"
       x2="11"
       y2="-11"
       gradientUnits="userSpaceOnUse" />
    <linearGradient
       inkscape:collect="always"
       xlink:href="#smallKnobDarkGradient"
       id="linearGradient395"
       x1="-10"
       y1="-10"
       x2="10"
       y2="-10"
       gradientUnits="userSpaceOnUse" />
  </defs>
  <!-- ======== body ======== -->
  <path
     id="rect31"
     style="fill:#e0e0e0"
     d="M 0,0 H 120 V 380 H 0 Z"
     class="background" />
  <g
     aria-label="MIX2"
     id="text33"
     style="font-size:16px;font-family:'DIN Alternate';text-anchor:middle;fill:#a91913"
     class="title">
    <path
       d="m 44.9375,16 h 1.726562 V 8.8984375 h 0.03125 l 2.382813,5.4687505 h 1.4375 L 52.898437,8.8984375 H 52.9375 V 16 h 1.726562 V 4.609375 H 53.03125 l -3.203125,7.421875 v 0 L 46.5625,4.609375 h -1.625 z"
       style="font-size:16px;font-family:'DIN Alternate';text-anchor:middle;fill:#a91913"
       id="path570" />
    <path
       d="m 57.0625,16 h 1.726562 V 4.609375 H 57.0625 Z"
       style="font-size:16px;font-family:'DIN Alternate';text-anchor:middle;fill:#a91913"
       id="path572" />
    <path
       d="M 64.273437,11.757813 66.765625,16 H 68.71875 L 65.234375,10.164063 68.492187,4.609375 H 66.546875 L 64.273437,8.5625 v 0 L 62,4.609375 H 60.046875 L 63.3125,10.164063 59.828125,16 h 1.945312 l 2.5,-4.242187 z"
       style="font-size:16px;font-family:'DIN Alternate';text-anchor:middle;fill:#a91913"
       id="path574" />
    <path
       d="m 69.09375,16 h 6.492187 v -1.632812 h -4.351562 l 3.664062,-4.5937505 q 0.6875,-0.875 0.6875,-2 Q 75.570312,6.3671875 74.640625,5.453125 73.726562,4.53125 72.257812,4.515625 70.945312,4.53125 70.046875,5.4375 69.15625,6.3671875 69.09375,7.7890625 h 1.625 q 0.08594,-0.78125 0.546875,-1.2109375 0.445312,-0.4296875 1.117187,-0.4296875 0.757813,0.015625 1.171875,0.4921875 0.398438,0.4765625 0.398438,1.1171875 0,0.2421875 -0.0625,0.515625 -0.09375,0.2890625 -0.351563,0.625 L 69.09375,14.460938 Z"
       style="font-size:16px;font-family:'DIN Alternate';text-anchor:middle;fill:#a91913"
       id="path576" />
  </g>
  <g
     aria-label="RM"
     id="text35"
     style="font-size:13.3333px;font-family:'DIN Alternate';text-anchor:middle;fill:#a91913"
     class="logo">
    <path
       d="m 53.326823,367.79036 h 2.252604 q 0.690104,0 1.054688,0.29297 0.462239,0.33203 0.47526,1.07422 0,0.61849 -0.397135,1.04167 -0.403646,0.45573 -1.210938,0.46875 H 53.326823 Z M 51.888021,376 h 1.438802 v -4.05599 h 1.835938 L 57.122396,376 h 1.712239 l -2.20052,-4.21224 q 1.809895,-0.69661 1.835937,-2.63021 -0.03906,-1.3151 -0.94401,-2.02474 -0.748698,-0.625 -1.933594,-0.625 h -3.704427 z"
       style="font-size:13.3333px;font-family:'DIN Alternate';text-anchor:middle;fill:#a91913"
       id="path565" />
    <path
       d="m 60.013021,376 h 1.438802 v -5.91797 h 0.02604 l 1.985677,4.55729 h 1.197916 l 1.985677,-4.55729 h 0.03255 V 376 h 1.438802 v -9.49219 h -1.360677 l -2.669271,6.1849 v 0 l -2.721354,-6.1849 h -1.354167 z"
       style="font-size:13.3333px;font-family:'DIN Alternate';text-anchor:middle;fill:#a91913"
       id="path567" />
  </g>
  <!-- labels -->
  <g
     aria-label="M"
     id="text37"
     style="font-size:8px;font-family:'DIN Alternate';text-anchor:middle;fill:#343434"
     class="label">
    <path
       d="m 5.5703125,200.5 h 0.8632812 v -3.55078 h 0.015625 l 1.1914063,2.73437 h 0.71875 l 1.1914063,-2.73437 h 0.019531 V 200.5 h 0.8632815 v -5.69531 H 9.6171875 l -1.6015625,3.71093 v 0 l -1.6328125,-3.71093 h -0.8125 z"
       style="font-size:8px;font-family:'DIN Alternate';text-anchor:middle;fill:#343434"
       id="path601" />
  </g>
  <g
     aria-label="P"
     id="text41"
     style="font-size:8px;font-family:'DIN Alternate';text-anchor:middle;fill:#343434"
     class="label">
    <path
       d="m 7.0898437,225.62109 h 1.2460938 q 0.3515625,-0.008 0.6171875,0.16016 0.1757813,0.10156 0.2734375,0.27734 0.09375,0.19532 0.09375,0.48047 0,0.34375 -0.2304687,0.625 -0.2421875,0.28906 -0.7226563,0.29688 H 7.0898437 Z M 6.2265625,230.5 h 0.8632812 v -2.22266 h 1.3125001 q 0.8789062,-0.0156 1.3359375,-0.5625 0.4453127,-0.51953 0.4453127,-1.15234 0,-0.46875 -0.175781,-0.8125 Q 9.8398438,225.39453 9.5703125,225.20312 9.25,224.94922 8.9375,224.86719 8.625,224.80469 8.2890625,224.80469 h -2.0625 z"
       style="font-size:8px;font-family:'DIN Alternate';text-anchor:middle;fill:#343434"
       id="path562" />
  </g>
  <g
     aria-label="P"
     id="text45"
     style="font-size:8px;font-family:'DIN Alternate';text-anchor:middle;fill:#343434"
     class="label">
    <path
       d="m 7.0898437,255.62109 h 1.2460938 q 0.3515625,-0.008 0.6171875,0.16016 0.1757813,0.10156 0.2734375,0.27734 0.09375,0.19532 0.09375,0.48047 0,0.34375 -0.2304687,0.625 -0.2421875,0.28906 -0.7226563,0.29688 H 7.0898437 Z M 6.2265625,260.5 h 0.8632812 v -2.22266 h 1.3125001 q 0.8789062,-0.0156 1.3359375,-0.5625 0.4453127,-0.51953 0.4453127,-1.15234 0,-0.46875 -0.175781,-0.8125 Q 9.8398438,255.39453 9.5703125,255.20312 9.25,254.94922 8.9375,254.86719 8.625,254.80469 8.2890625,254.80469 h -2.0625 z"
       style="font-size:8px;font-family:'DIN Alternate';text-anchor:middle;fill:#343434"
       id="path559" />
  </g>
  <g
     aria-label="V"
     id="text49"
     style="font-size:8px;font-family:'DIN Alternate';text-anchor:middle;fill:#343434"
     class="label">
    <path
       d="m 7.6601562,290.5 h 0.6718751 l 1.8828127,-5.69531 H 9.3007813 l -1.296875,4.33593 H 7.9882812 L 6.6953125,284.80469 H 5.78125 Z"
       style="font-size:8px;font-family:'DIN Alternate';text-anchor:middle;fill:#343434"
       id="path556" />
  </g>
  <g
     aria-label="L"
     id="text53"
     style="font-size:8px;font-family:'DIN Alternate';text-anchor:middle;fill:#343434"
     class="label">
    <path
       d="m 6.375,320.5 h 3.636719 v -0.81641 H 7.2382812 v -4.8789 H 6.375 Z"
       style="font-size:8px;font-family:'DIN Alternate';text-anchor:middle;fill:#343434"
       id="path553" />
  </g>
  <g
     aria-label="R"
     id="text57"
     style="font-size:8px;font-family:'DIN Alternate';text-anchor:middle;fill:#343434"
     class="label">
    <path
       d="m 7.0273437,345.57422 h 1.3515626 q 0.4140625,0 0.6328125,0.17578 0.2773437,0.19922 0.2851562,0.64453 0,0.37109 -0.2382812,0.625 -0.2421875,0.27344 -0.7265625,0.28125 H 7.0273437 Z M 6.1640625,350.5 h 0.8632812 v -2.43359 H 8.1289063 L 9.3046875,350.5 h 1.0273435 l -1.3203122,-2.52734 q 1.0859372,-0.41797 1.1015622,-1.57813 -0.02344,-0.78906 -0.566406,-1.21484 -0.4492187,-0.375 -1.1601562,-0.375 H 6.1640625 Z"
       style="font-size:8px;font-family:'DIN Alternate';text-anchor:middle;fill:#343434"
       id="path550" />
  </g>
  <!-- ch1 -->
  <g
     aria-label="CH 1"
     id="text61"
     style="font-size:8px;font-family:'DIN Alternate';text-anchor:middle;fill:#343434"
     class="label">
    <path
       d="m 23.824219,27.40625 q -0.359375,0.777344 -1.085938,0.777344 -0.304687,0 -0.523437,-0.128907 -0.222657,-0.109375 -0.359375,-0.285156 -0.167969,-0.183594 -0.222657,-0.480469 -0.0625,-0.296875 -0.0625,-1.136718 0,-0.839844 0.0625,-1.144532 0.05469,-0.289062 0.222657,-0.472656 0.136718,-0.175781 0.359375,-0.292969 0.21875,-0.113281 0.523437,-0.121093 0.414063,0.0078 0.703125,0.238281 0.277344,0.242187 0.382813,0.585937 h 0.914062 q -0.136719,-0.714843 -0.65625,-1.199218 -0.519531,-0.480469 -1.34375,-0.488282 -0.671875,0.0078 -1.121094,0.320313 -0.457031,0.308594 -0.664062,0.703125 -0.128906,0.207031 -0.191406,0.542969 -0.05859,0.335937 -0.05859,1.328125 0,0.976562 0.05859,1.320312 0.03125,0.183594 0.07813,0.304688 0.05078,0.117187 0.113281,0.246093 0.207031,0.394532 0.664062,0.695313 0.449219,0.3125 1.121094,0.328125 0.742188,0 1.285156,-0.421875 0.527344,-0.425781 0.714844,-1.21875 z"
       style="font-size:8px;font-family:'DIN Alternate';text-anchor:middle;fill:#343434"
       id="path594" />
    <path
       d="m 28.46875,29 h 0.863281 V 23.304687 H 28.46875 v 2.441407 H 26.214844 V 23.304687 H 25.351562 V 29 h 0.863282 v -2.488281 h 2.253906 z"
       style="font-size:8px;font-family:'DIN Alternate';text-anchor:middle;fill:#343434"
       id="path596" />
    <path
       d="M 33.410156,24.167969 V 29 h 0.816406 v -5.695313 h -0.816406 l -0.808594,0.589844 v 0.867188 0 l 0.808594,-0.59375 z"
       style="font-size:8px;font-family:'DIN Alternate';text-anchor:middle;fill:#343434"
       id="path598" />
  </g>
  <g
     id="use65"
     transform="translate(19,36)">
    <g
       transform="translate(9)"
       id="g337" />
  </g>
  <g
     transform="translate(28,37)"
     id="g99">
    <g
       aria-label="6"
       id="text67"
       style="font-size:8px;font-family:'DIN Alternate';fill:#343434"
       class="label">
      <path
         d="m -14.03125,-3.2539063 q 0.0039,0 -0.03906,0.085937 -0.03906,0.082031 -0.109375,0.2265625 -0.07031,0.1445313 -0.164062,0.3320313 -0.09375,0.1875 -0.199219,0.3945312 -0.101562,0.2070313 -0.210937,0.4179688 -0.105469,0.2109375 -0.207032,0.4023438 -0.09766,0.1914062 -0.179687,0.3476562 -0.08203,0.15625 -0.136719,0.25 0.113281,-0.0664063 0.253906,-0.078125 0.144532,-0.015625 0.332032,-0.007813 0.269531,0.007813 0.46875,0.09375 0.203125,0.0859375 0.347656,0.21484375 0.144531,0.12890625 0.238281,0.2890625 0.09766,0.15625 0.152344,0.30859375 0.05469,0.1484375 0.07422,0.28125 0.02344,0.12890625 0.02344,0.203125 0,0.0234375 0,0.0859375 0,0.0625 0,0.140625 0,0.0742188 -0.0039,0.15234375 0,0.078125 -0.0039,0.13281245 -0.0039,0.027344 -0.02734,0.1445313 -0.01953,0.1132812 -0.07813,0.2734375 -0.05469,0.15625 -0.160156,0.3398437 -0.105469,0.1796875 -0.277344,0.3437501 -0.171875,0.1601562 -0.417969,0.2773437 -0.246094,0.1171875 -0.585937,0.1445313 -0.355469,0.03125 -0.628907,-0.046875 Q -15.84375,2.4179688 -16.042969,2.2734375 -16.242187,2.1289063 -16.375,1.9414062 -16.507812,1.75 -16.585937,1.5507812 -16.660156,1.3515625 -16.6875,1.1679687 q -0.02344,-0.1835937 -0.0078,-0.31249995 0.02344,-0.19140625 0.05078,-0.33984375 0.02734,-0.15234375 0.0625,-0.2890625 0.03906,-0.13671875 0.08594,-0.26953125 0.04687,-0.1328125 0.109375,-0.2890625 0.01563,-0.0390625 0.08594,-0.18359375 0.07031,-0.1484375 0.171875,-0.36328125 0.105469,-0.21484375 0.234375,-0.47265625 0.128906,-0.2578125 0.257812,-0.5234375 0.304688,-0.6171875 0.683594,-1.3789063 z m -0.164063,4.1679688 q 0,-0.1484375 -0.01172,-0.328125 -0.01172,-0.1796875 -0.08984,-0.33984375 -0.07422,-0.1640625 -0.246094,-0.28125 -0.171875,-0.1171875 -0.488281,-0.140625 -0.148438,-0.0117188 -0.269531,0.03125 -0.121094,0.0429687 -0.214844,0.1171875 -0.09375,0.07421875 -0.164063,0.171875 -0.06641,0.09375 -0.113281,0.1875 -0.04297,0.09375 -0.0625,0.17578125 -0.01953,0.078125 -0.01953,0.12109375 0,0.0976563 0.0039,0.21875 0.0039,0.1171875 0.02344,0.23828125 0.02344,0.1171875 0.07422,0.2304687 0.05078,0.109375 0.144532,0.1953125 0.09375,0.085937 0.238281,0.140625 0.148437,0.054687 0.367187,0.054687 0.175782,0.00391 0.304688,-0.042969 0.132812,-0.050781 0.222656,-0.125 0.09375,-0.078125 0.152344,-0.171875 0.05859,-0.09375 0.08984,-0.1835938 0.03516,-0.089844 0.04687,-0.1601562 0.01172,-0.0742188 0.01172,-0.109375 z"
         style="font-size:8px;font-family:'DIN Alternate';fill:#343434"
         id="path512" />
    </g>
    <path
       id="polyline69"
       style="fill:none;stroke:#343434;stroke-width:1"
       d="m -12,0 h 3"
       class="connect" />
    <g
       aria-label="3"
       id="text71"
       style="font-size:8px;font-family:'DIN Alternate';fill:#343434"
       class="label">
      <path
         d="M -15.59375,14.925781 H -15.25 q 0.378906,0 0.625,0.230469 0.25,0.238281 0.257812,0.671875 -0.0078,0.425781 -0.257812,0.65625 -0.246094,0.246094 -0.605469,0.246094 -0.335937,0 -0.539062,-0.183594 -0.199219,-0.175781 -0.308594,-0.460938 h -0.816406 q 0.132812,0.710938 0.582031,1.085938 0.449219,0.375 1.03125,0.375 0.753906,-0.0078 1.234375,-0.480469 0.488281,-0.460937 0.496094,-1.261718 0,-0.359375 -0.152344,-0.6875 -0.160156,-0.328125 -0.519531,-0.5625 0.351562,-0.238282 0.488281,-0.542969 0.117187,-0.304688 0.117187,-0.632813 -0.0078,-0.648437 -0.445312,-1.125 -0.457031,-0.488281 -1.234375,-0.496093 -0.613281,0.0078 -1.054687,0.4375 -0.449219,0.433593 -0.511719,1.066406 h 0.816406 q 0.07813,-0.351563 0.304687,-0.519531 0.214844,-0.167969 0.476563,-0.167969 0.363281,0.0078 0.59375,0.230469 0.230469,0.230468 0.238281,0.589843 0,0.355469 -0.230469,0.578125 -0.230468,0.230469 -0.648437,0.230469 h -0.28125 z"
         style="font-size:8px;font-family:'DIN Alternate';fill:#343434"
         id="path516" />
    </g>
    <path
       id="polyline73"
       style="fill:none;stroke:#343434;stroke-width:1"
       d="m -12,15 h 3"
       class="connect" />
    <g
       aria-label="0"
       id="text75"
       style="font-size:8px;font-family:'DIN Alternate';fill:#343434"
       class="label">
      <path
         d="m -14.28125,30.859375 q -0.02344,0.863281 -0.800781,0.871094 -0.78125,-0.0078 -0.796875,-0.871094 v -2.414063 q 0.01563,-0.855468 0.796875,-0.871093 0.777343,0.01563 0.800781,0.871093 z m -2.414062,0.04687 q 0.0078,0.785156 0.503906,1.210937 0.464843,0.421875 1.109375,0.429688 0.664062,-0.0078 1.128906,-0.429688 0.472656,-0.425781 0.488281,-1.210937 v -2.511719 q -0.01563,-0.789062 -0.488281,-1.214844 -0.464844,-0.421875 -1.128906,-0.421875 -0.644532,0 -1.109375,0.421875 -0.496094,0.425782 -0.503906,1.214844 z"
         style="font-size:8px;font-family:'DIN Alternate';fill:#343434"
         id="path520" />
    </g>
    <path
       id="polyline77"
       style="fill:none;stroke:#343434;stroke-width:1"
       d="m -12,30 h 3"
       class="connect" />
    <g
       aria-label="3"
       id="text79"
       style="font-size:8px;font-family:'DIN Alternate';fill:#343434"
       class="label">
      <path
         d="M -15.59375,44.925781 H -15.25 q 0.378906,0 0.625,0.230469 0.25,0.238281 0.257812,0.671875 -0.0078,0.425781 -0.257812,0.65625 -0.246094,0.246094 -0.605469,0.246094 -0.335937,0 -0.539062,-0.183594 -0.199219,-0.175781 -0.308594,-0.460938 h -0.816406 q 0.132812,0.710938 0.582031,1.085938 0.449219,0.375 1.03125,0.375 0.753906,-0.0078 1.234375,-0.480469 0.488281,-0.460937 0.496094,-1.261719 0,-0.359375 -0.152344,-0.6875 -0.160156,-0.328125 -0.519531,-0.5625 0.351562,-0.238281 0.488281,-0.542968 0.117187,-0.304688 0.117187,-0.632813 -0.0078,-0.648437 -0.445312,-1.125 -0.457031,-0.488281 -1.234375,-0.496094 -0.613281,0.0078 -1.054687,0.4375 -0.449219,0.433594 -0.511719,1.066407 h 0.816406 q 0.07813,-0.351563 0.304687,-0.519532 0.214844,-0.167968 0.476563,-0.167968 0.363281,0.0078 0.59375,0.230468 0.230469,0.230469 0.238281,0.589844 0,0.355469 -0.230469,0.578125 -0.230468,0.230469 -0.648437,0.230469 h -0.28125 z"
         style="font-size:8px;font-family:'DIN Alternate';fill:#343434"
         id="path524" />
    </g>
    <path
       id="polyline81"
       style="fill:none;stroke:#343434;stroke-width:1"
       d="m -12,45 h 3"
       class="connect" />
    <g
       aria-label="6"
       id="text83"
       style="font-size:8px;font-family:'DIN Alternate';fill:#343434"
       class="label">
      <path
         d="m -14.03125,56.746094 q 0.0039,0 -0.03906,0.08594 -0.03906,0.08203 -0.109375,0.226563 -0.07031,0.144531 -0.164062,0.332031 -0.09375,0.1875 -0.199219,0.394531 -0.101562,0.207031 -0.210937,0.417969 -0.105469,0.210937 -0.207032,0.402344 -0.09766,0.191406 -0.179687,0.347656 -0.08203,0.15625 -0.136719,0.25 0.113281,-0.06641 0.253906,-0.07813 0.144532,-0.01563 0.332032,-0.0078 0.269531,0.0078 0.46875,0.09375 0.203125,0.08594 0.347656,0.214844 0.144531,0.128906 0.238281,0.289063 0.09766,0.15625 0.152344,0.308593 0.05469,0.148438 0.07422,0.28125 0.02344,0.128907 0.02344,0.203125 0,0.02344 0,0.08594 0,0.0625 0,0.140625 0,0.07422 -0.0039,0.152344 0,0.07813 -0.0039,0.132812 -0.0039,0.02734 -0.02734,0.144531 -0.01953,0.113282 -0.07813,0.273438 -0.05469,0.15625 -0.160156,0.339844 -0.105469,0.179687 -0.277344,0.34375 -0.171875,0.160156 -0.417969,0.277343 -0.246094,0.117188 -0.585937,0.144532 -0.355469,0.03125 -0.628907,-0.04687 -0.273437,-0.07813 -0.472656,-0.222657 -0.199218,-0.144531 -0.332031,-0.332031 -0.132812,-0.191406 -0.210937,-0.390625 -0.07422,-0.199219 -0.101563,-0.382812 -0.02344,-0.183594 -0.0078,-0.3125 0.02344,-0.191407 0.05078,-0.339844 0.02734,-0.152344 0.0625,-0.289063 0.03906,-0.136718 0.08594,-0.269531 0.04687,-0.132812 0.109375,-0.289062 0.01563,-0.03906 0.08594,-0.183594 0.07031,-0.148438 0.171875,-0.363281 0.105469,-0.214844 0.234375,-0.472657 0.128906,-0.257812 0.257812,-0.523437 0.304688,-0.617188 0.683594,-1.378906 z m -0.164063,4.167968 q 0,-0.148437 -0.01172,-0.328125 -0.01172,-0.179687 -0.08984,-0.339843 -0.07422,-0.164063 -0.246094,-0.28125 -0.171875,-0.117188 -0.488281,-0.140625 -0.148438,-0.01172 -0.269531,0.03125 -0.121094,0.04297 -0.214844,0.117187 -0.09375,0.07422 -0.164063,0.171875 -0.06641,0.09375 -0.113281,0.1875 -0.04297,0.09375 -0.0625,0.175781 -0.01953,0.07813 -0.01953,0.121094 0,0.09766 0.0039,0.21875 0.0039,0.117188 0.02344,0.238281 0.02344,0.117188 0.07422,0.230469 0.05078,0.109375 0.144532,0.195313 0.09375,0.08594 0.238281,0.140625 0.148437,0.05469 0.367187,0.05469 0.175782,0.0039 0.304688,-0.04297 0.132812,-0.05078 0.222656,-0.125 0.09375,-0.07813 0.152344,-0.171875 0.05859,-0.09375 0.08984,-0.183593 0.03516,-0.08984 0.04687,-0.160157 0.01172,-0.07422 0.01172,-0.109375 z"
         style="font-size:8px;font-family:'DIN Alternate';fill:#343434"
         id="path528" />
    </g>
    <path
       id="polyline85"
       style="fill:none;stroke:#343434;stroke-width:1"
       d="m -12,60 h 3"
       class="connect" />
    <g
       aria-label="12"
       id="text87"
       style="font-size:8px;font-family:'DIN Alternate';fill:#343434"
       class="label">
      <path
         d="M -18.949219,78.667969 V 83.5 h 0.816407 v -5.695313 h -0.816407 l -0.808593,0.589844 v 0.867188 0 l 0.808593,-0.59375 z"
         style="font-size:8px;font-family:'DIN Alternate';fill:#343434"
         id="path532" />
      <path
         d="m -16.398437,83.5 h 3.246093 v -0.816406 h -2.175781 l 1.832031,-2.296875 q 0.34375,-0.4375 0.34375,-1 -0.0078,-0.703125 -0.472656,-1.160157 -0.457031,-0.460937 -1.191406,-0.46875 -0.65625,0.0078 -1.105469,0.460938 -0.445312,0.464844 -0.476562,1.175781 h 0.812499 q 0.04297,-0.390625 0.273438,-0.605469 0.222656,-0.214843 0.558594,-0.214843 0.378906,0.0078 0.585937,0.246093 0.199219,0.238282 0.199219,0.558594 0,0.121094 -0.03125,0.257813 -0.04687,0.144531 -0.175781,0.3125 l -2.222656,2.78125 z"
         style="font-size:8px;font-family:'DIN Alternate';fill:#343434"
         id="path534" />
    </g>
    <path
       id="polyline89"
       style="fill:none;stroke:#343434;stroke-width:1"
       d="m -12,81 h 3"
       class="connect" />
    <g
       aria-label="24"
       id="text91"
       style="font-size:8px;font-family:'DIN Alternate';fill:#343434"
       class="label">
      <path
         d="m -20.242187,104.5 h 3.246093 v -0.81641 h -2.175781 l 1.832031,-2.29687 q 0.34375,-0.4375 0.34375,-1 -0.0078,-0.703126 -0.472656,-1.160158 -0.457031,-0.460937 -1.191406,-0.46875 -0.65625,0.0078 -1.105469,0.460938 -0.445312,0.464844 -0.476562,1.17578 h 0.8125 q 0.04297,-0.39062 0.273437,-0.605468 0.222656,-0.214843 0.558594,-0.214843 0.378906,0.0078 0.585937,0.246093 0.199219,0.238278 0.199219,0.558598 0,0.12109 -0.03125,0.25781 -0.04687,0.14453 -0.175781,0.3125 l -2.222656,2.78125 z"
         style="font-size:8px;font-family:'DIN Alternate';fill:#343434"
         id="path538" />
      <path
         d="m -16.558594,103.65234 h 2.375 V 104.5 h 0.816406 v -0.84766 h 0.453125 v -0.76953 h -0.453125 v -1.63672 h -0.816406 v 1.63672 h -1.488281 l 1.925781,-4.078123 h -0.910156 l -1.902344,4.078123 z"
         style="font-size:8px;font-family:'DIN Alternate';fill:#343434"
         id="path540" />
    </g>
    <path
       id="polyline93"
       style="fill:none;stroke:#343434;stroke-width:1"
       d="m -12,102 h 3"
       class="connect" />
    <g
       aria-label="48"
       id="text95"
       style="font-size:8px;font-family:'DIN Alternate';fill:#343434"
       class="label">
      <path
         d="m -20.402344,124.65234 h 2.375 V 125.5 h 0.816407 v -0.84766 h 0.453125 v -0.76953 h -0.453125 v -1.63672 h -0.816407 v 1.63672 h -1.488281 l 1.925781,-4.07812 H -18.5 l -1.902344,4.07812 z"
         style="font-size:8px;font-family:'DIN Alternate';fill:#343434"
         id="path544" />
      <path
         d="m -15.550781,121.38672 q 0.0078,-0.40625 0.253906,-0.61328 0.242187,-0.19922 0.558594,-0.19922 0.328125,0 0.570312,0.19922 0.238281,0.20703 0.246094,0.61328 -0.0078,0.39453 -0.246094,0.60156 -0.242187,0.21485 -0.570312,0.21485 -0.316407,0 -0.558594,-0.21485 -0.246094,-0.20703 -0.253906,-0.60156 z m -0.921875,2.44922 q 0.0078,0.76953 0.519531,1.23047 0.488281,0.47265 1.214844,0.48047 0.730468,-0.008 1.234375,-0.48047 0.496093,-0.46094 0.503906,-1.23047 -0.0078,-0.82422 -0.671875,-1.28125 0.253906,-0.22266 0.414062,-0.51172 0.152344,-0.26953 0.152344,-0.64063 -0.0078,-0.71093 -0.464844,-1.17578 -0.453125,-0.46093 -1.167968,-0.46875 -0.703125,0.008 -1.148438,0.46875 -0.472656,0.46485 -0.480468,1.17578 0,0.3711 0.167968,0.64063 0.144532,0.28906 0.398438,0.51172 -0.664063,0.45703 -0.671875,1.28125 z m 0.816406,-0.008 q 0.0078,-0.39844 0.28125,-0.64844 0.261719,-0.2461 0.636719,-0.25391 0.386718,0.008 0.648437,0.25391 0.265625,0.25 0.273438,0.64844 -0.0078,0.39062 -0.273438,0.64062 -0.261719,0.26172 -0.648437,0.26172 -0.375,0 -0.636719,-0.26172 -0.273438,-0.25 -0.28125,-0.64062 z"
         style="font-size:8px;font-family:'DIN Alternate';fill:#343434"
         id="path546" />
    </g>
    <path
       id="polyline97"
       style="fill:none;stroke:#343434;stroke-width:1"
       d="m -12,123 h 3"
       class="connect" />
  </g>
  <g
     id="use103"
     transform="translate(16,186)">
    <g
       transform="translate(12,12)"
       id="g341" />
  </g>
  <g
     id="use107"
     transform="translate(16,216)">
    <g
       transform="translate(12,12)"
       id="g351">
      <path
         id="circle345"
         style="fill:none;stroke:#222222"
         d="M 11.5,0 A 11.5,11.5 0 0 1 0,11.5 11.5,11.5 0 0 1 -11.5,0 11.5,11.5 0 0 1 0,-11.5 11.5,11.5 0 0 1 11.5,0 Z" />
      <path
         id="circle347"
         style="fill:url(#linearGradient355)"
         transform="rotate(90)"
         d="M 11,0 A 11,11 0 0 1 0,11 11,11 0 0 1 -11,0 11,11 0 0 1 0,-11 11,11 0 0 1 11,0 Z" />
      <path
         id="circle349"
         style="fill:url(#linearGradient357)"
         transform="rotate(90)"
         d="M 10,0 A 10,10 0 0 1 0,10 10,10 0 0 1 -10,0 10,10 0 0 1 0,-10 10,10 0 0 1 10,0 Z" />
    </g>
  </g>
  <g
     id="use111"
     transform="translate(16,246)">
    <g
       transform="translate(12,12)"
       id="g359" />
  </g>
  <g
     id="use115"
     transform="translate(16,276)">
    <g
       transform="translate(12,12)"
       id="g363" />
  </g>
  <g
     id="use119"
     transform="translate(16,306)">
    <g
       transform="translate(12,12)"
       id="g367" />
  </g>
  <g
     id="use123"
     transform="translate(16,336)">
    <g
       transform="translate(12,12)"
       id="g371" />
  </g>
  <!-- ch2 -->
  <g
     aria-label="CH 2"
     id="text127"
     style="font-size:8px;font-family:'DIN Alternate';text-anchor:middle;fill:#343434"
     class="label">
    <path
       d="m 59.824219,27.40625 q -0.359375,0.777344 -1.085938,0.777344 -0.304687,0 -0.523437,-0.128907 -0.222657,-0.109375 -0.359375,-0.285156 -0.167969,-0.183594 -0.222657,-0.480469 -0.0625,-0.296875 -0.0625,-1.136718 0,-0.839844 0.0625,-1.144532 0.05469,-0.289062 0.222657,-0.472656 0.136718,-0.175781 0.359375,-0.292969 0.21875,-0.113281 0.523437,-0.121093 0.414063,0.0078 0.703125,0.238281 0.277344,0.242187 0.382813,0.585937 h 0.914062 q -0.136719,-0.714843 -0.65625,-1.199218 -0.519531,-0.480469 -1.34375,-0.488282 -0.671875,0.0078 -1.121094,0.320313 -0.457031,0.308594 -0.664062,0.703125 -0.128906,0.207031 -0.191406,0.542969 -0.05859,0.335937 -0.05859,1.328125 0,0.976562 0.05859,1.320312 0.03125,0.183594 0.07813,0.304688 0.05078,0.117187 0.113281,0.246093 0.207031,0.394532 0.664062,0.695313 0.449219,0.3125 1.121094,0.328125 0.742188,0 1.285156,-0.421875 0.527344,-0.425781 0.714844,-1.21875 z"
       style="font-size:8px;font-family:'DIN Alternate';text-anchor:middle;fill:#343434"
       id="path587" />
    <path
       d="m 64.46875,29 h 0.863281 V 23.304687 H 64.46875 v 2.441407 H 62.214844 V 23.304687 H 61.351562 V 29 h 0.863282 v -2.488281 h 2.253906 z"
       style="font-size:8px;font-family:'DIN Alternate';text-anchor:middle;fill:#343434"
       id="path589" />
    <path
       d="m 68.117187,29 h 3.246094 V 28.183594 H 69.1875 l 1.832031,-2.296875 q 0.34375,-0.4375 0.34375,-1 -0.0078,-0.703125 -0.472656,-1.160157 -0.457031,-0.460937 -1.191406,-0.46875 -0.65625,0.0078 -1.105469,0.460938 -0.445313,0.464844 -0.476563,1.175781 h 0.8125 q 0.04297,-0.390625 0.273438,-0.605469 0.222656,-0.214843 0.558594,-0.214843 0.378906,0.0078 0.585937,0.246093 0.199219,0.238282 0.199219,0.558594 0,0.121094 -0.03125,0.257813 -0.04687,0.144531 -0.175781,0.3125 l -2.222657,2.78125 z"
       style="font-size:8px;font-family:'DIN Alternate';text-anchor:middle;fill:#343434"
       id="path591" />
  </g>
  <g
     id="use131"
     transform="translate(55,36)">
    <g
       transform="translate(9)"
       id="g375" />
  </g>
  <g
     aria-label="6"
     id="text133"
     style="font-size:8px;font-family:'DIN Alternate';fill:#343434"
     class="label">
    <path
       d="m 49.96875,32.746094 q 0.0039,0 -0.03906,0.08594 -0.03906,0.08203 -0.109375,0.226563 -0.07031,0.144531 -0.164062,0.332031 -0.09375,0.1875 -0.199219,0.394531 -0.101562,0.207031 -0.210937,0.417969 -0.105469,0.210937 -0.207032,0.402344 -0.09766,0.191406 -0.179687,0.347656 -0.08203,0.15625 -0.136719,0.25 0.113281,-0.06641 0.253906,-0.07813 0.144532,-0.01563 0.332032,-0.0078 0.269531,0.0078 0.46875,0.09375 0.203125,0.08594 0.347656,0.214844 0.144531,0.128906 0.238281,0.289063 0.09766,0.15625 0.152344,0.308593 0.05469,0.148438 0.07422,0.28125 0.02344,0.128907 0.02344,0.203125 0,0.02344 0,0.08594 0,0.0625 0,0.140625 0,0.07422 -0.0039,0.152344 0,0.07813 -0.0039,0.132812 -0.0039,0.02734 -0.02734,0.144531 -0.01953,0.113282 -0.07813,0.273438 -0.05469,0.15625 -0.160156,0.339844 -0.105469,0.179687 -0.277344,0.34375 -0.171875,0.160156 -0.417969,0.277343 -0.246094,0.117188 -0.585937,0.144532 -0.355469,0.03125 -0.628907,-0.04687 Q 48.15625,38.417969 47.957031,38.273437 47.757812,38.128906 47.625,37.941406 47.492187,37.75 47.414062,37.550781 47.339844,37.351562 47.3125,37.167969 q -0.02344,-0.183594 -0.0078,-0.3125 0.02344,-0.191407 0.05078,-0.339844 0.02734,-0.152344 0.0625,-0.289063 0.03906,-0.136718 0.08594,-0.269531 0.04687,-0.132812 0.109375,-0.289062 0.01563,-0.03906 0.08594,-0.183594 0.07031,-0.148438 0.171875,-0.363281 0.105468,-0.214844 0.234375,-0.472657 0.128906,-0.257812 0.257812,-0.523437 0.304688,-0.617188 0.683594,-1.378906 z m -0.164063,4.167968 q 0,-0.148437 -0.01172,-0.328125 -0.01172,-0.179687 -0.08984,-0.339843 -0.07422,-0.164063 -0.246094,-0.28125 -0.171875,-0.117188 -0.488281,-0.140625 -0.148438,-0.01172 -0.269531,0.03125 -0.121094,0.04297 -0.214844,0.117187 -0.09375,0.07422 -0.164063,0.171875 -0.06641,0.09375 -0.113281,0.1875 -0.04297,0.09375 -0.0625,0.175781 -0.01953,0.07813 -0.01953,0.121094 0,0.09766 0.0039,0.21875 0.0039,0.117188 0.02344,0.238281 0.02344,0.117188 0.07422,0.230469 0.05078,0.109375 0.144532,0.195313 0.09375,0.08594 0.238281,0.140625 0.148437,0.05469 0.367187,0.05469 0.175782,0.0039 0.304688,-0.04297 0.132812,-0.05078 0.222656,-0.125 0.09375,-0.07813 0.152344,-0.171875 0.05859,-0.09375 0.08984,-0.183593 0.03516,-0.08984 0.04687,-0.160157 0.01172,-0.07422 0.01172,-0.109375 z"
       style="font-size:8px;font-family:'DIN Alternate';fill:#343434"
       id="path506" />
  </g>
  <path
     id="polyline135"
     transform="translate(64,36)"
     style="fill:none;stroke:#343434;stroke-width:1"
     d="m -12,0 h 3"
     class="connect" />
  <g
     aria-label="3"
     id="text137"
     style="font-size:8px;font-family:'DIN Alternate';fill:#343434"
     class="label">
    <path
       d="M 48.40625,50.925781 H 48.75 q 0.378906,0 0.625,0.230469 0.25,0.238281 0.257812,0.671875 -0.0078,0.425781 -0.257812,0.65625 -0.246094,0.246094 -0.605469,0.246094 -0.335937,0 -0.539062,-0.183594 -0.199219,-0.175781 -0.308594,-0.460938 h -0.816406 q 0.132812,0.710938 0.582031,1.085938 0.449219,0.375 1.03125,0.375 0.753906,-0.0078 1.234375,-0.480469 0.488281,-0.460937 0.496094,-1.261719 0,-0.359375 -0.152344,-0.6875 -0.160156,-0.328125 -0.519531,-0.5625 0.351562,-0.238281 0.488281,-0.542968 0.117187,-0.304688 0.117187,-0.632813 -0.0078,-0.648437 -0.445312,-1.125 -0.457031,-0.488281 -1.234375,-0.496094 -0.613281,0.0078 -1.054688,0.4375 -0.449218,0.433594 -0.511718,1.066407 h 0.816406 q 0.07813,-0.351563 0.304687,-0.519532 0.214844,-0.167968 0.476563,-0.167968 0.363281,0.0078 0.59375,0.230468 0.230469,0.230469 0.238281,0.589844 0,0.355469 -0.230469,0.578125 -0.230468,0.230469 -0.648437,0.230469 h -0.28125 z"
       style="font-size:8px;font-family:'DIN Alternate';fill:#343434"
       id="path502" />
  </g>
  <path
     id="polyline139"
     transform="translate(64,36)"
     style="fill:none;stroke:#343434;stroke-width:1"
     d="m -12,15 h 3"
     class="connect" />
  <g
     aria-label="0"
     id="text141"
     style="font-size:8px;font-family:'DIN Alternate';fill:#343434"
     class="label">
    <path
       d="m 49.71875,66.859375 q -0.02344,0.863281 -0.800781,0.871094 -0.78125,-0.0078 -0.796875,-0.871094 v -2.414063 q 0.01563,-0.855468 0.796875,-0.871093 0.777343,0.01563 0.800781,0.871093 z m -2.414063,0.04687 q 0.0078,0.785156 0.503907,1.210937 0.464843,0.421875 1.109375,0.429688 0.664062,-0.0078 1.128906,-0.429688 0.472656,-0.425781 0.488281,-1.210937 v -2.511719 q -0.01563,-0.789062 -0.488281,-1.214844 -0.464844,-0.421875 -1.128906,-0.421875 -0.644532,0 -1.109375,0.421875 -0.496094,0.425782 -0.503907,1.214844 z"
       style="font-size:8px;font-family:'DIN Alternate';fill:#343434"
       id="path498" />
  </g>
  <path
     id="polyline143"
     transform="translate(64,36)"
     style="fill:none;stroke:#343434;stroke-width:1"
     d="m -12,30 h 3"
     class="connect" />
  <g
     aria-label="3"
     id="text145"
     style="font-size:8px;font-family:'DIN Alternate';fill:#343434"
     class="label">
    <path
       d="M 48.40625,80.925781 H 48.75 q 0.378906,0 0.625,0.230469 0.25,0.238281 0.257812,0.671875 -0.0078,0.425781 -0.257812,0.65625 -0.246094,0.246094 -0.605469,0.246094 -0.335937,0 -0.539062,-0.183594 -0.199219,-0.175781 -0.308594,-0.460938 h -0.816406 q 0.132812,0.710938 0.582031,1.085938 0.449219,0.375 1.03125,0.375 0.753906,-0.0078 1.234375,-0.480469 0.488281,-0.460937 0.496094,-1.261719 0,-0.359375 -0.152344,-0.6875 -0.160156,-0.328125 -0.519531,-0.5625 0.351562,-0.238281 0.488281,-0.542968 0.117187,-0.304688 0.117187,-0.632813 -0.0078,-0.648437 -0.445312,-1.125 -0.457031,-0.488281 -1.234375,-0.496094 -0.613281,0.0078 -1.054688,0.4375 -0.449218,0.433594 -0.511718,1.066407 h 0.816406 q 0.07813,-0.351563 0.304687,-0.519532 0.214844,-0.167968 0.476563,-0.167968 0.363281,0.0078 0.59375,0.230468 0.230469,0.230469 0.238281,0.589844 0,0.355469 -0.230469,0.578125 -0.230468,0.230469 -0.648437,0.230469 h -0.28125 z"
       style="font-size:8px;font-family:'DIN Alternate';fill:#343434"
       id="path494" />
  </g>
  <path
     id="polyline147"
     transform="translate(64,36)"
     style="fill:none;stroke:#343434;stroke-width:1"
     d="m -12,45 h 3"
     class="connect" />
  <g
     aria-label="6"
     id="text149"
     style="font-size:8px;font-family:'DIN Alternate';fill:#343434"
     class="label">
    <path
       d="m 49.96875,92.746094 q 0.0039,0 -0.03906,0.08594 -0.03906,0.08203 -0.109375,0.226563 -0.07031,0.144531 -0.164062,0.332031 -0.09375,0.1875 -0.199219,0.394531 -0.101562,0.207031 -0.210937,0.417969 -0.105469,0.210937 -0.207032,0.402344 -0.09766,0.191406 -0.179687,0.347656 -0.08203,0.15625 -0.136719,0.25 0.113281,-0.06641 0.253906,-0.07813 0.144532,-0.01563 0.332032,-0.0078 0.269531,0.0078 0.46875,0.09375 0.203125,0.08594 0.347656,0.214844 0.144531,0.128906 0.238281,0.289063 0.09766,0.15625 0.152344,0.308593 0.05469,0.148438 0.07422,0.28125 0.02344,0.128907 0.02344,0.203125 0,0.02344 0,0.08594 0,0.0625 0,0.140625 0,0.07422 -0.0039,0.152344 0,0.07813 -0.0039,0.132812 -0.0039,0.02734 -0.02734,0.144531 -0.01953,0.113282 -0.07813,0.273438 -0.05469,0.15625 -0.160156,0.339844 -0.105469,0.179687 -0.277344,0.34375 -0.171875,0.160156 -0.417969,0.277343 -0.246094,0.117188 -0.585937,0.144532 -0.355469,0.03125 -0.628907,-0.04687 Q 48.15625,98.417969 47.957031,98.273437 47.757812,98.128906 47.625,97.941406 47.492187,97.75 47.414062,97.550781 47.339844,97.351562 47.3125,97.167969 q -0.02344,-0.183594 -0.0078,-0.3125 0.02344,-0.191407 0.05078,-0.339844 0.02734,-0.152344 0.0625,-0.289063 0.03906,-0.136718 0.08594,-0.269531 0.04687,-0.132812 0.109375,-0.289062 0.01563,-0.03906 0.08594,-0.183594 0.07031,-0.148438 0.171875,-0.363281 0.105468,-0.214844 0.234375,-0.472657 0.128906,-0.257812 0.257812,-0.523437 0.304688,-0.617188 0.683594,-1.378906 z m -0.164063,4.167968 q 0,-0.148437 -0.01172,-0.328125 -0.01172,-0.179687 -0.08984,-0.339843 -0.07422,-0.164063 -0.246094,-0.28125 -0.171875,-0.117188 -0.488281,-0.140625 -0.148438,-0.01172 -0.269531,0.03125 -0.121094,0.04297 -0.214844,0.117187 -0.09375,0.07422 -0.164063,0.171875 -0.06641,0.09375 -0.113281,0.1875 -0.04297,0.09375 -0.0625,0.175781 -0.01953,0.07813 -0.01953,0.121094 0,0.09766 0.0039,0.21875 0.0039,0.117188 0.02344,0.238281 0.02344,0.117188 0.07422,0.230469 0.05078,0.109375 0.144532,0.195313 0.09375,0.08594 0.238281,0.140625 0.148437,0.05469 0.367187,0.05469 0.175782,0.0039 0.304688,-0.04297 0.132812,-0.05078 0.222656,-0.125 0.09375,-0.07813 0.152344,-0.171875 0.05859,-0.09375 0.08984,-0.183593 0.03516,-0.08984 0.04687,-0.160157 0.01172,-0.07422 0.01172,-0.109375 z"
       style="font-size:8px;font-family:'DIN Alternate';fill:#343434"
       id="path490" />
  </g>
  <path
     id="polyline151"
     transform="translate(64,36)"
     style="fill:none;stroke:#343434;stroke-width:1"
     d="m -12,60 h 3"
     class="connect" />
  <g
     aria-label="12"
     id="text153"
     style="font-size:8px;font-family:'DIN Alternate';fill:#343434"
     class="label">
    <path
       d="M 45.050781,114.66797 V 119.5 h 0.816406 v -5.69531 h -0.816406 l -0.808594,0.58984 v 0.86719 0 l 0.808594,-0.59375 z"
       style="font-size:8px;font-family:'DIN Alternate';fill:#343434"
       id="path484" />
    <path
       d="m 47.601562,119.5 h 3.246094 v -0.81641 h -2.175781 l 1.832031,-2.29687 q 0.34375,-0.4375 0.34375,-1 -0.0078,-0.70313 -0.472656,-1.16016 -0.457031,-0.46093 -1.191406,-0.46875 -0.65625,0.008 -1.105469,0.46094 -0.445313,0.46484 -0.476563,1.17578 h 0.8125 q 0.04297,-0.39062 0.273438,-0.60547 0.222656,-0.21484 0.558594,-0.21484 0.378906,0.008 0.585937,0.24609 0.199219,0.23828 0.199219,0.5586 0,0.12109 -0.03125,0.25781 -0.04687,0.14453 -0.175781,0.3125 l -2.222657,2.78125 z"
       style="font-size:8px;font-family:'DIN Alternate';fill:#343434"
       id="path486" />
  </g>
  <path
     id="polyline155"
     transform="translate(64,36)"
     style="fill:none;stroke:#343434;stroke-width:1"
     d="m -12,81 h 3"
     class="connect" />
  <g
     aria-label="24"
     id="text157"
     style="font-size:8px;font-family:'DIN Alternate';fill:#343434"
     class="label">
    <path
       d="m 43.757812,140.5 h 3.246094 v -0.81641 h -2.175781 l 1.832031,-2.29687 q 0.34375,-0.4375 0.34375,-1 -0.0078,-0.70313 -0.472656,-1.16016 -0.457031,-0.46094 -1.191406,-0.46875 -0.65625,0.008 -1.105469,0.46094 -0.445313,0.46484 -0.476563,1.17578 h 0.8125 q 0.04297,-0.39062 0.273438,-0.60547 0.222656,-0.21484 0.558594,-0.21484 0.378906,0.008 0.585937,0.24609 0.199219,0.23828 0.199219,0.5586 0,0.12109 -0.03125,0.25781 -0.04687,0.14453 -0.175781,0.3125 l -2.222657,2.78125 z"
       style="font-size:8px;font-family:'DIN Alternate';fill:#343434"
       id="path478" />
    <path
       d="m 47.441406,139.65234 h 2.375 V 140.5 h 0.816406 v -0.84766 h 0.453125 v -0.76953 h -0.453125 v -1.63672 h -0.816406 v 1.63672 h -1.488281 l 1.925781,-4.07812 H 49.34375 l -1.902344,4.07812 z"
       style="font-size:8px;font-family:'DIN Alternate';fill:#343434"
       id="path480" />
  </g>
  <path
     id="polyline159"
     transform="translate(64,36)"
     style="fill:none;stroke:#343434;stroke-width:1"
     d="m -12,102 h 3"
     class="connect" />
  <g
     aria-label="48"
     id="text161"
     style="font-size:8px;font-family:'DIN Alternate';fill:#343434"
     class="label">
    <path
       d="m 43.597656,160.65234 h 2.375 V 161.5 h 0.816406 v -0.84766 h 0.453125 v -0.76953 h -0.453125 v -1.63672 h -0.816406 v 1.63672 h -1.488281 l 1.925781,-4.07812 H 45.5 l -1.902344,4.07812 z"
       style="font-size:8px;font-family:'DIN Alternate';fill:#343434"
       id="path472" />
    <path
       d="m 48.449219,157.38672 q 0.0078,-0.40625 0.253906,-0.61328 0.242187,-0.19922 0.558594,-0.19922 0.328125,0 0.570312,0.19922 0.238281,0.20703 0.246094,0.61328 -0.0078,0.39453 -0.246094,0.60156 -0.242187,0.21484 -0.570312,0.21484 -0.316407,0 -0.558594,-0.21484 -0.246094,-0.20703 -0.253906,-0.60156 z m -0.921875,2.44922 q 0.0078,0.76953 0.519531,1.23047 0.488281,0.47265 1.214844,0.48046 0.730468,-0.008 1.234375,-0.48046 0.496093,-0.46094 0.503906,-1.23047 -0.0078,-0.82422 -0.671875,-1.28125 0.253906,-0.22266 0.414062,-0.51172 0.152344,-0.26953 0.152344,-0.64063 -0.0078,-0.71093 -0.464844,-1.17578 -0.453125,-0.46094 -1.167968,-0.46875 -0.703125,0.008 -1.148438,0.46875 -0.472656,0.46485 -0.480469,1.17578 0,0.3711 0.167969,0.64063 0.144531,0.28906 0.398438,0.51172 -0.664063,0.45703 -0.671875,1.28125 z m 0.816406,-0.008 q 0.0078,-0.39843 0.28125,-0.64843 0.261719,-0.2461 0.636719,-0.25391 0.386718,0.008 0.648437,0.25391 0.265625,0.25 0.273438,0.64843 -0.0078,0.39063 -0.273438,0.64063 -0.261719,0.26172 -0.648437,0.26172 -0.375,0 -0.636719,-0.26172 -0.273438,-0.25 -0.28125,-0.64063 z"
       style="font-size:8px;font-family:'DIN Alternate';fill:#343434"
       id="path474" />
  </g>
  <path
     id="polyline163"
     transform="translate(64,36)"
     style="fill:none;stroke:#343434;stroke-width:1"
     d="m -12,123 h 3"
     class="connect" />
  <g
     id="use167"
     transform="translate(52,186)">
    <g
       transform="translate(12,12)"
       id="g379" />
  </g>
  <g
     id="use171"
     transform="translate(52,216)">
    <g
       transform="translate(12,12)"
       id="g389">
      <path
         id="circle383"
         style="fill:none;stroke:#222222"
         d="M 11.5,0 A 11.5,11.5 0 0 1 0,11.5 11.5,11.5 0 0 1 -11.5,0 11.5,11.5 0 0 1 0,-11.5 11.5,11.5 0 0 1 11.5,0 Z" />
      <path
         id="circle385"
         style="fill:url(#linearGradient393)"
         transform="rotate(90)"
         d="M 11,0 A 11,11 0 0 1 0,11 11,11 0 0 1 -11,0 11,11 0 0 1 0,-11 11,11 0 0 1 11,0 Z" />
      <path
         id="circle387"
         style="fill:url(#linearGradient395)"
         transform="rotate(90)"
         d="M 10,0 A 10,10 0 0 1 0,10 10,10 0 0 1 -10,0 10,10 0 0 1 0,-10 10,10 0 0 1 10,0 Z" />
    </g>
  </g>
  <g
     id="use175"
     transform="translate(52,246)">
    <g
       transform="translate(12,12)"
       id="g397" />
  </g>
  <g
     id="use179"
     transform="translate(52,276)">
    <g
       transform="translate(12,12)"
       id="g401" />
  </g>
  <g
     id="use183"
     transform="translate(52,306)">
    <g
       transform="translate(12,12)"
       id="g405" />
  </g>
  <g
     id="use187"
     transform="translate(52,336)">
    <g
       transform="translate(12,12)"
       id="g409" />
  </g>
  <!-- mix -->
  <g
     aria-label="MIX"
     id="text191"
     style="font-size:8px;font-family:'DIN Alternate';text-anchor:middle;fill:#343434"
     class="label">
    <path
       d="m 94.390625,29 h 0.863281 v -3.550781 h 0.01563 l 1.191406,2.734375 h 0.71875 l 1.191407,-2.734375 h 0.01953 V 29 h 0.863281 V 23.304687 H 98.4375 l -1.601563,3.710938 v 0 l -1.632812,-3.710938 h -0.8125 z"
       style="font-size:8px;font-family:'DIN Alternate';text-anchor:middle;fill:#343434"
       id="path580" />
    <path
       d="m 100.45313,29 h 0.86328 v -5.695313 h -0.86328 z"
       style="font-size:8px;font-family:'DIN Alternate';text-anchor:middle;fill:#343434"
       id="path582" />
    <path
       d="M 104.05859,26.878906 105.30469,29 h 0.97656 l -1.74219,-2.917969 1.62891,-2.777344 h -0.97266 l -1.13672,1.976563 v 0 l -1.13671,-1.976563 h -0.97657 l 1.63282,2.777344 L 101.83594,29 h 0.97265 l 1.25,-2.121094 z"
       style="font-size:8px;font-family:'DIN Alternate';text-anchor:middle;fill:#343434"
       id="path584" />
  </g>
  <g
     id="use195"
     transform="translate(91,36)">
    <g
       transform="translate(9)"
       id="g413" />
  </g>
  <g
     aria-label="6"
     id="text197"
     style="font-size:8px;font-family:'DIN Alternate';fill:#343434"
     class="label">
    <path
       d="m 85.96875,32.746094 q 0.0039,0 -0.03906,0.08594 -0.03906,0.08203 -0.109375,0.226563 -0.07031,0.144531 -0.164062,0.332031 -0.09375,0.1875 -0.199219,0.394531 -0.101562,0.207031 -0.210937,0.417969 -0.105469,0.210937 -0.207032,0.402344 -0.09766,0.191406 -0.179687,0.347656 -0.08203,0.15625 -0.136719,0.25 0.113281,-0.06641 0.253906,-0.07813 0.144532,-0.01563 0.332032,-0.0078 0.269531,0.0078 0.46875,0.09375 0.203125,0.08594 0.347656,0.214844 0.144531,0.128906 0.238281,0.289063 0.09766,0.15625 0.152344,0.308593 0.05469,0.148438 0.07422,0.28125 0.02344,0.128907 0.02344,0.203125 0,0.02344 0,0.08594 0,0.0625 0,0.140625 0,0.07422 -0.0039,0.152344 0,0.07813 -0.0039,0.132812 -0.0039,0.02734 -0.02734,0.144531 -0.01953,0.113282 -0.07813,0.273438 -0.05469,0.15625 -0.160156,0.339844 -0.105469,0.179687 -0.277344,0.34375 -0.171875,0.160156 -0.417969,0.277343 -0.246094,0.117188 -0.585937,0.144532 -0.355469,0.03125 -0.628907,-0.04687 Q 84.15625,38.417969 83.957031,38.273437 83.757812,38.128906 83.625,37.941406 83.492187,37.75 83.414062,37.550781 83.339844,37.351562 83.3125,37.167969 q -0.02344,-0.183594 -0.0078,-0.3125 0.02344,-0.191407 0.05078,-0.339844 0.02734,-0.152344 0.0625,-0.289063 0.03906,-0.136718 0.08594,-0.269531 0.04687,-0.132812 0.109375,-0.289062 0.01563,-0.03906 0.08594,-0.183594 0.07031,-0.148438 0.171875,-0.363281 0.105468,-0.214844 0.234375,-0.472657 0.128906,-0.257812 0.257812,-0.523437 0.304688,-0.617188 0.683594,-1.378906 z m -0.164063,4.167968 q 0,-0.148437 -0.01172,-0.328125 -0.01172,-0.179687 -0.08984,-0.339843 -0.07422,-0.164063 -0.246094,-0.28125 -0.171875,-0.117188 -0.488281,-0.140625 -0.148438,-0.01172 -0.269531,0.03125 -0.121094,0.04297 -0.214844,0.117187 -0.09375,0.07422 -0.164063,0.171875 -0.06641,0.09375 -0.113281,0.1875 -0.04297,0.09375 -0.0625,0.175781 -0.01953,0.07813 -0.01953,0.121094 0,0.09766 0.0039,0.21875 0.0039,0.117188 0.02344,0.238281 0.02344,0.117188 0.07422,0.230469 0.05078,0.109375 0.144532,0.195313 0.09375,0.08594 0.238281,0.140625 0.148437,0.05469 0.367187,0.05469 0.175782,0.0039 0.304688,-0.04297 0.132812,-0.05078 0.222656,-0.125 0.09375,-0.07813 0.152344,-0.171875 0.05859,-0.09375 0.08984,-0.183593 0.03516,-0.08984 0.04687,-0.160157 0.01172,-0.07422 0.01172,-0.109375 z"
       style="font-size:8px;font-family:'DIN Alternate';fill:#343434"
       id="path465" />
  </g>
  <path
     id="polyline199"
     transform="translate(100,36)"
     style="fill:none;stroke:#343434;stroke-width:1"
     d="m -12,0 h 3"
     class="connect" />
  <g
     aria-label="3"
     id="text201"
     style="font-size:8px;font-family:'DIN Alternate';fill:#343434"
     class="label">
    <path
       d="M 84.40625,50.925781 H 84.75 q 0.378906,0 0.625,0.230469 0.25,0.238281 0.257812,0.671875 -0.0078,0.425781 -0.257812,0.65625 -0.246094,0.246094 -0.605469,0.246094 -0.335937,0 -0.539062,-0.183594 -0.199219,-0.175781 -0.308594,-0.460938 h -0.816406 q 0.132812,0.710938 0.582031,1.085938 0.449219,0.375 1.03125,0.375 0.753906,-0.0078 1.234375,-0.480469 0.488281,-0.460937 0.496094,-1.261719 0,-0.359375 -0.152344,-0.6875 -0.160156,-0.328125 -0.519531,-0.5625 0.351562,-0.238281 0.488281,-0.542968 0.117187,-0.304688 0.117187,-0.632813 -0.0078,-0.648437 -0.445312,-1.125 -0.457031,-0.488281 -1.234375,-0.496094 -0.613281,0.0078 -1.054688,0.4375 -0.449218,0.433594 -0.511718,1.066407 h 0.816406 q 0.07813,-0.351563 0.304687,-0.519532 0.214844,-0.167968 0.476563,-0.167968 0.363281,0.0078 0.59375,0.230468 0.230469,0.230469 0.238281,0.589844 0,0.355469 -0.230469,0.578125 -0.230468,0.230469 -0.648437,0.230469 h -0.28125 z"
       style="font-size:8px;font-family:'DIN Alternate';fill:#343434"
       id="path461" />
  </g>
  <path
     id="polyline203"
     transform="translate(100,36)"
     style="fill:none;stroke:#343434;stroke-width:1"
     d="m -12,15 h 3"
     class="connect" />
  <g
     aria-label="0"
     id="text205"
     style="font-size:8px;font-family:'DIN Alternate';fill:#343434"
     class="label">
    <path
       d="m 85.71875,66.859375 q -0.02344,0.863281 -0.800781,0.871094 -0.78125,-0.0078 -0.796875,-0.871094 v -2.414063 q 0.01563,-0.855468 0.796875,-0.871093 0.777343,0.01563 0.800781,0.871093 z m -2.414063,0.04687 q 0.0078,0.785156 0.503907,1.210937 0.464843,0.421875 1.109375,0.429688 0.664062,-0.0078 1.128906,-0.429688 0.472656,-0.425781 0.488281,-1.210937 v -2.511719 q -0.01563,-0.789062 -0.488281,-1.214844 -0.464844,-0.421875 -1.128906,-0.421875 -0.644532,0 -1.109375,0.421875 -0.496094,0.425782 -0.503907,1.214844 z"
       style="font-size:8px;font-family:'DIN Alternate';fill:#343434"
       id="path457" />
  </g>
  <path
     id="polyline207"
     transform="translate(100,36)"
     style="fill:none;stroke:#343434;stroke-width:1"
     d="m -12,30 h 3"
     class="connect" />
  <g
     aria-label="3"
     id="text209"
     style="font-size:8px;font-family:'DIN Alternate';fill:#343434"
     class="label">
    <path
       d="M 84.40625,80.925781 H 84.75 q 0.378906,0 0.625,0.230469 0.25,0.238281 0.257812,0.671875 -0.0078,0.425781 -0.257812,0.65625 -0.246094,0.246094 -0.605469,0.246094 -0.335937,0 -0.539062,-0.183594 -0.199219,-0.175781 -0.308594,-0.460938 h -0.816406 q 0.132812,0.710938 0.582031,1.085938 0.449219,0.375 1.03125,0.375 0.753906,-0.0078 1.234375,-0.480469 0.488281,-0.460937 0.496094,-1.261719 0,-0.359375 -0.152344,-0.6875 -0.160156,-0.328125 -0.519531,-0.5625 0.351562,-0.238281 0.488281,-0.542968 0.117187,-0.304688 0.117187,-0.632813 -0.0078,-0.648437 -0.445312,-1.125 -0.457031,-0.488281 -1.234375,-0.496094 -0.613281,0.0078 -1.054688,0.4375 -0.449218,0.433594 -0.511718,1.066407 h 0.816406 q 0.07813,-0.351563 0.304687,-0.519532 0.214844,-0.167968 0.476563,-0.167968 0.363281,0.0078 0.59375,0.230468 0.230469,0.230469 0.238281,0.589844 0,0.355469 -0.230469,0.578125 -0.230468,0.230469 -0.648437,0.230469 h -0.28125 z"
       style="font-size:8px;font-family:'DIN Alternate';fill:#343434"
       id="path453" />
  </g>
  <path
     id="polyline211"
     transform="translate(100,36)"
     style="fill:none;stroke:#343434;stroke-width:1"
     d="m -12,45 h 3"
     class="connect" />
  <g
     aria-label="6"
     id="text213"
     style="font-size:8px;font-family:'DIN Alternate';fill:#343434"
     class="label">
    <path
       d="m 85.96875,92.746094 q 0.0039,0 -0.03906,0.08594 -0.03906,0.08203 -0.109375,0.226563 -0.07031,0.144531 -0.164062,0.332031 -0.09375,0.1875 -0.199219,0.394531 -0.101562,0.207031 -0.210937,0.417969 -0.105469,0.210937 -0.207032,0.402344 -0.09766,0.191406 -0.179687,0.347656 -0.08203,0.15625 -0.136719,0.25 0.113281,-0.06641 0.253906,-0.07813 0.144532,-0.01563 0.332032,-0.0078 0.269531,0.0078 0.46875,0.09375 0.203125,0.08594 0.347656,0.214844 0.144531,0.128906 0.238281,0.289063 0.09766,0.15625 0.152344,0.308593 0.05469,0.148438 0.07422,0.28125 0.02344,0.128907 0.02344,0.203125 0,0.02344 0,0.08594 0,0.0625 0,0.140625 0,0.07422 -0.0039,0.152344 0,0.07813 -0.0039,0.132812 -0.0039,0.02734 -0.02734,0.144531 -0.01953,0.113282 -0.07813,0.273438 -0.05469,0.15625 -0.160156,0.339844 -0.105469,0.179687 -0.277344,0.34375 -0.171875,0.160156 -0.417969,0.277343 -0.246094,0.117188 -0.585937,0.144532 -0.355469,0.03125 -0.628907,-0.04687 Q 84.15625,98.417969 83.957031,98.273437 83.757812,98.128906 83.625,97.941406 83.492187,97.75 83.414062,97.550781 83.339844,97.351562 83.3125,97.167969 q -0.02344,-0.183594 -0.0078,-0.3125 0.02344,-0.191407 0.05078,-0.339844 0.02734,-0.152344 0.0625,-0.289063 0.03906,-0.136718 0.08594,-0.269531 0.04687,-0.132812 0.109375,-0.289062 0.01563,-0.03906 0.08594,-0.183594 0.07031,-0.148438 0.171875,-0.363281 0.105468,-0.214844 0.234375,-0.472657 0.128906,-0.257812 0.257812,-0.523437 0.304688,-0.617188 0.683594,-1.378906 z m -0.164063,4.167968 q 0,-0.148437 -0.01172,-0.328125 -0.01172,-0.179687 -0.08984,-0.339843 -0.07422,-0.164063 -0.246094,-0.28125 -0.171875,-0.117188 -0.488281,-0.140625 -0.148438,-0.01172 -0.269531,0.03125 -0.121094,0.04297 -0.214844,0.117187 -0.09375,0.07422 -0.164063,0.171875 -0.06641,0.09375 -0.113281,0.1875 -0.04297,0.09375 -0.0625,0.175781 -0.01953,0.07813 -0.01953,0.121094 0,0.09766 0.0039,0.21875 0.0039,0.117188 0.02344,0.238281 0.02344,0.117188 0.07422,0.230469 0.05078,0.109375 0.144532,0.195313 0.09375,0.08594 0.238281,0.140625 0.148437,0.05469 0.367187,0.05469 0.175782,0.0039 0.304688,-0.04297 0.132812,-0.05078 0.222656,-0.125 0.09375,-0.07813 0.152344,-0.171875 0.05859,-0.09375 0.08984,-0.183593 0.03516,-0.08984 0.04687,-0.160157 0.01172,-0.07422 0.01172,-0.109375 z"
       style="font-size:8px;font-family:'DIN Alternate';fill:#343434"
       id="path449" />
  </g>
  <path
     id="polyline215"
     transform="translate(100,36)"
     style="fill:none;stroke:#343434;stroke-width:1"
     d="m -12,60 h 3"
     class="connect" />
  <g
     aria-label="12"
     id="text217"
     style="font-size:8px;font-family:'DIN Alternate';fill:#343434"
     class="label">
    <path
       d="M 81.050781,114.66797 V 119.5 h 0.816406 v -5.69531 h -0.816406 l -0.808594,0.58984 v 0.86719 0 l 0.808594,-0.59375 z"
       style="font-size:8px;font-family:'DIN Alternate';fill:#343434"
       id="path443" />
    <path
       d="m 83.601562,119.5 h 3.246094 v -0.81641 h -2.175781 l 1.832031,-2.29687 q 0.34375,-0.4375 0.34375,-1 -0.0078,-0.70313 -0.472656,-1.16016 -0.457031,-0.46093 -1.191406,-0.46875 -0.65625,0.008 -1.105469,0.46094 -0.445313,0.46484 -0.476563,1.17578 h 0.8125 q 0.04297,-0.39062 0.273438,-0.60547 0.222656,-0.21484 0.558594,-0.21484 0.378906,0.008 0.585937,0.24609 0.199219,0.23828 0.199219,0.5586 0,0.12109 -0.03125,0.25781 -0.04687,0.14453 -0.175781,0.3125 l -2.222657,2.78125 z"
       style="font-size:8px;font-family:'DIN Alternate';fill:#343434"
       id="path445" />
  </g>
  <path
     id="polyline219"
     transform="translate(100,36)"
     style="fill:none;stroke:#343434;stroke-width:1"
     d="m -12,81 h 3"
     class="connect" />
  <g
     aria-label="24"
     id="text221"
     style="font-size:8px;font-family:'DIN Alternate';fill:#343434"
     class="label">
    <path
       d="m 79.757812,140.5 h 3.246094 v -0.81641 h -2.175781 l 1.832031,-2.29687 q 0.34375,-0.4375 0.34375,-1 -0.0078,-0.70313 -0.472656,-1.16016 -0.457031,-0.46094 -1.191406,-0.46875 -0.65625,0.008 -1.105469,0.46094 -0.445313,0.46484 -0.476563,1.17578 h 0.8125 q 0.04297,-0.39062 0.273438,-0.60547 0.222656,-0.21484 0.558594,-0.21484 0.378906,0.008 0.585937,0.24609 0.199219,0.23828 0.199219,0.5586 0,0.12109 -0.03125,0.25781 -0.04687,0.14453 -0.175781,0.3125 l -2.222657,2.78125 z"
       style="font-size:8px;font-family:'DIN Alternate';fill:#343434"
       id="path437" />
    <path
       d="m 83.441406,139.65234 h 2.375 V 140.5 h 0.816406 v -0.84766 h 0.453125 v -0.76953 h -0.453125 v -1.63672 h -0.816406 v 1.63672 h -1.488281 l 1.925781,-4.07812 H 85.34375 l -1.902344,4.07812 z"
       style="font-size:8px;font-family:'DIN Alternate';fill:#343434"
       id="path439" />
  </g>
  <path
     id="polyline223"
     transform="translate(100,36)"
     style="fill:none;stroke:#343434;stroke-width:1"
     d="m -12,102 h 3"
     class="connect" />
  <g
     aria-label="48"
     id="text225"
     style="font-size:8px;font-family:'DIN Alternate';fill:#343434"
     class="label">
    <path
       d="m 79.597656,160.65234 h 2.375 V 161.5 h 0.816406 v -0.84766 h 0.453125 v -0.76953 h -0.453125 v -1.63672 h -0.816406 v 1.63672 h -1.488281 l 1.925781,-4.07812 H 81.5 l -1.902344,4.07812 z"
       style="font-size:8px;font-family:'DIN Alternate';fill:#343434"
       id="path431" />
    <path
       d="m 84.449219,157.38672 q 0.0078,-0.40625 0.253906,-0.61328 0.242187,-0.19922 0.558594,-0.19922 0.328125,0 0.570312,0.19922 0.238281,0.20703 0.246094,0.61328 -0.0078,0.39453 -0.246094,0.60156 -0.242187,0.21484 -0.570312,0.21484 -0.316407,0 -0.558594,-0.21484 -0.246094,-0.20703 -0.253906,-0.60156 z m -0.921875,2.44922 q 0.0078,0.76953 0.519531,1.23047 0.488281,0.47265 1.214844,0.48046 0.730468,-0.008 1.234375,-0.48046 0.496093,-0.46094 0.503906,-1.23047 -0.0078,-0.82422 -0.671875,-1.28125 0.253906,-0.22266 0.414062,-0.51172 0.152344,-0.26953 0.152344,-0.64063 -0.0078,-0.71093 -0.464844,-1.17578 -0.453125,-0.46094 -1.167968,-0.46875 -0.703125,0.008 -1.148438,0.46875 -0.472656,0.46485 -0.480469,1.17578 0,0.3711 0.167969,0.64063 0.144531,0.28906 0.398438,0.51172 -0.664063,0.45703 -0.671875,1.28125 z m 0.816406,-0.008 q 0.0078,-0.39843 0.28125,-0.64843 0.261719,-0.2461 0.636719,-0.25391 0.386718,0.008 0.648437,0.25391 0.265625,0.25 0.273438,0.64843 -0.0078,0.39063 -0.273438,0.64063 -0.261719,0.26172 -0.648437,0.26172 -0.375,0 -0.636719,-0.26172 -0.273438,-0.25 -0.28125,-0.64063 z"
       style="font-size:8px;font-family:'DIN Alternate';fill:#343434"
       id="path433" />
  </g>
  <path
     id="polyline227"
     transform="translate(100,36)"
     style="fill:none;stroke:#343434;stroke-width:1"
     d="m -12,123 h 3"
     class="connect" />
  <g
     id="use231"
     transform="translate(88,186)">
    <g
       transform="translate(12,12)"
       id="g417" />
  </g>
  <!--g transform="translate(100 228)">
    <use xlink:href="#knob24" transform="translate(-12 -12)"/>
  </g>
  <g transform="translate(100 258)">
    <use xlink:href="#port" transform="translate(-12 -12)"/>
  </g-->
  <g
     id="use235"
     transform="translate(88,276)">
    <g
       transform="translate(12,12)"
       id="g333" />
  </g>
  <path
     id="rect239"
     style="fill:#bbbbbb"
     d="m 88,303 h 24 c 1.662,0 3,1.338 3,3 v 54 c 0,1.662 -1.338,3 -3,3 H 88 c -1.662,0 -3,-1.338 -3,-3 v -54 c 0,-1.662 1.338,-3 3,-3 z"
     class="output" />
  <g
     id="use241"
     transform="translate(88,306)">
    <g
       transform="translate(12,12)"
       id="g421" />
  </g>
  <g
     id="use245"
     transform="translate(88,336)">
    <g
       transform="translate(12,12)"
       id="g425" />
  </g>
</svg>
