<?xml version="1.0" encoding="UTF-8" standalone="no"?>
<svg
   xmlns:dc="http://purl.org/dc/elements/1.1/"
   xmlns:cc="http://creativecommons.org/ns#"
   xmlns:rdf="http://www.w3.org/1999/02/22-rdf-syntax-ns#"
   xmlns:svg="http://www.w3.org/2000/svg"
   xmlns="http://www.w3.org/2000/svg"
   xmlns:sodipodi="http://sodipodi.sourceforge.net/DTD/sodipodi-0.dtd"
   xmlns:inkscape="http://www.inkscape.org/namespaces/inkscape"
   version="1.1"
   width="24"
   height="24"
   viewBox="0 0 24 24"
   id="svg32"
   sodipodi:docname="poly-port.svg"
   inkscape:version="1.0.2 (e86c8708, 2021-01-15)">
  <metadata
     id="metadata36">
    <rdf:RDF>
      <cc:Work
         rdf:about="">
        <dc:format>image/svg+xml</dc:format>
        <dc:type
           rdf:resource="http://purl.org/dc/dcmitype/StillImage" />
      </cc:Work>
    </rdf:RDF>
  </metadata>
  <sodipodi:namedview
     pagecolor="#ffffff"
     bordercolor="#666666"
     borderopacity="1"
     objecttolerance="10"
     gridtolerance="10"
     guidetolerance="10"
     inkscape:pageopacity="0"
     inkscape:pageshadow="2"
     inkscape:window-width="689"
     inkscape:window-height="480"
     id="namedview34"
     showgrid="false"
     inkscape:zoom="34.458333"
     inkscape:cx="12"
     inkscape:cy="12"
     inkscape:window-x="0"
     inkscape:window-y="25"
     inkscape:window-maximized="0"
     inkscape:current-layer="svg32" />
  <defs
     id="defs12">
    <linearGradient
       id="inner"
       x1="-8"
       y1="-8"
       x2="-8"
       y2="8"
       gradientUnits="userSpaceOnUse"
       gradientTransform="translate(12,12)">
      <stop
         offset="0%"
         stop-color="#ffffff"
         id="stop2" />
      <stop
         offset="100%"
         stop-color="#636363"
         id="stop4" />
    </linearGradient>
    <linearGradient
       id="outer"
       x1="-11"
       y1="-11"
       x2="-11"
       y2="11"
       gradientUnits="userSpaceOnUse"
       gradientTransform="translate(12,12)">
      <stop
         offset="0%"
         stop-color="#f89a97"
         id="stop7" />
      <stop
         offset="100%"
         stop-color="#66403e"
         id="stop9" />
    </linearGradient>
    <!--linearGradient id="bar" x1="0%" y1="0%" x2="0%" y2="100%">
      <stop offset="0%"   stop-color="#66403e" />
      <stop offset="100%" stop-color="#f89a97" />
    </linearGradient-->
  </defs>
  <!--g transform="scale(16 16)"-->
  <path
     id="circle14"
     style="fill:#666666"
     d="M 23.5,12 A 11.5,11.5 0 0 1 12,23.5 11.5,11.5 0 0 1 0.5,12 11.5,11.5 0 0 1 12,0.5 11.5,11.5 0 0 1 23.5,12 Z" />
  <path
     id="circle16"
     style="fill:url(#outer)"
     d="M 23,12 A 11,11 0 0 1 12,23 11,11 0 0 1 1,12 11,11 0 0 1 12,1 11,11 0 0 1 23,12 Z" />
  <path
     id="circle18"
     style="fill:#895553"
     d="M 22.3,12 A 10.3,10.3 0 0 1 12,22.3 10.3,10.3 0 0 1 1.6999998,12 10.3,10.3 0 0 1 12,1.6999998 10.3,10.3 0 0 1 22.3,12 Z" />
  <path
     id="circle20"
     style="fill:#222222"
     d="M 20.5,12 A 8.5,8.5 0 0 1 12,20.5 8.5,8.5 0 0 1 3.5,12 8.5,8.5 0 0 1 12,3.5 8.5,8.5 0 0 1 20.5,12 Z" />
  <path
     id="circle22"
     style="fill:url(#inner)"
     d="m 20,12 a 8,8 0 0 1 -8,8 8,8 0 0 1 -8,-8 8,8 0 0 1 8,-8 8,8 0 0 1 8,8 z" />
  <path
     id="circle24"
     style="fill:#e0e0e0"
     d="M 19.3,12 A 7.3000002,7.3000002 0 0 1 12,19.3 7.3000002,7.3000002 0 0 1 4.6999998,12 7.3000002,7.3000002 0 0 1 12,4.6999998 7.3000002,7.3000002 0 0 1 19.3,12 Z" />
  <path
     id="circle26"
     style="fill:#666666"
     d="m 17,12 a 5,5 0 0 1 -5,5 5,5 0 0 1 -5,-5 5,5 0 0 1 5,-5 5,5 0 0 1 5,5 z" />
  <path
     id="circle28"
     style="fill:#121212"
     d="M 16.5,12 A 4.5,4.5 0 0 1 12,16.5 4.5,4.5 0 0 1 7.5,12 4.5,4.5 0 0 1 12,7.5 4.5,4.5 0 0 1 16.5,12 Z" />
  <!--/g-->
</svg>
