<?xml version="1.0" encoding="UTF-8" standalone="no"?>
<svg
   xmlns:dc="http://purl.org/dc/elements/1.1/"
   xmlns:cc="http://creativecommons.org/ns#"
   xmlns:rdf="http://www.w3.org/1999/02/22-rdf-syntax-ns#"
   xmlns:svg="http://www.w3.org/2000/svg"
   xmlns="http://www.w3.org/2000/svg"
   xmlns:sodipodi="http://sodipodi.sourceforge.net/DTD/sodipodi-0.dtd"
   xmlns:inkscape="http://www.inkscape.org/namespaces/inkscape"
   version="1.1"
   width="24"
   height="24"
   viewBox="0 0 24 24"
   id="svg46"
   sodipodi:docname="poly-port.svg"
   inkscape:version="1.0.2 (e86c8708, 2021-01-15)">
  <metadata
     id="metadata50">
    <rdf:RDF>
      <cc:Work
         rdf:about="">
        <dc:format>image/svg+xml</dc:format>
        <dc:type
           rdf:resource="http://purl.org/dc/dcmitype/StillImage" />
      </cc:Work>
    </rdf:RDF>
  </metadata>
  <sodipodi:namedview
     pagecolor="#ffffff"
     bordercolor="#666666"
     borderopacity="1"
     objecttolerance="10"
     gridtolerance="10"
     guidetolerance="10"
     inkscape:pageopacity="0"
     inkscape:pageshadow="2"
     inkscape:window-width="689"
     inkscape:window-height="480"
     id="namedview48"
     showgrid="false"
     inkscape:zoom="34.458333"
     inkscape:cx="12"
     inkscape:cy="12"
     inkscape:window-x="0"
     inkscape:window-y="25"
     inkscape:window-maximized="0"
     inkscape:current-layer="svg46" />
  <defs
     id="defs22">
    <linearGradient
       id="white-gradient"
       x1="-11"
       y1="-11"
       x2="-11"
       y2="11"
       gradientUnits="userSpaceOnUse"
       gradientTransform="translate(12,12)">
      <stop
         offset="0%"
         stop-color="#ffffff"
         id="stop2" />
      <stop
         offset="100%"
         stop-color="#686868"
         id="stop4" />
    </linearGradient>
    <linearGradient
       id="reverse-white-gradient"
       x1="-4.0620192"
       y1="-4.0620192"
       x2="-4.0620192"
       y2="4.0620192"
       gradientTransform="matrix(2.7080128,0,0,0.36927447,12,12)"
       gradientUnits="userSpaceOnUse">
      <stop
         offset="0%"
         stop-color="#686868"
         id="stop7" />
      <stop
         offset="100%"
         stop-color="#ffffff"
         id="stop9" />
    </linearGradient>
    <linearGradient
       id="red-gradient"
       x1="-7.5"
       y1="-7.5"
       x2="-7.5"
       y2="7.5"
       gradientUnits="userSpaceOnUse"
       gradientTransform="translate(12,12)">
      <stop
         offset="0%"
         stop-color="#d68784"
         id="stop12" />
      <stop
         offset="100%"
         stop-color="#5a3938"
         id="stop14" />
    </linearGradient>
    <linearGradient
       id="reverse-red-gradient"
       x1="-5.5"
       y1="-5.5"
       x2="-5.5"
       y2="5.5"
       gradientUnits="userSpaceOnUse"
       gradientTransform="translate(12,12)">
      <stop
         offset="0%"
         stop-color="#5a3938"
         id="stop17" />
      <stop
         offset="100%"
         stop-color="#d68784"
         id="stop19" />
    </linearGradient>
  </defs>
  <path
     id="circle24"
     style="fill:#444444"
     d="M 23.5,12 A 11.5,11.5 0 0 1 12,23.5 11.5,11.5 0 0 1 0.5,12 11.5,11.5 0 0 1 12,0.5 11.5,11.5 0 0 1 23.5,12 Z" />
  <path
     id="circle26"
     style="fill:url(#white-gradient)"
     d="M 23,12 A 11,11 0 0 1 12,23 11,11 0 0 1 1,12 11,11 0 0 1 12,1 11,11 0 0 1 23,12 Z" />
  <path
     id="circle28"
     style="fill:#e0e0e0"
     d="M 22.5,12 A 10.5,10.5 0 0 1 12,22.5 10.5,10.5 0 0 1 1.5,12 10.5,10.5 0 0 1 12,1.5 10.5,10.5 0 0 1 22.5,12 Z" />
  <path
     id="rect30"
     style="fill:url(#reverse-white-gradient)"
     d="m 2.5,10.5 h 19 c 0.831,0 1.5,0.669 1.5,1.5 0,0.831 -0.669,1.5 -1.5,1.5 H 2.5 C 1.669,13.5 1,12.831 1,12 1,11.169 1.669,10.5 2.5,10.5 Z" />
  <path
     id="ellipse32"
     style="fill:#b0b0b0"
     d="M 20,12.8 A 8,9.1999998 0 0 1 12,22 8,9.1999998 0 0 1 4,12.8 8,9.1999998 0 0 1 12,3.6000004 8,9.1999998 0 0 1 20,12.8 Z" />
  <path
     id="circle34"
     style="fill:#333333"
     d="M 20.5,12 A 8.5,8.5 0 0 1 12,20.5 8.5,8.5 0 0 1 3.5,12 8.5,8.5 0 0 1 12,3.5 8.5,8.5 0 0 1 20.5,12 Z" />
  <path
     id="circle36"
     style="fill:url(#red-gradient)"
     d="M 19.5,12 A 7.5,7.5 0 0 1 12,19.5 7.5,7.5 0 0 1 4.5,12 7.5,7.5 0 0 1 12,4.5 7.5,7.5 0 0 1 19.5,12 Z" />
  <path
     id="circle38"
     style="fill:#558955"
     d="M 18.7,12 A 6.6999998,6.6999998 0 0 1 12,18.7 6.6999998,6.6999998 0 0 1 5.3000002,12 6.6999998,6.6999998 0 0 1 12,5.3000002 6.6999998,6.6999998 0 0 1 18.7,12 Z" />
  <path
     id="circle40"
     style="fill:url(#reverse-red-gradient)"
     d="M 17.5,12 A 5.5,5.5 0 0 1 12,17.5 5.5,5.5 0 0 1 6.5,12 5.5,5.5 0 0 1 12,6.5 5.5,5.5 0 0 1 17.5,12 Z" />
  <path
     id="circle42"
     style="fill:#121212"
     d="m 17,12 a 5,5 0 0 1 -5,5 5,5 0 0 1 -5,-5 5,5 0 0 1 5,-5 5,5 0 0 1 5,5 z" />
</svg>
