<?xml version="1.0" encoding="UTF-8" standalone="no"?>
<svg
   xmlns:dc="http://purl.org/dc/elements/1.1/"
   xmlns:cc="http://creativecommons.org/ns#"
   xmlns:rdf="http://www.w3.org/1999/02/22-rdf-syntax-ns#"
   xmlns:svg="http://www.w3.org/2000/svg"
   xmlns="http://www.w3.org/2000/svg"
   xmlns:xlink="http://www.w3.org/1999/xlink"
   xmlns:sodipodi="http://sodipodi.sourceforge.net/DTD/sodipodi-0.dtd"
   xmlns:inkscape="http://www.inkscape.org/namespaces/inkscape"
   version="1.1"
   width="24"
   height="24"
   viewBox="0 0 24 24"
   id="svg27"
   sodipodi:docname="poly-port.svg"
   inkscape:version="1.0.2 (e86c8708, 2021-01-15)">
  <metadata
     id="metadata31">
    <rdf:RDF>
      <cc:Work
         rdf:about="">
        <dc:format>image/svg+xml</dc:format>
        <dc:type
           rdf:resource="http://purl.org/dc/dcmitype/StillImage" />
      </cc:Work>
    </rdf:RDF>
  </metadata>
  <sodipodi:namedview
     pagecolor="#ffffff"
     bordercolor="#666666"
     borderopacity="1"
     objecttolerance="10"
     gridtolerance="10"
     guidetolerance="10"
     inkscape:pageopacity="0"
     inkscape:pageshadow="2"
     inkscape:window-width="689"
     inkscape:window-height="480"
     id="namedview29"
     showgrid="false"
     inkscape:zoom="34.458333"
     inkscape:cx="12"
     inkscape:cy="12"
     inkscape:window-x="0"
     inkscape:window-y="25"
     inkscape:window-maximized="0"
     inkscape:current-layer="svg27" />
  <defs
     id="defs7">
    <linearGradient
       id="ring"
       x1="0%"
       y1="0%"
       x2="0%"
       y2="100%">
      <stop
         offset="0%"
         stop-color="#ffffff"
         id="stop2" />
      <stop
         offset="100%"
         stop-color="#686868"
         id="stop4" />
    </linearGradient>
    <linearGradient
       inkscape:collect="always"
       xlink:href="#ring"
       id="linearGradient33"
       x1="-11"
       y1="-11"
       x2="-11"
       y2="11"
       gradientUnits="userSpaceOnUse"
       gradientTransform="translate(12,12)" />
    <linearGradient
       inkscape:collect="always"
       xlink:href="#ring"
       id="linearGradient35"
       x1="-7.5"
       y1="-7.5"
       x2="-7.5"
       y2="7.5"
       gradientUnits="userSpaceOnUse"
       gradientTransform="translate(12,12)" />
  </defs>
  <path
     id="circle9"
     style="fill:#444444"
     d="M 23.5,12 A 11.5,11.5 0 0 1 12,23.5 11.5,11.5 0 0 1 0.5,12 11.5,11.5 0 0 1 12,0.5 11.5,11.5 0 0 1 23.5,12 Z" />
  <path
     id="circle11"
     style="fill:url(#linearGradient33)"
     d="M 23,12 A 11,11 0 0 1 12,23 11,11 0 0 1 1,12 11,11 0 0 1 12,1 11,11 0 0 1 23,12 Z" />
  <path
     id="circle13"
     style="fill:#895553"
     d="M 22.5,12 A 10.5,10.5 0 0 1 12,22.5 10.5,10.5 0 0 1 1.5,12 10.5,10.5 0 0 1 12,1.5 10.5,10.5 0 0 1 22.5,12 Z" />
  <path
     id="circle15"
     style="fill:#333333"
     d="M 20.5,12 A 8.5,8.5 0 0 1 12,20.5 8.5,8.5 0 0 1 3.5,12 8.5,8.5 0 0 1 12,3.5 8.5,8.5 0 0 1 20.5,12 Z" />
  <path
     id="circle17"
     style="fill:url(#linearGradient35)"
     d="M 19.5,12 A 7.5,7.5 0 0 1 12,19.5 7.5,7.5 0 0 1 4.5,12 7.5,7.5 0 0 1 12,4.5 7.5,7.5 0 0 1 19.5,12 Z" />
  <path
     id="circle19"
     style="fill:#e0e0e0"
     d="M 18.7,12 A 6.6999998,6.6999998 0 0 1 12,18.7 6.6999998,6.6999998 0 0 1 5.3000002,12 6.6999998,6.6999998 0 0 1 12,5.3000002 6.6999998,6.6999998 0 0 1 18.7,12 Z" />
  <path
     id="circle21"
     style="fill:#666666"
     d="m 17,12 a 5,5 0 0 1 -5,5 5,5 0 0 1 -5,-5 5,5 0 0 1 5,-5 5,5 0 0 1 5,5 z" />
  <path
     id="circle23"
     style="fill:#121212"
     d="M 16.5,12 A 4.5,4.5 0 0 1 12,16.5 4.5,4.5 0 0 1 7.5,12 4.5,4.5 0 0 1 12,7.5 4.5,4.5 0 0 1 16.5,12 Z" />
</svg>
