<svg
  version="1.1"
  xmlns="http://www.w3.org/2000/svg"
  xmlns:xlink="http://www.w3.org/1999/xlink"
  width="90"
  height="380"
  viewBox="0 0 90 380"
>

  <!-- ================ header begin ================ -->

  <style>

    text.title {
      fill: #a91913;
      font-family: 'DIN Alternate';
      font-size: 11.5pt;
    }
    text.big-label {
      fill: #343434;
      font-family: 'DIN Alternate';
      font-size: 7.5pt;
    }
    text.label {
      fill: #343434;
      font-family: 'DIN Alternate';
      font-size: 6pt;
    }
    text.output-label {
      fill: #dfdfdf;
      font-family: 'DIN Alternate';
      font-size: 6pt;
    }

    .background {
      fill: #dfdfdf;
    }
    .poly-output {
      fill: #558955;
    }
    .mono-output {
      fill: #636c9d;
    }

    polyline.icon {
      stroke: #343434;
      stroke-width: 1.2;
      fill: none;
    }
    polyline.connect {
      stroke: #343434;
      stroke-width: 1;
      fill: none;
    }

    rect.lcd-bg {
      fill: #121212;
    }
    rect.lcd-bg-frame {
      fill: #888888;
    }
    rect.lcd-bg-accent {
      fill: #2a2a2a;
    }
    text.lcd-label {
      fill: #777777;
      font-family: 'Monaco';
      font-size: 5pt;
    }
    polyline.lcd-tick {
      stroke: #707070;
      stroke-width: 1;
      fill: none;
    }

    .blueprint {
      stroke: #444444;
      fill: none;
    }

  </style>

  <defs>

    <linearGradient id="smallKnobLight" x1="0%" y1="0%" x2="0%" y2="100%">
      <stop offset="0%"   stop-color="#6f6f6f" />
      <stop offset="100%" stop-color="#383838" />
    </linearGradient>

    <linearGradient id="smallKnobDark" x1="0%" y1="0%" x2="0%" y2="100%">
      <stop offset="0%"   stop-color="#494949" />
      <stop offset="100%" stop-color="#282828" />
    </linearGradient>

    <linearGradient id="bigKnobLight" x1="0%" y1="0%" x2="0%" y2="100%">
      <stop offset="0%"   stop-color="#888" />
      <stop offset="100%" stop-color="#333" />
    </linearGradient>

    <linearGradient id="bigKnobDark" x1="0%" y1="0%" x2="0%" y2="100%">
      <stop offset="0%"   stop-color="#5c5c5c" />
      <stop offset="100%" stop-color="#282828" />
    </linearGradient>

    <symbol id="knob18" >
      <g transform="translate(9 9)">
        <circle r="8.5" stroke="#222" fill="none"/>
        <circle r="8" fill="url('#smallKnobLight')"/>
        <circle r="7" fill="url('#smallKnobDark')"/>
      </g>
    </symbol>

    <symbol id="knob24" >
      <g transform="translate(12 12)">
        <circle r="11.5" stroke="#121212" fill="none"/>
        <circle r="11" fill="url('#smallKnobLight')"/>
        <circle r="10" fill="url('#smallKnobDark')"/>
      </g>
    </symbol>

    <symbol id="knob45" >
      <g transform="translate(22.5 22.5)">
        <circle r="22" fill="url('#bigKnobDark')"/>
        <circle r="20" fill="url('#bigKnobLight')"/>
      </g>
    </symbol>

    <symbol id="toggleButton" >
      <g transform="translate(9 9)">
        <polyline points="-5,0 5,0" stroke-width="1" class="blueprint"/>
        <polyline points="0,-5 0,5" stroke-width="1" class="blueprint"/>
        <circle cx="0" cy="0" r="8.5" stroke-width="2" class="blueprint"/>
      </g>
    </symbol>

    <symbol id="port" >
      <g transform="translate(12 12)">
        <polyline points="-5,0 5,0" stroke-width="1" class="blueprint"/>
        <polyline points="0,-5 0,5" stroke-width="1" class="blueprint"/>
        <circle cx="0" cy="0" r="10.5" stroke-width="2" class="blueprint"/>
      </g>
    </symbol>

    <symbol id="screw" >
      <g transform="translate(6 6)">
        <polyline points="-3,0 3,0" stroke-width="1" class="blueprint"/>
        <polyline points="0,-3 0,3" stroke-width="1" class="blueprint"/>
      </g>
      <circle cx="6" cy="6" r="5.5" stroke-width="1" class="blueprint"/>
    </symbol>

    <symbol id="hswitch14" >
      <rect x="1" y="1" rx="2" width="20" height="12" stroke-width="2" class="blueprint" />
      <g transform="translate(12 7)">
        <polyline points="-5,0 5,0" stroke-width="1" class="blueprint"/>
        <polyline points="0,-5 0,5" stroke-width="1" class="blueprint"/>
      </g>
    </symbol>

    <symbol id="meter-strip" >
      <g transform="translate(20 4)">
        <rect x="-6" y="-1" width="5" height="98" class="lcd-bg-accent"/>
        <rect x="1"  y="-1" width="5" height="98" class="lcd-bg-accent"/>
        <g transform="translate(-11 2.5)">
          <text x="0" y=  "0" class="lcd-label" text-anchor="end">0</text>
          <text x="0" y= "12" class="lcd-label" text-anchor="end">3</text>
          <text x="0" y= "24" class="lcd-label" text-anchor="end">6</text>
          <text x="0" y= "36" class="lcd-label" text-anchor="end">9</text>
          <text x="0" y= "48" class="lcd-label" text-anchor="end">12</text>
          <text x="0" y= "60" class="lcd-label" text-anchor="end">18</text>
          <text x="0" y= "72" class="lcd-label" text-anchor="end">24</text>
          <text x="0" y= "84" class="lcd-label" text-anchor="end">36</text>
          <text x="0" y= "96" class="lcd-label" text-anchor="end">48</text>
        </g>

        <g transform="translate(-10 0)">
          <polyline points="0  0 2  0" class="lcd-tick"/>
          <polyline points="0 12 2 12" class="lcd-tick"/>
          <polyline points="0 24 2 24" class="lcd-tick"/>
          <polyline points="0 36 2 36" class="lcd-tick"/>
          <polyline points="0 48 2 48" class="lcd-tick"/>
          <polyline points="0 60 2 60" class="lcd-tick"/>
          <polyline points="0 72 2 72" class="lcd-tick"/>
          <polyline points="0 84 2 84" class="lcd-tick"/>
          <polyline points="0 96 2 96" class="lcd-tick"/>
        </g>
      </g>
    </symbol>

    <symbol id="logo" >
        <g transform="translate(6 6)">
          <rect x="-5" y="-4" height="12" width="10" rx="2" fill="#6a6a6a" stroke="none"/>
          <rect x="-3" y="-5" height="4" width="6" rx="1" fill="#6a6a6a" stroke="none"/>
          <path d="M0,-3, 0,-5" stroke="#6a6a6a" stroke-width="2" stroke-linecap="round" />
          <circle cx="-2.5" cy="0" r="1.2" fill="#dfdfdf" stroke="none"/>
          <circle cx="2.5"  cy="0" r="1.2" fill="#dfdfdf" stroke="none"/>
        </g>
    </symbol>

  </defs>

  <!-- ================ header end ================ -->

  <rect class="background" width="100%" height="100%"/>
  <text class="title" x="50%" y="16"  text-anchor="middle">BUS-8</text>
  <g transform="translate(45 370)">
    <g transform="translate(-18 -6)"><use xlink:href="#logo"/></g>
    <g transform="translate(-6 -6)"><use xlink:href="#logo"/></g>
    <g transform="translate(6 -6)"><use xlink:href="#logo"/></g>
  </g>

  <g transform="translate(0 0)"><use xlink:href="#screw"/></g>
  <g transform="translate(78 368)"><use xlink:href="#screw"/></g>

  <g transform="translate(30 46)">
    <text x="0" y="-16" class="label" text-anchor="middle">LVL</text>
  </g>

  <!-- 1 -->
  <g transform="translate(30 46)">
    <text x="-21" y="3" class="label" text-anchor="middle">1</text>
    <polyline points="0 0 38 0" class="connect"/>
    <use xlink:href="#knob24" transform="translate(-12 -12)"/>
    <g transform="translate(38 0)">
      <use xlink:href="#port" transform="translate(-12 -12)"/>
    </g>
    <circle cx="-21" cy="10" r="2" stroke-width="1" class="blueprint"/>
  </g>

  <!-- 2 -->
  <g transform="translate(30 78)">
    <text x="-21" y="3" class="label" text-anchor="middle">2</text>
    <polyline points="0 0 38 0" class="connect"/>
    <use xlink:href="#knob24" transform="translate(-12 -12)"/>
    <g transform="translate(38 0)">
      <use xlink:href="#port" transform="translate(-12 -12)"/>
    </g>
    <circle cx="-21" cy="10" r="2" stroke-width="1" class="blueprint"/>
  </g>

  <!-- 3 -->
  <g transform="translate(30 110)">
    <text x="-21" y="3" class="label" text-anchor="middle">3</text>
    <polyline points="0 0 38 0" class="connect"/>
    <use xlink:href="#knob24" transform="translate(-12 -12)"/>
    <g transform="translate(38 0)">
      <use xlink:href="#port" transform="translate(-12 -12)"/>
    </g>
    <circle cx="-21" cy="10" r="2" stroke-width="1" class="blueprint"/>
  </g>

  <!-- 4 -->
  <g transform="translate(30 142)">
    <text x="-21" y="3" class="label" text-anchor="middle">4</text>
    <polyline points="0 0 38 0" class="connect"/>
    <use xlink:href="#knob24" transform="translate(-12 -12)"/>
    <g transform="translate(38 0)">
      <use xlink:href="#port" transform="translate(-12 -12)"/>
    </g>
    <circle cx="-21" cy="10" r="2" stroke-width="1" class="blueprint"/>
  </g>

  <!-- 5 -->
  <g transform="translate(30 174)">
    <text x="-21" y="3" class="label" text-anchor="middle">5</text>
    <polyline points="0 0 38 0" class="connect"/>
    <use xlink:href="#knob24" transform="translate(-12 -12)"/>
    <g transform="translate(38 0)">
      <use xlink:href="#port" transform="translate(-12 -12)"/>
    </g>
    <circle cx="-21" cy="10" r="2" stroke-width="1" class="blueprint"/>
  </g>

  <!-- 6 -->
  <g transform="translate(30 206)">
    <text x="-21" y="3" class="label" text-anchor="middle">6</text>
    <polyline points="0 0 38 0" class="connect"/>
    <use xlink:href="#knob24" transform="translate(-12 -12)"/>
    <g transform="translate(38 0)">
      <use xlink:href="#port" transform="translate(-12 -12)"/>
    </g>
    <circle cx="-21" cy="10" r="2" stroke-width="1" class="blueprint"/>
  </g>

  <!-- 7 -->
  <g transform="translate(30 238)">
    <text x="-21" y="3" class="label" text-anchor="middle">7</text>
    <polyline points="0 0 38 0" class="connect"/>
    <use xlink:href="#knob24" transform="translate(-12 -12)"/>
    <g transform="translate(38 0)">
      <use xlink:href="#port" transform="translate(-12 -12)"/>
    </g>
    <circle cx="-21" cy="10" r="2" stroke-width="1" class="blueprint"/>
  </g>

  <!-- 8 -->
  <g transform="translate(30 270)">
    <text x="-21" y="3" class="label" text-anchor="middle">8</text>
    <polyline points="0 0 38 0" class="connect"/>
    <use xlink:href="#knob24" transform="translate(-12 -12)"/>
    <g transform="translate(38 0)">
      <use xlink:href="#port" transform="translate(-12 -12)"/>
    </g>
    <circle cx="-21" cy="10" r="2" stroke-width="1" class="blueprint"/>
  </g>

  <!-- ins and outs -->

  <g transform="translate(9 316)">
    <text x="0" y="3" class="label" text-anchor="middle">L</text>
  </g>
  <g transform="translate(9 348)">
    <text x="0" y="3" class="label" text-anchor="middle">R</text>
  </g>

  <g transform="translate(30 316)">
    <text x="0" y="-17" class="label" text-anchor="middle">IN</text>
    <use xlink:href="#port" transform="translate(-12 -12)"/>
  </g>
  <g transform="translate(30 346)">
    <use xlink:href="#port" transform="translate(-12 -12)"/>
  </g>

  <g transform="translate(68 316)">
    <rect x="-15" y="-27" width="30" height="74" rx="3" class="poly-output"/>
    <text x="0" y="-17" class="output-label" text-anchor="middle">OUT</text>
    <use xlink:href="#port" transform="translate(-12 -12)"/>
  </g>
  <g transform="translate(68 348)">
    <use xlink:href="#port" transform="translate(-12 -12)"/>
  </g>

</svg>
