<svg
  version="1.1"
  xmlns="http://www.w3.org/2000/svg"
  xmlns:xlink="http://www.w3.org/1999/xlink"
  width="12"
  height="20"
  viewBox="0 0 12 20"
>

  <!--defs>

    <linearGradient id="topGradient" x1="0%" y1="0%" x2="0%" y2="100%">
      <stop offset="0%"   stop-color="#9e9e9e" />
      <stop offset="100%" stop-color="#c8c8c8" />
    </linearGradient>

    <linearGradient id="middleGradient" x1="0%" y1="0%" x2="0%" y2="100%">
      <stop offset="0%"   stop-color="#707070" />
      <stop offset="100%" stop-color="#c8c8c8" />
    </linearGradient>

    <linearGradient id="bottomGradient" x1="0%" y1="0%" x2="0%" y2="100%">
      <stop offset="0%"   stop-color="#838383" />
      <stop offset="100%" stop-color="#757575" />
    </linearGradient>

  </defs>

  <rect x="0.5" y="1.0" width="11" height="5.14" stroke="none" fill="url('#topGradient')"/>
  <rect x="0.5" y="5.42" width="11" height="8.71" stroke="none" fill="url('#middleGradient')"/>
  <rect x="0.5" y="13.86" width="11" height="5.14" stroke="none" fill="url('#bottomGradient')"/-->

  <!--rect x="0.5" y="0.5" width="11" height="19" stroke-width="0.5" stroke="#343434" fill="none"/-->

  <rect x="0.5" y="0.5" width="11" height="19" rx="1" fill="#777"/>

  <polyline points="0.5  2 11.5  2" stroke-width="1" stroke="#333"/>
  <polyline points="0.5  4 11.5  4" stroke-width="1" stroke="#333"/>
  <polyline points="0.5  6 11.5  6" stroke-width="1" stroke="#333"/>
  <polyline points="0.5  8 11.5  8" stroke-width="1" stroke="#333"/>

  <polyline points="0.5 10 11.5 10" stroke-width="1" stroke="#f0f0f0"/>

  <polyline points="0.5 12 11.5 12" stroke-width="1" stroke="#333"/>
  <polyline points="0.5 14 11.5 14" stroke-width="1" stroke="#333"/>
  <polyline points="0.5 16 11.5 16" stroke-width="1" stroke="#333"/>
  <polyline points="0.5 18 11.5 18" stroke-width="1" stroke="#333"/>

  <rect x="0.5" y="0.5" width="11" height="19" rx="1" stroke-width="1" stroke="#333" fill="none"/>

</svg>
