<svg
  version="1.1"
  xmlns="http://www.w3.org/2000/svg"
  xmlns:xlink="http://www.w3.org/1999/xlink"
  width="135"
  height="380"
  viewBox="0 0 135 380"
>

  <style>
    text.title {
      fill: #ebdbb2;
      font-family: 'DIN Alternate';
      font-size: 12pt;
    }
    text.logo {
      fill: #ebdbb2;
      font-family: 'DIN Alternate';
      font-size: 10pt;
    }
    text.big-label {
      fill: #ebdbb2;
      font-family: 'DIN Alternate';
      font-size: 7.5pt;
    }
    text.label {
      fill: #ebdbb2;
      font-family: 'DIN Alternate';
      font-size: 6pt;
    }
    .background {
      fill: #3c3836;
    }
    .output {
      fill: #665c54;
    }
    polyline.icon {
      stroke: #ebdbb2;
      stroke-width: 1.2;
      fill: none;
    }

    text.lcd-label {
      fill: #777777;
      font-family: 'Monaco';
      font-size: 5pt;
    }
    polyline.lcd-tick {
      stroke: #707070;
      stroke-width: 1;
      fill: none;
    }

    .blueprint {
      stroke: #838598;
      fill: none;
    }
  </style>

  <!-- ======== defs ======== -->  

  <defs>

    <linearGradient id="smallKnobLight" x1="0%" y1="0%" x2="0%" y2="100%">
      <stop offset="0%"   stop-color="#7c6f64" />
      <stop offset="100%" stop-color="#3c3836" />
    </linearGradient>

    <linearGradient id="smallKnobDark" x1="0%" y1="0%" x2="0%" y2="100%">
      <stop offset="0%"   stop-color="#504945" />
      <stop offset="100%" stop-color="#282828" />
    </linearGradient>

    <symbol id="knob18" >
      <g transform="translate(9 9)">
        <circle r="8.5" stroke="#222" fill="none"/>
        <circle r="8" fill="url('#smallKnobLight')"/>
        <circle r="7" fill="url('#smallKnobDark')"/>
      </g>
    </symbol>

    <symbol id="knob24" >
      <g transform="translate(12 12)">
        <circle r="11.5" stroke="#121212" fill="none"/>
        <circle r="11" fill="url('#smallKnobLight')"/>
        <circle r="10" fill="url('#smallKnobDark')"/>
      </g>
    </symbol>

    <symbol id="toggleButton" >
      <g transform="translate(9 9)">
        <polyline points="-5,0 5,0" stroke-width="1" class="blueprint"/>
        <polyline points="0,-5 0,5" stroke-width="1" class="blueprint"/>
        <circle cx="0" cy="0" r="8.5" stroke-width="2" class="blueprint"/>
      </g>
    </symbol>

    <symbol id="port" >
      <g transform="translate(12 12)">
        <polyline points="-5,0 5,0" stroke-width="1" class="blueprint"/>
        <polyline points="0,-5 0,5" stroke-width="1" class="blueprint"/>
        <circle cx="0" cy="0" r="10.5" stroke-width="2" class="blueprint"/>
      </g>
    </symbol>

    <symbol id="meter-strip" >
      <g transform="translate(20 4)">
        <rect x="-9" y="-1" width="8" height="106" fill="#1a1a1a"/>
        <rect x="1"   y="-1" width="8" height="106" fill="#1a1a1a"/>
        <g transform="translate(-13 2.5)">
          <text x="0" y=  "0" class="lcd-label" text-anchor="end">0</text>
          <text x="0" y= "13" class="lcd-label" text-anchor="end">3</text>
          <text x="0" y= "26" class="lcd-label" text-anchor="end">6</text>
          <text x="0" y= "39" class="lcd-label" text-anchor="end">9</text>
          <text x="0" y= "52" class="lcd-label" text-anchor="end">12</text>
          <text x="0" y= "65" class="lcd-label" text-anchor="end">18</text>
          <text x="0" y= "78" class="lcd-label" text-anchor="end">24</text>
          <text x="0" y= "91" class="lcd-label" text-anchor="end">36</text>
          <text x="0" y="104" class="lcd-label" text-anchor="end">48</text>
        </g>
        <g transform="translate(-12 0)">
          <polyline points="0   0 2   0" class="lcd-tick"/>
          <polyline points="0  13 2  13" class="lcd-tick"/>
          <polyline points="0  26 2  26" class="lcd-tick"/>
          <polyline points="0  39 2  39" class="lcd-tick"/>
          <polyline points="0  52 2  52" class="lcd-tick"/>
          <polyline points="0  65 2  65" class="lcd-tick"/>
          <polyline points="0  78 2  78" class="lcd-tick"/>
          <polyline points="0  91 2  91" class="lcd-tick"/>
          <polyline points="0 104 2 104" class="lcd-tick"/>
        </g>
      </g>
    </symbol>
  </defs>

  <!-- ======== body ======== -->  

  <rect class="background" width="100%" height="100%"/>
  <text class="title" x="50%" y="16"  text-anchor="middle">FOO</text>
  <text class="logo" x="50%" y="376" text-anchor="middle">RM</text>

  <rect x="0" y="38" width="135" height="114" fill="#121212"/>

  <!-- labels -->  
  <g transform="translate(10 0)">
    <g transform="translate(0 168)">
      <text x="0" y="3" class="label" text-anchor="middle">V</text>
    </g>
    <g transform="translate(0 198)">
      <text x="0" y="3" class="label" text-anchor="middle">V</text>
    </g>
    <g transform="translate(0 228)">
      <text x="0" y="3" class="label" text-anchor="middle">M</text>
    </g>
    <g transform="translate(0 258)">
      <text x="0" y="3" class="label" text-anchor="middle">P</text>
    </g>
    <g transform="translate(0 288)">
      <text x="0" y="3" class="label" text-anchor="middle">P</text>
    </g>
    <g transform="translate(0 318)">
      <text x="0" y="3" class="label" text-anchor="middle">L</text>
    </g>
    <g transform="translate(0 348)">
      <text x="0" y="3" class="label" text-anchor="middle">R</text>
    </g>
  </g>

  <!-- 1 -->  

  <g transform="translate(31 33)">
    <text x="0" y="0" class="big-label" text-anchor="middle">1</text>
  </g>

  <g transform="translate(31 43)">
    <use xlink:href="#meter-strip" transform="translate(-20 -4)"/>
  </g>

  <g transform="translate(31 168)">
    <use xlink:href="#knob24" transform="translate(-12 -12)"/>
  </g>
  <g transform="translate(31 198)">
    <use xlink:href="#port" transform="translate(-12 -12)"/>
  </g>
  <g transform="translate(31 228)">
    <use xlink:href="#toggleButton" transform="translate(-9 -9)"/>
  </g>
  <g transform="translate(31 258)">
    <use xlink:href="#knob24" transform="translate(-12 -12)"/>
  </g>
  <g transform="translate(31 288)">
    <use xlink:href="#port" transform="translate(-12 -12)"/>
  </g>
  <g transform="translate(31 318)">
    <use xlink:href="#port" transform="translate(-12 -12)"/>
  </g>
  <g transform="translate(31 348)">
    <use xlink:href="#port" transform="translate(-12 -12)"/>
  </g>

  <!-- 2 -->  

  <g transform="translate(72 33)">
    <text x="0" y="0" class="big-label" text-anchor="middle">2</text>
  </g>

  <g transform="translate(72 43)">
    <use xlink:href="#meter-strip" transform="translate(-20 -4)"/>
  </g>

  <g transform="translate(72 168)">
    <use xlink:href="#knob24" transform="translate(-12 -12)"/>
  </g>
  <g transform="translate(72 198)">
    <use xlink:href="#port" transform="translate(-12 -12)"/>
  </g>
  <g transform="translate(72 228)">
    <use xlink:href="#toggleButton" transform="translate(-9 -9)"/>
  </g>
  <g transform="translate(72 258)">
    <use xlink:href="#knob24" transform="translate(-12 -12)"/>
  </g>
  <g transform="translate(72 288)">
    <use xlink:href="#port" transform="translate(-12 -12)"/>
  </g>
  <g transform="translate(72 318)">
    <use xlink:href="#port" transform="translate(-12 -12)"/>
  </g>
  <g transform="translate(72 348)">
    <use xlink:href="#port" transform="translate(-12 -12)"/>
  </g>

  <!-- mix -->  

  <g transform="translate(113 33)">
    <text x="0" y="0" class="big-label" text-anchor="middle">MIX</text>
  </g>

  <g transform="translate(113 43)">
    <use xlink:href="#meter-strip" transform="translate(-20 -4)"/>
  </g>

  <g transform="translate(113 168)">
    <use xlink:href="#knob24" transform="translate(-12 -12)"/>
  </g>
  <g transform="translate(113 198)">
    <use xlink:href="#port" transform="translate(-12 -12)"/>
  </g>
  <g transform="translate(113 228)">
    <use xlink:href="#toggleButton" transform="translate(-9 -9)"/>
  </g>

  <g transform="translate(113 258)">
    <rect x="-22" y="-14" width="37" height="58" rx="3" class="output"/>

    <text x ="-16.5" y="2.5" class="label" text-anchor="middle">L</text>
    <use xlink:href="#port" transform="translate(-12 -12)"/>
  </g>
  <g transform="translate(113 288)">
    <text x ="-16.5" y="2.5" class="label" text-anchor="middle">R</text>
    <use xlink:href="#port" transform="translate(-12 -12)"/>
  </g>

  <g transform="translate(113 318)">
    <rect x="-22" y="-14" width="37" height="58" rx="3" class="output"/>

    <text x ="-16.5" y="2.5" class="label" text-anchor="middle">L</text>
    <use xlink:href="#port" transform="translate(-12 -12)"/>
  </g>
  <g transform="translate(113 348)">
    <text x ="-16.5" y="2.5" class="label" text-anchor="middle">R</text>
    <use xlink:href="#port" transform="translate(-12 -12)"/>
  </g>

</svg>
