<svg
  version="1.1"
  xmlns="http://www.w3.org/2000/svg"
  xmlns:xlink="http://www.w3.org/1999/xlink"
  width="135"
  height="380"
  viewBox="0 0 135 380"
>

  <style>
    text.title {
      fill: #ebdbb2;
      font-family: 'DIN Alternate';
      font-size: 12pt;
    }
    text.logo {
      fill: #ebdbb2;
      font-family: 'DIN Alternate';
      font-size: 10pt;
    }
    text.big-label {
      fill: #ebdbb2;
      font-family: 'DIN Alternate';
      font-size: 7.5pt;
    }
    text.label {
      fill: #ebdbb2;
      font-family: 'DIN Alternate';
      font-size: 6pt;
    }
    text.led-label {
      fill: #87796c;
      font-family: 'DIN Alternate';
      font-size: 6pt;
    }
    .background {
      fill: #3c3836;
    }
    .output {
      fill: #665c54;
    }
    polyline.icon {
      stroke: #ebdbb2;
      stroke-width: 1.2;
      fill: none;
    }
    polyline.connect {
      stroke: #ebdbb2;
      stroke-width: 1;
      fill: none;
    }

    .blueprint {
      stroke: #838598;
      fill: none;
    }
  </style>

  <!-- ======== defs ======== -->  

  <defs>

    <linearGradient id="smallKnobLight" x1="0%" y1="0%" x2="0%" y2="100%">
      <stop offset="0%"   stop-color="#7c6f64" />
      <stop offset="100%" stop-color="#282828" />
    </linearGradient>

    <linearGradient id="smallKnobDark" x1="0%" y1="0%" x2="0%" y2="100%">
      <stop offset="0%"   stop-color="#504945" />
      <stop offset="100%" stop-color="#1d2021" />
    </linearGradient>

    <symbol id="knob18" >
      <g transform="translate(9 9)">
        <circle r="8.5" stroke="#222" fill="none"/>
        <circle r="8" fill="url('#smallKnobLight')"/>
        <circle r="7" fill="url('#smallKnobDark')"/>
      </g>
    </symbol>

    <symbol id="knob24" >
      <g transform="translate(12 12)">
        <circle r="11.5" stroke="#121212" fill="none"/>
        <circle r="11" fill="url('#smallKnobLight')"/>
        <circle r="10" fill="url('#smallKnobDark')"/>
      </g>
    </symbol>

    <symbol id="toggleButton" >
      <g transform="translate(9 9)">
        <polyline points="-5,0 5,0" stroke-width="1" class="blueprint"/>
        <polyline points="0,-5 0,5" stroke-width="1" class="blueprint"/>
        <circle cx="0" cy="0" r="8.5" stroke-width="2" class="blueprint"/>
      </g>
    </symbol>

    <symbol id="port" >
      <g transform="translate(12 12)">
        <polyline points="-5,0 5,0" stroke-width="1" class="blueprint"/>
        <polyline points="0,-5 0,5" stroke-width="1" class="blueprint"/>
        <circle cx="0" cy="0" r="10.5" stroke-width="2" class="blueprint"/>
      </g>
    </symbol>
    <symbol id="led-strip">
      <g transform="translate(5 2.5)">
         <circle cx="0" cy= "0" r="2" stroke-width="1" class="blueprint"/>
         <circle cx="0" cy="14" r="2" stroke-width="1" class="blueprint"/>
         <circle cx="0" cy="28" r="2" stroke-width="1" class="blueprint"/>
         <circle cx="0" cy="42" r="2" stroke-width="1" class="blueprint"/>
         <circle cx="0" cy="56" r="2" stroke-width="1" class="blueprint"/>
         <circle cx="0" cy="70" r="2" stroke-width="1" class="blueprint"/>
         <circle cx="0" cy="84" r="2" stroke-width="1" class="blueprint"/>
         <circle cx="0" cy="98" r="2" stroke-width="1" class="blueprint"/>
      </g>
    </symbol>

  </defs>

  <!-- ======== body ======== -->  

  <rect class="background" width="100%" height="100%"/>
  <text class="title" x="50%" y="16"  text-anchor="middle">FOO</text>
  <text class="logo" x="50%" y="376" text-anchor="middle">RM</text>

  <rect x="0" y="35" width="135" height="116" fill="#121212"/>

  <g transform="translate(31 46.5)">
    <g transform="translate(-17 0)">
      <text x="0" y= "0" class="led-label" text-anchor="end">0</text>
      <text x="0" y="14" class="led-label" text-anchor="end">-3</text>
      <text x="0" y="28" class="led-label" text-anchor="end">-6</text>
      <text x="0" y="42" class="led-label" text-anchor="end">-9</text>
      <text x="0" y="56" class="led-label" text-anchor="end">-12</text>
      <text x="0" y="70" class="led-label" text-anchor="end">-18</text>
      <text x="0" y="84" class="led-label" text-anchor="end">-24</text>
      <text x="0" y="98" class="led-label" text-anchor="end">-36</text>
    </g>
  </g>

  <!-- labels -->  
  <g transform="translate(10 0)">
    <g transform="translate(0 168)">
      <text x="0" y="3" class="label" text-anchor="middle">V</text>
    </g>
    <g transform="translate(0 198)">
      <text x="0" y="3" class="label" text-anchor="middle">V</text>
    </g>
    <g transform="translate(0 228)">
      <text x="0" y="3" class="label" text-anchor="middle">M</text>
    </g>
    <g transform="translate(0 258)">
      <text x="0" y="3" class="label" text-anchor="middle">P</text>
    </g>
    <g transform="translate(0 288)">
      <text x="0" y="3" class="label" text-anchor="middle">P</text>
    </g>
    <g transform="translate(0 318)">
      <text x="0" y="3" class="label" text-anchor="middle">L</text>
    </g>
    <g transform="translate(0 348)">
      <text x="0" y="3" class="label" text-anchor="middle">R</text>
    </g>
  </g>

  <!-- ch1 -->  

  <g transform="translate(31 31)">
    <text x="0" y="0" class="big-label" text-anchor="middle">1</text>
  </g>

  <g transform="translate(31 41)">
    <g transform="translate(-6 0)">
      <use xlink:href="#led-strip" transform="translate(-5 0)"/>
    </g>
    <g transform="translate(6 0)">
      <use xlink:href="#led-strip" transform="translate(-5 0)"/>
    </g>
  </g>

  <g transform="translate(31 168)">
    <use xlink:href="#knob24" transform="translate(-12 -12)"/>
  </g>
  <g transform="translate(31 198)">
    <use xlink:href="#port" transform="translate(-12 -12)"/>
  </g>
  <g transform="translate(31 228)">
    <use xlink:href="#toggleButton" transform="translate(-9 -9)"/>
  </g>
  <g transform="translate(31 258)">
    <use xlink:href="#knob24" transform="translate(-12 -12)"/>
  </g>
  <g transform="translate(31 288)">
    <use xlink:href="#port" transform="translate(-12 -12)"/>
  </g>
  <g transform="translate(31 318)">
    <use xlink:href="#port" transform="translate(-12 -12)"/>
  </g>
  <g transform="translate(31 348)">
    <use xlink:href="#port" transform="translate(-12 -12)"/>
  </g>

  <!-- ch2 -->  

  <g transform="translate(72 31)">
    <text x="0" y="0" class="big-label" text-anchor="middle">2</text>
  </g>

  <g transform="translate(72 41)">
    <g transform="translate(-6 0)">
      <use xlink:href="#led-strip" transform="translate(-5 0)"/>
    </g>
    <g transform="translate(6 0)">
      <use xlink:href="#led-strip" transform="translate(-5 0)"/>
    </g>
  </g>

  <g transform="translate(72 168)">
    <use xlink:href="#knob24" transform="translate(-12 -12)"/>
  </g>
  <g transform="translate(72 198)">
    <use xlink:href="#port" transform="translate(-12 -12)"/>
  </g>
  <g transform="translate(72 228)">
    <use xlink:href="#toggleButton" transform="translate(-9 -9)"/>
  </g>
  <g transform="translate(72 258)">
    <use xlink:href="#knob24" transform="translate(-12 -12)"/>
  </g>
  <g transform="translate(72 288)">
    <use xlink:href="#port" transform="translate(-12 -12)"/>
  </g>
  <g transform="translate(72 318)">
    <use xlink:href="#port" transform="translate(-12 -12)"/>
  </g>
  <g transform="translate(72 348)">
    <use xlink:href="#port" transform="translate(-12 -12)"/>
  </g>

  <!-- mix -->  

  <g transform="translate(113 31)">
    <text x="0" y="0" class="big-label" text-anchor="middle">MIX</text>
  </g>

  <g transform="translate(113 41)">
    <g transform="translate(-6 0)">
      <use xlink:href="#led-strip" transform="translate(-5 0)"/>
    </g>
    <g transform="translate(6 0)">
      <use xlink:href="#led-strip" transform="translate(-5 0)"/>
    </g>
  </g>

  <g transform="translate(113 168)">
    <use xlink:href="#knob24" transform="translate(-12 -12)"/>
  </g>
  <g transform="translate(113 198)">
    <use xlink:href="#port" transform="translate(-12 -12)"/>
  </g>
  <g transform="translate(113 228)">
    <use xlink:href="#toggleButton" transform="translate(-9 -9)"/>
  </g>

  <g transform="translate(113 318)">
    <rect x="-15" y="-15" width="30" height="60" rx="3" class="output"/>
    <use xlink:href="#port" transform="translate(-12 -12)"/>
  </g>
  <g transform="translate(113 348)">
    <use xlink:href="#port" transform="translate(-12 -12)"/>
  </g>

</svg>
