<svg
  version="1.1"
  xmlns="http://www.w3.org/2000/svg"
  xmlns:xlink="http://www.w3.org/1999/xlink"
  width="45"
  height="380"
  viewBox="0 0 45 380"
>

  <style>
    text.title {
      fill: #a91913;
      font-family: 'DIN Alternate';
      font-size: 12pt;
    }
    text.logo {
      fill: #a91913;
      font-family: 'DIN Alternate';
      font-size: 10pt;
    }
    text.big-label {
      fill: #343434;
      font-family: 'DIN Alternate';
      font-size: 7.5pt;
    }
    text.label {
      fill: #343434;
      font-family: 'DIN Alternate';
      font-size: 6pt;
    }
    .background {
      fill: #e0e0e0;
    }
    .output {
      fill: #bbbbbb;
    }
    polyline.icon {
      stroke: #343434;
      stroke-width: 1.2;
      fill: none;
    }
    polyline.connect {
      stroke: #343434;
      stroke-width: 1;
      fill: none;
    }

    .blueprint {
      stroke: #08f;
      fill: none;
    }
  </style>

  <!-- ======== defs ======== -->  

  <defs>

    <symbol id="port" >
      <g transform="translate(12 12)">
        <polyline points="-5,0 5,0" stroke-width="1" class="blueprint"/>
        <polyline points="0,-5 0,5" stroke-width="1" class="blueprint"/>
        <circle cx="0" cy="0" r="10.5" stroke-width="2" class="blueprint"/>
      </g>
    </symbol>

    <symbol id="toggleButton" >
      <g transform="translate(9 9)">
        <polyline points="-5,0 5,0" stroke-width="1" class="blueprint"/>
        <polyline points="0,-5 0,5" stroke-width="1" class="blueprint"/>
        <circle cx="0" cy="0" r="8.5" stroke-width="2" class="blueprint"/>
      </g>
    </symbol>

    <symbol id="meter" >
        <g transform="translate(20 6)">

          <text x="-14.5" y= "3"  class="label">6</text> 
          <text x="-14.5" y="18"  class="label">3</text> 
          <text x="-14.5" y="33"  class="label">0</text> 
          <text x="-14.5" y="48"  class="label">3</text> 
          <text x="-14.5" y="63"  class="label">6</text> 
          <text x="-18"   y="84"  class="label">12</text>
          <text x="-18"   y="105" class="label">24</text>
          <text x="-18"   y="126" class="label">48</text>
          <text x="-17.5" y="145" class="label">∞</text> 

          <polyline points="-9   0   -6   0" class="connect"/>
          <polyline points="-9  15   -6  15" class="connect"/>
          <polyline points="-9  30   -6  30" class="connect"/>
          <polyline points="-9  45   -6  45" class="connect"/>
          <polyline points="-9  60   -6  60" class="connect"/>
          <polyline points="-9  81   -6  81" class="connect"/>
          <polyline points="-9 102   -6 102" class="connect"/>
          <polyline points="-9 123   -6 123" class="connect"/>
          <polyline points="-9 142.5 -6 142.5" class="connect"/>

          <polyline points="6   0   9   0" class="connect"/>
          <polyline points="6  15   9  15" class="connect"/>
          <polyline points="6  30   9  30" class="connect"/>
          <polyline points="6  45   9  45" class="connect"/>
          <polyline points="6  60   9  60" class="connect"/>
          <polyline points="6  81   9  81" class="connect"/>
          <polyline points="6 102   9 102" class="connect"/>
          <polyline points="6 123   9 123" class="connect"/>
          <polyline points="6 142.5 9 142.5" class="connect"/>

          <rect x="-5" y="-2" width="10" height="146" rx="2" fill="#121212"/>
        </g>
    </symbol>

    <symbol id="fader" >
        <g transform="translate(6 8)">
          <polyline points="0,0 0,144" stroke-width="1" class="blueprint"/>

          <rect x="-6" y="-8" width="12" height="16" stroke-width="2" class="blueprint"/>
          <polyline points="-6,0 6,0" stroke-width="1" class="blueprint"/>

          <g transform="translate(0 144)">
            <rect x="-6" y="-8" width="12" height="16" stroke-width="2" class="blueprint"/>
            <polyline points="-6,0 6,0" stroke-width="1" class="blueprint"/>
          </g>
        </g>
    </symbol>

  </defs>

  <!-- ======== header/footer ======== -->  

  <rect class="background" width="100%" height="100%"/>
  <text class="title" x="50%" y="30"  text-anchor="middle">GAIN</text>
  <text class="logo" x="48%" y="376" text-anchor="middle">RM</text>

  <!-- ======== track ======== -->  

  <g transform="translate(21 46)">
    <use xlink:href="#meter" transform="translate(-20 -5)"/>
    <g transform="translate(12 0)">
      <use xlink:href="#fader" transform="translate(-6 -8)"/>
    </g>
  </g>

  <!-- ======== params and ports ======== -->  

  <g transform="translate(22.5 217)">
    <use xlink:href="#toggleButton" transform="translate(-9 -9)"/>
    <text x="0" y="19" class="label" text-anchor="middle">MUTE</text>
  </g>

  <g transform="translate(22.5 254)">
    <use xlink:href="#port" transform="translate(-12 -12)"/>
    <text x="0" y="22" class="label" text-anchor="middle">LEVEL</text>
  </g>

  <!-- ======== inputs ======== -->  

  <g transform="translate(22.5 292)">
    <use xlink:href="#port" transform="translate(-12 -12)"/>
    <text x="0" y="22" class="label" text-anchor="middle">IN</text>
  </g>

  <!-- ======== outputs ======== -->  

  <g transform="translate(22.5 334)">
    <rect x="-16" y="-16" width="32" height="42" rx="3" class="output"/>
    <use xlink:href="#port" transform="translate(-12 -12)"/>
    <text x="0" y="22" class="label" text-anchor="middle">OUT</text>
  </g>

</svg>
