<svg
  version="1.1"
  xmlns="http://www.w3.org/2000/svg"
  xmlns:xlink="http://www.w3.org/1999/xlink"
  width="135"
  height="380"
  viewBox="0 0 135 380"
>

  <!-- ============== styles ============== -->

  <style>

    text.title {
      fill: #a91913;
      font-family: 'DIN Alternate';
      font-size: 11.5pt;
    }
    text.logo {
      fill: #a91913;
      font-family: 'DIN Alternate';
      font-size: 10pt;
    }
    text.big-label {
      fill: #343434;
      font-family: 'DIN Alternate';
      font-size: 7.5pt;
    }
    text.label {
      fill: #343434;
      font-family: 'DIN Alternate';
      font-size: 6pt;
    }

    .background {
      fill: #dfdfdf;
    }
    .main-output {
      fill: #abc6a8;
    }
    .alt-output {
      fill: #9ebcd0;
    }

    polyline.icon {
      stroke: #343434;
      stroke-width: 1.2;
      fill: none;
    }
    polyline.connect {
      stroke: #343434;
      stroke-width: 1;
      fill: none;
    }

    rect.lcd-bg {
      fill: #121212;
    }
    rect.lcd-bg-frame {
      fill: #888888;
    }
    rect.lcd-bg-accent {
      fill: #2a2a2a;
    }
    text.lcd-label {
      fill: #777777;
      font-family: 'Monaco';
      font-size: 5pt;
    }
    polyline.lcd-tick {
      stroke: #707070;
      stroke-width: 1;
      fill: none;
    }

    .blueprint {
      stroke: #838598;
      fill: none;
    }

  </style>

  <!-- ======== defs ======== -->  

  <defs>

    <linearGradient id="smallKnobLight" x1="0%" y1="0%" x2="0%" y2="100%">
      <stop offset="0%"   stop-color="#6f6f6f" />
      <stop offset="100%" stop-color="#3c3836" />
    </linearGradient>

    <linearGradient id="smallKnobDark" x1="0%" y1="0%" x2="0%" y2="100%">
      <stop offset="0%"   stop-color="#494949" />
      <stop offset="100%" stop-color="#282828" />
    </linearGradient>

    <symbol id="knob24" >
      <g transform="translate(12 12)">
        <circle r="11.5" stroke="#121212" fill="none"/>
        <circle r="11" fill="url('#smallKnobLight')"/>
        <circle r="10" fill="url('#smallKnobDark')"/>
      </g>
    </symbol>

    <symbol id="toggleButton" >
      <g transform="translate(9 9)">
        <polyline points="-5,0 5,0" stroke-width="1" class="blueprint"/>
        <polyline points="0,-5 0,5" stroke-width="1" class="blueprint"/>
        <circle cx="0" cy="0" r="8.5" stroke-width="2" class="blueprint"/>
      </g>
    </symbol>

    <symbol id="port" >
      <g transform="translate(12 12)">
        <polyline points="-5,0 5,0" stroke-width="1" class="blueprint"/>
        <polyline points="0,-5 0,5" stroke-width="1" class="blueprint"/>
        <circle cx="0" cy="0" r="10.5" stroke-width="2" class="blueprint"/>
      </g>
    </symbol>

    <symbol id="meter-strip" >
      <g transform="translate(20 4)">
        <rect x="-6" y="-1" width="5" height="106" class="lcd-bg-accent"/>
        <rect x="1"  y="-1" width="5" height="106" class="lcd-bg-accent"/>
        <g transform="translate(-11 2.5)">
          <text x="0" y=  "0" class="lcd-label" text-anchor="end">0</text>
          <text x="0" y= "13" class="lcd-label" text-anchor="end">3</text>
          <text x="0" y= "26" class="lcd-label" text-anchor="end">6</text>
          <text x="0" y= "39" class="lcd-label" text-anchor="end">9</text>
          <text x="0" y= "52" class="lcd-label" text-anchor="end">12</text>
          <text x="0" y= "65" class="lcd-label" text-anchor="end">18</text>
          <text x="0" y= "78" class="lcd-label" text-anchor="end">24</text>
          <text x="0" y= "91" class="lcd-label" text-anchor="end">36</text>
          <text x="0" y="104" class="lcd-label" text-anchor="end">48</text>
        </g>
        <g transform="translate(-10 0)">
          <polyline points="0   0 2   0" class="lcd-tick"/>
          <polyline points="0  13 2  13" class="lcd-tick"/>
          <polyline points="0  26 2  26" class="lcd-tick"/>
          <polyline points="0  39 2  39" class="lcd-tick"/>
          <polyline points="0  52 2  52" class="lcd-tick"/>
          <polyline points="0  65 2  65" class="lcd-tick"/>
          <polyline points="0  78 2  78" class="lcd-tick"/>
          <polyline points="0  91 2  91" class="lcd-tick"/>
          <polyline points="0 104 2 104" class="lcd-tick"/>
        </g>
      </g>
    </symbol>

  </defs>

  <!-- ======== body ======== -->  

  <rect class="background" width="100%" height="100%"/>
  <text class="title" x="50%" y="16"  text-anchor="middle">MIX-2</text>
  <text class="logo" x="50%" y="376" text-anchor="middle">RM</text>

  <rect x="0" y="35" width="100%" height="2" class="lcd-bg-frame"/>
  <rect x="0" y="155" width="100%" height="2" class="lcd-bg-frame"/>
  <rect x="0" y="36" width="100%" height="120" class="lcd-bg"/>

  <!-- labels -->  
  <g transform="translate(10 0)">
    <g transform="translate(0 174)">
      <text x="0" y="3" class="label" text-anchor="middle">V</text>
    </g>
    <g transform="translate(0 203)">
      <text x="0" y="3" class="label" text-anchor="middle">V</text>
    </g>
    <g transform="translate(0 232)">
      <text x="0" y="3" class="label" text-anchor="middle">M</text>
    </g>
    <g transform="translate(0 261)">
      <text x="0" y="3" class="label" text-anchor="middle">P</text>
    </g>
    <g transform="translate(0 290)">
      <text x="0" y="3" class="label" text-anchor="middle">P</text>
    </g>
    <g transform="translate(0 319)">
      <text x="0" y="3" class="label" text-anchor="middle">L</text>
    </g>
    <g transform="translate(0 348)">
      <text x="0" y="3" class="label" text-anchor="middle">R</text>
    </g>
  </g>

  <!-- 1 -->  

  <g transform="translate(31 32)">
    <text x="0" y="0" class="big-label" text-anchor="middle">1</text>
  </g>

  <g transform="translate(31 44)">
    <use xlink:href="#meter-strip" transform="translate(-20 -4)"/>
  </g>

  <g transform="translate(31 174)">
    <use xlink:href="#knob24" transform="translate(-12 -12)"/>
  </g>
  <g transform="translate(31 203)">
    <use xlink:href="#port" transform="translate(-12 -12)"/>
  </g>
  <g transform="translate(31 232)">
    <use xlink:href="#toggleButton" transform="translate(-9 -9)"/>
  </g>
  <g transform="translate(31 261)">
    <use xlink:href="#knob24" transform="translate(-12 -12)"/>
  </g>
  <g transform="translate(31 290)">
    <use xlink:href="#port" transform="translate(-12 -12)"/>
  </g>
  <g transform="translate(31 319)">
    <use xlink:href="#port" transform="translate(-12 -12)"/>
  </g>
  <g transform="translate(31 348)">
    <use xlink:href="#port" transform="translate(-12 -12)"/>
  </g>

  <!-- 2 -->  

  <g transform="translate(72 32)">
    <text x="0" y="0" class="big-label" text-anchor="middle">2</text>
  </g>

  <g transform="translate(72 44)">
    <use xlink:href="#meter-strip" transform="translate(-20 -4)"/>
  </g>

  <g transform="translate(72 174)">
    <use xlink:href="#knob24" transform="translate(-12 -12)"/>
  </g>
  <g transform="translate(72 203)">
    <use xlink:href="#port" transform="translate(-12 -12)"/>
  </g>
  <g transform="translate(72 232)">
    <use xlink:href="#toggleButton" transform="translate(-9 -9)"/>
  </g>
  <g transform="translate(72 261)">
    <use xlink:href="#knob24" transform="translate(-12 -12)"/>
  </g>
  <g transform="translate(72 290)">
    <use xlink:href="#port" transform="translate(-12 -12)"/>
  </g>
  <g transform="translate(72 319)">
    <use xlink:href="#port" transform="translate(-12 -12)"/>
  </g>
  <g transform="translate(72 348)">
    <use xlink:href="#port" transform="translate(-12 -12)"/>
  </g>

  <!-- mix -->  

  <g transform="translate(113 32)">
    <text x="0" y="0" class="big-label" text-anchor="middle">MIX</text>
  </g>

  <g transform="translate(113 44)">
    <use xlink:href="#meter-strip" transform="translate(-20 -4)"/>
  </g>

  <g transform="translate(113 174)">
    <use xlink:href="#knob24" transform="translate(-12 -12)"/>
  </g>
  <g transform="translate(113 203)">
    <use xlink:href="#port" transform="translate(-12 -12)"/>
  </g>
  <g transform="translate(113 232)">
    <use xlink:href="#toggleButton" transform="translate(-9 -9)"/>
  </g>

  <g transform="translate(113 261)">
    <rect x="-22" y="-14" width="37" height="57" rx="4" class="alt-output"/>

    <text x ="-16.5" y="2.5" class="label" text-anchor="middle">L</text>
    <use xlink:href="#port" transform="translate(-12 -12)"/>
  </g>
  <g transform="translate(113 290)">
    <text x ="-16.5" y="2.5" class="label" text-anchor="middle">R</text>
    <use xlink:href="#port" transform="translate(-12 -12)"/>
  </g>

  <g transform="translate(113 319)">
    <rect x="-22" y="-14" width="37" height="57" rx="4" class="main-output"/>

    <text x ="-16.5" y="2.5" class="label" text-anchor="middle">L</text>
    <use xlink:href="#port" transform="translate(-12 -12)"/>
  </g>
  <g transform="translate(113 348)">
    <text x ="-16.5" y="2.5" class="label" text-anchor="middle">R</text>
    <use xlink:href="#port" transform="translate(-12 -12)"/>
  </g>

</svg>
